<svg xmlns="http://www.w3.org/2000/svg" width="140" height="108" viewBox="0 0 140 108">
    <g fill="none" fill-rule="evenodd" stroke="#000">
        <path fill="#FFF" stroke-width="3" d="M37.337 57.702c-4.933 32.481 45.77 52.906 55.983 44.342C103.651 93.38 110 80.404 110 58.604c0-14.17-5.415-22.426-15.2-26.47l-22.563-2.75c-23.23 18.631-34.862 28.07-34.9 28.318z"/>
        <path fill="#FFF" stroke-linejoin="round" stroke-width="3" d="M29 28.68c1.926 1.74 5.229 2.609 9.908 2.609 3.25 0 7.647-1.77 12.61-2.609 1.455-.245 3.707-.245 6.756 0 1.745-2.698 3.246-4.567 4.503-5.607 5.192-4.295 9.247-5.018 12.16-7.832 3.414-3.298 5.197-8.435 4.503-10.086-2.251-5.357 11.05 9.177 0 17.918-6.225 4.925.978.882 9.007 0 6.221-.684 13.118 2.171 13.511 2.171.9 0-12.875 16.515-27.922 10.267-7.334-3.046.96 2.7 2.702 9.65 1.831 7.306-2.689 15.932-2.702 16.643-.012.675-7.11-.001-13.51-8.435-1.576-2.075-2.477-6.242-2.703-12.5-5.748 7.391-9.864 11.855-12.35 13.393-9.331 5.775-15.064 3.572-15.064 3.572s1.439-6.405 6.393-11.607c1.567-1.646 4.821-3.432 9.762-5.358-6.043-.876-10.396-2.152-13.06-3.828-2.664-1.677-4.165-4.464-4.504-8.36z"/>
        <path stroke-linecap="round" stroke-width="4" d="M94.237 39.666L96 43M101.237 52.666L103 56M98.237 68.666L100 72M94.237 79.666L96 83M93.237 90.666L95 94M44 10c4.846 3.278 8.622 6.666 11.329 10.163C58.035 23.66 60.259 28.273 62 34M42.237 62.666L44 66M53.237 78.666L55 82M78.237 66.666L80 70M73.237 79.666L75 83M82.237 95.666L84 99M83.237 84.666L85 88M81.237 45.666L83 49M54.237 67.666L56 71M55.237 55.666L57 59M65.237 71.666L67 75M61.237 84.666L63 88M72.237 91.666L74 95M89.237 59.666L91 63M91.237 48.666L93 52M85.237 72.666L87 76"/>
    </g>
</svg>
