<svg xmlns="http://www.w3.org/2000/svg" width="140" height="108" viewBox="0 0 140 108">
    <g fill="#FFF" fill-rule="evenodd" stroke="#000" stroke-width="1.2">
        <path d="M96.013 26.996c.3-.054 4.695-2.424 9.618-3.725 4.92-1.3 10.369-1.53 10.369-1.019 0 .492-4.592 2.134-9.46 3.172-5.271 1.124-10.84 1.628-10.527 1.572zM85.001 38c.16 0 7.982-3.003 12.856-4.211 1.625-.403 3.638-1.015 3.976-.704.655.602-.545 1.763-4.806 2.813C92.507 37.012 84.891 38 85.001 38zM89 36c6.909-5.977 10.859-8.605 11.85-7.883.993.722-2.958 3.35-11.85 7.883z"/>
        <path stroke-linejoin="round" d="M59 69c13.246 1.535 19.912 3.024 20 4.467.086 1.443-6.58-.046-20-4.467z"/>
        <path d="M50.008 79.854c.46-.59 15.558-4.095 17.818-2.391 2.26 1.703-18.279 2.98-17.818 2.391z"/>
        <path stroke-linejoin="round" d="M48 82.001s18.517 3.163 21.716 1.532C72.916 81.902 48 82 48 82z"/>
        <path d="M46.756 80.958c0-1.146-3.751-23.787-2.5-23.957.561-.077 2.051 5.782 2.5 11.275.55 6.731 0 13.313 0 12.682z"/>
        <path stroke-linejoin="round" d="M51.428 75.972c0-.61-.963-7.624 0-13.104.973-5.53 2.796-5.39 3.28-5.81 1.504-1.305-3.28 19.814-3.28 18.914z"/>
        <path d="M59 68c-5.01-14.866-6.882-22.526-5.618-22.98C54.646 44.563 56.519 52.224 59 68z"/>
        <path d="M58.41 65.986c0-.445-1.764-6.322-1.346-11.257.163-1.914 1.605-4.762 2.187-5.493 2.084-2.615-.84 17.368-.84 16.75zM64 59c1.926-9.096 3.469-13.76 4.627-13.992C69.786 44.776 68.243 49.44 64 59z"/>
        <path stroke-linejoin="round" d="M71 53c-2.388-6.755-3.7-11.463-3.936-14.125-.386-4.358 1.05-9.875 2.052-9.875.98 0 .082 6.567.389 10.74.196 2.666.694 7.086 1.495 13.26z"/>
        <path d="M71 52c.25-12.752 1.291-18.729 3.124-17.93 1.832.8.79 6.777-3.124 17.93zM78.99 45c-.997-1.181-1.63-2.51-1.902-3.985C75.558 32.696 75.769 25 76.933 25c1.474 0 2.16 6.667 2.057 20zM80 43.961c.027-1.05.932-20.29 3.397-19.957 2.465.335-3.424 21.007-3.397 19.957zM84 41c1.204-13.23 2.645-20.8 4.323-22.711C90.001 16.378 88.56 23.948 84 41z"/>
        <path stroke-linejoin="round" d="M92.151 32c-.388-14.207-.03-21.534 1.077-21.98 1.106-.448 1.024 6.88-.248 21.98"/>
        <path d="M94.718 28.963c0-.5-1.15-.876-.54-6.773.716-6.928 3.238-19.408 3.702-18.094.859 2.432-3.162 25.955-3.162 24.867zM96 26c.033-.117 8.407-21.915 10.725-20.97C109.042 5.975 95.967 26.116 96 26z"/>
        <path d="M98.221 22.444C97.681 23.74 109.312 5 111.684 5c1.836 0-4.76 8.709-8.77 13.591-1.17 1.426-4.065 4.855-4.729 5.145-2.936 1.282.576-2.588.036-1.292z"/>
        <path d="M97.024 23.9C97.77 22.773 113 10.57 113 13.434c0 2.864-16.722 11.594-15.976 10.466z"/>
        <path stroke-linejoin="round" d="M35.743 90.816s-9.674 7.638-13.11 9.027c-2.29.926-2.172 2.311.355 4.157 11.002-7.862 17.924-13.919 20.765-18.17 1.257-1.881 4.12-4.408 7.273-7.885 2.647-2.918 7.93-8.673 15.851-17.265l19.44-21.002L104 18C92.803 30.008 86.91 36.518 86.317 37.53c-.592 1.014-5.403 6.238-14.432 15.674l-7.38 7.476L44.31 82.294l-8.566 8.522z"/>
        <path stroke-linejoin="round" d="M64 61.912c16.674-3.023 25.33-3.692 25.967-2.008.638 1.683-8.018 2.353-25.967 2.008z"/>
        <path d="M63.58 60.999c-.022-.185-2.932-19.113-.799-21.795 2.134-2.682.822 21.98.8 21.795z"/>
        <path stroke-linejoin="round" d="M37 89c2.634-17.15 4.526-25.11 5.674-23.876C43.824 66.358 41.932 74.316 37 89zM39.801 91.03s25.945-6.06 26.197-3.318C66.165 89.539 56.833 90.968 38 92l1.801-.97z"/>
        <path d="M42.938 84.999c-.323-.178-6.582-22.374-5.884-21.994.304.165 3.065 4.118 4.314 8.821 1.62 6.098 1.752 13.273 1.57 13.173z"/>
        <path stroke-linejoin="round" d="M42 85c14.992 1.612 21.957 3.619 20.895 6.02-1.063 2.4-8.028.393-20.895-6.02zM52 74s24.99-8.07 25.974-5.492C78.958 71.087 52 74 52 74zM65 60.995c0-.11 15.77-5.534 16.945-3.565C83.121 59.4 65 61.104 65 60.995zM71.459 53.271c7.257-4.993 11.396-7.005 12.418-6.034C85.409 48.693 72.177 54 71 54M83 44c10.593-3.627 16.512-5.28 17.758-4.961.855.22-.402 1.573-6.289 3.048-1.797.45-5.62 1.088-11.469 1.913z"/>
        <path d="M58.002 67.62c.238-.4 25.881-4.414 25.998-1.663.116 2.751-26.237 2.062-25.998 1.663z"/>
        <path stroke-linejoin="round" d="M79 45s15.283-3.125 16.9-1.563C97.517 45 79 45 79 45z"/>
        <path d="M71.012 54.01c.54-.253 15.966 4.541 16.95 6.654.984 2.112-17.49-6.402-16.95-6.654z"/>
        <path stroke-linejoin="round" d="M73.483 52.366c14.754-2.5 22.575-3.019 23.463-1.558C98.278 53 74.579 53.288 73 52.792"/>
    </g>
</svg>
