<svg xmlns="http://www.w3.org/2000/svg" width="140" height="108" viewBox="0 0 140 108">
    <g fill="#FFF" fill-rule="evenodd">
        <path d="M29.47 73.34l23.06 13.95L98.672 91l15.303-12.678L123 60.387l-2.705-19.413L97.19 20.53 56.387 13 14 35.477l1.026 29.892z"/>
        <path stroke="#000" stroke-width="3" d="M122.695 61c1.96-1.835 3.402-4.588 3.74-5.436 2.115-5.308-2.33-6.549-3.172-9.239-1.185-3.779 1.01-7.232 0-9.123-2.17-4.06-8.337-6.786-13.747-8.369-3.975-1.162-4.086-8.833-8.46-8.833-1.74 0-3.432.263-5.056.76"/>
        <path stroke="#000" stroke-width="3" d="M101.534 59.18c2.155-2.935 3.686-6.28 4.42-9.977.416-2.097-2.126-6.493-2.126-8.703 0-2.463 2.78-6.968 1.016-9.171-1.76-2.199-5.935-1.607-7.289-4.212-2.228-4.289-1.05-10.242-5.021-12.97-3.078-2.115-8.812-.623-12.086-2.045-5.826-2.529-7.144-5.259-15.734-3.59-3.271.636-5.611 1.726-7.714 3.077"/>
        <path stroke="#000" stroke-width="3" d="M82 36c-.088-.668-.089-.718-.317-1.341C79.52 28.776 71.368 25 62.785 25c-2.936 0-5.138.442-6.785 1.26"/>
        <path stroke="#000" stroke-width="3" d="M75 41.074c-2.144-1.409-5.113.368-6.484-1.708-2.575-3.9 1.042-6.805-1.229-8.022-1.992-1.067-5.185-.715-7.312-1.478C57.652 29.034 57.137 25 54.608 25c-2.257 0-2.257 1.074-7.736 4.866C40.478 34.292 35.511 36.26 33 42"/>
        <path stroke="#000" stroke-width="3" d="M102.91 68.384c.06-.789.09-1.61.09-2.464 0-9.909-6.167-21.185-12.218-27.872C88.253 35.253 87.2 32 84.296 32c-2.199 0-.258 3.55-2.162 4.751-2.43 1.536-6.172 2.607-8.598 5.078C69.354 46.088 67 52.653 67 59.56c0 6.676 1.803 12.752 4.753 17.29"/>
        <path stroke="#000" stroke-width="3" d="M94.57 96c2.815-.388 6.096-1.407 9.953-3.16 4.448-2.023 7.375-6.36 9.482-9.33 1.596-2.25 4.704-4.04 6.256-6.743 1.776-3.093 5.932.037 8.493-.923 1.128-.424 3.87-1.471 4.214-3.847.306-2.111-1.699-5.537-2.107-6.473-.877-2.013-3.79.017-5.453-1.646-1.683-1.682-2.569-4.239-5.147-4.81-3.908-.864-11.989 6.644-18.9 10.181-4.68 2.396-8.951.335-10.535 2.748-3.538 5.395-6.59 7.476-8.826 8.429M32.521 62c2.792-5.538-3.762-12.285 3.567-28.58 2.233-4.965 4.593-11.142 8.152-13.327 2.776-1.704 6.599.24 8.876-1.221 4.353-2.793 6.625-7.179 3.281-8.61-3.435-1.468-7.241 3.61-15.816 5.549-3.98.9-8.786-2.15-13.31-1.305-6.547 1.224-12.522 6.746-14.698 11.913-2.31 5.482 3.133 11.097 2.723 16.305-.705 8.954-3.316 13.103-1.036 16.695a6.9 6.9 0 0 0 .685.898"/>
        <path stroke="#000" stroke-width="3" d="M47.975 97.208c4.894 1.787 7.726-2.361 12.266-1.471 7.438 1.458 12.808 5.14 18.418 6.028 7.474 1.184 14.356-2.289 15.648-6.38 3.336-10.558-6.234-7.514-10.369-11.605-2.691-2.664-.615-5.487-5.279-7.597-2.795-1.265-7.823 1.433-10.98 0-2.61-1.186-4.64-5.01-7.438-6.202-1.955-.833-1.105-5.65-3.176-6.407-1.198-.437-4.91.606-6.175 0-3.738-1.787-5.2-5.514-8.705-5.573-3.624-.062-6.55 3.441-9.87 3.25-4.661-.268-8.908-2.971-12.396-2.269-6.967 1.403-10.282 5.023-11.67 8.852-1.687 4.647 5.476-.156 13.502 5.226.337.227.675.475 1.014.742 7.005 5.533 5.555 13.954 25.21 23.406z"/>
        <path stroke="#000" stroke-linecap="round" stroke-width="3" d="M93 88c3.531-.572 6.81-1.594 9.835-3.065 3.025-1.472 6.747-4.45 11.165-8.935M93.545 70c.607-6.064.607-10.981 0-14.75-.608-3.77-2.79-7.186-6.545-10.25"/>
        <path stroke="#000" stroke-linecap="round" stroke-width="3" d="M83 54c1.933 1.191 3.6 2.55 5 4.076 1.4 1.526 3.067 4.168 5 7.924M33 43c-1.209-4.855-2.383-8.296-3.523-10.323C28.337 30.65 26.51 28.758 24 27"/>
        <path stroke="#000" stroke-linecap="round" stroke-linejoin="round" stroke-width="3" d="M44 94c.393-1.24.896-2.797 1.507-4.668 1.303-3.986 4.6-12.086 4.49-14.596C49.81 70.46 47.811 67.215 44 65"/>
        <path stroke="#000" stroke-linecap="round" stroke-linejoin="round" stroke-width="3" d="M46 87c-1.057-4.531-2.707-8.143-4.951-10.835C38.805 73.472 35.456 71.084 31 69"/>
    </g>
</svg>
