<svg xmlns="http://www.w3.org/2000/svg" width="140" height="108" viewBox="0 0 140 108">
    <g fill="none" fill-rule="evenodd">
        <path fill="#FFF" stroke="#000" d="M17.484 51.94c1.8.443 3.058-1.694 3.345-3.081.286-1.388.286-3.142-.57-4.056-.521-.56-2.016-1.486-3.065 0-.669.945.857 1.808.553 2.893-.435 1.552-1.747.834-1.747 2.356 0 .634.69 1.694 1.484 1.889zM26.416 49.622c-1.449-1.353-3.75-.226-4.749.795-.998 1.02-1.92 2.508-1.603 3.748.194.758 1.103 2.355 2.866 1.667 1.122-.439.15-2 1.006-2.754 1.224-1.08 2.072.242 2.873-1.048.334-.538.247-1.81-.393-2.408zM34.869 30.113c-2.09 1.16-1.567 4.177-.716 5.676.851 1.5 2.212 2.815 3.841 3.166.891.192 2.745-.103 2.361-2.418-.163-.987-1.704-1.126-2.292-2.368-.842-1.777.54-2.194-.233-3.639-.384-.716-2.039-.929-2.961-.417zM50.43 24.766c-1.747 1.63-.51 4.432.68 5.681 1.188 1.249 2.952 2.439 4.492 2.142.94-.181 2.954-1.156 2.22-3.29-.468-1.36-2.44-.308-3.311-1.37-1.247-1.52.425-2.441-1.107-3.474-.638-.43-2.203-.409-2.974.311zM68.166 34.063c-2.188-.51-3.67 2.186-3.99 3.925-.318 1.738-.284 3.927.77 5.05.643.685 2.47 1.806 3.712-.072.791-1.196-1.073-2.237-.727-3.598.496-1.948 2.099-1.082 2.069-2.982-.013-.792-.87-2.098-1.834-2.323zM92.633 29.36c-.635-.036-1.303-.061-1.72-.569-1.246-1.52.426-2.44-1.106-3.474-.638-.43-2.203-.408-2.974.311-1.748 1.631-.51 4.433.68 5.681 1.188 1.25 2.952 2.44 4.492 2.142.758-.146 2.213-.808 2.364-2.178M28.078 39.353c2.347.455 3.173-2.276 3.485-3.971.311-1.696.237-3.823-.908-4.894-.7-.654-3.04-2.351-3.767 0-.33 1.066 1.08 2.12.638 3.622-.638 2.173-2.084 1.602-2.084 3.478 0 1.2 1.6 1.564 2.636 1.765zM65.135 55.003c-1.232-1.789-4.015-1.042-5.356-.135-1.34.907-2.718 2.34-2.686 3.767.019.87.603 2.813 2.69 2.433 1.33-.243.668-2.158 1.787-2.804 1.6-.923 2.188.704 3.383-.54.498-.518.725-1.931.182-2.72zM67.452 47.39c1.3 1.34 3.621.202 4.67-.823 1.048-1.024 2.06-2.513 1.85-3.749-.129-.755-.885-2.343-2.65-1.645-1.124.444-.303 1.995-1.192 2.753-1.273 1.085-1.992-.229-2.87 1.064-.367.538-.382 1.807.192 2.4z"/>
        <path fill="#FFF" stroke="#000" d="M76.536 45.096c-1.745-1.17-3.943.5-4.803 1.799-.86 1.297-1.56 3.083-1.014 4.356.335.778 1.56 2.319 3.274 1.227 1.091-.695-.193-2.184.565-3.166 1.085-1.406 2.199-.15 2.807-1.7.253-.646-.06-2-.83-2.516zM45.493 35.414c2.387-.126 2.854-2.898 2.746-4.62-.108-1.72-.53-3.913-1.9-4.675-.838-.465-3.267-1.574-4.077.533-.515 1.342 1.768 2.512 1.753 3.886-.023 1.966-1.024 1.708-.515 3.484.212.74.94 1.448 1.993 1.392zM56.423 37.685c.956 1.319 2.951 2.437 6.525-.768 3.573-3.204 1.826-7.541-.313-6.842-1.443.472-1.413 2.205-2.574 2.993-1.66 1.127-2.449.119-3.638 1.577-.495.608-.63 2.17 0 3.04z"/>
        <path fill="#FFF" stroke="#000" stroke-linejoin="round" d="M101.225 20.919a3.772 3.772 0 0 0-.705 5.39c.924 1.073 2.46 2.027 4.13 1.574 1.02-.276 3.352-1.432 3.12-3.406-.147-1.256-2.455-.03-3.095-.958-.917-1.328 1.046-2.394-.286-3.222-.556-.345-2.185-.154-3.164.622zM98.18 28.816c.819-2.441-.724-4.927-2.038-5.782-.802-.523-3.02-1.006-3.413.305-.32 1.07 1.282 2.01 1.17 3.38-.16 1.96-2.078 3.251-1.827 3.693 1.057 1.855 5.288.846 6.108-1.596z"/>
        <path fill="#FFF" stroke="#000" d="M81.29 37.02c2.388-.126 3.24-3.068 3.132-4.788-.108-1.72-.694-3.767-2.064-4.529-.837-.465-3.006-1.012-3.816 1.094-.516 1.342 1.672 1.804 1.656 3.178-.022 1.966-1.895 1.596-1.385 3.372.212.74 1.424 1.729 2.478 1.673z"/>
        <path fill="#FFF" stroke="#000" stroke-linejoin="round" d="M88.635 44.618c2.246 1.5 6.112-.516 7.194-2.141 1.083-1.626 1.287-3.758.57-5.371-.438-.986-2.191-3.55-4.61-1.764-1.86 1.372.275 2.757-.682 3.986-1.368 1.758-2.808.16-3.566 2.106-.315.81.103 2.523 1.094 3.184z"/>
        <path fill="#000" stroke="#000" d="M84.541 54.39c.483.64 1.753.89 1.892.785.14-.105.204-1.328-.295-1.99-.498-.661-1.08-.73-1.51-.406-.431.325-.57.97-.087 1.61zM74.468 54.857c-.577.557-.67 1.849-.55 1.974.121.125 1.343.04 1.939-.535.596-.576.594-1.16.22-1.55-.376-.388-1.033-.446-1.61.111z"/>
        <path fill="#FFF" stroke="#000" d="M42.114 42.049c-2.102.545-2.352 3.416-1.958 4.986.393 1.57 1.27 3.355 2.62 3.813.825.28 2.85.395 3.206-1.696.227-1.332-1.8-1.366-2.023-2.638-.32-1.82 1.41-1.815.65-3.364-.317-.646-1.567-1.342-2.495-1.101z"/>
        <path fill="#000" stroke="#000" d="M107.677 44.466c-1.108.747-3.407.213-3.601-.075-.195-.289.22-2.469 1.364-3.241 1.145-.772 2.177-.45 2.78.445.605.895.565 2.124-.543 2.871z"/>
        <path stroke="#000" d="M86 54c1.794 5.61 2.38 9.277 1.762 11"/>
        <path stroke="#000001" d="M105 45c-1.808 2.077-2.39 8.744-1.747 20"/>
        <path stroke="#000" d="M21 49h1.233L23 50"/>
        <path stroke="#000" d="M28.615 64c.513-8.56.513-13.961 0-16.202-.262-1.145-1.062-3.597-3.047-3.788-1.984-.192-2.829 2.504-3.548 4.983-.013.046-.02.135-.02.267M32 34.67h1.277l.723-.34M48 30.782l1.414.166L51 30.052"/>
        <path stroke="#000" stroke-linecap="square" d="M33 36l.087 11.146m.032 4.183l.01 1.219.03 3.82.059 7.632"/>
        <path stroke="#000" d="M50.198 31C52.949 45.933 52.55 57.267 49 65"/>
        <path fill="#000" stroke="#000" d="M48.313 44.645c-.8 1.328-.289 2.466.375 2.774.663.307 1.55.362 2.414-.151.528-.314 1.608-1.169 1.013-1.888-.5-.603-1.037.081-1.523-.215-.695-.423.22-.89-.612-1.387-.592-.355-1.323.294-1.667.867zM74.453 38.197c1.15.826 2.103.695 2.7.055.596-.64.977-1.325.582-2.153-.241-.506-1.57-2.031-2.285-1.537-.6.415.057.877-.258 1.302-.452.607-.789-.414-1.486.464-.4.502.25 1.512.747 1.869zM87.7 46.234c-1.32.645-1.729 1.812-1.515 2.977.214 1.164.459 2.449 1.959 2.823 1.119.279 2.095-.675 2.068-1.86-.022-.993-.768-.617-.953-1.3-.265-.977.776-.56.418-2.023-.205-.837-1.407-.895-1.977-.617z"/>
        <path stroke="#000" d="M49 46c-2.373 1.158-3.338 7.158-2.896 18"/>
        <path fill="#FFF" stroke="#000" d="M39.54 53.125c1.249-1.72-.307-3.956-1.556-4.845-1.249-.888-2.99-1.628-4.284-1.107-.79.318-2.381 1.51-1.379 3.25.639 1.107 2.182-.146 3.122.633 1.346 1.116.043 2.204 1.555 2.846.63.267 1.991-.017 2.542-.777z"/>
        <path stroke="#000" d="M40 51c2.327.883 3.3 5.217 2.92 13"/>
        <path stroke="#000" stroke-linejoin="round" d="M40 45.717c-2.235-2.565-4.54-2.256-6.913.927-2.374 3.184-2.723 9.636-1.045 19.356"/>
        <path stroke="#000" d="M64 35c-3.276 6.342-5.452 10.935-6.53 13.778m-2.374 7.62C54.456 59.092 54.09 61.626 54 64"/>
        <path fill="#FFF" stroke="#000" d="M54.286 56.69c2.044.585 3.657-1.927 4.065-3.405.407-1.478.192-3.895-1.011-4.374-2.355-.938-2.643 1.815-3.054 2.966-.588 1.646-1.87 1.053-1.87 2.693 0 1.316.968 1.862 1.87 2.12z"/>
        <path stroke="#000" d="M59.341 54.736L59 53.65c2.194-6.123 4.214-8.018 6.06-5.684 1.61 2.033 2.56 6.354 2.853 12.96.03.65.058 1.675.087 3.074M71 47c-4 7.562-6 13.229-6 17M99 28.65l1.831.35L102 28M100.682 29c.186 4.203.292 7.267.318 9.192m-.217 10.815C100.379 55.71 99.45 61.041 98 65M97 42c-3.564 8.079-5.897 15.412-7 22M88 32l-1.565 2L85 33M86.65 34c1.995 13.324 1.779 23.324-.65 30M74 56c-.667 2.129-1 5.129-1 9M76 37c2.614 1.764 3.52 10.764 2.717 27"/>
        <path stroke="#000" d="M88 50.424h-.317c-2.936-3.232-4.992-3.232-6.167 0-1.175 3.233-1.667 7.758-1.476 13.576"/>
        <path fill="#FFF" stroke="#000" stroke-linejoin="round" stroke-width="3" d="M15 65h103v13H15zM22 78h90v24H22z"/>
        <path fill="#FFF" stroke="#000" d="M99.716 37.778c-2.56.234-3.25 3.583-3.003 5.517.248 1.935 1.037 4.218 2.57 5.024.937.492 3.314 1.025 4.023-1.38.452-1.533-1.937-1.968-2.026-3.517-.127-2.217 1.917-1.873 1.232-3.854-.285-.826-1.666-1.894-2.796-1.79z"/>
        <path fill="#FFF" stroke="#000" stroke-linecap="square" stroke-width="3" d="M22.896 95H112"/>
    </g>
</svg>
