<svg xmlns="http://www.w3.org/2000/svg" width="140" height="108" viewBox="0 0 140 108">
    <g fill="none" fill-rule="evenodd" stroke="#000" stroke-width="3">
        <path fill="#FFF" d="M94.17 67.192c-3.484 4.503-8.892 12.433-10.597 17.342-4.361 12.553-.14 13.556 5.18 15.371 5.32 1.816 10.234 4.502 14.595-8.05 1.987-5.72 3.116-15.192 3.007-20.96"/>
        <path fill="#FFF" d="M101.185 69.604c13.758 4.431 24.275 9.425 29.211 0 4.439-10.768-1.03-26.153-16.616-31.451-15.586-5.299-29.372.49-34.753 11.067-5.38 10.577 8.399 15.954 22.158 20.384z"/>
        <path stroke-linecap="round" d="M87.862 51c4.068-6.587 11.068-9.107 21-7.558"/>
        <path fill="#FFF" d="M56.005 35.71c-.053 4.347.296 11.618 1.506 15.377 3.108 9.646 6.142 8.32 10.218 6.984 4.076-1.336 8.305-1.955 5.198-11.6-1.73-5.371-6.287-13.053-8.9-15.471"/>
        <path fill="#FFF" d="M58.546 34.35c12.14-8.233 24.07-2.909 22.274-12.996C77.898 10.502 65.176 1.625 50.879 6.256c-14.297 4.631-21.686 13.404-19.5 26.967 2.184 13.564 15.028 9.359 27.167 1.126z"/>
        <path stroke-linecap="round" d="M39 36c-3.494-4.383-3.936-8.717-1.326-13"/>
        <g>
            <path fill="#FFF" d="M42.539 81.002c1.922 2.4 7.45 6.772 11.896 9.14 9.066 4.827 10.344 1.738 12.375-2.088 2.031-3.826 4.68-7.239-4.386-12.066-5.048-2.688-11.437-4.95-15.048-4.874"/>
            <path fill="#FFF" d="M45.157 74.953c5.052-9.928 10.142-17.323 3.536-22.21-7.692-4.672-20.112-2.367-26.048 8.846-5.936 11.212-3.18 22.391 4.252 27.756 7.432 5.365 13.209-4.465 18.26-14.392z"/>
            <path stroke-linecap="round" d="M29.695 82.987c-5.008-3.997-6.256-9.715-3.745-17.152"/>
        </g>
    </g>
</svg>
