<svg xmlns="http://www.w3.org/2000/svg" width="140" height="108" viewBox="0 0 140 108">
    <g fill="none" fill-rule="evenodd" stroke="#000" stroke-width="3">
        <path fill="#FFF" d="M51.18 101.368c5.732 2.777 14.511-6.988 32.755-25.787 18.244-18.798 32.409-30.92 13.855-42.866-18.554-11.947-26.99 6.682-36.366 29.887C52.048 85.807 45.45 98.59 51.18 101.368zM95.906 27.754c.028.022 1.374-4.37 2.54-8.39 1.555-5.358 0-11.023-3.906-10.55-3.906.472-4.418 6.27-2.172 10.792 2.027 4.08 3.506 8.122 3.538 8.148z"/>
        <path fill="#FFF" stroke-linecap="round" d="M72.417 39.438l9.166 6.124M84.45 59.438l8.212 6.18M61.417 64.375l4.166 2.25M69.444 45.417l7.112 4.166M83.333 65.417l5.334 4.166M59 69l3 2"/>
        <path fill="#FFF" d="M47.236 86.958c4.28-.765 5.202-9.727 7.717-27.52 2.515-17.794 5.462-30.234-9.584-29.398-15.045.835-12.213 14.583-8.061 31.253 4.151 16.67 5.647 26.43 9.928 25.665zM45.097 26.934c.013.035 2.382-3.154 5.326-6.565 3.923-4.546 7.981-9.551 1.627-12.21-5.512-2.308-6.866 4.104-7.063 9.605-.178 4.964.094 9.13.11 9.17zM41.976 26.334c.022.011-.41-3.507-.205-6.393.274-3.845-2.278-7.694-5.315-6.32-3.038 1.374-1.882 5.111.7 7.491 2.03 1.872 4.796 5.21 4.82 5.222z"/>
        <path fill="#FFF" stroke-linecap="round" d="M34.086 44.178l11.659.006M34.43 48.576l7.373-.06M37.615 62.395l4.285.066M38.487 66h3.702M49.403 53.678l5.483.26M49.143 71.123l2.395.386"/>
        <path fill="#FFF" d="M99.923 29.383c0 .046 3.994-3.457 8.72-7.123 6.296-4.886 13.206-10.693 7.042-14.912-5.673-3.881-9.369 3.744-11.948 10.57-2.327 6.158-3.813 11.412-3.814 11.465zM103.632 31.999c-.018.023 3.237.148 6.899.533 4.879.512 10.411.855 9.225-4.065-1.092-4.528-5.853-2.493-9.776-.334-3.54 1.948-6.327 3.84-6.348 3.866z"/>
        <path fill="#FFF" stroke-linecap="round" d="M65.375 87.375l2.513 2.502"/>
        <path stroke-linecap="round" d="M63.167 91.25l2.666 2.5"/>
    </g>
</svg>
