<svg xmlns="http://www.w3.org/2000/svg" width="140" height="108" viewBox="0 0 140 108">
    <g fill="none" fill-rule="evenodd">
        <path fill="#FFF" d="M16 50.92l3.11 6.818L27.799 65l20.74-2.586 19.288-7.95L69 43.708l-2.49-9.9-6.446-4.96-5.528-1.485-7.363-4.705h-3.57V15l-2.549 1.286v6.372l-6.427 1.516-4.84 3.189-3.038 2.687-6.004 2.577L16 39.647z"/>
        <path fill="#000" fill-rule="nonzero" d="M35.134 29.924c.356.08 1.43.325 1.637.593.26.34-1.824.596-2.631.413-.7-.158-1.046 1.622-1.7 1.524-10.645-1.58-15.475 4.783-14.266 16.608.733 7.177 5.242 12.861 12.45 16.082a1.49 1.49 0 0 1 .754 1.974 1.502 1.502 0 0 1-1.982.75C21.252 64.23 16.037 57.656 15.19 49.365c-1.472-14.404 5.66-22.668 19.944-19.44zm34.26 25.15a1.501 1.501 0 0 1-1.915.906 1.492 1.492 0 0 1-.91-1.907c.762-2.135 1.23-4.53 1.385-7.193.564-9.672-3.926-17.05-13.014-15.73-1.072.157-2.276-.935-3.483-.552-.395.126-2.08 1.209-2.49 1.36-.777.285-1.309 1.057-1.596.283-.286-.774.44-.603 1.596-1.432.404-.29.908-.74 1.347-.88 1.358-.431 2.954-1.553 4.193-1.733 11.478-1.669 17.1 7.568 16.441 18.858-.171 2.938-.694 5.61-1.554 8.02z"/>
        <path fill="#000" fill-rule="nonzero" d="M41.57 22.003c-7.742.133-14.7 4.75-16.57 8.747L27.695 32c.43-.92 2.097-2.663 4.176-4.03a18.073 18.073 0 0 1 9.354-2.997m1.926.021c4.613.252 8.738 1.898 11.266 4.414.06.06.542.53.629.621.048.051.088.097.126.144.083.103.172.231.291.425L58 29.054a6.773 6.773 0 0 0-.515-.741 5.469 5.469 0 0 0-.271-.31c-.138-.145-.678-.672-.695-.689-3.106-3.091-7.998-5.028-13.379-5.285"/>
        <path fill="#000" fill-rule="nonzero" d="M39.876 15.79a1 1 0 0 1 .754-.97l3.1-.788a1 1 0 0 1 1.242 1.063c-.933 9.874-.17 15.104 1.651 15.527.399.093.702.041 1.18-.18.088-.04.18-.086.303-.148l.346-.176c1.031-.522 1.814-.764 2.9-.764 2.677 0 4.362 1.448 5.522 4.25.058.141.097.265.115.407.047.364-.055.747-.432 1.015-.297.21-.575.228-.86.17a1.843 1.843 0 0 1-.326-.1c-.105-.041-.576-.25-.543-.235-.252-.109-.478-.199-.724-.285a9.33 9.33 0 0 0-2.106-.472h.018c.002 0-.11.05-.377.226-.093.062-.5.341-.6.408-.29.195-.55.357-.83.515-.191.108-.385.21-.586.306 1.21.66 2.227 1.274 3.052 1.846.79.548 1.349 1.01 1.693 1.416.584.691.756 1.508.028 2.12a1 1 0 0 1-1.106.12c-1.063-.556-1.838-.93-2.31-1.12-.344-.138-3.796-1.394-4.378-1.717a9.152 9.152 0 0 1-.78-.484v5.258c0 .934-1.166 1.358-1.766.643-2.127-2.537-3.168-4.645-3.007-6.392-.247.053-.556.135-.917.25-1.723.544-4.474 1.738-8.228 3.574-.973.476-1.903-.72-1.201-1.545 1.285-1.513 2.529-2.696 3.738-3.55.347-.244.744-.5 1.192-.765a8.042 8.042 0 0 1-.961-.288c-1.455-.536-3.687-.816-6.67-.816-1.05 0-1.39-1.41-.457-1.889 3.14-1.613 5.302-2.439 6.626-2.478 1.054-.032 1.988.02 3.219.144 0 0 .79.082.982.1.305.028.524.041.694.042.039 0 .074 0 .105-.002.429-1.266.705-6.2.705-14.237zm.927 15.46c-.552.935-.544.935-3.614.625-1.151-.116-2.007-.163-2.959-.134-.46.014-1.181.208-2.145.582 1.293.155 2.385.396 3.279.726 1.37.506 2.886.506 4.577-.017 1.194-.37 1.848 1.345.711 1.865-.84.384-1.6.75-2.277 1.095.42-.156.805-.29 1.154-.4 1.014-.32 1.763-.462 2.325-.401 1.012.109 1.562.935 1.253 1.907-.206.648.018 1.59.715 2.803v-4.687c0-.689.607-1.071 1.16-.99a.958.958 0 0 1 1.056-.452c1.249.261 2.11.261 2.541.067.224-.1.437-.21.648-.328.23-.13.447-.266.698-.434.086-.057.5-.342.613-.416.589-.389 1-.57 1.53-.555.072.003.072.003.145.01.592.063 1.146.167 1.673.304-.663-.736-1.466-1.066-2.534-1.066-.718 0-1.221.155-1.998.548l-.342.175c-.143.072-.256.128-.369.18-.85.393-1.587.52-2.473.313-3.234-.752-4.153-6.122-3.314-16.253l-.98.25c-.018 8.738-.33 13.422-1.073 14.682z"/>
        <path fill="#D8D8D8" stroke="#000" stroke-linecap="round" stroke-width="3" d="M21 45c-.024 3.848.642 6.514 2 8"/>
        <path fill="#FFF" stroke="#000" stroke-width="3" d="M94.148 30.598C89.782 37.19 80.475 53.081 65.45 54.695c-25.66 2.757-44.451 8.853-40.564 31.838 2.533 14.982 25.296 19.12 38.516 14.898 7.062-2.255 16.654-7.28 21.656-12.44 12.166-12.55 20.02-26.042 23.096-36.76.078-.271.153-.541.224-.81.072-.268-1.456-23.046-1.39-23.311l-12.84 2.488z"/>
        <path fill="#000" fill-rule="nonzero" d="M32.908 80c-1.62 0-2.548-.678-3.04-1.249-2.001-2.312-.449-6.62 3.689-10.242C36.07 66.312 38.902 65 41.122 65c1.613 0 2.542.68 3.034 1.246 1.971 2.285.388 6.69-3.689 10.248C37.962 78.689 35.135 80 32.907 80zm8.214-11.878c-1.104 0-3.209.718-5.526 2.741-3.118 2.728-3.797 5.362-3.385 5.839.401.457 3.21.073 6.219-2.565 3.117-2.727 3.797-5.363 3.384-5.842-.091-.103-.358-.173-.692-.173z"/>
        <path fill="#FFF" stroke="#000" stroke-linejoin="round" stroke-width="3" d="M110.824 53c2.896-4.055 4.628-7.032 5.198-8.93 3.053-10.167-1.242-17.11-10.081-20.496-12.762-4.888-16.93 2.674-19.043 8.162C85.5 35.369 81 36.882 81 37.908c0 1.482 3.137 2.646 7.987-.62.95-.64 3.102-2.491 6.456-5.552-.097 4.666-.097 7.682 0 9.048.318 4.49-.841 5.728 0 6.145.922.457 3.442-.31 7.441-2.859.879-.56 2.344-1.655 4.395-3.286-.052 3.967.193 6.704.735 8.212.542 1.507 1.479 2.842 2.81 4.004zM106 22.723c4.407-7.313 6.01-12.673 4.81-16.078-.518-1.47 6.257-4.229 6.064-1.462C118.127 15.245 109.602 24 109.602 24L106 22.723z"/>
    </g>
</svg>
