<?xml version="1.0" encoding="UTF-8"?>
<svg width="140px" height="108px" viewBox="0 0 140 108" version="1.1" xmlns="http://www.w3.org/2000/svg" xmlns:xlink="http://www.w3.org/1999/xlink">
    <!-- Generator: Sketch 59 (86127) - https://sketch.com -->
    <title>Submit/Question</title>
    <desc>Created with Sketch.</desc>
    <g id="Submit/Question" stroke="none" stroke-width="1" fill="none" fill-rule="evenodd">
        <path d="M23,72 C21.8954305,72 21,71.1045695 21,70 L21,15 C21,13.8954305 21.8954305,13 23,13 L105,13 C106.104569,13 107,13.8954305 107,15 L107,70 C107,71.1045695 106.104569,72 105,72 L62,72 L51,87 L40,72 L23,72 Z" id="Combined-Shape" stroke="#000000" stroke-width="3" fill="#FFFFFF" stroke-linejoin="round"></path>
        <rect id="Rectangle-Copy" fill="#000000" x="30" y="23" width="19" height="4"></rect>
        <rect id="Rectangle-Copy-3" fill="#000000" x="30" y="31" width="60" height="4"></rect>
        <rect id="Rectangle-Copy-5" fill="#000000" x="30" y="39" width="30" height="4"></rect>
        <rect id="Rectangle-Copy-8" fill="#000000" x="30" y="47" width="41" height="4"></rect>
        <rect id="Rectangle-Copy-10" fill="#000000" x="30" y="55" width="24" height="4"></rect>
        <rect id="Rectangle-Copy-9" fill="#000000" x="75" y="47" width="15" height="4"></rect>
        <circle id="Oval-2" stroke="#000000" stroke-width="3" fill="#FFFFFF" cx="95" cy="80" r="25"></circle>
        <path d="M95,65 C92.5130395,65 90.3837694,65.8815699 88.6215631,67.6439598 C86.8721046,69.3939754 86,71.5137179 86,74.0009374 C86,74.4134117 86.1462256,74.7703894 86.431928,75.0703706 C86.731878,75.3591026 87.0888185,75.5023436 87.5012498,75.5023436 C87.9136811,75.5023436 88.2608732,75.3561027 88.5484503,75.0703706 C88.8484003,74.7703894 89.0024996,74.4134117 89.0024996,74.0009374 C89.0024996,72.3386663 89.5829028,70.9231298 90.7452091,69.7607025 C91.9202633,68.5855259 93.337902,68.0028123 95,68.0028123 C96.662098,68.0028123 98.0703633,68.5855259 99.2326696,69.7607025 C100.407349,70.9231298 100.9975,72.3386663 100.9975,74.0009374 C100.9975,75.6635835 100.407349,77.0813699 99.2326696,78.2561715 L96.1424346,81.1269921 C94.3802283,82.8893819 93.4987502,85.0113743 93.4987502,87.4985938 C93.4987502,87.9110681 93.6449758,88.2680457 93.9306782,88.568027 C94.2306282,88.856759 94.5875687,89 95,89 C95.4124313,89 95.7596234,88.8537591 96.0472005,88.568027 C96.3471505,88.2680457 96.5012498,87.9110681 96.5012498,87.4985938 C96.5012498,85.8363227 97.0839027,84.4185363 98.2585819,83.2437348 L101.356316,80.3729142 C103.118522,78.6105243 104,76.488532 104,74.0009374 C104,71.5137179 103.118522,69.3939754 101.356316,67.6439598 C99.6064823,65.8815699 97.4869605,65 95,65 L95,65 Z" id="Path" fill="#000000"></path>
        <path d="M95,92 C94.3049533,92 93.7112241,92.2376584 93.2246498,92.7250667 C92.7384923,93.2112241 92.5,93.8053702 92.5,94.5 C92.5,95.1950467 92.7376584,95.7891928 93.2246498,96.2753502 C93.7112241,96.7619246 94.3049533,97 95,97 C95.6950467,97 96.2808539,96.7623416 96.7670113,96.2753502 C97.2535857,95.7891928 97.5,95.1950467 97.5,94.5 C97.5,93.8053702 97.2540027,93.2112241 96.7670113,92.7250667 C96.2808539,92.2384923 95.6950467,92 95,92 Z" id="Path" fill="#000000"></path>
    </g>
</svg>