<?xml version="1.0" encoding="UTF-8"?>
<svg width="130px" height="130px" viewBox="0 0 130 130" version="1.1" xmlns="http://www.w3.org/2000/svg" xmlns:xlink="http://www.w3.org/1999/xlink">
    <!-- Generator: Sketch 55.2 (78181) - https://sketchapp.com -->
    <title>icon-na</title>
    <desc>Created with Sketch.</desc>
    <g id="Page-1" stroke="none" stroke-width="1" fill="none" fill-rule="evenodd">
        <g id="icon-na" fill="#000000" fill-rule="nonzero">
            <path d="M65,0.594512195 C29.4228049,0.594512195 0.594512195,29.4228049 0.594512195,65 C0.594512195,100.577195 29.4228049,129.405488 65,129.405488 C100.577195,129.405488 129.405488,100.577195 129.405488,65 C129.405488,29.4228049 100.577195,0.594512195 65,0.594512195 Z M65,124.048537 C32.4571951,124.048537 5.95146341,97.5745122 5.95146341,65 C5.95146341,32.4571951 32.4254878,5.95146341 65,5.95146341 C97.5428049,5.95146341 124.048537,32.4254878 124.048537,65 C124.048537,97.5428049 97.5428049,124.048537 65,124.048537 Z" id="Shape"></path>
            <polygon id="Path" points="25.3658537 62.5236585 104.634146 62.5236585 104.634146 67.7875488 25.3658537 67.7875488"></polygon>
        </g>
    </g>
</svg>