<?xml version="1.0" encoding="UTF-8"?>
<svg width="74px" height="65px" viewBox="0 0 74 65" version="1.1" xmlns="http://www.w3.org/2000/svg" xmlns:xlink="http://www.w3.org/1999/xlink">
    <!-- Generator: Sketch 55.2 (78181) - https://sketchapp.com -->
    <title>Group 5</title>
    <desc>Created with Sketch.</desc>
    <g id="High-Fi-Flow-(FINAL)" stroke="none" stroke-width="1" fill="none" fill-rule="evenodd">
        <g id="Concept-Report-V1" transform="translate(-853.000000, -1894.000000)">
            <g id="Group-5" transform="translate(839.359927, 1876.000000)">
                <polygon id="Polygon-Copy-5" fill="#A0DCD7" transform="translate(50.500000, 50.500000) rotate(-330.000000) translate(-50.500000, -50.500000) " points="50.5 14 82.1099272 32.25 82.1099272 68.75 50.5 87 18.8900728 68.75 18.8900728 32.25"></polygon>
                <g id="Icon/-Finance" transform="translate(24.640073, 23.000000)">
                    <g id="Group-4" stroke-width="1" fill-rule="evenodd" transform="translate(7.000000, 33.000000)" stroke="#000000" stroke-linejoin="round">
                        <path d="M39,1.26610649 L39,11.1265806 L37.1844562,11.4407281 C32.4850529,12.2538759 27.6753403,12.1797387 23.0031292,11.2221364 L21.1183307,10.8358337 C17.6936467,10.1339208 14.436302,8.77659942 11.5248896,6.83828857 L7.99962445,4.49129723 C7.40917178,4.09819808 7.04136043,3.4464396 7.0095474,2.73689302 C6.92774033,0.912297674 7.37165746,0 8.34129877,0 C9.98339161,0 11.6025882,0.197472749 19.5570421,3.12644448 C20.0168011,3.29573596 20.4977245,3.4741526 21.0010398,3.66218371" id="Path" stroke-width="2" transform="translate(23.000000, 6.000000) scale(-1, 1) translate(-23.000000, -6.000000) "></path>
                        <path d="M25,1.95905988 L21.1091972,1.11213592 C17.7438103,0.379581718 14.2462759,0.528534993 10.9553582,1.54456912 C10.8223192,1.58564343 10.7031732,1.6225112 10.5979202,1.65517241 C8.01521269,2.45661603 7,3 7,4.17586038 C7,5.79310345 8.82081416,5.84866234 12.364031,5.94504718 C12.9509477,5.96101286 13.9291457,5.97933047 15.298625,6" id="Path-94" stroke-width="2" stroke-linecap="round" transform="translate(16.000000, 3.000000) scale(-1, 1) translate(-16.000000, -3.000000) "></path>
                        <rect id="Rectangle" stroke-width="2" transform="translate(3.500000, 6.500000) scale(-1, 1) translate(-3.500000, -6.500000) " x="0" y="0" width="7" height="13"></rect>
                    </g>
                    <g id="Group-2-Copy" stroke-width="1" fill-rule="evenodd" transform="translate(19.000000, 10.000000)" fill="#000000">
                        <path d="M8.66694478,15 L2.16611044,15 L2.16611044,13.1428571 L8.56943226,13.1428571 C9.52977187,13.173533 10.4042075,12.6714215 10.736377,11.8985714 C10.9695199,11.3271206 10.8630412,10.694146 10.451049,10.2024068 C10.0390567,9.71066771 9.3732648,9.42188785 8.66694478,9.42857143 L4.5064108,9.42857143 C2.4133909,9.46315474 0.5762415,8.24069485 0.096678176,6.49428571 C-0.178214807,5.39743376 0.14007869,4.25286377 0.962678746,3.38018421 C1.7852788,2.50750464 3.02404117,2.00022592 4.33305522,2 L10.8338896,2 L10.8338896,3.85714286 L4.43056774,3.85714286 C3.47022813,3.82646705 2.59579252,4.32857847 2.26362296,5.10142857 C2.03048009,5.67287941 2.13695882,6.30585404 2.54895105,6.79759317 C2.96094328,7.28933229 3.6267352,7.57811215 4.33305522,7.57142857 L8.4935892,7.57142857 C10.5866091,7.53684526 12.4237585,8.75930515 12.9033218,10.5057143 C13.1782148,11.6025662 12.8599213,12.7471362 12.0373213,13.6198158 C11.2147212,14.4924954 9.97595883,14.9997741 8.66694478,15 Z" id="Path" fill-rule="nonzero"></path>
                        <rect id="Rectangle" fill-rule="nonzero" x="6" y="0" width="2" height="3"></rect>
                        <rect id="Rectangle" fill-rule="nonzero" x="6" y="14" width="2" height="2"></rect>
                    </g>
                    <circle id="Oval" stroke="#151515" stroke-width="2" cx="26" cy="18" r="11"></circle>
                </g>
            </g>
        </g>
    </g>
</svg>