<?xml version="1.0" encoding="UTF-8"?>
<svg width="74px" height="65px" viewBox="0 0 74 65" version="1.1" xmlns="http://www.w3.org/2000/svg" xmlns:xlink="http://www.w3.org/1999/xlink">
    <!-- Generator: Sketch 55.2 (78181) - https://sketchapp.com -->
    <title>Group 2</title>
    <desc>Created with Sketch.</desc>
    <g id="High-Fi-Flow-(FINAL)" stroke="none" stroke-width="1" fill="none" fill-rule="evenodd">
        <g id="Concept-Report-V1" transform="translate(-344.000000, -1894.000000)">
            <g id="Group-2" transform="translate(330.359927, 1876.000000)">
                <polygon id="Polygon-Copy" fill="#5FA276" transform="translate(50.500000, 50.500000) rotate(-330.000000) translate(-50.500000, -50.500000) " points="50.5 14 82.1099272 32.25 82.1099272 68.75 50.5 87 18.8900728 68.75 18.8900728 32.25"></polygon>
                <g id="Icon/Datta" transform="translate(25.640073, 24.000000)">
                    <circle id="Oval-Copy" stroke="#000000" stroke-width="2" cx="31" cy="12" r="3"></circle>
                    <circle id="Oval-Copy-3" stroke="#000000" stroke-width="2" cx="43" cy="18" r="3"></circle>
                    <path d="M34,14 L40,17" id="Line-3" stroke="#000000" stroke-width="2" stroke-linecap="square"></path>
                    <circle id="Oval" stroke="#000000" stroke-width="2" cx="8" cy="12" r="3"></circle>
                    <circle id="Oval-Copy-2" stroke="#000000" stroke-width="2" cx="19" cy="22" r="3"></circle>
                    <path d="M11,14 L16,19" id="Line-67" stroke="#000000" stroke-width="2" stroke-linecap="square"></path>
                    <path d="M22.25,20.25 L28.75,14.75" id="Line-2" stroke="#000000" stroke-width="2" stroke-linecap="square"></path>
                    <rect id="Rectangle" fill="#000000" fill-rule="evenodd" x="5" y="24" width="6" height="18"></rect>
                    <rect id="Rectangle-Copy-18" fill="#000000" fill-rule="evenodd" x="16" y="34" width="6" height="8"></rect>
                    <rect id="Rectangle-Copy-19" fill="#000000" fill-rule="evenodd" x="28" y="26" width="6" height="16"></rect>
                    <rect id="Rectangle-Copy-20" fill="#000000" fill-rule="evenodd" x="40" y="30" width="6" height="12"></rect>
                </g>
            </g>
        </g>
    </g>
</svg>