<?xml version="1.0" encoding="UTF-8"?>
<svg width="74px" height="65px" viewBox="0 0 74 65" version="1.1" xmlns="http://www.w3.org/2000/svg" xmlns:xlink="http://www.w3.org/1999/xlink">
    <!-- Generator: Sketch 55.2 (78181) - https://sketchapp.com -->
    <title>Group 3</title>
    <desc>Created with Sketch.</desc>
    <g id="High-Fi-Flow-(FINAL)" stroke="none" stroke-width="1" fill="none" fill-rule="evenodd">
        <g id="Concept-Report-V1" transform="translate(-514.000000, -1894.000000)">
            <g id="Group-3" transform="translate(500.359927, 1876.000000)">
                <polygon id="Polygon-Copy-4" fill="#60D37E" transform="translate(50.500000, 50.500000) rotate(-330.000000) translate(-50.500000, -50.500000) " points="50.5 14 82.1099272 32.25 82.1099272 68.75 50.5 87 18.8900728 68.75 18.8900728 32.25"></polygon>
                <g id="Icon/Plants" transform="translate(24.640073, 23.000000)" stroke="#000000" stroke-width="2">
                    <path d="M25.4431894,27.5483378 C33.3284987,32.2092714 37.4243984,24.5602304 35.5496991,19.8937341 C33.6749998,15.2272379 29.5130265,12.3820333 25.4431894,8 C21.3733524,12.5840154 16.9460221,15.4050864 15.3452194,19.8937341 C13.7444167,24.3823819 17.8122449,32.2537726 25.4431894,27.5483378 Z" id="Oval" stroke-linejoin="round"></path>
                    <path d="M26,25 L34,18" id="Line-5" stroke-linecap="square"></path>
                    <path d="M25,25 L17,18" id="Line-5-Copy-2" stroke-linecap="square"></path>
                    <path d="M26,18 L30.7222222,14" id="Line-5-Copy" stroke-linecap="square"></path>
                    <path d="M25,18 L21,14" id="Line-5-Copy-3" stroke-linecap="square"></path>
                    <path d="M28.544056,41.3382242 C35.3473392,41.2584134 38.7661484,37.8696197 38.8004835,31.1718431" id="Path-3" stroke-linecap="round" stroke-linejoin="round" transform="translate(33.672270, 36.255034) rotate(30.000000) translate(-33.672270, -36.255034) "></path>
                    <path d="M12.8845733,41.3382242 C19.6878565,41.2584134 23.1066656,37.8696197 23.1410007,31.1718431" id="Path-3-Copy" stroke-linecap="round" stroke-linejoin="round" transform="translate(18.012787, 36.255034) scale(1, -1) rotate(30.000000) translate(-18.012787, -36.255034) "></path>
                    <path d="M38.8004835,31.1718431 C31.9971577,31.2599495 28.5783486,34.6487432 28.544056,41.3382242" id="Path-2" stroke-linecap="round" stroke-linejoin="round" transform="translate(33.672270, 36.255034) rotate(30.000000) translate(-33.672270, -36.255034) "></path>
                    <path d="M23.1410007,31.1718431 C16.3376749,31.2599495 12.9188658,34.6487432 12.8845733,41.3382242" id="Path-2-Copy" stroke-linecap="round" stroke-linejoin="round" transform="translate(18.012787, 36.255034) scale(1, -1) rotate(30.000000) translate(-18.012787, -36.255034) "></path>
                    <path d="M25.5558357,9.26515152 L26,46" id="Line-51" stroke-linecap="round"></path>
                </g>
            </g>
        </g>
    </g>
</svg>