<?xml version="1.0" encoding="UTF-8"?>
<svg width="74px" height="65px" viewBox="0 0 74 65" version="1.1" xmlns="http://www.w3.org/2000/svg" xmlns:xlink="http://www.w3.org/1999/xlink">
    <!-- Generator: Sketch 55.2 (78181) - https://sketchapp.com -->
    <title>Group 4</title>
    <desc>Created with Sketch.</desc>
    <g id="High-Fi-Flow-(FINAL)" stroke="none" stroke-width="1" fill="none" fill-rule="evenodd">
        <g id="Concept-Report-V1" transform="translate(-683.000000, -1894.000000)">
            <g id="Group-4" transform="translate(669.359927, 1876.000000)">
                <polygon id="Polygon-Copy-2" fill="#94D6B0" transform="translate(50.500000, 50.500000) rotate(-330.000000) translate(-50.500000, -50.500000) " points="50.5 14 82.1099272 32.25 82.1099272 68.75 50.5 87 18.8900728 68.75 18.8900728 32.25"></polygon>
                <g id="Icon/Farm-Design" transform="translate(23.640073, 23.000000)" stroke="#000000">
                    <rect id="Rectangle" stroke-width="2" stroke-linejoin="round" x="25" y="6" width="3" height="41"></rect>
                    <g id="Group" stroke-width="1" fill-rule="evenodd" transform="translate(9.000000, 7.977119)">
                        <path d="M0,9.52288131 L15.9665339,9.52288131" id="Line-39-Copy-12" stroke-width="2" fill="#D8D8D8" stroke-linecap="round"></path>
                        <path d="M2,1.18604422 C5.65611267,0.524213049 7.32277933,1.74822811 7,4.85808939 M7,4.85808939 C4.12299855,5.64915008 2.45633188,4.42513502 2,1.18604422" id="Combined-Shape-Copy-8" stroke-width="2" stroke-linecap="round" stroke-linejoin="round"></path>
                        <path d="M7.21397413,5.02288131 C10.9367872,5.02288131 12.4609673,3.35621101 11.7865146,0.0228703951 M11.7864633,0.0228813124 C8.54745326,-0.21838186 7.02329021,1.44828481 7.21397413,5.02288131" id="Combined-Shape-Copy-9" stroke-width="2" stroke-linecap="round" stroke-linejoin="round"></path>
                        <path d="M7.29055801,9.52288131 C7.93977597,7.17127942 7.8429233,5.33794609 7,4.02288131" id="Path-5-Copy" stroke-width="2"></path>
                    </g>
                    <g id="Group-Copy-3" stroke-width="1" fill-rule="evenodd" transform="translate(29.000000, 7.977119)">
                        <path d="M0,9.52288131 L15.9665339,9.52288131" id="Line-39-Copy-12" stroke-width="2" fill="#D8D8D8" stroke-linecap="round"></path>
                        <path d="M3,1.18604422 C6.65611267,0.524213049 8.32277933,1.74822811 8,4.85808939 M8,4.85808939 C5.12299855,5.64915008 3.45633188,4.42513502 3,1.18604422" id="Combined-Shape-Copy-8" stroke-width="2" stroke-linecap="round" stroke-linejoin="round"></path>
                        <path d="M8.21397413,5.02288131 C11.9367872,5.02288131 13.4609673,3.35621101 12.7865146,0.0228703951 M12.7864633,0.0228813124 C9.54745326,-0.21838186 8.02329021,1.44828481 8.21397413,5.02288131" id="Combined-Shape-Copy-9" stroke-width="2" stroke-linecap="round" stroke-linejoin="round"></path>
                        <path d="M8.29055801,9.52288131 C8.93977597,7.17127942 8.8429233,5.33794609 8,4.02288131" id="Path-5-Copy" stroke-width="2"></path>
                    </g>
                    <g id="Group-Copy" stroke-width="1" fill-rule="evenodd" transform="translate(9.000000, 21.000000)">
                        <path d="M0,9.52288131 L15.9665339,9.52288131" id="Line-39-Copy-12" stroke-width="2" fill="#D8D8D8" stroke-linecap="round"></path>
                        <path d="M2,1.18604422 C5.65611267,0.524213049 7.32277933,1.74822811 7,4.85808939 M7,4.85808939 C4.12299855,5.64915008 2.45633188,4.42513502 2,1.18604422" id="Combined-Shape-Copy-8" stroke-width="2" stroke-linecap="round" stroke-linejoin="round"></path>
                        <path d="M7.21397413,5.02288131 C10.9367872,5.02288131 12.4609673,3.35621101 11.7865146,0.0228703951 M11.7864633,0.0228813124 C8.54745326,-0.21838186 7.02329021,1.44828481 7.21397413,5.02288131" id="Combined-Shape-Copy-9" stroke-width="2" stroke-linecap="round" stroke-linejoin="round"></path>
                        <path d="M7.29055801,9.52288131 C7.93977597,7.17127942 7.8429233,5.33794609 7,4.02288131" id="Path-5-Copy" stroke-width="2"></path>
                    </g>
                    <g id="Group-Copy-4" stroke-width="1" fill-rule="evenodd" transform="translate(29.000000, 21.000000)">
                        <path d="M0,9.52288131 L15.9665339,9.52288131" id="Line-39-Copy-12" stroke-width="2" fill="#D8D8D8" stroke-linecap="round"></path>
                        <path d="M3,1.18604422 C6.65611267,0.524213049 8.32277933,1.74822811 8,4.85808939 M8,4.85808939 C5.12299855,5.64915008 3.45633188,4.42513502 3,1.18604422" id="Combined-Shape-Copy-8" stroke-width="2" stroke-linecap="round" stroke-linejoin="round"></path>
                        <path d="M8.21397413,5.02288131 C11.9367872,5.02288131 13.4609673,3.35621101 12.7865146,0.0228703951 M12.7864633,0.0228813124 C9.54745326,-0.21838186 8.02329021,1.44828481 8.21397413,5.02288131" id="Combined-Shape-Copy-9" stroke-width="2" stroke-linecap="round" stroke-linejoin="round"></path>
                        <path d="M8.29055801,9.52288131 C8.93977597,7.17127942 8.8429233,5.33794609 8,4.02288131" id="Path-5-Copy" stroke-width="2"></path>
                    </g>
                    <g id="Group-Copy-2" stroke-width="1" fill-rule="evenodd" transform="translate(9.000000, 34.000000)">
                        <path d="M0,9.52288131 L15.9665339,9.52288131" id="Line-39-Copy-12" stroke-width="2" fill="#D8D8D8" stroke-linecap="round"></path>
                        <path d="M2,1.18604422 C5.65611267,0.524213049 7.32277933,1.74822811 7,4.85808939 M7,4.85808939 C4.12299855,5.64915008 2.45633188,4.42513502 2,1.18604422" id="Combined-Shape-Copy-8" stroke-width="2" stroke-linecap="round" stroke-linejoin="round"></path>
                        <path d="M7.21397413,5.02288131 C10.9367872,5.02288131 12.4609673,3.35621101 11.7865146,0.0228703951 M11.7864633,0.0228813124 C8.54745326,-0.21838186 7.02329021,1.44828481 7.21397413,5.02288131" id="Combined-Shape-Copy-9" stroke-width="2" stroke-linecap="round" stroke-linejoin="round"></path>
                        <path d="M7.29055801,9.52288131 C7.93977597,7.17127942 7.8429233,5.33794609 7,4.02288131" id="Path-5-Copy" stroke-width="2"></path>
                    </g>
                    <g id="Group-Copy-5" stroke-width="1" fill-rule="evenodd" transform="translate(29.000000, 34.000000)">
                        <path d="M0,9.52288131 L15.9665339,9.52288131" id="Line-39-Copy-12" stroke-width="2" fill="#D8D8D8" stroke-linecap="round"></path>
                        <path d="M3,1.18604422 C6.65611267,0.524213049 8.32277933,1.74822811 8,4.85808939 M8,4.85808939 C5.12299855,5.64915008 3.45633188,4.42513502 3,1.18604422" id="Combined-Shape-Copy-8" stroke-width="2" stroke-linecap="round" stroke-linejoin="round"></path>
                        <path d="M8.21397413,5.02288131 C11.9367872,5.02288131 13.4609673,3.35621101 12.7865146,0.0228703951 M12.7864633,0.0228813124 C9.54745326,-0.21838186 8.02329021,1.44828481 8.21397413,5.02288131" id="Combined-Shape-Copy-9" stroke-width="2" stroke-linecap="round" stroke-linejoin="round"></path>
                        <path d="M8.29055801,9.52288131 C8.93977597,7.17127942 8.8429233,5.33794609 8,4.02288131" id="Path-5-Copy" stroke-width="2"></path>
                    </g>
                </g>
            </g>
        </g>
    </g>
</svg>