<?xml version="1.0" encoding="UTF-8"?>
<svg width="575px" height="420px" viewBox="0 0 575 420" version="1.1" xmlns="http://www.w3.org/2000/svg" xmlns:xlink="http://www.w3.org/1999/xlink">
    <!-- Generator: Sketch 59 (86127) - https://sketch.com -->
    <title>Illustration/Build Mac</title>
    <desc>Created with Sketch.</desc>
    <g id="High-Fi-Flow-(FINAL)" stroke="none" stroke-width="1" fill="none" fill-rule="evenodd">
        <g id="Homepage-Change-Order" transform="translate(-686.000000, -1975.000000)">
            <g id="Step-2" transform="translate(116.000000, 1926.000000)">
                <g id="Illustration/Build-Mac" transform="translate(567.000000, 37.000000)">
                    <path d="M551.850323,118.793779 C547.369359,113.688677 543.233084,108.494458 538.879782,103.491203 C536.058434,100.244817 533.147722,97.0748157 529.981685,94.0703167 C528.411432,92.5680672 526.790114,91.1167414 525.079433,89.7036084 C514.968539,81.3775815 503.683146,74.4646876 491.619011,69.3213927 C484.342231,66.2150463 476.65693,63.6561297 470.478051,58.7037987 C464.299171,53.7641987 459.856505,45.6418666 461.911876,38.0160407 C463.405531,32.5162798 468.090756,28.238688 473.46536,26.2781251 C478.827198,24.3302931 484.776285,24.4830642 490.355149,25.6797715 C505.930012,29.0280055 518.938852,40.1930294 527.785884,53.3950017 C527.93908,53.6241585 528.105041,53.8660461 528.258237,54.1079337 C534.743507,63.9744029 539.275537,74.9484629 543.220318,86.1262177 C544.484179,89.7163394 545.68421,93.3319229 546.871474,96.9347755 C548.658753,102.319958 554.148254,113.45952 551.850323,118.793779" id="Fill-27" fill="#5193F4" fill-rule="evenodd" transform="translate(506.903587, 71.793779) scale(-1, 1) translate(-506.903587, -71.793779) "></path>
                    <path d="M465.403587,38.7937789 C482.484119,42.0599514 494.574862,53.4014714 507.24441,65.3452643 C519.912674,77.2890573 529.100407,92.9005379 533.403587,109.793779" id="Stroke-29" stroke="#0B43A4" stroke-width="1" stroke-linecap="round" stroke-linejoin="round" transform="translate(499.403587, 74.293779) scale(-1, 1) translate(-499.403587, -74.293779) "></path>
                    <g id="Group-35" stroke-width="1" fill-rule="evenodd" transform="translate(59.787686, 167.233534) rotate(-37.000000) translate(-59.787686, -167.233534) translate(41.287686, 153.733534)">
                        <path d="M5.26787837,13.3832839 C4.78160745,11.788709 4.89544186,9.84282922 6.12658579,8.72662675 C6.9036294,8.02152564 8.00980294,7.76614449 9.05287262,7.84587324 C10.0959423,7.92560199 11.0919934,8.30680506 12.044738,8.74531318 C14.0838588,9.68337173 15.6701166,11.3227941 16.6488451,13.3533857 C19.1222689,18.4834323 17.4432113,24.8318338 17.4432113,24.8318338 C17.4432113,24.8318338 6.47922501,17.3572637 5.26787837,13.3832839" id="Fill-104" fill="#4A49CA" transform="translate(11.500000, 16.331834) scale(-1, 1) rotate(129.000000) translate(-11.500000, -16.331834) "></path>
                        <path d="M20.0283729,-3 C23.6379383,0.57840617 25.8327243,5.62082262 26.0192749,10.7686375 C26.2083295,15.9164524 23.4250954,22.155527 20.0872177,26" id="Stroke-114" stroke="#0B43A4" stroke-linecap="round" stroke-linejoin="round" transform="translate(23.028373, 11.500000) scale(-1, 1) rotate(129.000000) translate(-23.028373, -11.500000) "></path>
                    </g>
                    <path d="M532.475491,163.40512 C526.649783,133.016558 523.585505,128.334915 526.148867,120.717672 C529.413768,111.008495 527.578778,101.248264 530.659669,91.480375 C533.74056,81.7124861 535.837508,71.2081446 533.352094,61.2717778 C532.566218,58.1306861 530.972742,54.7049689 527.195424,54.5760578 C525.679897,54.5237275 524.202705,55.1338217 523.050086,56.1153331 C520.137872,58.5940003 519.403109,62.3081721 518.737351,65.8551423 L516.512618,77.7149651 C515.789356,81.5708115 510.210273,81.7980014 509.327281,77.9727873 C509.319613,77.942155 509.313224,77.9089699 509.305557,77.8770613 C508.59124,74.6670468 508.95926,71.3255685 509.39884,68.0670529 C510.355948,60.9769414 511.645296,53.8447105 511.054931,46.7150323 C510.340614,38.0869219 506.453401,29.2022656 498.040052,25.6131759 C495.056278,24.3393809 491.690427,24.04965 488.549478,24.8550254 C479.768109,27.1065027 477.496096,35.6784538 478.782888,42.9970315 C479.69016,48.1470944 482.109126,52.8836207 484.296801,57.6341868 C489.639482,69.2387401 485.720323,79.8809271 486.460197,92.6316406 C488.50092,127.821823 532.475491,163.40512 532.475491,163.40512" id="Fill-23" fill="#7EE8D4" fill-rule="evenodd" transform="translate(506.449655, 93.905120) scale(-1, 1) rotate(-84.000000) translate(-506.449655, -93.905120) "></path>
                    <path d="M502.306493,47.0199601 C506.631275,68.6641086 511.003246,90.4654134 519.396461,110.875309 C521.859202,116.861308 523.061877,124.737019 537.306493,141.01996" id="Stroke-25" stroke="#00AD9F" stroke-width="1" stroke-linecap="round" stroke-linejoin="round" transform="translate(519.806493, 94.019960) scale(-1, 1) rotate(-82.000000) translate(-519.806493, -94.019960) "></path>
                    <g id="Group-34" stroke-width="1" fill-rule="evenodd" transform="translate(57.795351, 103.410891) rotate(39.000000) translate(-57.795351, -103.410891) translate(37.295351, 87.910891)">
                        <path d="M6.34167519,16.1311377 C4.90401341,14.225016 4.39421356,11.3861112 5.95899767,9.57630943 C7.12537778,8.22909704 9.1554034,7.81340028 10.9403581,8.14545074 C12.7240023,8.47750121 15.3975028,10.0743851 16.5363616,11.4444101 C23.507121,19.8293181 20.2307723,28.0367945 20.2307723,28.0367945 C20.2307723,28.0367945 8.69802513,19.2526656 6.34167519,16.1311377" id="Fill-102" fill="#4A49CA" transform="translate(13.000000, 18.036794) scale(-1, 1) rotate(129.000000) translate(-13.000000, -18.036794) "></path>
                        <path d="M17.6952075,0 C24.7173883,7.69184394 30.3304359,19.7205236 31.6952075,30" id="Stroke-110" stroke="#0B43A4" stroke-linecap="round" stroke-linejoin="round" transform="translate(24.695208, 15.000000) scale(-1, 1) rotate(129.000000) translate(-24.695208, -15.000000) "></path>
                    </g>
                    <path d="M482.919768,42.7819288 C481.469596,49.1605958 477.580555,54.6714778 474.159436,60.262876 C472.352198,63.208744 470.668709,66.2351282 469.093499,69.3024095 C464.055921,79.1151535 460.209418,89.5387977 457.67645,100.261502 C456.842439,103.776095 456.375806,107.22423 457.047397,110.793779 C448.587411,108.879284 445.219143,85.0465087 444.64423,77.9610889 C443.631043,65.2037549 445.822415,52.1333025 451.12038,40.4469609 C453.432922,35.3169329 456.417055,30.2814795 461.016359,26.9969325 C465.602772,23.7136635 472.104702,22.5595989 476.964392,25.4223948 C479.894386,27.1464624 481.769943,30.0105363 482.686452,33.2682447 C483.57718,36.3086872 483.618429,39.7005891 482.919768,42.7819288" id="Fill-33" fill="#52D2BC" fill-rule="evenodd" transform="translate(463.903587, 67.293779) scale(-1, 1) translate(-463.903587, -67.293779) "></path>
                    <path d="M458.942453,103.793779 C453.72674,90.7603865 456.895797,63.1736539 465.26267,45.8348029 C467.784876,40.6110162 471.371957,35.7141136 476.403587,32.7937789" id="Stroke-35" stroke="#00AD9F" stroke-width="1" stroke-linecap="round" stroke-linejoin="round" transform="translate(466.403587, 68.293779) scale(-1, 1) translate(-466.403587, -68.293779) "></path>
                    <path d="M201.976505,74.3662362 C201.584672,76.8098472 200.855711,79.1576052 199.815064,81.4235687 C196.113009,89.4726597 188.345055,96.3804616 176.698212,102 C176.698212,102 176.05067,89.2694514 175.915819,85.8621989 C175.347153,71.2721033 159.580979,63.1961735 149.610874,52.555219 C144.531044,47.1273865 140.680144,40.2719842 139.963904,32.8491325 C139.261659,25.4250027 142.085907,17.4704867 148.096975,13.0995926 C153.137368,9.44951258 159.729824,8.64946003 165.93172,9.12361258 C175.928541,9.92494317 186.020775,14.1322482 192.235393,21.9768529 C192.506368,22.2759141 192.735361,22.5877557 192.965627,22.8995972 C196.775817,28.1254996 198.733708,34.4901348 200.166187,40.8292093 C202.652034,51.8088442 203.7741,63.2370708 201.976505,74.3662362" id="Fill-39" fill="#00AD9F" fill-rule="evenodd" transform="translate(171.358686, 55.500000) scale(-1, 1) rotate(-21.000000) translate(-171.358686, -55.500000) "></path>
                    <path d="M155.04232,21.4047128 C165.904752,27.0915926 176.786181,33.9668714 183.113418,44.561185 C191.938114,59.3398936 190.014361,78.5696496 183.208402,94.4047128" id="Stroke-41" stroke="#13887F" stroke-width="1" stroke-linecap="round" stroke-linejoin="round" transform="translate(172.042320, 57.904713) scale(-1, 1) rotate(-21.000000) translate(-172.042320, -57.904713) "></path>
                    <path d="M43.1443763,147.643546 C50.1505076,136.122011 46.5724724,121.301475 49.0099448,108.042748 C50.884825,97.8500291 56.5632899,88.4010896 64.6856349,81.9541502 C69.7835661,77.9075308 76.9447626,75.0181856 82.703964,78.0509099 C83.9521754,78.7076374 85.4361886,79.6319207 86.6369834,78.8932622 C87.3546409,78.4528835 87.6429854,77.5644451 87.810866,76.7400152 C89.2718116,69.5800208 85.8257741,61.7581781 88.6412982,55.012959 C90.1586312,51.3811149 93.2945381,48.6684333 96.6175486,46.5535914 C103.02136,42.4749677 110.515755,40.1258546 118.104983,39.8186136 C120.11955,39.7366827 122.216135,39.8147731 124.019249,40.7172934 C127.27562,42.3482308 128.766041,46.3986907 128.329039,50.0113323 C127.892037,53.625254 125.896693,56.8576849 123.683488,59.7495904 C116.324936,69.3598314 105.543414,77.6527768 104.123477,89.6684585 C103.942781,91.1841805 103.942781,92.7920749 104.639934,94.1503359 C105.315301,95.463791 106.56992,96.4008759 107.276044,97.6964086 C109.543073,101.856963 105.165362,106.574392 100.888892,108.620105 C96.9840666,110.487874 92.7460428,111.65923 88.4362532,112.062484 C85.4682269,112.340281 82.1144596,112.41069 80.0960479,114.601062 C76.3706367,118.643841 80.650951,125.107422 79.8692169,130.545587 C79.3809535,133.9406 76.916569,136.681445 74.4419321,139.058722 C69.8463611,143.472751 64.816351,147.436159 59.4492982,150.870857 C55.0959366,153.655228 50.4901134,156.115716 46.6327044,159.552974 C42.7740138,162.987672 39.6547668,167.635971 39.4035867,172.793779" id="Fill-43" fill="#52D2BC" fill-rule="evenodd" transform="translate(83.903587, 106.293779) scale(-1, 1) translate(-83.903587, -106.293779) "></path>
                    <path d="M53.4035867,135.793779 C54.5484385,130.204601 57.1467654,125.035701 59.7194805,119.94368 C63.7392678,111.986598 67.8384519,103.912914 73.9123133,97.3870807 C78.5224548,92.432163 84.1455468,88.512563 88.8338046,83.6319627 C92.1761571,80.1518602 95.0254807,76.1976642 97.2626799,71.9218534 C98.4754033,69.6039206 99.525491,67.1681051 101.162091,65.1282218 C103.106034,62.7052196 105.763269,60.979263 108.074742,58.906065 C111.199394,56.1076321 113.715763,52.6339362 115.403587,48.7937789" id="Stroke-45" stroke="#00AD9F" stroke-width="1" stroke-linecap="round" stroke-linejoin="round" transform="translate(84.403587, 92.293779) scale(-1, 1) translate(-84.403587, -92.293779) "></path>
                    <path d="M85.316532,192.986196 C96.898648,188.886096 108.926427,185.615718 119.455856,179.294517 C122.64081,177.383605 125.709226,175.162505 127.969557,172.220185 C130.228607,169.279142 131.616822,165.528802 131.11353,161.857604 C130.601274,158.126411 128.205195,154.552226 129.011998,150.872093 C129.543464,148.445477 131.369658,146.551159 132.765557,144.494727 C136.086259,139.6032 137.073633,133.207963 135.385748,127.547987 C133.569799,121.465491 128.996631,116.599495 126.394368,110.808039 C124.268505,106.078628 123.507804,100.747987 124.227524,95.6152031 C114.512583,95.7454055 105.644145,101.035198 96.0905637,102.80059 C88.7832269,104.151121 81.1813427,103.417137 73.9380379,105.07658 C60.729508,108.101871 49.9324249,119.688611 47.8782769,133.042019 C41.7504104,131.992741 35.1589519,134.194693 30.9021016,138.710931 C26.3750362,143.514379 23.8265608,150.335965 24.2389272,156.913741 C27.2228204,204.690373 54.6643929,229.615203 54.6643929,229.615203 C54.6643929,229.615203 80.9008823,194.549902 85.316532,192.986196" id="Fill-61" fill="#7EE8D4" fill-rule="evenodd" transform="translate(80.195516, 162.615203) scale(-1, 1) rotate(74.000000) translate(-80.195516, -162.615203) "></path>
                    <path d="M40.5323613,206.838226 C39.3266934,194.998399 43.4631603,183.295782 48.2178527,172.383085 C52.8506956,161.749938 58.1812868,151.325813 65.3370539,142.195566 C72.492821,133.066601 81.5866351,125.237928 92.320927,120.838226" id="Stroke-63" stroke="#00AD9F" stroke-width="1" stroke-linecap="round" stroke-linejoin="round" transform="translate(66.320927, 163.838226) scale(-1, 1) rotate(74.000000) translate(-66.320927, -163.838226) "></path>
                    <path d="M51.5903089,128.30064 C50.3406762,138.686959 51.2154191,151.200763 54.0343273,161.30064" id="Stroke-65" stroke="#00AD9F" stroke-width="1" stroke-linecap="round" stroke-linejoin="round" transform="translate(52.534327, 144.800640) scale(-1, 1) rotate(74.000000) translate(-52.534327, -144.800640) "></path>
                    <path d="M30.0772188,177.860725 C42.1593859,169.930875 60.7459513,165.115102 75.0772188,165.955429" id="Stroke-67" stroke="#00AD9F" stroke-width="1" stroke-linecap="round" stroke-linejoin="round" transform="translate(52.577219, 171.860725) scale(-1, 1) rotate(74.000000) translate(-52.577219, -171.860725) "></path>
                    <path d="M170.403587,60.7937789 C184.449098,66.8176486 185.028742,87.8254521 185.403587,93.7937789" id="Stroke-69" stroke="#00AD9F" stroke-width="1" stroke-linecap="round" stroke-linejoin="round" transform="translate(177.903587, 77.293779) scale(-1, 1) translate(-177.903587, -77.293779) "></path>
                    <path d="M127.403587,80.7937789 C138.519671,72.4757631 154.581515,69.9758057 166.403587,73.0769848" id="Stroke-71" stroke="#00AD9F" stroke-width="1" stroke-linecap="round" stroke-linejoin="round" transform="translate(146.903587, 76.293779) scale(-1, 1) translate(-146.903587, -76.293779) "></path>
                    <path d="M33.7085679,155.195388 C30.287247,159.178852 29.4358584,163.917587 29.7787788,167.195388" id="Stroke-73" stroke="#00AD9F" stroke-width="1" stroke-linecap="round" stroke-linejoin="round" transform="translate(31.708568, 161.195388) scale(-1, 1) rotate(74.000000) translate(-31.708568, -161.195388) "></path>
                    <path d="M20,173.525535 C25.0437558,171.383381 31.7868733,170.892099 39,172.392131" id="Stroke-75" stroke="#00AD9F" stroke-width="1" stroke-linecap="round" stroke-linejoin="round" transform="translate(29.500000, 172.525535) scale(-1, 1) rotate(74.000000) translate(-29.500000, -172.525535) "></path>
                    <g id="Group-36" stroke-width="1" fill-rule="evenodd" transform="translate(509.299650, 106.622793) rotate(200.000000) translate(-509.299650, -106.622793) translate(481.299650, 83.622793)">
                        <path d="M20.4046552,9.90102339 C16.7580442,6.7647558 11.1693832,5.83762012 6.72220326,7.74562036 C5.59093671,8.23167936 4.51840409,8.9164103 3.79444457,9.89602536 C2.16521644,12.1014087 2.73595701,15.327641 4.42774954,17.4880421 C6.11954207,19.6496926 8.68340577,20.9641761 11.2179025,22.0899837 C15.8093636,24.1291824 22.9365982,24.5377718 27.8255595,25.7572926 C27.8255595,25.7572926 27.8051303,16.2610242 20.4046552,9.90102339" id="Fill-106" fill="#4A49CA" transform="translate(15.325559, 16.257293) scale(-1, 1) rotate(129.000000) translate(-15.325559, -16.257293) "></path>
                        <path d="M17.6552461,12.5297045 C24.9356619,19.2252032 31.2740997,24.6386926 39.3687892,30.3262667 C43.0633663,32.9218619 50.3994158,36.2487707 53.6552461,35.3924137" id="Stroke-116" stroke="#0B43A4" stroke-linecap="round" stroke-linejoin="round" transform="translate(35.655246, 24.029704) scale(-1, 1) rotate(129.000000) translate(-35.655246, -24.029704) "></path>
                    </g>
                    <circle id="Oval" stroke="#3B93FC" stroke-width="10" cx="172.403587" cy="118.793779" r="48"></circle>
                    <polygon id="Rectangle" fill="#C4DBFE" fill-rule="evenodd" points="273.403587 306.793779 315.403587 306.793779 323.403587 349.793779 265.403587 349.793779"></polygon>
                    <rect id="Rectangle" fill="#5193F4" fill-rule="evenodd" x="216.403587" y="343.793779" width="155" height="12" rx="6"></rect>
                    <rect id="Rectangle" fill="#C8DBFB" fill-rule="evenodd" x="87.4035867" y="58.7937789" width="413" height="257" rx="17"></rect>
                    <rect id="Rectangle" fill="#ECF2FE" fill-rule="evenodd" x="87.4035867" y="90.7937789" width="413" height="192"></rect>
                    <circle id="Oval" fill="#5193F4" fill-rule="evenodd" cx="294.403587" cy="298.793779" r="8"></circle>
                    <circle id="Oval" stroke="#FFFFFF" stroke-width="7" cx="145.403587" cy="139.793779" r="27"></circle>
                    <circle id="Oval-Copy-6" stroke="#FFFFFF" stroke-width="7" cx="220.403587" cy="139.793779" r="27"></circle>
                    <path d="M207.607438,115.793779 C199.150554,120.373495 193.403587,129.351415 193.403587,139.677396 C193.403587,154.653361 205.491898,166.793779 220.403587,166.793779" id="Path" stroke="#4C49CA" stroke-width="7"></path>
                    <g id="Group-31" stroke-width="1" fill-rule="evenodd" transform="translate(325.403587, 104.793779)">
                        <circle id="Oval" fill="#4D44D2" cx="52" cy="52" r="52"></circle>
                        <path d="M52.115397,104 C80.770472,104 104,80.6339394 104,51.8104429 C104,22.9869464 52.115397,51.8104429 52.115397,51.8104429 C52.115397,51.8104429 6.84713745,77.8020477 6.84713745,77.8020477 C15.7747964,93.5676324 32.787322,104 52.115397,104 Z" id="Oval" fill="#FFFFFF"></path>
                        <path d="M52,51.7128563 C52,51.7128563 59.4341704,103.475681 59.4341704,103.475681 C85.919064,99.0951233 102.884048,78.7802577 104,51.7128563 C105.177764,23.1462093 52,51.7128563 52,51.7128563 Z" id="Oval" fill="#C4DBFE"></path>
                        <path d="M84.2952982,92.7901773 C96.2805208,83.1845389 104,68.5887559 104,52 C104,52 52,52 52,52 C52,52 84.2952982,92.7901773 84.2952982,92.7901773 Z" id="Oval" fill="#5193F4"></path>
                        <path d="M104,52 C104,23.281193 80.718807,0 52,0 C52,0 52,17.3333333 52,52 C86.6666667,52 104,52 104,52 Z" id="Oval" fill="#0156EE"></path>
                    </g>
                    <path d="M170.403587,129.792416 C166.435857,119.832045 156.717718,112.793779 145.358453,112.793779 C130.471691,112.793779 118.403587,124.882091 118.403587,139.793779 C118.403587,148.838543 122.843556,156.844561 129.659411,161.744292" id="Shape" stroke="#0156EE" stroke-width="7"></path>
                    <g id="Group-32" stroke-width="1" fill-rule="evenodd" transform="translate(387.403587, 127.793779)">
                        <polygon id="Fill-234" fill="#0C2340" transform="translate(59.554375, 67.864188) rotate(-37.000000) translate(-59.554375, -67.864188) " points="62.0543754 76.8562621 57.0986558 76.8641881 57.0543754 58.8721142 62.0100949 58.8641881"></polygon>
                        <circle id="Oval" stroke="#1541A2" stroke-width="6" transform="translate(39.000000, 39.000000) rotate(-41.000000) translate(-39.000000, -39.000000) " cx="39" cy="39" r="27"></circle>
                        <circle id="Oval" stroke="#7EE8D4" stroke-width="2" fill-opacity="0.5" fill="#E7E7E7" transform="translate(39.000000, 39.000000) rotate(-41.000000) translate(-39.000000, -39.000000) " cx="39" cy="39" r="24"></circle>
                    </g>
                    <g id="Group-30" stroke-width="1" fill-rule="evenodd" transform="translate(420.403587, 199.793779)">
                        <path d="M122,227 C122,229.761008 94.689135,232 61,232 C27.3092866,232 0,229.761008 0,227 C0,224.238992 27.3092866,222 61,222 C94.689135,222 122,224.238992 122,227" id="Fill-1" fill="#C8DBFB"></path>
                        <path d="M95,39 C112.078897,45.1610978 126.912818,64.4034587 123.509922,78.3892772 C119.66415,94.1857879 108.566491,101 108.566491,101 L105.068578,94.6570423 C105.068578,94.6570423 113.942196,81.0349436 113.170787,74.603428 C111.937177,64.3006683 98.6895572,57.4200377 98.6895572,57.4200377 L95,39 Z" id="Fill-218" fill="#0B43A4"></path>
                        <path d="M53.9832669,217.554463 C52.5081002,218.481272 44.5236397,223.121939 42,226 L62,225.951515 L61.9860487,218 L53.9832669,217.554463 Z" id="Fill-220" fill="#0C2340"></path>
                        <path d="M99.5186868,218 C99.5186868,218 102.459275,221.98143 103,225.966574 L89,226 C89.2417358,223.240483 90.2468477,220.601671 91.6097921,218.01857 L99.5186868,218 Z" id="Fill-222" fill="#0C2340"></path>
                        <path d="M91.6810959,218 C91.8699753,206.916417 89.5719425,169.141438 87.3526095,140.900218 C86.0461936,124.337463 84.7555176,111.030901 84,108.338279 L89.0682641,107.22679 L108.192304,103 C111.466214,117.872039 103.911037,186.158181 101.140806,217.984345 L91.6810959,218 Z" id="Fill-224" fill="#151515"></path>
                        <path d="M65.3082974,105.796977 C57.9705983,117.474909 56.0715949,201.85014 53,217.489239 L61.9235939,218 C61.9235939,218 72.1716369,164.801763 94,105 L65.3082974,105.796977 Z" id="Fill-226" fill="#009790"></path>
                        <path d="M65.3082974,105.796977 C57.9705983,117.474909 56.0715949,201.85014 53,217.489239 L61.9235939,218 C61.9235939,218 72.1716369,164.801763 94,105 L65.3082974,105.796977 Z" id="Fill-230" fill="#282828"></path>
                        <path d="M80.8452192,34.2475972 L79.9844018,39.8140211 L91,41 L88.6196252,33.2433535 C88.6196252,33.2433535 90.7963316,19.5458459 90.9427183,17.0736205 C91.2148066,12.4550396 78.0718279,4.31455583 72.1479406,12.4910733 C72.1479406,12.4910733 66.341799,34.2757975 80.8452192,34.2475972 Z" id="Fill-232" fill="#FFB9A3"></path>
                        <path d="M29.3634831,11.7344459 C29.2381945,7.48733202 25.5945264,8.59943564 27.6025771,1.66941304 C28.8434494,-2.61565094 38.0478734,2.35581528 36.9013966,5.32912498 C35.756636,8.30078467 34.4350984,13 34.4350984,13 L29.3634831,11.7344459 Z" id="Fill-238" fill="#FFB9A3"></path>
                        <path d="M80.8888735,38.7671124 C59.1663872,40.1771581 57.7368149,47.3507464 48.0150859,46.228019 C33.626927,44.5681312 36.1434204,18.387813 37.9220187,9 L29.3286478,9.01561512 C29.3286478,9.01561512 13.8376304,68.6544612 62.7650206,57.6270601 C60.8860176,68.07514 73.0525224,85.1331023 61.2557621,105.840319 C79.8290456,110.782506 97.1592229,111.995801 112,105.741944 C109.400633,102.312863 117.324639,67.6613392 101.808122,42.7161774 C98.7800423,37.8473815 82.4794121,38.665614 80.8888735,38.7671124" id="Fill-240" fill="#0056EC"></path>
                        <path d="M45.0150859,47.228019 C30.626927,45.5681312 33.1434204,19.387813 34.9220187,10 L26.3286478,10.0156151 C26.3286478,10.0156151 10.8376304,69.6544612 59.7650206,58.6270601 C57.8860176,69.07514 70.0525224,86.1331023 58.2557621,106.840319 C76.8290456,111.782506 94.1592229,112.995801 109,106.741944 C106.400633,103.312863 114.324639,68.6613392 98.8081218,43.7161774 C95.7800423,38.8473815 79.4794121,39.665614 77.8888735,39.7671124 C56.1663872,41.1771581 54.7368149,48.3507464 45.0150859,47.228019 Z" id="Fill-242" fill="#0056EC"></path>
                        <path d="M81.370906,18.9357736 C81.8790606,19.720219 81.8445258,20.6931868 81.7935459,21.605444 C82.0616015,20.651648 83.1502691,19.9630615 84.2011129,20.0796898 C85.2536012,20.1979158 86.1350601,21.1085754 86.1547943,22.0943244 C86.1630168,22.5576424 86.0051436,23.0081793 85.8291807,23.4427396 C85.3917403,24.5195546 84.8309613,25.5564284 84.1616446,26.5246033 C85.993632,27.1796392 87.5263181,32.3815822 88.4423118,34 C91.5224846,33.2507029 98.3718812,30.6800867 98.9688394,20.0844828 C99.2484066,15.149347 97.6992754,9.24124337 92.1885124,5.95328304 C88.2959502,3.63349762 81.8379477,3.60154466 77.3829621,4.70711732 C73.7683226,5.6049957 68.0043046,9.10863855 70.6914388,13.2066066 C72.048162,15.2755612 75.0148634,16.4961646 77.4273639,17.0952827 C78.889336,17.4579489 80.5897624,17.7295491 81.370906,18.9357736 Z" id="Fill-244" fill="#EF832B"></path>
                        <path d="M95.8245653,10.3084037 C97.8362929,9.65961637 100.387018,10.0039964 101.595005,11.6321143 C102.53825,12.9035529 102.452645,14.5716435 102.758605,16.0906052 C102.904451,16.8208753 103.172365,17.5695943 103.757335,18.073865 C104.458031,18.67653 105.472614,18.8210466 106.425371,18.8702437 C108.750985,18.9901618 111.106719,18.7057408 113.399043,19.0824064 C115.692951,19.4606094 118.037589,20.716674 118.690726,22.7952532 C119.052171,23.943699 118.855596,25.2074506 119.288379,26.33591 C119.938346,28.0270617 121.796301,28.9894808 123.414878,29.9734237 C126.858118,32.0643022 129.781385,34.8885256 131.900912,38.1647478 C133.243649,40.2402522 134.27567,42.5448308 134.438954,44.960103 C134.600654,47.3753751 136.396782,50.5670397 135.919611,52.945414 C135.402808,55.5113524 132.801354,58.9812883 127.660273,60.5863451 C118.777917,63.3582965 115.964035,64.5590143 107.452636,59.6546742 C106.426956,59.0627711 104.42157,57.0487631 103.494178,56.3307923 C102.766531,55.7650252 102.303628,54.9486601 102.049982,54.098472 C101.339774,51.7293222 102.160952,49.1772205 103.435522,47.0233081 C104.711677,44.8678583 106.430127,42.9630065 107.728476,40.8213934 C108.508436,39.5315059 109.145721,38.1017139 109.071213,36.6257997 C109.044263,36.0738692 108.900002,35.4958028 108.486242,35.0991509 C108.127968,34.7547709 107.614335,34.5933428 107.110214,34.4964859 C105.241162,34.1428814 103.186632,34.5180096 101.491962,33.7047194 C99.8448499,32.9114155 98.9428223,30.9819651 99.4421873,29.3230989 C99.7750973,28.2130884 100.642249,27.2798802 100.887968,26.1514207 C101.243072,24.5294525 100.193613,22.8598245 98.7367351,21.9097047 C97.2782723,20.9595849 95.4821436,20.5906063 93.7272323,20.3107976 C92.8632516,20.1724306 91.9580535,20.035601 91.2541866,19.5467044 C90.3870354,18.942502 89.9891287,17.8878383 90,16.8792969 C90.0382725,13.693782 92.7158201,11.3123328 95.8245653,10.3084037" id="Fill-246" fill="#EF832B"></path>
                        <path d="M97.9652199,36.2386835 C99.532058,37.6515233 101.357725,37.2059603 103.192635,37.4732981 C110.245718,38.4989031 106.389478,43.5361954 105.908796,47.4846937 C105.836386,48.0793178 106.77464,48.2024552 106.900973,47.6256537 C107.498744,44.8971878 109.882125,41.5659968 108.652689,38.6641665 C107.571155,36.1074449 104.891969,36.4071873 102.695006,36.3375175 C99.9418701,36.2500251 96.9021734,36.3423782 97.9344069,30.577603 C98.1639633,29.2960018 99.139193,27.9949578 99.6121716,26.7895074 C100.159101,25.3993508 100.524235,24.0189156 100.225349,22.5007609 C99.7215576,19.9278371 97.6802002,18.4161633 95.3476604,18.0046251 C95.0025555,17.9446767 94.8469501,18.4858332 95.1997583,18.5668446 C105.588342,20.9323791 92.4758942,31.2856431 97.9652199,36.2386835 Z" id="Fill-248" fill="#EF832B"></path>
                        <path d="M94.1898939,8.84283691 C94.6528254,9.32789033 95.2767765,8.58549941 94.8664861,8.03379744 C88.901018,0.00634856258 78.2923007,-1.4117847 71.0975095,5.13643639 C70.879204,5.33453073 71.0603511,5.74182749 71.3173633,5.58631418 C79.3683454,0.698753055 87.3930071,1.67441393 94.1898939,8.84283691 Z" id="Fill-250" fill="#EF832B"></path>
                    </g>
                    <rect id="Rectangle" fill="#C7EAEF" fill-rule="evenodd" x="118.403587" y="182.793779" width="20" height="90"></rect>
                    <rect id="Rectangle-Copy-18" fill="#C7EAEF" fill-rule="evenodd" x="154.403587" y="182.793779" width="20" height="90"></rect>
                    <rect id="Rectangle-Copy-19" fill="#C7EAEF" fill-rule="evenodd" x="189.403587" y="182.793779" width="20" height="90"></rect>
                    <rect id="Rectangle-Copy-20" fill="#C7EAEF" fill-rule="evenodd" x="225.403587" y="182.793779" width="20" height="90"></rect>
                    <rect id="Rectangle-Copy-21" fill="#C7EAEF" fill-rule="evenodd" x="261.403587" y="182.793779" width="20" height="90"></rect>
                    <rect id="Rectangle" fill="#5193F4" fill-rule="evenodd" x="118.403587" y="233.793779" width="20" height="39"></rect>
                    <rect id="Rectangle-Copy-18" fill="#5193F4" fill-rule="evenodd" x="154.403587" y="215.793779" width="20" height="57"></rect>
                    <rect id="Rectangle-Copy-19" fill="#5193F4" fill-rule="evenodd" x="189.403587" y="235.793779" width="20" height="37"></rect>
                    <rect id="Rectangle-Copy-20" fill="#5193F4" fill-rule="evenodd" x="225.403587" y="195.793779" width="20" height="77"></rect>
                    <rect id="Rectangle-Copy-21" fill="#5193F4" fill-rule="evenodd" x="261.403587" y="205.793779" width="20" height="67"></rect>
                    <rect id="Rectangle" fill="#BEEBF0" fill-rule="evenodd" x="323.403587" y="238.793779" width="116" height="13" rx="6.5"></rect>
                    <rect id="Rectangle-Copy-22" fill="#BEEBF0" fill-rule="evenodd" x="323.403587" y="259.793779" width="69" height="13" rx="6.5"></rect>
                </g>
            </g>
        </g>
    </g>
</svg>