<?xml version="1.0" encoding="UTF-8"?>
<svg width="561px" height="334px" viewBox="0 0 561 334" version="1.1" xmlns="http://www.w3.org/2000/svg" xmlns:xlink="http://www.w3.org/1999/xlink">
    <!-- Generator: Sketch 59 (86127) - https://sketch.com -->
    <title>Illustration/Step 3 New</title>
    <desc>Created with Sketch.</desc>
    <g id="High-Fi-Flow-(FINAL)" stroke="none" stroke-width="1" fill="none" fill-rule="evenodd">
        <g id="Homepage-Change-Order" transform="translate(-105.000000, -2591.000000)">
            <g id="Illustration/Step-3-New" transform="translate(105.000000, 2591.000000)">
                <g id="Group-48" stroke-width="1" fill-rule="evenodd" transform="translate(176.000000, 0.000000)">
                    <path d="M22.0157136,101 L25.3411341,84.9543934 L27.4484518,84.9942992 L28.8640612,101 L41.8438161,101 C42.0413228,93.8967654 42.0709053,80.4433015 41.8194541,73.8206717 L11.0388676,73 C10.7221609,78.2944603 10.5611973,92.8973851 10,101 L22.0157136,101" id="Fill-34" fill="#302E4F"></path>
                    <path d="M10,101 C8.77270435,124.090186 7.58951084,154.55084 7.58951084,154.55084 L9.09494702e-13,158 L10.1643057,158 L22.1691522,100.01266 C14.8745812,85.2774294 10.8181971,85.6065429 10,101 Z" id="Fill-35" fill="#302E4F"></path>
                    <path d="M41.8438161,101 L32.3942217,96 L28.8072014,100.164158 L34.6956697,157 L44.6635283,156.829783 L37.7848907,153.868907 C37.7848907,153.868907 39.1378659,136.245938 41.8438161,101 Z" id="Fill-36" fill="#302E4F"></path>
                    <path d="M7.89085818,36 C5.72213004,38.4633034 1.62524308,49.2482014 1.62524308,51.1150528 C1.62524308,52.9819041 -0.466899317,70.6455922 3.00288552,70.9825658 C6.47176935,71.3186687 9,66.6837574 9,66.6837574 L7.89085818,36" id="Fill-38" fill="#F0DECB"></path>
                    <path d="M42.3392717,37.1384224 L40.2211311,75.9196553 L10.8947095,73.5802621 L6.95889849,76.123888 C5.33775661,66.6266236 4.18304241,55.3584581 5.7273198,45.5314153 C6.21733089,42.4104562 7.72317604,34.9634763 8.33721846,31.8389807 C8.66913328,30.1520713 22.1623443,22.8562767 24.618514,23.0021572 C27.0746837,23.1489219 28.2040676,22.8032293 32.0018719,23.682933 C36.2888139,24.6758047 43.8101785,28.899267 45.3981289,30.8549502 C46.9869527,32.8106334 49.4649589,58.7897449 48.9242871,61.2732504 C47.604489,67.3295026 44.2661246,78 44.2661246,78 L40.2211311,75.9196553" id="Fill-39" fill="#039186"></path>
                    <path d="M16.2704307,64 C16.1740584,64 16.0803632,63.9490511 16.032177,63.8578794 C15.9616825,63.7255911 16.010761,63.5611246 16.1428267,63.4905112 C21.2746488,60.7401655 25.898732,56.8028003 29.5144759,52.1038834 C29.6081712,51.9867903 29.7768226,51.966232 29.8946109,52.0547222 C30.0132916,52.1458938 30.0347076,52.3166173 29.9436894,52.435498 C26.281544,57.1943022 21.596782,61.1826163 16.3980346,63.9687156 C16.3578795,63.9901678 16.3141551,64 16.2704307,64" id="Fill-40" fill="#04847A"></path>
                    <path d="M25.2634142,68 C25.2069025,68 25.1495213,67.9810311 25.1017037,67.9421899 C24.9869414,67.8491519 24.9660755,67.676625 25.0556249,67.558295 C28.454154,63.0247218 30.8815505,59.2074513 32.4856145,54.1879123 C32.5316933,54.0442904 32.6803626,53.9657049 32.8194685,54.0144821 C32.9577049,54.0614528 33.0324742,54.2168173 32.9863954,54.3604392 C31.3579879,59.4549506 28.904509,63.3164819 25.4712035,67.894316 C25.4199083,67.9638687 25.3416612,68 25.2634142,68" id="Fill-41" fill="#04847A"></path>
                    <path d="M11.2819532,71 C11.2745526,71 11.267152,71 11.2597515,70.9982563 C11.1061897,70.9886661 10.9896307,70.8613774 11.0007316,70.7157801 C11.3753853,66.0008688 11.8258949,61.4908399 12.2616033,57.1307675 C12.5881534,53.8631108 12.9267294,50.4838585 13.2366281,46.9842923 C13.6103568,42.7637144 13.6843625,34.7305796 11.5863015,31.3992785 C11.5076705,31.2737336 11.5511488,31.1115713 11.684359,31.0374649 C11.8184943,30.9624866 11.9896325,31.0034631 12.0682635,31.1298799 C14.23848,34.5753921 14.1746501,42.7445339 13.795371,47.0287562 C13.4854722,50.5300661 13.1468962,53.911062 12.8203462,57.1795906 C12.3846378,61.5387911 11.9341282,66.0453327 11.5613246,70.7550129 C11.5492987,70.8945073 11.4262642,71 11.2819532,71" id="Fill-42" fill="#04847A"></path>
                    <path d="M22,17 L22,23.4911944 C22,23.4911944 27.2119223,29.0487867 32,23.6205047 L31.5816243,17 L22,17" id="Fill-43" fill="#E88265"></path>
                    <path d="M34.4156493,13.1352064 C34.2254346,13.0505638 34.0564532,13.006479 33.9016274,12.9888451 C34.61825,8.43841981 34.3112524,2.78499465 26.8344896,3.00629998 C22.3737348,3.13855415 21.0475406,7.21639123 20.7608915,11.4802658 C20.5158243,11.3524201 20.1884781,11.3145073 19.7478879,11.4467615 C18.2075916,11.907006 19.2772173,15.7785266 20.8732509,16.3727886 C21.4642434,20.2698783 23.5309477,22.7659555 26.4885643,22.9863791 C29.2232317,23.1909322 31.3598288,21.073102 32.6479801,17.8778412 C34.3121371,17.5092929 35.8869375,13.7920688 34.4156493,13.1352064" id="Fill-44" fill="#E88265"></path>
                    <path d="M7,75.6082215 C7,75.6082215 11.1632272,83.7374959 12.6049708,80.0323164 C14.0467145,76.3262304 11.0781525,73 11.0781525,73 L7,75.6082215" id="Fill-46" fill="#E88265"></path>
                    <path d="M19.7176588,11.3756851 L20.8236745,13.0959584 L21.9976576,13.0959584 L21.9976576,10.1423568 C21.9976576,10.1423568 23.4764645,8.68850633 23.6329955,7.03309246 L32.5017172,7.64676306 C32.5017172,7.64676306 32.2185195,9.76417609 32.9208498,10.5963733 L32.9208498,14 L34.0134779,14 L35.0134232,13.0829865 C35.0134232,13.0829865 37.1646958,5.52935003 36.2914171,3.63844631 C35.4181384,1.74854042 33.62318,2.42906619 33.62318,2.42906619 C33.62318,2.42906619 30.7026396,-0.89872479 26.6215035,0.235817444 C22.5403674,1.37035968 19.2624829,3.79011774 18.6373884,5.45351431 C18.0133237,7.11790872 19.7176588,11.3756851 19.7176588,11.3756851" id="Fill-47" fill="#282828"></path>
                    <path d="M38.5766276,82.4009 C40.6510259,85.2264832 44.2661246,78 44.2661246,78 C44.2661246,78 41.2692487,75.0454712 40.6882682,75 C40.6882682,75 36.5031604,79.5744073 38.5766276,82.4009 Z" id="Fill-48" fill="#E88265"></path>
                    <path d="M40.6684917,75 C40.5652843,75 40.4692773,74.9265091 40.437275,74.8114029 C40.3972721,74.6697337 40.4684773,74.5200957 40.5964865,74.475824 C40.6156879,74.4669697 41.170128,74.2411845 41.3205389,73.0980913 C41.3645421,72.7687104 41.1157241,72.1781271 40.852505,71.5530118 C40.1828566,69.9618899 39.1699834,67.5570556 41.2045305,65.4222781 C42.8422489,63.7027685 42.3782154,61.549397 41.9685857,59.6483737 C41.7245681,58.5176766 41.5149529,57.5410447 41.820575,56.8397822 C42.2406054,55.8728901 42.2950093,46.9300232 42.3350122,40.400845 C42.3670146,35.1156992 42.3934165,31.8440266 42.5206257,31.2100571 C42.5502278,31.0657316 42.6798372,30.9763029 42.8102466,31.0055222 C42.940656,31.0382832 43.023062,31.1817232 42.9942599,31.3260487 C42.8718511,31.936997 42.8470493,36.0498304 42.8198473,40.4043867 C42.7662434,49.2392308 42.6902379,56.0765395 42.2566066,57.0717655 C42.0261899,57.6021395 42.2182038,58.4928845 42.4406199,59.5244132 C42.8582501,61.4643955 43.3790877,63.879855 41.5381546,65.8127538 C39.7572258,67.6810161 40.6084874,69.7024582 41.2925368,71.3254557 C41.61256,72.0869275 41.8653783,72.6881361 41.8013736,73.1751239 C41.6037594,74.67239 40.7764995,74.9760933 40.741297,74.9876039 C40.7164952,74.9955728 40.6924935,75 40.6684917,75" id="Fill-49" fill="#04847A"></path>
                    <path d="M13,27.7354985 C14.2564646,30.2288325 13.9178719,40.7415745 13.9178719,40.7415745 L13.9178719,45 C13.9178719,45 19.1868645,34.1707829 17.7525367,25 L13,27.7354985" id="Fill-52" fill="#F0DECB"></path>
                </g>
                <g id="Group-40-Copy-7" stroke-width="1" fill-rule="evenodd" transform="translate(294.000000, 71.000000)">
                    <polygon id="Fill-246-Copy-2" fill="#5193F4" points="8 79 14 79 14 3 8 3"></polygon>
                    <path d="M17.9145098,74 L3.75215686,74 C1.67980392,74 0,75.6034063 0,77.5815085 L0,79 L21.6666667,79 L21.6666667,77.5815085 C21.6666667,75.6034063 19.9868627,74 17.9145098,74" id="Fill-247-Copy-2" fill="#5193F4"></path>
                    <polygon id="Fill-249-Copy-2" fill="#1D5697" points="8 28.8805 14 28.8805 14 28.1195 8 28.1195"></polygon>
                    <polygon id="Fill-248-Copy-2" fill="#5193F4" points="6 28 16 28 16 23 6 23"></polygon>
                    <path d="M18,7 C18,10.8662171 14.8662171,14 11,14 C7.1337829,14 4,10.8662171 4,7 C4,3.1337829 7.1337829,0 11,0 C14.8662171,0 18,3.1337829 18,7" id="Fill-250-Copy-2" fill="#5193F4"></path>
                </g>
                <polygon id="Rectangle-Copy-33" fill="#5193F4" fill-rule="evenodd" points="308 75.8708571 335.260832 85.6421887 545.5 161 545.5 169 308 81.9389785"></polygon>
                <g id="Group-41" stroke-width="1" fill-rule="evenodd" transform="translate(294.000000, 37.000000)">
                    <path d="M35.0008593,13.93472 C34.98482,14.4858016 35.1952547,14.9622753 35.4704878,14.9978836 C35.7470041,15.033492 35.9831015,14.6155178 35.9991408,14.0644361 C36.01518,13.5133545 35.8047453,13.0377286 35.5288706,13.0021203 C35.2536375,12.9665119 35.0168985,13.3836384 35.0008593,13.93472" id="Fill-148" fill="#132529"></path>
                    <path d="M21.002079,10.2568637 C21.1252106,15.7025745 21.0646221,18.0030348 23.6191144,21.0526871 C27.4609511,25.6400476 33.9120053,24.701015 35.367434,19.4261607 C36.676929,14.6787917 36.2560664,6.5705676 31.1861711,3.89042629 C26.1905456,1.24960909 20.8795989,4.8111528 21.002079,10.2568637" id="Fill-152" fill="#BD5B52"></path>
                    <path d="M14.1022718,37.2804175 C13.2498237,39.7676427 12.4111566,42.4353923 11.6400815,45.0402004 C10.8624442,47.6616084 10.1510864,50.3016914 9.530289,52.9528411 L9.33079385,53.8174216 C9.31504423,53.8547714 9.30060708,53.9087213 9.29863838,53.9841127 C9.28354499,54.0442875 9.28551369,54.1328205 9.2874824,54.2234286 C9.28682616,54.5858607 9.36360555,55.0893924 9.50994575,55.615749 C9.80590731,56.6781455 10.3085826,57.85605 10.8906622,59.0028295 C12.0594151,61.3067636 13.5201922,63.6459726 15,65.8613737 L12.8751141,68 C10.7193851,66.0764813 8.80318165,64.0063298 7.0726924,61.5640628 C6.22877538,60.3266752 5.4104515,59.0298044 4.78112302,57.4410513 C4.47006807,56.6442539 4.18460625,55.7769068 4.05795307,54.7338769 C4.02645384,54.4731194 4.00086071,54.2095953 4.00348564,53.9163296 C3.9929859,53.6389721 4.00611058,53.3415565 4.04417216,53.0296158 C4.0796088,52.6699503 4.10717063,52.5426841 4.13473246,52.3559347 L4.21807419,51.8164365 C4.65643855,48.9349626 5.26476753,46.1005219 5.98268761,43.3041227 C6.71373236,40.492507 7.53140002,37.7887908 8.58006207,35 L14.1022718,37.2804175" id="Fill-153" fill="#BD5B52"></path>
                    <path d="M10.0644592,29.5820298 C6.84771263,31.1606771 5,39.979703 5,39.979703 L13.2270887,44 C13.2270887,44 18.2316325,37.4637339 16.7131323,32.3491474 C15.9554928,29.7979406 13.2277329,28.0296506 10.0644592,29.5820298" id="Fill-154" fill="#132529"></path>
                    <path d="M13.9850055,64 L17,69 L13.150604,68.8549649 C13.150604,68.8549649 11.2250164,66.6585267 12.3559359,64.7811657 L13.9850055,64" id="Fill-155" fill="#BD5B52"></path>
                    <polyline id="Fill-156" fill="#BD5B52" points="16.5267293 71.8373646 14.0888923 73 13 70 17 70.116426 16.5267293 71.8373646"></polyline>
                    <path d="M21.5854403,17 C22.3499762,20.4301189 22.0979385,26.2586077 20,28.5141751 C20,28.5141751 22.2955516,31.9228736 28.1312935,31.998559 C34.5482124,32.0813845 31.0462489,28.566298 31.0462489,28.566298 C27.5047628,27.6095205 27.4717193,24.7791726 27.966076,22.128042 L21.5854403,17" id="Fill-157" fill="#BD5B52"></path>
                    <path d="M19.030786,3.74101514 C15.9357049,3.89869882 13.6625703,5.21515879 16.2293508,13.0549529 C18.191142,19.0469327 11.4149987,27.6214797 17.83195,25.3165154 C21.6336168,26.6793529 24.8230841,25.9379746 24.8230841,25.9379746 C24.8230841,25.9379746 37.8188853,30.2901766 35.7836826,21.3737608 C33.7491355,12.457345 37.506231,6.0618804 34.7277369,2.45436931 C31.9492429,-1.15247925 19.7590018,-0.833799202 19.030786,3.74101514" id="Fill-158" fill="#132529"></path>
                    <path d="M18.8807559,30.298127 C18.2358558,30.2516279 17.6150824,29.9365445 17.2388363,29.3757793 C16.6676205,28.5256092 17.2394884,28.1258558 17.718762,27.28679 C18.3343188,26.2082886 16.5874155,24.7626525 18.5436342,24.0832105 C20.4998529,23.4044624 28.7681373,27.1299423 31.6939885,26.1610955 C33.7486702,25.4802654 34.1392619,27.2624994 33.6971564,28.4784161 C32.9707472,30.4778773 35.0176041,32.5259196 33.2785256,32.965926 C31.8009284,33.3400008 21.895941,30.5153542 18.8807559,30.298127" id="Fill-159" fill="#3769A4"></path>
                    <polyline id="Fill-160" fill="#BD5B52" points="30 178.595883 35.7255454 179 37 166.404117 31.2744546 166 30 178.595883"></polyline>
                    <polyline id="Fill-161" fill="#BD5B52" points="3 171.989539 7.77950234 174 13 163.010461 8.22049766 161 3 171.989539"></polyline>
                    <path d="M8.70983701,172.733374 L3.70290664,169.08515 C3.52098732,168.951962 3.296301,168.977331 3.16161687,169.145049 L0.174948437,172.885589 C-0.134633565,173.273878 -0.0184605251,173.939114 0.406017891,174.237906 C2.16967784,175.478175 3.07352962,175.983444 5.27507256,177.588043 C6.62957361,178.575326 8.52281118,180.165126 10.3930695,181.528013 C12.223114,182.861302 13.4920811,181.022744 12.8154688,180.279287 C9.78092691,176.946767 9.86135439,175.457739 9.28751064,173.563509 C9.18410387,173.22173 8.97665201,172.927871 8.70983701,172.733374" id="Fill-162" fill="#132529"></path>
                    <path d="M36.1798757,179 L30.0984375,179 C29.8771246,179 29.6984744,179.15013 29.6684772,179.360702 L29.0072049,184.051776 C28.9385446,184.538562 29.3705047,184.99935 29.8811242,184.990901 C32.0009284,184.955156 33.0221674,184.833622 35.696587,184.833622 C37.3417683,184.833622 40.7467871,185 43.0192438,185 C45.2417052,185 45.3976908,182.809792 44.450445,182.611568 C40.2015041,181.721837 38.5236591,180.494801 37.0871252,179.324957 C36.8278158,179.113735 36.5038457,179 36.1798757,179" id="Fill-163" fill="#132529"></path>
                    <path d="M35.9207027,174 L35.9207027,174 L36,172.947077 L35.9207027,174 M31.0024399,172.939179 L31,172.938389 L31.0719776,171.973934 L31.0744175,171.973934 L31.0024399,172.939179 M31.089667,171.776461 L31.087227,171.776461 L31.1451751,171 L31.147615,171 L31.089667,171.776461" id="Fill-164" fill="#BEBFBB"></path>
                    <polyline id="Fill-165" fill="#ACAEAB" points="30.4895 171.625 30.4855 171.625 30.5105 171.375 30.5145 171.375 30.4895 171.625"></polyline>
                    <polyline id="Fill-167" fill="#BEBFBB" points="6.00492126 166 6 165.997956 6.99606299 164 7 164.002044 6.00492126 166"></polyline>
                    <path d="M23,62 C27.1914904,62.0477929 29.4642603,61.8944573 38.0655751,62 C41.6785457,30.5940717 39.1225994,30.072996 39.1225994,30.072996 C39.1225994,30.072996 36.7843335,29.2718006 33.927034,28.7082424 C33.8172133,28.6863373 33.7158906,28.6697425 33.6211049,28.6518201 C32.186245,28.4028986 31.8894677,28.3803298 29.9944067,28.1818563 C26.7729993,28.0099346 23.7901904,27.93559 20.1484572,28.0670206 C19.9144345,28.0756498 19.6804118,28.0836153 19.4542335,28.0968911 C18.7966166,28.1347272 18.1488052,28.1838477 17.5225657,28.236951 C17.0989715,28.265494 16.6806069,28.3152783 16.2818531,28.3610798 C15.8105393,28.4201572 15.3516456,28.4765794 14.9215145,28.5356568 C12.6205091,28.8423281 11,29.1775424 11,29.1775424 C16.0772467,47.4171826 12.9437823,53.143041 13,62 L23,62 Z" id="Fill-169" fill="#132529"></path>
                    <path d="M39.42,42 C39.494,40.9084337 39.546,39.9122892 39.58,39 C39.547,39.9115663 39.494,40.9091566 39.42,42" id="Fill-170" fill="#BEBFBB"></path>
                    <path d="M39.4098142,50 C38.5525433,48.4553735 37.0596884,45.1643599 37.0007357,40.8665276 C36.962048,37.9234683 38.455517,37.0820273 39.9944287,37 C40.0060964,37.8765011 39.9999555,38.8833198 39.9710932,40.0409628 C39.9502141,40.8757887 39.9182814,41.7873499 39.8728387,42.7862304 C39.780111,44.817067 39.6308869,47.20115 39.4098142,50" id="Fill-171" fill="#09181B"></path>
                    <path d="M11.051525,165.607604 L6.03125,163.771027 L5,163.393463 C5,163.393463 9.94754077,129.820204 11.5728874,109.149276 C15.8537136,110.201762 21.4193932,108.91253 23.8412394,109.149276 C23.8412394,110.766952 22.3565157,128.863258 21.6137361,132.379992 C21.602299,132.436627 21.5902264,132.491913 21.5781539,132.548547 C18.8980476,145.188834 15.1568276,157.021405 13.2855823,162.61811 C13.2665203,162.674744 13.2480938,162.730705 13.2296673,162.786665 C12.5434381,164.832924 12.1234404,166 12.1234404,166 L11.051525,165.607604 Z M11.5155894,109.75 C12.3800022,98.9254782 9.5,91.4707244 9.32511536,74.2643335 C9.27166662,69.0056671 10.6357965,65.4109872 13.2098422,61.5761313 L15.2800412,62.1153673 L15.2741357,62.1942033 C15.2741357,62.2737248 15.3767432,62.334737 15.5059253,62.3354225 L16.1695522,62.3429634 C16.3046398,62.3429634 16.4146291,62.2819512 16.4197964,62.2065429 L16.4249637,62.1277069 L19.5961998,62.1626689 C24.1499411,61.5761313 27.6931573,67.1042657 29.4898958,74.8726939 C28.6454139,81.5305631 27.3907601,77.4248054 29,83.2099948 C29.3048698,81.0210968 26.8205436,95.4344062 27.1298424,93.2660742 C25.9192216,101.794755 25.3101817,103.11684 24.4066452,110.5 C24.3844997,110.677552 13.3270916,110.107847 11.5155894,109.75 Z" id="Fill-173" fill="#22406D"></path>
                    <polyline id="Fill-175" fill="#132529" points="12.9203314 167 4 163.736984 4.67558955 161 15 163.866802 12.9203314 167"></polyline>
                    <path d="M36.9612837,171.867816 L31.8551435,171.162159 L30.5043162,170.975746 C30.5043162,170.975746 31.443216,125.425408 31.5,107.586715 C33.5991615,107.872561 38.2770852,99.2496184 40.5375376,103.347809 C42.7584815,107.374371 42.5619047,124.124761 44.6353208,124.237638 C44.4208036,126.85962 44.1293126,129.712075 43.7879779,132.677734 C43.7810376,132.733997 43.7747283,132.790938 43.7684189,132.847201 C42.5538731,143.33716 40.7172273,155.190306 39.4276004,163.079298 C39.4181365,163.136238 39.4093034,163.191823 39.3998394,163.248764 C38.6465055,167.849433 38.0849752,171.069969 37.9518483,171.8285 C37.9341822,171.928824 37.9240873,171.986443 37.9215636,171.997966 L36.9612837,171.867816 Z M30.4930011,107.371715 C30.2879479,100.351069 28.013393,98.9236297 26.4354298,89.7392381 C25.6190026,84.9867272 27.2764633,83.2844296 26.4354298,79.0762443 C24.899739,71.3946791 23.517365,65.2586459 23,63 L33.6551952,63.1342173 L33.6488858,63.2467428 C33.6488858,63.2487764 33.6488858,63.25081 33.6482549,63.2521657 C33.6482549,63.3253752 33.7359546,63.3857051 33.8463678,63.3870609 L34.4135765,63.3945174 C34.4148384,63.3945174 34.4161003,63.3945174 34.4173621,63.3945174 C34.5290373,63.3945174 34.6230463,63.3341874 34.6274628,63.2596223 L34.6344031,63.1464188 L38,61.6743342 C39.0656457,67.5114289 44.9968453,100.73674 45,116.958725 C45,117.726746 43.5258682,106.047582 43.5,106.741715 C39.1982993,106.599364 34.7776666,107.740474 30.4930011,107.371715 Z" id="Fill-178" fill="#22406D"></path>
                    <path d="M46.560997,41.3567124 C47.3737498,42.9638254 48.1454544,44.6035426 48.8295898,46.3064303 C49.5308285,47.9991292 50.1574964,49.7488853 50.6288657,51.6331336 L50.807425,52.3381984 L50.8293173,52.4258221 L50.8566827,52.5616727 L50.908677,52.836091 C50.938779,53.0174516 50.9565665,53.1954159 50.9764064,53.3740595 C51.0325055,54.0804828 50.9832478,54.7346036 50.8847323,55.3357427 C50.6740186,56.5387 50.2813249,57.5494287 49.8482673,58.4820433 C48.9712058,60.3343667 47.8642748,61.8749129 46.7197164,63.3380242 C44.3827101,66.2316427 41.808993,68.7081998 38.9650425,71 L36.5150974,69.1314328 C38.6797016,66.5264969 41.1316991,63.4337989 42.8830855,60.6447854 C44.5817935,57.9101122 46.1525682,54.7162638 45.2070932,53.1410757 C44.7275143,51.6643793 44.0926368,50.1455692 43.3872932,48.6403442 C42.6812656,47.1371569 41.9246119,45.6292149 41.1221212,44.1362164 C40.3285242,42.6391424 39.4699344,41.1658423 38.6147652,39.6884666 C37.7705422,38.2172043 36.8599581,36.7303191 36,35.3235858 L41.1994285,32 C43.1943671,35.0566393 44.9457535,38.1193918 46.560997,41.3567124 Z" id="Fill-179" fill="#BD5B52"></path>
                    <path d="M38.964844,69.4492723 L40.525013,72.5150878 C41.683009,74.6475316 42.1250272,75.8010063 41.8510676,75.9755119 C41.4451965,76.2340421 40.1417612,75.5755381 37.9407618,74 C37.9407618,74 34.7930258,71.4133037 36.5150974,69.1314328 L38.0838132,69" id="Fill-180" fill="#BD5B52"></path>
                    <path d="M39.3248496,30.0951245 C43.3824516,31.8093632 46.7608842,36.6722729 48,39.5867509 L41.1895515,48 C41.1895515,48 34.9979911,38.4865882 35,35.4107621 C35.0020099,32.2083083 37.7903554,29.4470089 39.3248496,30.0951245" id="Fill-182" fill="#132529"></path>
                    <polyline id="Fill-183" fill="#132529" points="39.0599147 173 29 171.591697 29.0494452 169 40 169.517162 39.0599147 173"></polyline>
                    <path d="M12.0160687,63.349244 C11.9404153,63.5180528 12.1450395,63.6928108 12.420994,63.6965291 L37.4896193,63.9999387 C37.7050511,64.0029133 37.877973,63.8973148 37.8858986,63.7589957 L37.9997388,61.5778672 C38.0076644,61.426906 37.8145683,61.2960234 37.5789623,61.2930488 L13.3735052,61.0000503 C13.1955398,60.9978194 13.0413511,61.0699535 12.9923566,61.1785266 L12.0160687,63.349244 Z" id="Fill-187" fill="#C7EAEF"></path>
                    <path d="M18.6775641,64 L18.1754722,63.9921697 C18.0755007,63.9907503 17.9967521,63.924747 18.0001031,63.845969 L18.1335847,61.1412559 C18.1380527,61.0624779 18.2229448,60.9986038 18.3229164,61 L18.8250082,61.00783 C18.9255383,61.0092495 19.0042869,61.0752527 18.9998189,61.1547405 L18.8668958,63.8587438 C18.8629863,63.9382316 18.7775357,64.001396 18.6775641,64" id="Fill-188" fill="#3769A4"></path>
                    <path d="M18.6811837,64 C18.6795087,64 18.678392,64 18.6772753,64 L18.175321,63.992193 C18.0776103,63.9914833 18,63.928318 18,63.8516678 C18,63.8495387 18,63.8481192 18,63.8459901 L18.133445,61.1412349 C18.1373534,61.0631654 18.2211055,61 18.3193747,61 C18.3204913,61 18.321608,61 18.3227247,61 L18.824679,61.007807 C18.9223897,61.0092264 19,61.0723918 19,61.1490419 C19,61.1504613 19,61.1525905 18.9994417,61.1547197 L18.9977666,61.1951739 L18.8704634,63.7771469 L18.866555,63.8587651 C18.8626466,63.9368346 18.7794528,64 18.6811837,64" id="Fill-189" fill="#22406D"></path>
                    <path d="M33.6770586,64 L33.1749844,63.99217 C33.0750164,63.9907505 32.9957121,63.9247473 33.0001799,63.8452595 L33.1336568,61.1412562 C33.1370077,61.0617684 33.2224553,60.998604 33.3224233,61 L33.8244975,61.0078303 C33.9250241,61.0092497 34.0037699,61.075253 33.9998605,61.154031 L33.8663836,63.8587441 C33.8624742,63.9375221 33.7770267,64.0013962 33.6770586,64" id="Fill-190" fill="#3769A4"></path>
                    <path d="M33.6806253,64 C33.6795087,64 33.678392,64 33.6772753,64 L33.175321,63.992193 C33.0776103,63.9907736 33,63.9276082 33,63.8509581 C33.0005583,63.8495387 33.0005583,63.8474095 33.0005583,63.8452803 L33.1340034,61.1412349 C33.1373534,61.0631654 33.2205472,61 33.3188163,61 C33.3204913,61 33.321608,61 33.3227247,61 L33.824679,61.007807 C33.9223897,61.0092264 34,61.071682 34,61.1483322 C34,61.1504613 34,61.1518808 34,61.1540099 L33.9994417,61.1582683 L33.8726968,63.7402413 L33.866555,63.8587651 C33.8626466,63.9368346 33.7794528,64 33.6806253,64" id="Fill-191" fill="#22406D"></path>
                </g>
                <g id="Group-46" stroke-width="1" fill-rule="evenodd" transform="translate(236.000000, 37.000000)">
                    <path d="M46.6684884,83.7767829 L29.7754884,86.6387829 L12.8824884,83.7767829 L12.7364884,165.882783 L16.6334884,165.882783 L29.6114884,92.4537829 L30.7914884,165.882783 L34.6884884,165.882783 C34.6884884,165.882783 41.4714884,134.981783 41.7604884,132.165783 C42.0494884,129.349783 40.7504884,120.662783 40.7504884,120.662783 L46.6684884,83.7767829" id="Fill-93" fill="#302E4F"></path>
                    <path d="M16.5204884,24.1137829 C16.5204884,24.1137829 17.6704884,12.9557829 19.1864884,7.34678285 C20.7014884,1.73878285 26.6974884,-0.303217148 30.3684884,0.0357828515 C34.0404884,0.374782852 40.9854884,1.87078285 41.0744884,10.4447829 C41.1644884,19.0187829 42.2894884,24.6447829 42.2894884,24.6447829 L16.5204884,24.1137829" id="Fill-94" fill="#302E4F"></path>
                    <path d="M17.9054884,45.0037829 L20.0264884,58.9137829 C14.4584884,67.0457829 11.5064884,79.3237829 9.97448842,88.7447829 L50.3354884,88.7447829 C46.7934884,67.5447829 38.8204884,59.0007829 38.8204884,59.0007829 L42.0384884,44.8427829 C44.9344884,42.1077829 45.0954884,37.7637829 45.0954884,35.8337829 C45.0954884,33.9027829 45.0954884,28.5937829 45.0954884,28.5937829 C45.0954884,28.5937829 32.2244884,22.3187829 29.3284884,22.3187829 C26.4324884,22.3187829 14.5274884,27.9497829 14.5274884,27.9497829 L14.5274884,35.6727829 C13.5624884,41.3037829 17.9054884,45.0037829 17.9054884,45.0037829" id="Fill-95" fill="#F0DECB"></path>
                    <path d="M19.7224884,82.2367829 L20.8214884,25.1437829 C20.8214884,25.1437829 14.4134884,26.7487829 12.4534884,28.5937829 C10.4934884,30.4377829 6.06248842,63.6757829 5.60748842,73.6807829 C5.55248842,74.8747829 6.87248842,77.6917829 6.87248842,77.6917829 C6.79548842,79.0597829 6.70648842,80.5887829 6.60848842,82.2367829 L19.7224884,82.2367829" id="Fill-96" fill="#E26271"></path>
                    <path d="M41.9304884,44.7917829 C41.8744884,44.7917829 41.8184884,44.7767829 41.7694884,44.7457829 C41.6274884,44.6567829 41.5844884,44.4697829 41.6734884,44.3277829 C43.6524884,41.1687829 43.9704884,37.0767829 42.5054884,33.6497829 C42.4704884,33.5667829 42.4724884,33.4717829 42.5154884,33.3917829 C42.7464884,32.9437829 42.9624884,32.4627829 43.1784884,31.9817829 C43.4024884,31.4857829 43.6254884,30.9907829 43.8654884,30.5287829 C43.9424884,30.3797829 44.1254884,30.3237829 44.2734884,30.3987829 C44.4214884,30.4757829 44.4794884,30.6587829 44.4024884,30.8067829 C44.1684884,31.2597829 43.9504884,31.7457829 43.7314884,32.2307829 C43.5314884,32.6767829 43.3294884,33.1217829 43.1174884,33.5437829 C44.5974884,37.1227829 44.2444884,41.3647829 42.1874884,44.6497829 C42.1294884,44.7417829 42.0304884,44.7917829 41.9304884,44.7917829" id="Fill-97" fill="#302E4F"></path>
                    <path d="M26.7414884,18.1367829 L26.7414884,25.2137829 C26.7414884,25.2137829 30.3264884,31.2747829 33.6204884,25.3557829 L33.3324884,18.1367829 L26.7414884,18.1367829" id="Fill-98" fill="#E88265"></path>
                    <path d="M28.1854884,1.35678285 C22.0804884,2.15778285 21.1044884,9.21178285 22.5714884,14.7847829 C23.6664884,18.9437829 26.1584884,23.1447829 30.0744884,23.0437829 C33.9914884,22.9417829 36.3514884,17.5887829 37.0524884,14.3037829 C38.1804884,9.01978285 37.9714884,0.0737828515 28.1854884,1.35678285" id="Fill-99" fill="#E88265"></path>
                    <path d="M23.2994884,13.2437829 C23.2994884,13.2437829 23.0634884,10.9067829 21.1784884,11.6857829 C19.2934884,12.4657829 21.5934884,17.7307829 23.6914884,17.1267829 C25.7904884,16.5217829 23.2994884,13.2437829 23.2994884,13.2437829" id="Fill-100" fill="#E88265"></path>
                    <path d="M35.8384884,13.1257829 C35.8384884,13.1257829 35.9064884,10.7787829 37.8424884,11.4207829 C39.7774884,12.0627829 37.8624884,17.4797829 35.7254884,17.0267829 C33.5894884,16.5747829 35.8384884,13.1257829 35.8384884,13.1257829" id="Fill-101" fill="#E88265"></path>
                    <path d="M36.4754884,3.10278285 C35.9924884,2.88878285 35.4734884,2.80278285 34.9444884,2.78078285 C34.8074884,2.39278285 34.5774884,2.08378285 34.2214884,1.89078285 C32.0914884,0.734782852 27.0344884,0.912782852 24.8174884,1.89078285 C22.5994884,2.86878285 20.0244884,6.94878285 19.4424884,9.30178285 C18.8224884,11.8037829 19.4424884,14.4267829 20.0624884,16.9287829 C20.2404884,17.6487829 20.4774884,18.4487829 21.1284884,18.8037829 C21.6784884,19.1037829 22.3554884,18.9867829 22.9624884,18.8307829 C26.3744884,17.9577829 29.5324884,16.1147829 31.9704884,13.5747829 C32.3204884,13.2107829 32.6544884,12.8207829 32.9584884,12.4107829 C32.9604884,12.4157829 32.9614884,12.4207829 32.9634884,12.4257829 C33.8064884,14.7647829 35.2994884,16.8647829 37.2304884,18.4307829 C37.4474884,18.6067829 37.6964884,18.7857829 37.9764884,18.7737829 C38.4224884,18.7557829 38.6934884,18.2887829 38.8794884,17.8827829 C39.5684884,16.3747829 40.2704884,14.8167829 40.3254884,13.1587829 C40.3794884,11.5017829 37.9914884,3.77478285 36.4754884,3.10278285" id="Fill-102" fill="#302E4F"></path>
                    <path d="M50.9394884,82.2367829 C50.8614884,80.9147829 50.7894884,79.6697829 50.7234884,78.5227829 C50.7234884,78.5227829 51.5964884,74.8777829 51.5354884,73.5287829 C51.0794884,63.5247829 47.0554884,30.4377829 45.0954884,28.5937829 C43.1354884,26.7487829 37.5194884,25.1187829 37.5194884,25.1187829 L38.1834884,82.2367829 L50.9394884,82.2367829" id="Fill-104" fill="#E26271"></path>
                    <path d="M45.0954884,28.5937829 C47.1064884,29.9697829 48.4004884,33.7387829 49.3104884,36.8377829 C50.2194884,39.9367829 58.6194884,48.4917829 57.5574884,51.5227829 C56.4964884,54.5547829 56.2094884,54.7917829 57.4214884,58.5817829 C58.6344884,62.3707829 51.4324884,63.1827829 48.5524884,62.3977829 C45.6724884,61.6127829 39.3354884,57.7127829 39.3354884,57.7127829 L39.0814884,51.6847829 L42.2074884,52.1237829 L45.0954884,28.5937829" id="Fill-105" fill="#E26271"></path>
                    <path d="M12.4534884,28.5937829 C10.4424884,29.9697829 9.24948842,33.7387829 8.34048842,36.8377829 C7.43048842,39.9367829 -0.968511585,48.4917829 0.0924884153,51.5227829 C1.15348842,54.5547829 1.44148842,54.7917829 0.228488415,58.5817829 C-0.983511585,62.3707829 6.21848842,63.1827829 9.09848842,62.3977829 C11.9784884,61.6127829 18.3154884,57.7127829 18.3154884,57.7127829 L18.5694884,51.6847829 L15.4424884,52.1237829 L12.4534884,28.5937829" id="Fill-106" fill="#E26271"></path>
                    <polyline id="Fill-107" fill="#F0DECB" points="16.6334884 165.882783 15.4204884 170.814783 8.63148842 170.814783 12.0254884 168.348783 12.7364884 165.882783 16.6334884 165.882783"></polyline>
                    <polygon id="Fill-108" fill="#F0DECB" points="30.7914884 170.814783 41.199575 171 34.2203887 167 34.6884884 165.882783 30.7914884 165.882783"></polygon>
                    <polyline id="Fill-109" fill="#302E4F" points="11.7034884 52.7397829 12.7364884 36.2957829 41.9304884 36.2957829 42.9144884 55.5317829 11.7034884 55.5317829 11.7034884 52.7397829"></polyline>
                    <path d="M27.5464884,43.6737829 C27.2924884,43.6737829 27.0524884,43.7217829 26.8334884,43.8157829 C26.2284884,44.0777829 25.7764884,44.6657829 25.6804884,45.3157829 C25.6104884,45.7857829 25.7194884,46.2807829 25.9824884,46.6777829 C26.3284884,47.2017829 26.9684884,47.5267829 27.6544884,47.5267829 C27.9924884,47.5267829 28.3124884,47.4437829 28.5824884,47.2867829 C29.4284884,46.7967829 29.7844884,45.5997829 29.3444884,44.7267829 C29.0274884,44.0967829 28.3044884,43.6737829 27.5464884,43.6737829 Z M27.6544884,48.1327829 C26.7684884,48.1327829 25.9334884,47.7037829 25.4754884,47.0107829 C25.1324884,46.4917829 24.9884884,45.8417829 25.0814884,45.2267829 C25.2064884,44.3747829 25.8004884,43.6017829 26.5924884,43.2597829 C26.8884884,43.1317829 27.2094884,43.0667829 27.5464884,43.0667829 C28.5284884,43.0667829 29.4684884,43.6247829 29.8864884,44.4547829 C30.4724884,45.6187829 30.0154884,47.1567829 28.8864884,47.8117829 C28.5244884,48.0217829 28.0984884,48.1327829 27.6544884,48.1327829 L27.6544884,48.1327829 Z" id="Fill-110" fill="#403E78"></path>
                    <path d="M48.0244884,51.6847829 C48.0244884,51.6847829 46.4754884,48.6677829 45.5434884,48.6877829 L44.3524884,51.4447829 C44.3524884,51.4447829 39.2974884,50.5177829 39.2154884,50.8277829 C39.1344884,51.1377829 38.7674884,52.5387829 38.7674884,52.5387829 L40.8584884,52.6507829 C40.8584884,52.6507829 40.3644884,53.5807829 40.5364884,53.8757829 C40.7084884,54.1707829 41.1294884,54.4677829 41.1294884,54.4677829 C41.1294884,54.4677829 41.0854884,55.3507829 41.3054884,56.1777829 C41.5244884,57.0047829 41.3404884,57.7067829 41.8594884,58.3417829 C42.3794884,58.9767829 47.0774884,58.1697829 47.7204884,57.9857829 C47.7634884,57.9727829 47.8264884,57.9467829 47.9054884,57.9087829 C50.4794884,56.6817829 50.5414884,53.0267829 48.0244884,51.6847829" id="Fill-111" fill="#E88265"></path>
                    <path d="M8.03048842,52.9787829 C8.03048842,52.9787829 9.58048842,49.9627829 10.5124884,49.9827829 L11.7034884,52.7397829 C11.7034884,52.7397829 16.7584884,51.8127829 16.8394884,52.1227829 C16.9214884,52.4327829 17.2884884,53.8327829 17.2884884,53.8327829 L15.1974884,53.9447829 C15.1974884,53.9447829 15.6914884,54.8757829 15.5184884,55.1707829 C15.3464884,55.4657829 14.9254884,55.7627829 14.9254884,55.7627829 C14.9254884,55.7627829 14.9704884,56.6457829 14.7504884,57.4717829 C14.5304884,58.2987829 14.7154884,59.0007829 14.1954884,59.6367829 C13.6764884,60.2717829 8.97848842,59.4647829 8.33548842,59.2807829 C8.29248842,59.2677829 8.22948842,59.2417829 8.15048842,59.2037829 C5.57648842,57.9767829 5.51448842,54.3207829 8.03048842,52.9787829" id="Fill-112" fill="#E88265"></path>
                    <path d="M7.21248842,52.9057829 C7.10848842,52.9057829 7.00648842,52.8507829 6.94948842,52.7537829 C6.39048842,51.7827829 5.72448842,50.8727829 4.96848842,50.0507829 C4.85648842,49.9277829 4.86448842,49.7357829 4.98748842,49.6227829 C5.11148842,49.5107829 5.30248842,49.5177829 5.41548842,49.6417829 C6.20148842,50.4957829 6.89448842,51.4407829 7.47548842,52.4517829 C7.55848842,52.5967829 7.50848842,52.7817829 7.36448842,52.8657829 C7.31548842,52.8927829 7.26448842,52.9057829 7.21248842,52.9057829" id="Fill-113" fill="#D14E62"></path>
                    <path d="M47.9414884,50.5547829 C47.9104884,50.5547829 47.8794884,50.5497829 47.8484884,50.5397829 C47.6904884,50.4897829 47.6014884,50.3187829 47.6524884,50.1597829 C47.9584884,49.1967829 48.6294884,48.3437829 49.4924884,47.8197829 C49.6374884,47.7347829 49.8214884,47.7777829 49.9094884,47.9217829 C49.9954884,48.0647829 49.9504884,48.2507829 49.8074884,48.3377829 C49.0674884,48.7877829 48.4934884,49.5177829 48.2304884,50.3427829 C48.1884884,50.4717829 48.0704884,50.5547829 47.9414884,50.5547829" id="Fill-114" fill="#D14E62"></path>
                    <path d="M17.2834884,79.0377829 C17.2784884,79.0377829 17.2744884,79.0377829 17.2704884,79.0377829 C14.2554884,78.9087829 11.1914884,78.7227829 8.16348842,78.4867829 C7.99648842,78.4737829 7.87248842,78.3287829 7.88548842,78.1617829 C7.89848842,77.9957829 8.01748842,77.8487829 8.21048842,77.8827829 C11.2314884,78.1177829 14.2884884,78.3017829 17.2964884,78.4317829 C17.4634884,78.4387829 17.5934884,78.5807829 17.5864884,78.7477829 C17.5794884,78.9097829 17.4454884,79.0377829 17.2834884,79.0377829" id="Fill-115" fill="#D14E62"></path>
                    <path d="M39.7064884,78.8247829 C39.5474884,78.8247829 39.4144884,78.7027829 39.4044884,78.5417829 C39.3924884,78.3747829 39.5194884,78.2297829 39.6864884,78.2197829 C42.6854884,78.0137829 45.7314884,77.9917829 48.7424884,78.1497829 C48.9114884,78.1587829 49.0384884,78.3007829 49.0304884,78.4697829 C49.0214884,78.6347829 48.9154884,78.7687829 48.7104884,78.7557829 C45.7264884,78.5957829 42.7014884,78.6217829 39.7264884,78.8237829 C39.7204884,78.8247829 39.7134884,78.8247829 39.7064884,78.8247829" id="Fill-116" fill="#D14E62"></path>
                    <path d="M7.42448842,62.5117829 C7.26248842,62.5117829 7.12748842,62.3837829 7.12148842,62.2207829 C7.11548842,62.0527829 7.24548842,61.9127829 7.41248842,61.9057829 C8.33648842,61.8717829 9.24348842,61.3387829 9.72648842,60.5517829 C9.81348842,60.4067829 10.0004884,60.3637829 10.1434884,60.4507829 C10.2854884,60.5387829 10.3304884,60.7247829 10.2434884,60.8677829 C9.64848842,61.8377829 8.57348842,62.4677829 7.43648842,62.5117829 C7.43148842,62.5117829 7.42848842,62.5117829 7.42448842,62.5117829" id="Fill-117" fill="#D14E62"></path>
                    <path d="M49.8784884,61.9137829 C49.8274884,61.9137829 49.7754884,61.9007829 49.7284884,61.8737829 C48.4454884,61.1417829 47.3064884,60.1257829 46.4324884,58.9347829 C46.3334884,58.7997829 46.3624884,58.6107829 46.4964884,58.5107829 C46.6314884,58.4117829 46.8204884,58.4407829 46.9204884,58.5757829 C47.7454884,59.6987829 48.8194884,60.6577829 50.0284884,61.3477829 C50.1744884,61.4307829 50.2244884,61.6157829 50.1414884,61.7607829 C50.0854884,61.8597829 49.9834884,61.9137829 49.8784884,61.9137829" id="Fill-118" fill="#D14E62"></path>
                    <path d="M50.8164884,57.4747829 C50.7824884,57.4747829 50.7474884,57.4687829 50.7134884,57.4577829 C50.5554884,57.4007829 50.4744884,57.2267829 50.5314884,57.0697829 C51.0914884,55.5087829 50.7964884,53.6537829 49.7794884,52.3427829 C49.6764884,52.2107829 49.6994884,52.0207829 49.8324884,51.9177829 C49.9634884,51.8147829 50.1544884,51.8377829 50.2574884,51.9717829 C51.3994884,53.4407829 51.7304884,55.5227829 51.1014884,57.2737829 C51.0564884,57.3977829 50.9404884,57.4747829 50.8164884,57.4747829" id="Fill-119" fill="#D14E62"></path>
                    <path d="M5.62448842,58.2847829 C5.52148842,58.2847829 5.41948842,58.2307829 5.36248842,58.1347829 C4.48148842,56.6397829 4.60048842,54.6297829 5.64948842,53.2457829 C5.75048842,53.1137829 5.93948842,53.0867829 6.07448842,53.1877829 C6.20748842,53.2897829 6.23348842,53.4797829 6.13248842,53.6127829 C5.22748842,54.8047829 5.12648842,56.5387829 5.88648842,57.8277829 C5.97048842,57.9717829 5.92348842,58.1577829 5.77848842,58.2427829 C5.73048842,58.2707829 5.67648842,58.2847829 5.62448842,58.2847829" id="Fill-120" fill="#D14E62"></path>
                    <path d="M32.7324884,78.6257829 C32.6464884,78.6257829 32.5594884,78.5887829 32.4994884,78.5167829 C28.0744884,73.2017829 25.1734884,66.7797829 24.1074884,59.9447829 C24.0814884,59.7787829 24.1954884,59.6247829 24.3614884,59.5977829 C24.5224884,59.5737829 24.6814884,59.6857829 24.7074884,59.8507829 C25.7554884,66.5787829 28.6114884,72.8987829 32.9654884,78.1277829 C33.0724884,78.2567829 33.0544884,78.4477829 32.9264884,78.5557829 C32.8694884,78.6027829 32.8014884,78.6257829 32.7324884,78.6257829" id="Fill-121" fill="#D1AC91"></path>
                </g>
                <g id="Group-40" stroke-width="1" fill-rule="evenodd" transform="translate(85.000000, 154.000000)">
                    <polygon id="Fill-246-Copy-2" fill="#5193F4" points="14 111 20 111 20 3 14 3"></polygon>
                    <path d="M28.6632157,106 L6.00345098,106 C2.68768627,106 6.07514039e-13,108.56545 6.07514039e-13,111.730414 L6.07514039e-13,114 L34.6666667,114 L34.6666667,111.730414 C34.6666667,108.56545 31.9789804,106 28.6632157,106" id="Fill-247-Copy-2" fill="#5193F4"></path>
                    <polygon id="Fill-249-Copy-2" fill="#1D5697" points="14 42.8805 20 42.8805 20 42.1195 14 42.1195"></polygon>
                    <polygon id="Fill-248-Copy-2" fill="#5193F4" points="12 42 22 42 22 37 12 37"></polygon>
                    <path d="M24,7 C24,10.8662171 20.8662171,14 17,14 C13.1337829,14 10,10.8662171 10,7 C10,3.1337829 13.1337829,0 17,0 C20.8662171,0 24,3.1337829 24,7" id="Fill-250-Copy-2" fill="#5193F4"></path>
                </g>
                <g id="Group-40-Copy-3" stroke-width="1" fill-rule="evenodd" transform="translate(221.000000, 143.000000)">
                    <polygon id="Fill-246-Copy-2" fill="#5193F4" points="14 111 20 111 20 3 14 3"></polygon>
                    <path d="M28.6632157,105 L6.00345098,105 C2.68768627,105 6.07514039e-13,107.56545 6.07514039e-13,110.730414 L6.07514039e-13,113 L34.6666667,113 L34.6666667,110.730414 C34.6666667,107.56545 31.9789804,105 28.6632157,105" id="Fill-247-Copy-2" fill="#5193F4"></path>
                    <polygon id="Fill-249-Copy-2" fill="#1D5697" points="14 42.8805 20 42.8805 20 42.1195 14 42.1195"></polygon>
                    <polygon id="Fill-248-Copy-2" fill="#5193F4" points="12 42 22 42 22 37 12 37"></polygon>
                    <path d="M24,7 C24,10.8662171 20.8662171,14 17,14 C13.1337829,14 10,10.8662171 10,7 C10,3.1337829 13.1337829,0 17,0 C20.8662171,0 24,3.1337829 24,7" id="Fill-250-Copy-2" fill="#5193F4"></path>
                </g>
                <g id="Group-40-Copy-2" stroke-width="1" fill-rule="evenodd" transform="translate(306.000000, 187.000000)">
                    <polygon id="Fill-246-Copy-2" fill="#5193F4" points="17 111 23 111 23 3 17 3"></polygon>
                    <path d="M32.2461176,105 L6.75388235,105 C3.02364706,105 0,107.886131 0,111.446715 L0,114 L39,114 L39,111.446715 C39,107.886131 35.9763529,105 32.2461176,105" id="Fill-247-Copy-2" fill="#5193F4"></path>
                    <polygon id="Fill-249-Copy-2" fill="#1D5697" points="17 42.8805 23 42.8805 23 42.1195 17 42.1195"></polygon>
                    <polygon id="Fill-248-Copy-2" fill="#5193F4" points="15 42 25 42 25 37 15 37"></polygon>
                    <path d="M27,7 C27,10.8662171 23.8662171,14 20,14 C16.1337829,14 13,10.8662171 13,7 C13,3.1337829 16.1337829,0 20,0 C23.8662171,0 27,3.1337829 27,7" id="Fill-250-Copy-2" fill="#5193F4"></path>
                </g>
                <g id="Group-40-Copy-6" stroke-width="1" fill-rule="evenodd" transform="translate(331.000000, 134.000000)">
                    <polygon id="Fill-246-Copy-2" fill="#5193F4" points="12 93 18 93 18 5 12 5"></polygon>
                    <path d="M25.0803137,86 L5.25301961,86 C2.35172549,86 -6.05737682e-13,88.2447689 -6.05737682e-13,91.0141119 L-6.05737682e-13,93 L30.3333333,93 L30.3333333,91.0141119 C30.3333333,88.2447689 27.9816078,86 25.0803137,86" id="Fill-247-Copy-2" fill="#5193F4"></path>
                    <polygon id="Fill-249-Copy-2" fill="#1D5697" points="12 35.8805 18 35.8805 18 35.1195 12 35.1195"></polygon>
                    <polygon id="Fill-248-Copy-2" fill="#5193F4" points="10 35 20 35 20 30 10 30"></polygon>
                    <path d="M22,7 C22,10.8662171 18.8662171,14 15,14 C11.1337829,14 8,10.8662171 8,7 C8,3.1337829 11.1337829,0 15,0 C18.8662171,0 22,3.1337829 22,7" id="Fill-250-Copy-2" fill="#5193F4"></path>
                </g>
                <g id="Group-40-Copy-8" stroke-width="1" fill-rule="evenodd" transform="translate(530.000000, 157.000000)">
                    <polygon id="Fill-246-Copy-2" fill="#5193F4" points="12 93 18 93 18 5 12 5"></polygon>
                    <path d="M25.0803137,86 L5.25301961,86 C2.35172549,86 -6.05737682e-13,88.2447689 -6.05737682e-13,91.0141119 L-6.05737682e-13,93 L30.3333333,93 L30.3333333,91.0141119 C30.3333333,88.2447689 27.9816078,86 25.0803137,86" id="Fill-247-Copy-2" fill="#5193F4"></path>
                    <polygon id="Fill-249-Copy-2" fill="#1D5697" points="12 35.8805 18 35.8805 18 35.1195 12 35.1195"></polygon>
                    <polygon id="Fill-248-Copy-2" fill="#5193F4" points="10 35 20 35 20 30 10 30"></polygon>
                    <path d="M22,7 C22,10.8662171 18.8662171,14 15,14 C11.1337829,14 8,10.8662171 8,7 C8,3.1337829 11.1337829,0 15,0 C18.8662171,0 22,3.1337829 22,7" id="Fill-250-Copy-2" fill="#5193F4"></path>
                </g>
                <g id="Group-40-Copy" stroke-width="1" fill-rule="evenodd" transform="translate(27.000000, 87.000000)">
                    <polygon id="Fill-246-Copy-2" fill="#5193F4" points="13 116 19 116 19 0 13 0"></polygon>
                    <path d="M25.4136471,110 L5.58635294,110 C2.68505882,110 0.333333333,112.244769 0.333333333,115.014112 L0.333333333,117 L30.6666667,117 L30.6666667,115.014112 C30.6666667,112.244769 28.3149412,110 25.4136471,110" id="Fill-247-Copy-2" fill="#5193F4"></path>
                    <polygon id="Fill-249-Copy-2" fill="#1D5697" points="13 55.8805 19 55.8805 19 55.1195 13 55.1195"></polygon>
                    <polygon id="Fill-248-Copy-2" fill="#5193F4" points="11 55 21 55 21 50 11 50"></polygon>
                </g>
                <g id="Group-40-Copy-4" stroke-width="1" fill-rule="evenodd" transform="translate(131.000000, 89.000000)">
                    <polygon id="Fill-246-Copy-2" fill="#5193F4" points="10 96 16 96 16 3 10 3"></polygon>
                    <path d="M21.4974118,90 L4.50258824,90 C2.01576471,90 0,91.9240876 0,94.2978102 L0,96 L26,96 L26,94.2978102 C26,91.9240876 23.9842353,90 21.4974118,90" id="Fill-247-Copy-2" fill="#5193F4"></path>
                    <polygon id="Fill-249-Copy-2" fill="#1D5697" points="10 35.8805 16 35.8805 16 35.1195 10 35.1195"></polygon>
                    <polygon id="Fill-248-Copy-2" fill="#5193F4" points="8 35 18 35 18 30 8 30"></polygon>
                    <path d="M20,7 C20,10.8662171 16.8662171,14 13,14 C9.1337829,14 6,10.8662171 6,7 C6,3.1337829 9.1337829,0 13,0 C16.8662171,0 20,3.1337829 20,7" id="Fill-250-Copy-2" fill="#5193F4"></path>
                </g>
                <polygon id="Rectangle-Copy-34" fill="#5193F4" fill-rule="evenodd" points="239 146.298551 345 138 345 146 239 154.298551"></polygon>
                <polygon id="Rectangle-Copy-31" fill="#5193F4" fill-rule="evenodd" points="147 93.5 323 192 323 200 147 101.5"></polygon>
                <g id="Group-44" stroke-width="1" fill-rule="evenodd" transform="translate(117.000000, 71.000000)">
                    <path d="M32,9.26149578 C32,9.26149578 26.7050089,0.892557959 20.1400343,0.0559156103 C13.7831181,-0.754326304 5.95006892,7.37826477 8.49130835,15.5385134 C10.5617122,22.1857658 17.1750429,26 17.1750429,26 L32,9.26149578" id="Fill-127" fill="#D88060"></path>
                    <path d="M12.5678447,198 C12.5678447,198 10.6321047,202.372484 11.0624128,202.997483 C11.4920747,203.621855 14.2884307,206.537262 16.2241707,205.912889 C18.1599106,205.287891 20.5253125,204.455186 20.9549744,203.205815 C21.3852825,201.956445 18.5895726,198.208333 18.5895726,198.208333 L12.5678447,198" id="Fill-128" fill="#2F3228"></path>
                    <path d="M37.5353077,198.198237 C37.5353077,198.198237 36.4857443,202.359423 37.3258996,203.350012 C38.1654241,204.3406 41.9442306,203.746485 41.9442306,203.746485 C41.9442306,203.746485 48.2422414,204.142364 52.8618339,203.944722 C57.4807957,203.746485 60,202.755302 60,202.755302 C60,202.755302 59.1598447,199.387062 56.0111547,199.188825 C52.8618339,198.990589 46.5631924,199.387062 46.5631924,199.387062 L44.043988,198 L37.5353077,198.198237" id="Fill-129" fill="#2F3228"></path>
                    <path d="M28.5345023,116.520431 L23.8299826,116.730268 L21.2641146,155.324027 L19.7672512,198.531696 C19.7672512,198.531696 14.8494445,200.209768 11.6411458,197.902813 C11.8550752,197.483137 11,153.22628 11,153.22628 L11.8550752,101.628883 L39.8682639,101 L43.0752778,152.806605 L45,199.161209 C45,199.161209 39.0125463,201.048489 36.4466783,199.161209 C36.8745371,199.371047 33.4529514,154.695144 33.4529514,154.695144 L28.5345023,116.520431" id="Fill-130" fill="#678598"></path>
                    <path d="M21.6470031,37 C21.6470031,37 8.64582041,39.0006172 4.27709007,42.8968224 C-0.0916402675,46.7930277 -0.731294614,58.2709521 0.654302989,66.4841122 C2.0392603,74.6972723 9.17854555,80.0683159 9.17854555,80.0683159 L9.17854555,102.180767 C9.17854555,102.180767 35.9262139,104.497738 43.4919354,101.338635 C43.0661394,101.443665 42.7459921,77.5406543 42.7459921,77.5406543 C42.7459921,77.5406543 50.4192831,76.4878311 51.8042404,73.0130082 C53.189838,69.5375527 46.818266,55.0738873 45.3033289,50.5835709 C41.1478167,38.2641471 28.0403451,37.3163531 28.0403451,37.3163531 L21.6470031,37" id="Fill-131" fill="#54856A"></path>
                    <polyline id="Fill-132" fill="#37654C" points="42.784084 77.6357394 28 74 43 82 42.784084 77.6357394"></polyline>
                    <path d="M9,80.1474009 C9,80.1474009 13.655451,80.2480569 17.3798119,79.1378094 C21.1035512,78.0275619 24,75 24,75 C20.5267476,81.0423902 15.9887706,85.348768 9.206978,86 L9,80.1474009" id="Fill-133" fill="#37654C"></path>
                    <path d="M18.2183707,28 L18,38.4402489 C18,38.4402489 23.8933846,46.5122997 26.5125209,45.9742492 C29.1316572,45.4361987 27.4948609,38.9782994 27.4948609,38.9782994 L27.1669771,31.1215982 L18.2183707,28" id="Fill-134" fill="#CF7B57"></path>
                    <path d="M10.0060522,20.5746242 C9.7909281,23.2859762 15.3822159,25.7886663 15.3822159,25.7886663 C15.3822159,25.7886663 20.4393332,36.7830985 29.3588205,33.7140605 C38.2783079,30.6450225 31.7238933,9.51992745 31.7238933,9.51992745 C31.7238933,9.51992745 29.1436965,7.64322319 27.853598,8.06054707 C26.5634996,8.47724435 25.4885253,10.1459133 23.3379305,10.1459133 C21.1879819,10.1459133 17.1025625,7.64322319 14.9519678,9.31189212 C12.8013731,10.9799344 14.0921175,21.4086453 14.0921175,21.4086453 C14.0921175,21.4086453 10.2211762,17.8632721 10.0060522,20.5746242 Z" id="Fill-135" fill="#EBA47C"></path>
                    <path d="M28.8391273,27.1076551 C28.1366433,27.1603853 27.5051173,27.3316224 26.7916671,27.2131154 C25.9911322,27.079931 25.3608963,26.7211486 24.8790272,26.1726463 C24.5313331,25.7768984 23.756601,26.1264395 24.0752668,26.5683942 C24.9415992,27.7697718 27.7741126,28.6895596 28.9758827,27.3093344 C29.0455505,27.2299673 28.9533051,27.0989574 28.8391273,27.1076551" id="Fill-140" fill="#B25D3F"></path>
                    <polyline id="Fill-142" fill="#37654C" points="22 69 12.3788231 69 10 52 14.540681 67.0631275 22 69"></polyline>
                    <path d="M20.1545562,64.0310675 C17.5775878,64.3351138 14.8594374,67.2235466 14.8594374,67.2235466 L22.4614932,69.2275994 L25.5671215,66.3132254 C23.6771365,64.5890893 21.872948,63.82837 20.1545562,64.0310675 Z" id="Fill-143" fill="#AD5E41"></path>
                    <polyline id="Fill-144" fill="#37654C" points="34 67.246129 42 68 38.619499 54 37.943128 64.7690317 34 67.246129"></polyline>
                    <path d="M28.1402842,47.0008006 L28.0221302,47.006461 C27.6414901,47.0248573 27.1462335,47.2916033 27.0860952,47.7189629 L27.0882177,47.8045763 C26.7521508,48.5673141 27.4313598,49.2479762 28.19547,48.9118905 L28.2810786,48.9133056 C28.7105368,48.8538714 28.9751453,48.3642475 28.9935406,47.9772182 L28.9992007,47.8597651 C29.0211335,47.411179 28.5881377,46.9788666 28.1402842,47.0008006" id="Fill-145" fill="#FFFFFE"></path>
                    <path d="M28.4997374,51 C27.8337711,51 27.8330708,52 28.4997374,52 C29.166404,52 29.1671043,51 28.4997374,51" id="Fill-146" fill="#FFFFFE"></path>
                    <path d="M31.5270483,68.782812 L25.5671215,73.3666871 L22.5340208,69.1833436 C22.5340208,69.1833436 25.1819969,65.8648738 28.0181341,65.1298491 C30.8542714,64.3948245 35.9594785,66.0642227 35.9594785,66.0642227 L31.5270483,68.782812 Z" id="Fill-141" fill="#CF7B57"></path>
                </g>
                <g id="Group-47" stroke-width="1" fill-rule="evenodd" transform="translate(362.000000, 62.000000)">
                    <path d="M46.2904351,5.02732329 C45.7101463,3.40497747 43,3 43,3 L43,16.5810564 L48.0324644,18 L49,14.1487556 L45.7101463,13.7431692 C45.7101463,13.7431692 46.8713054,6.64845114 46.2904351,5.02732329 Z" id="Fill-26" fill="#A66E58"></path>
                    <polyline id="Fill-27" fill="#1C1B19" points="37 3.93734744 43 3 43 19.4999061 37.5622007 21 37 3.93734744"></polyline>
                    <path d="M0,88.8754635 C0,88.8754635 0,94.6548904 0.398043914,95.8807497 C0.796087827,97.106609 3.77962419,100.608989 4.77473397,99.9081974 C5.76924609,99.2079318 4.37669006,93.9546248 4.37669006,93.9546248 C4.37669006,93.9546248 6.96278017,97.4570049 8.55435816,96.0559476 C10.1459362,94.6548904 6.96278017,92.0279738 6.96278017,92.0279738 L6.36631196,88 L0,88.8754635" id="Fill-28" fill="#A66E58"></path>
                    <path d="M36,169.019069 L36.341968,163.194258 L40.6214537,163 C40.6214537,163 48.5859663,165.074998 51.575744,166.689145 C52.8680232,167.387422 50.8912937,170.184615 49.8643611,169.990357 C48.3545594,169.704513 39.9370034,167.271917 39.9370034,167.854107 C39.9370034,168.43688 39.7657623,169.601842 39.7657623,169.601842 L36,169.019069" id="Fill-29" fill="#503A30"></path>
                    <path d="M13.1508181,163 C13.1508181,163 11.6946785,169.057508 12.0583033,170.38321 C12.4224749,171.708343 16.9729795,172.84409 18.2470333,171.140185 C19.521087,169.43628 18.7927438,163.946361 18.7927438,163.946361 L13.1508181,163" id="Fill-30" fill="#503A30"></path>
                    <path d="M17.727299,74.2404765 C17.9091961,72.5374989 15.6363023,119.684987 15.6363023,119.684987 L12,163.605866 C12,163.605866 16.9090354,165.936285 20.7272348,164.502056 C20.3634407,164.502056 27.0909003,120.401832 27.0909003,120.401832 L31.0909967,88.3129307 L33.636463,88.4922765 L35.0910931,123.091481 L34.0002571,164.681402 C34.0002571,164.681402 39.4544374,165.398247 43.2726367,164.681402 C44.1815757,164.86021 46,118.430105 46,118.430105 L44.7272669,72 L17.727299,74.2404765" id="Fill-31" fill="#0A0B09"></path>
                    <path d="M48.9561894,12 L46.8004493,20.2847115 L53.9871493,21.9057274 L43.0276341,25.8673691 C43.0276341,25.8673691 37.2788138,24.7868722 30.6318584,25.8673691 C23.9843633,26.947866 15.181128,29.2895739 11.946978,33.7917346 C8.71336781,38.2944363 1.16773756,58.284441 0.449337424,67.4694764 C-0.269602454,76.6545118 0.0898674848,88 0.0898674848,88 L7.45576277,88 C7.45576277,88 9.43176794,71.0713131 10.5101778,66.5691525 C11.5880478,62.0664507 17.3368681,53.9624533 17.3368681,53.9624533 L19.3128733,70.7109671 L17.1571332,71.4316591 L18.0552683,74.6731499 L27.3928508,75.7568932 C32.4497184,76.3439433 37.5713554,75.5350586 42.203444,73.4168085 L45.363649,71.9716371 L45.543384,68.9103193 L43.566839,68.7301463 C43.566839,68.7301463 44.2852392,50.3606165 44.1055042,47.1185847 C43.9257692,43.8770939 43.2073691,37.5737443 43.2073691,37.5737443 C43.2073691,37.5737443 61.8917098,27.128039 64.5866548,24.9670452 C67.2810601,22.8060513 68,17.0432207 68,17.0432207 L48.9561894,12" id="Fill-32" fill="#A28476"></path>
                    <path d="M36,30.5002805 C36,32.9857276 33.3136324,35 29.9997524,35 C26.6863676,35 24,32.9857276 24,30.5002805 C24,28.0148333 26.6863676,26 29.9997524,26 C33.3136324,26 36,28.0148333 36,30.5002805" id="Fill-33" fill="#EAF2FF"></path>
                    <path d="M25,19 L25.3313266,29.5999775 C25.3313266,29.5999775 29.809467,34.7032991 32.130746,33.9178098 C34.4525233,33.1329102 33.9552843,29.4036052 33.9552843,29.4036052 L33.7893719,20.5703889 L25,19" id="Fill-34" fill="#8E5A49"></path>
                    <path d="M18.2095497,17.2978374 C19.3061354,19.6210149 22.3218835,18.3301884 22.3218835,18.3301884 C22.3218835,18.3301884 28.0793704,26.3315547 33.5628482,24.0088942 C39.046326,21.6857168 39.503191,15.0609908 38.6806144,13.5127228 C37.8580378,11.9639379 37.1271637,3.61828227 34.659434,1.55358031 C32.1917042,-0.511121651 21.499856,0.779187838 19.5806937,4.39267475 C17.6609823,8.00616166 20.6772795,14.458743 20.6772795,14.458743 C20.6772795,14.458743 17.112964,14.975177 18.2095497,17.2978374 Z" id="Fill-35" fill="#A66E58"></path>
                    <path d="M32.5338394,26.787217 C37.7506725,28.0974625 40.8846635,23.0414894 40.9884273,20.2359895 C41.1683926,15.369524 39.1898548,12 39.1898548,12 C39.1898548,12 35.412204,13.5914141 33.2537008,13.5914141 C31.0951976,13.5914141 27.8569024,14.4337951 26.7776508,15.5567823 C25.6983992,16.6797695 22.3218835,18.3301884 22.3218835,18.3301884 C25.4538054,23.0448499 28.8577907,25.8638594 32.5338394,26.787217 Z" id="Fill-36" fill="#0A0B09"></path>
                    <path d="M34.6378202,1.07518616 C32.1828637,-1.17764758 21.5463579,0.230232493 19.6365831,4.17297356 C17.8863204,7.78799896 20.2566044,13.9909065 20.664125,15 C21.4005027,14.8020169 22.1882301,14.2825227 22.4553582,12.9970424 C23.0005399,10.3685484 20.8187206,7.36495807 22.0915396,6.05071105 C23.3643586,4.73589997 25.0009962,5.86288089 29.3646349,4.92373012 C31.7655102,4.40762024 33.7217183,2.81303812 35,1.48130541 C34.8836436,1.33408718 34.7651021,1.1925095 34.6378202,1.07518616" id="Fill-39" fill="#0A0B09"></path>
                    <path d="M6.61836423,84.6867284 C5.71817419,84.4602035 4.75496505,84.6454861 3.82991426,84.4879035 C3.02049482,84.3494032 2.12897712,83.9068178 1.31608874,84.017618 C1.11604651,84.0453181 0.897503258,84.2841542 1.05244927,84.5069858 C1.58955688,85.2776631 2.65220897,85.5602038 3.50614648,85.7374842 C4.46357405,85.9356935 5.69736054,86.1880719 6.61836423,85.7867287 C7.06470124,85.5922127 7.18611416,84.8289221 6.61836423,84.6867284" id="Fill-41" fill="#BDA194"></path>
                    <path d="M27.7636091,16 C27.495422,16 27.2382221,15.954023 27,15.8702791 C27.2611953,15.6754242 27.4964208,15.4734537 27.6807058,15.2714833 C28.1346762,14.7739464 29.0016647,14.332786 30,14 C29.903113,15.120416 28.9387381,16 27.7636091,16" id="Fill-47" fill="#0A0B09"></path>
                </g>
                <g id="Group-42" stroke-width="1" fill-rule="evenodd" transform="translate(430.000000, 74.000000)">
                    <path d="M8.14270497,28.7314779 L1.51770497,30.4304779 C1.05370497,30.5484779 0.775704972,31.0214779 0.893704972,31.4844779 L4.73970497,46.4844779 C4.85770497,46.9474779 5.32970497,47.2264779 5.79370497,47.1084779 L12.418705,45.4084779 C12.881705,45.2904779 13.161705,44.8194779 13.042705,44.3554779 L9.19670497,29.3554779 C9.07870497,28.8924779 8.60670497,28.6134779 8.14270497,28.7314779" id="Fill-71" fill="#353B52"></path>
                    <path d="M8.25570497,29.1724779 L1.63070497,30.8704779 C1.16770497,30.9894779 0.887704972,31.4614779 1.00670497,31.9244779 L4.85270497,46.9244779 C4.97070497,47.3884779 5.44270497,47.6674779 5.90570497,47.5484779 L12.531705,45.8504779 C12.994705,45.7314779 13.273705,45.2594779 13.155705,44.7954779 L9.30970497,29.7954779 C9.19070497,29.3324779 8.71870497,29.0534779 8.25570497,29.1724779" id="Fill-72" fill="#1D212C"></path>
                    <path d="M2.97470497,31.7864779 C3.03070497,32.0054779 2.89870497,32.2294779 2.67970497,32.2844779 C2.46170497,32.3414779 2.23770497,32.2094779 2.18170497,31.9894779 C2.12570497,31.7714779 2.25770497,31.5484779 2.47670497,31.4914779 C2.69570497,31.4364779 2.91870497,31.5684779 2.97470497,31.7864779" id="Fill-73" fill="#353B52"></path>
                    <path d="M52.663705,98.9604779 C52.440705,99.1844779 52.294705,99.3394779 52.216705,99.4264779 C51.294705,100.484478 49.887705,102.618478 49.179705,103.501478 C49.014705,103.696478 48.898705,103.831478 48.820705,103.880478 C48.413705,104.122478 48.413705,104.443478 48.413705,104.443478 C48.413705,104.443478 42.872705,102.066478 39.718705,99.5624779 C39.902705,99.3204779 40.009705,99.1844779 40.009705,99.1844779 C40.009705,99.1844779 44.211705,95.6324779 45.909705,95.7094779 C47.607705,95.7874779 47.607705,95.7874779 47.607705,95.7874779 L60.862705,76.8754779 L56.457705,67.9774779 L64.375705,62.6794779 C64.375705,62.6794779 71.526705,76.8074779 71.847705,78.4184779 C72.157705,79.9324779 55.739705,95.8364779 52.663705,98.9604779" id="Fill-74" fill="#ECB583"></path>
                    <path d="M66.112705,61.5244779 L64.375705,62.6794779 L56.457705,67.9774779 L54.865705,69.0444779 L52.866705,65.9294779 L51.566705,90.1404779 L47.607705,95.7874779 C47.607705,95.7874779 47.607705,95.7874779 45.909705,95.7094779 C44.211705,95.6324779 40.009705,99.1844779 40.009705,99.1844779 C40.009705,99.1844779 39.902705,99.3204779 39.718705,99.5624779 C38.602705,100.989478 34.498705,106.229478 31.111705,110.100478 C28.219705,113.409478 22.659705,114.651478 19.865705,115.078478 C18.826705,115.234478 18.176705,115.281478 18.176705,115.281478 C17.604705,112.934478 17.187705,68.3174779 17.187705,68.3174779 L16.468705,67.8124779 L10.016705,63.3004779 L9.10370497,62.6594779 C9.10370497,62.6594779 16.381705,42.6804779 18.079705,41.4674779 C19.777705,40.2544779 30.209705,35.3244779 30.209705,35.3244779 C29.723705,37.4204779 28.142705,36.7804779 28.103705,38.4784779 C28.103705,38.4784779 27.540705,46.0754779 30.694705,46.1544779 C33.847705,46.2404779 42.416705,41.3024779 42.581705,38.9634779 C42.736705,36.6144779 41.125705,36.1304779 41.125705,36.1304779 L41.019705,35.1694779 C41.019705,35.1694779 49.616705,36.9354779 51.227705,38.7984779 C52.847705,40.6614779 66.112705,61.5244779 66.112705,61.5244779" id="Fill-75" fill="#EF832B"></path>
                    <path d="M52.663705,98.9604779 C52.789705,99.7374779 54.060705,107.820478 53.750705,108.975478 C53.429705,110.188478 52.051705,112.614478 52.051705,112.614478 C52.051705,112.614478 51.314705,106.685478 49.179705,103.501478 C49.887705,102.618478 51.294705,100.484478 52.216705,99.4264779 C52.294705,99.3394779 52.440705,99.1844779 52.663705,98.9604779" id="Fill-76" fill="#EF832B"></path>
                    <path d="M52.051705,112.614478 L50.421705,185.730478 L49.936705,185.700478 L44.764705,185.429478 L44.279705,185.400478 L36.234705,116.650478 L31.111705,110.100478 C34.498705,106.229478 38.602705,100.989478 39.718705,99.5624779 C42.872705,102.066478 48.413705,104.443478 48.413705,104.443478 C48.413705,104.443478 48.413705,104.122478 48.820705,103.880478 C48.898705,103.831478 49.014705,103.696478 49.179705,103.501478 C51.314705,106.685478 52.051705,112.614478 52.051705,112.614478" id="Fill-77" fill="#25293C"></path>
                    <path d="M50.538705,192.018478 C50.538705,192.018478 50.547705,193.736478 50.586705,195.152478 C50.586705,195.152478 44.522705,196.734478 41.969705,197.015478 C39.427705,197.296478 37.156705,197.015478 37.156705,197.015478 L37.603705,196.704478 C37.622705,196.695478 37.632705,196.695478 37.632705,196.685478 L41.484705,194.027478 C41.484705,194.027478 43.871705,190.824478 44.599705,190.261478 C44.599705,190.261478 45.404705,189.854478 46.336705,190.707478 C47.268705,191.552478 47.471705,191.882478 47.471705,191.882478 L49.732705,191.882478 L50.538705,192.018478" id="Fill-79" fill="#25293C"></path>
                    <path d="M49.936705,185.700478 L49.732705,191.882478 L47.471705,191.882478 C47.471705,191.882478 47.268705,191.552478 46.336705,190.707478 C45.404705,189.854478 44.599705,190.261478 44.599705,190.261478 L44.764705,185.429478 L49.936705,185.700478" id="Fill-80" fill="#ECB583"></path>
                    <path d="M45.404705,7.66947788 C45.977705,10.0954779 45.890705,18.0134779 40.174705,24.1564779 L40.717705,19.7114779 C40.717705,19.7114779 42.765705,18.0134779 42.590705,15.0254779 C42.416705,12.0354779 40.553705,13.4914779 40.553705,13.4914779 C40.553705,13.4914779 38.855705,16.6454779 38.855705,18.2564779 L38.049705,17.2074779 C38.049705,17.2074779 38.127705,13.3264779 37.486705,12.5994779 C36.836705,11.8704779 34.963705,9.12447788 35.332705,7.66947788 C35.332705,7.66947788 30.286705,10.0084779 27.695705,10.0954779 C26.560705,10.1344779 25.347705,10.0664779 24.299705,9.81447788 C22.980705,9.48447788 21.941705,8.84347788 21.718705,7.66947788 C21.311705,5.56447788 22.116705,3.78747788 22.116705,3.78747788 C22.116705,3.78747788 23.814705,0.54747788 26.327705,0.71247788 C28.831705,0.87747788 29.238705,1.68247788 29.238705,1.68247788 C29.238705,1.68247788 36.593705,-1.32552212 39.747705,0.70247788 C42.901705,2.73047788 42.173705,5.32147788 42.173705,5.32147788 C42.173705,5.32147788 44.841705,5.24347788 45.404705,7.66947788" id="Fill-81" fill="#A95A41"></path>
                    <path d="M42.590705,15.0254779 C42.765705,18.0134779 40.717705,19.7114779 40.717705,19.7114779 L40.174705,24.1564779 L39.990705,25.6204779 L40.058705,26.2904779 L38.049705,26.5044779 C38.049705,26.5044779 38.049705,26.5044779 38.040705,26.5134779 C36.525705,27.8044779 33.711705,28.3574779 31.179705,28.2994779 C30.781705,28.2994779 30.403705,28.2804779 30.024705,28.2404779 C28.433705,28.0954779 27.084705,27.6884779 26.405705,27.0764779 C24.542705,25.3784779 24.299705,9.81447788 24.299705,9.81447788 C25.347705,10.0664779 26.560705,10.1344779 27.695705,10.0954779 C30.286705,10.0084779 35.332705,7.66947788 35.332705,7.66947788 C34.963705,9.12447788 36.836705,11.8704779 37.486705,12.5994779 C38.127705,13.3264779 38.049705,17.2074779 38.049705,17.2074779 L38.855705,18.2564779 C38.855705,16.6454779 40.553705,13.4914779 40.553705,13.4914779 C40.553705,13.4914779 42.416705,12.0354779 42.590705,15.0254779" id="Fill-82" fill="#ECB583"></path>
                    <path d="M41.125705,36.1304779 C41.125705,36.1304779 42.736705,36.6144779 42.581705,38.9634779 C42.416705,41.3024779 33.847705,46.2404779 30.694705,46.1544779 C27.540705,46.0754779 28.103705,38.4784779 28.103705,38.4784779 C28.142705,36.7804779 29.723705,37.4204779 30.209705,35.3244779 C30.432705,34.3544779 30.655705,32.7814779 30.839705,31.3754779 C35.128705,30.4734779 37.875705,26.7564779 38.040705,26.5134779 C38.049705,26.5044779 38.049705,26.5044779 38.049705,26.5044779 L40.058705,26.2904779 L41.019705,35.1694779 L41.125705,36.1304779" id="Fill-83" fill="#ECB583"></path>
                    <path d="M36.234705,116.650478 L37.642705,185.400478 L31.499705,185.400478 L19.865705,115.078478 C22.659705,114.651478 28.219705,113.409478 31.111705,110.100478 L36.234705,116.650478" id="Fill-85" fill="#1D212C"></path>
                    <path d="M37.195705,185.400478 L37.195705,185.700478 L37.001705,191.882478 L34.731705,191.882478 C34.731705,191.882478 34.527705,191.552478 33.605705,190.707478 C32.673705,189.854478 31.858705,190.261478 31.858705,190.261478 L32.023705,185.429478 L32.023705,185.400478 L37.195705,185.400478" id="Fill-87" fill="#ECB583"></path>
                    <path d="M38.040705,26.5134779 C37.875705,26.7564779 35.128705,30.4734779 30.839705,31.3754779 C31.043705,29.7354779 31.179705,28.3094779 31.179705,28.3094779 L31.179705,28.2994779 C33.711705,28.3574779 36.525705,27.8044779 38.040705,26.5134779" id="Fill-88" fill="#D8A277"></path>
                    <path d="M16.468705,67.8124779 C16.274705,67.8124779 8.28870497,81.8634779 6.99870497,82.9694779 C4.81570497,84.8324779 1.85570497,83.8714779 0.0697049715,80.3984779 C-0.531295028,79.2234779 2.95170497,48.5794779 2.95170497,48.5794779 C2.61837164,45.506336 2.61837164,43.1181287 2.95170497,41.4148561 C3.45170497,38.8599473 5.1640164,36.5697403 7.4443377,35.5069783 C9.72465899,34.4442162 10.5881708,34.5094779 11.122705,34.8394779 C11.4790611,35.0594779 11.358771,35.5164028 10.7618348,36.2102528 L8.75354241,37.9199779 C9.92127335,37.6223961 10.7109942,37.5725628 11.122705,37.7704779 C11.5344157,37.968393 11.9127491,38.5797263 12.257705,39.6044779 C12.257705,39.6044779 13.625705,43.0004779 12.257705,44.0584779 C10.879705,45.1064779 8.04570497,48.3374779 8.04570497,48.3374779 L8.21170497,50.0344779 L8.24070497,66.3664779 L10.016705,63.3004779 L16.468705,67.8124779 Z" id="Fill-89" fill="#ECB583"></path>
                    <path d="M17.212705,67.6774779 C17.030705,67.6774779 16.873705,67.5404779 16.851705,67.3554779 C16.288705,62.5264779 17.524705,44.1334779 17.577705,43.3534779 C17.590705,43.1524779 17.764705,43.0094779 17.965705,43.0143508 C18.165705,43.0284779 18.317705,43.2014779 18.303705,43.4024779 C18.291705,43.5924779 17.019705,62.5074779 17.574705,67.2714779 C17.597705,67.4704779 17.454705,67.6514779 17.254705,67.6744779 C17.240705,67.6764779 17.226705,67.6774779 17.212705,67.6774779" id="Fill-91" fill="#D1650D"></path>
                    <path d="M32.051705,23.6474779 C32.014705,23.6474779 31.978705,23.6304779 31.954705,23.5984779 C31.048705,22.3884779 28.131705,23.3094779 28.101705,23.3184779 C28.037705,23.3394779 27.969705,23.3034779 27.948705,23.2394779 C27.928705,23.1754779 27.963705,23.1074779 28.027705,23.0864779 C28.154705,23.0464779 31.137705,22.1074779 32.148705,23.4524779 C32.189705,23.5064779 32.178705,23.5824779 32.124705,23.6224779 C32.103705,23.6394779 32.077705,23.6474779 32.051705,23.6474779" id="Fill-98" fill="#AE7652"></path>
                    <path d="M36.72,192.012137 L37.526,192.171417 C37.526,192.171417 37.399,194.238547 37.341,195.841891 L22,196 L23.863,194.421251 C23.863,194.421251 27.123,192.898719 29.18,192.012137 C30.51,191.432404 31.296,190.376001 31.577,190.113657 C31.577,190.113657 32.5776311,189.360398 33.5096311,190.359413 C34.4316311,191.349059 35.0769177,191.487606 35.0769177,191.487606 L36.72,192.012137" id="Fill-84" fill="#25293C"></path>
                </g>
                <g id="Group-40-Copy-5" stroke-width="1" fill-rule="evenodd" transform="translate(426.000000, 173.000000)">
                    <polygon id="Fill-246-Copy-2" fill="#5193F4" points="14 104 20 104 20 5 14 5"></polygon>
                    <path d="M28.6632157,98 L6.00345098,98 C2.68768627,98 0,100.56545 0,103.730414 L0,106 L34.6666667,106 L34.6666667,103.730414 C34.6666667,100.56545 31.9789804,98 28.6632157,98" id="Fill-247-Copy-2" fill="#5193F4"></path>
                    <polygon id="Fill-249-Copy-2" fill="#1D5697" points="14 35.8805 20 35.8805 20 35.1195 14 35.1195"></polygon>
                    <polygon id="Fill-248-Copy-2" fill="#5193F4" points="12 35 22 35 22 30 12 30"></polygon>
                    <path d="M24,7 C24,10.8662171 20.8662171,14 17,14 C13.1337829,14 10,10.8662171 10,7 C10,3.1337829 13.1337829,0 17,0 C20.8662171,0 24,3.1337829 24,7" id="Fill-250-Copy-2" fill="#5193F4"></path>
                </g>
                <polygon id="Rectangle" fill="#5193F4" fill-rule="evenodd" points="448 175.298551 545 162 545 170 448 183.298551"></polygon>
                <g id="Group-43" stroke-width="1" fill-rule="evenodd" transform="translate(327.000000, 91.000000)">
                    <path d="M49.5431735,67.6217154 C49.9841735,67.4317154 51.4841735,65.4917154 51.4841735,64.8717154 C51.4841735,64.2417154 50.1141735,58.4917154 47.5431735,55.7717154 C46.7631735,54.9417154 41.1041735,53.3717154 41.1041735,53.3717154 L41.3031735,52.7417154 L37.9231735,52.7417154 L38.0831735,53.3717154 L35.8641735,54.1217154 L35.8641735,59.7417154 L38.6831735,59.0617154 L38.7041735,59.3717154 L40.8241735,59.3717154 L40.8331735,58.4917154 L40.8641735,58.4917154 L41.4631735,58.7017154 C41.4631735,58.7017154 41.4841735,59.2417154 42.4841735,60.2417154 C43.4841735,61.2417154 44.5431735,62.1817154 45.1141735,63.7417154 C45.6731735,65.3017154 46.5431735,64.8717154 46.9231735,64.7417154 C47.2931735,64.6217154 46.9841735,63.4917154 46.9231735,63.0517154 C46.8641735,62.6217154 46.8641735,60.5117154 46.8641735,60.5117154 L49.1541735,63.6217154 C49.1541735,63.6217154 49.2931735,65.2417154 48.8641735,66.1817154 C48.4231735,67.1217154 49.1141735,67.8017154 49.5431735,67.6217154 Z M69.0431735,68.4417154 L55.8831735,53.3717154 L59.0341735,82.4317154 L69.0431735,68.4417154 Z M60.3431735,108.111715 C57.2341735,109.671715 52.1331735,110.281715 46.8031735,110.411715 C45.7231735,110.441715 44.6331735,110.451715 43.5431735,110.441715 C37.5341735,110.391715 31.6831735,109.871715 28.5031735,109.531715 C26.9541735,109.361715 26.0431735,109.241715 26.0431735,109.241715 L22.4841735,66.4917154 L6.54317352,73.4917154 C0.543173522,74.8717154 -0.826826478,65.6817154 0.423173522,62.9917154 C1.67317352,60.3017154 21.8641735,38.6817154 24.8641735,37.5517154 C27.8641735,36.4317154 36.2931735,35.3717154 36.2931735,35.3717154 C35.9231735,36.3017154 34.1141735,38.2417154 34.7931735,39.2417154 C35.4841735,40.2417154 41.4841735,42.5617154 44.1431735,41.6417154 C47.2341735,40.5517154 47.8641735,38.8717154 47.8641735,38.8717154 C47.8641735,38.8717154 47.3831735,38.2017154 47.4231735,36.8717154 C47.4331735,36.5617154 47.4541735,36.2217154 47.4841735,35.8617154 C47.4841735,35.8617154 52.2131735,36.7817154 54.4631735,37.6217154 C56.7131735,38.4517154 77.1331735,61.7717154 79.7931735,64.1917154 C82.4631735,66.6117154 83.2931735,69.4417154 82.0431735,71.6117154 C80.7931735,73.7717154 60.2041735,90.6017154 60.2041735,90.6017154 L60.3541735,92.2717154 L60.9541735,98.7317154 L61.7341735,107.241715 C61.3331735,107.561715 60.8641735,107.841715 60.3431735,108.111715 L60.3431735,108.111715 Z" id="Fill-104" fill="#456768"></path>
                    <path d="M70.7841735,96.5117154 C70.7841735,96.5117154 70.8641735,97.7617154 69.7841735,98.1817154 C68.7041735,98.5917154 64.6141735,100.761715 63.1141735,100.091715 C61.6141735,99.4317154 60.9541735,98.7317154 60.9541735,98.7317154 L60.3541735,92.2717154 L67.9541735,96.5117154 L70.7841735,96.5117154" id="Fill-105" fill="#ECB583"></path>
                    <path d="M60.3431735,108.111715 C60.3731735,108.761715 61.4231735,136.761715 61.1731735,138.741715 C60.9231735,140.741715 42.9231735,174.491715 42.9231735,174.491715 L41.7531735,174.061715 L38.4941735,172.861715 L38.4841735,172.861715 C38.7531735,170.671715 39.0241735,168.361715 39.2931735,166.011715 L39.3031735,166.011715 L49.7531735,138.491715 L46.8031735,110.411715 C52.1331735,110.281715 57.2341735,109.671715 60.3431735,108.111715" id="Fill-106" fill="#4A49CA"></path>
                    <path d="M51.4841735,64.8717154 C51.4841735,65.4917154 49.9841735,67.4317154 49.5431735,67.6217154 C49.1141735,67.8017154 48.4231735,67.1217154 48.8641735,66.1817154 C49.2931735,65.2417154 49.1541735,63.6217154 49.1541735,63.6217154 L46.8641735,60.5117154 C46.8641735,60.5117154 46.8641735,62.6217154 46.9231735,63.0517154 C46.9841735,63.4917154 47.2931735,64.6217154 46.9231735,64.7417154 C46.5431735,64.8717154 45.6731735,65.3017154 45.1141735,63.7417154 C44.5431735,62.1817154 43.4841735,61.2417154 42.4841735,60.2417154 C41.4841735,59.2417154 41.4631735,58.7017154 41.4631735,58.7017154 L40.8641735,58.4917154 L40.8331735,58.4917154 L40.8641735,54.1217154 L41.1041735,53.3717154 C41.1041735,53.3717154 46.7631735,54.9417154 47.5431735,55.7717154 C50.1141735,58.4917154 51.4841735,64.2417154 51.4841735,64.8717154" id="Fill-107" fill="#ECB583"></path>
                    <path d="M49.1541735,29.7617154 L49.1541735,29.7717154 C48.3241735,30.9017154 47.6831735,33.6817154 47.4841735,35.8617154 C47.4541735,36.2217154 47.4331735,36.5617154 47.4231735,36.8717154 C47.3831735,38.2017154 47.8641735,38.8717154 47.8641735,38.8717154 C47.8641735,38.8717154 47.2341735,40.5517154 44.1431735,41.6417154 C41.4841735,42.5617154 35.4841735,40.2417154 34.7931735,39.2417154 C34.1141735,38.2417154 35.9231735,36.3017154 36.2931735,35.3717154 C36.6731735,34.4317154 38.7931735,24.4517154 38.7931735,24.4517154 C40.1641735,28.4817154 44.7741735,30.9417154 49.1541735,29.7617154" id="Fill-108" fill="#ECB583"></path>
                    <path d="M49.1541735,29.7617154 C46.1721735,30.5647154 43.0861735,29.6787154 40.9861735,27.7617154 L38.2261735,27.0917154 C38.0161735,28.0597154 37.7691735,29.1877154 37.5221735,30.2987154 C38.1001735,32.2407154 39.4991735,34.4517154 42.8241735,35.3717154 C44.3091735,35.7827154 45.9151735,35.8147154 47.5091735,35.6357154 C47.7311735,33.4927154 48.3511735,30.8637154 49.1541735,29.7717154 L49.1541735,29.7617154" id="Fill-109" fill="#D8A277"></path>
                    <path d="M45.2931735,199.871715 C45.5431735,200.531715 41.7841735,201.281715 38.2931735,200.701715 C34.7931735,200.121715 29.4631735,196.031715 29.4631735,196.031715 L29.6041735,193.641715 C29.8431735,193.741715 33.3141735,195.071715 34.4631735,194.761715 C35.6541735,194.451715 35.1141735,193.591715 37.0341735,193.361715 C39.3931735,195.101715 45.0931735,199.341715 45.2931735,199.871715" id="Fill-110" fill="#25293C"></path>
                    <path d="M42.4631735,184.951715 C42.9631735,185.371715 45.3141735,187.701715 45.3141735,187.701715 C45.3141735,187.701715 41.9631735,188.121715 40.5431735,187.701715 C39.1331735,187.281715 37.0431735,184.691715 37.0431735,184.691715 C37.1941735,183.401715 37.3931735,181.841715 37.6141735,180.081715 L38.4941735,181.261715 C38.6941735,180.481715 40.7841735,179.851715 40.9141735,179.811715 C41.3731735,181.711715 42.1231735,184.671715 42.4631735,184.951715" id="Fill-111" fill="#25293C"></path>
                    <path d="M43.5431735,110.441715 C43.5431735,110.441715 43.0431735,127.121715 41.8931735,141.371715 C41.3931735,147.491715 40.3431735,157.071715 39.2931735,166.011715 C39.0241735,168.361715 38.7531735,170.671715 38.4841735,172.861715 C38.1731735,175.481715 37.8741735,177.931715 37.6141735,180.081715 C37.3931735,181.841715 37.1941735,183.401715 37.0431735,184.691715 C36.7341735,187.151715 36.5431735,188.621715 36.5431735,188.621715 L29.1541735,188.621715 C29.1541735,188.621715 30.0431735,160.121715 29.7931735,151.621715 C29.5431735,143.121715 28.5031735,109.531715 28.5031735,109.531715 C31.6831735,109.871715 37.5341735,110.391715 43.5431735,110.441715" id="Fill-112" fill="#4A49CA"></path>
                    <path d="M41.7531735,174.061715 L40.5431735,178.201715 C40.5431735,178.201715 40.6941735,178.881715 40.9141735,179.811715 C40.7841735,179.851715 38.6941735,180.481715 38.4941735,181.261715 L37.6141735,180.081715 C37.8741735,177.931715 38.1731735,175.481715 38.4841735,172.861715 L38.4941735,172.861715 L41.7531735,174.061715" id="Fill-113" fill="#ECB583"></path>
                    <polyline id="Fill-114" fill="#B1B3AC" points="41.3031735 52.7417154 41.1041735 53.3717154 40.8641735 54.1217154 38.3641735 54.4317154 38.0831735 53.3717154 37.9231735 52.7417154 41.3031735 52.7417154"></polyline>
                    <polyline id="Fill-115" fill="#25293C" points="40.8641735 54.1217154 40.8331735 58.4917154 40.8241735 59.3717154 38.7041735 59.3717154 38.6831735 59.0617154 38.3641735 54.4317154 40.8641735 54.1217154"></polyline>
                    <polyline id="Fill-116" fill="#ECB583" points="38.3641735 54.4317154 38.6831735 59.0617154 35.8641735 59.7417154 35.8641735 54.1217154 38.0831735 53.3717154 38.3641735 54.4317154"></polyline>
                    <path d="M36.0241735,192.621715 C36.0241735,192.621715 36.4141735,192.901715 37.0341735,193.361715 C35.1141735,193.591715 35.6541735,194.451715 34.4631735,194.761715 C33.3141735,195.071715 29.8431735,193.741715 29.6041735,193.641715 L29.8831735,188.621715 L35.7131735,188.621715 L36.0241735,192.621715" id="Fill-117" fill="#ECB583"></path>
                    <path d="M4.32417352,63.4627154 C4.16517352,63.4627154 4.01717352,63.3607154 3.96617352,63.2007154 C3.90417352,63.0037154 4.01317352,62.7927154 4.21017352,62.7297154 L34.8771735,53.0137154 C35.0741735,52.9487154 35.2851735,53.0607154 35.3481735,53.2587154 C35.4111735,53.4557154 35.3011735,53.6667154 35.1041735,53.7287154 L4.43717352,63.4447154 C4.40017352,63.4567154 4.36217352,63.4627154 4.32417352,63.4627154" id="Fill-122" fill="#345554"></path>
                    <path d="M60.0321735,90.5457154 C59.8431735,90.5457154 59.6801735,90.4027154 59.6601735,90.2107154 L58.9931735,84.0027154 C58.9701735,83.7967154 59.1201735,83.6117154 59.3261735,83.5897154 C59.5341735,83.5677154 59.7161735,83.7167154 59.7391735,83.9227154 L60.4061735,90.1307154 C60.4271735,90.3367154 60.2791735,90.5207154 60.0731735,90.5437154 C60.0591735,90.5447154 60.0451735,90.5457154 60.0321735,90.5457154" id="Fill-123" fill="#345554"></path>
                    <path d="M59.5071735,16.1267154 C59.0771735,16.2057154 58.6371735,16.2457154 58.1871735,16.2657154 C55.4161735,16.4067154 52.4471735,15.5867154 52.4471735,15.5867154 L54.0071735,17.1467154 C54.0071735,17.1467154 52.8761735,18.4667154 49.7571735,17.5267154 C46.6261735,16.5867154 41.2571735,10.2767154 41.1261735,10.0867154 C41.1261735,10.0867154 39.6261735,13.5267154 38.8171735,16.0267154 C38.0071735,18.5267154 36.4071735,21.1567154 36.4071735,21.1567154 C36.3471735,20.0667154 36.3361735,18.9757154 36.3361735,17.9667154 C36.3361735,17.9667154 35.8971735,16.8367154 35.0071735,16.9067154 L35.0071735,16.8967154 C33.8761735,12.7767154 36.9071735,2.8567154 37.8471735,1.7967154 C38.7871735,0.736715403 40.9471735,1.4257154 40.9471735,1.4257154 C40.9471735,1.4257154 45.5371735,-1.0742846 51.6571735,0.546715403 C57.7871735,2.1657154 64.5071735,11.0267154 62.4471735,14.3967154 C61.8471735,15.3767154 60.7571735,15.8857154 59.5071735,16.1267154" id="Fill-126" fill="#ECA35E"></path>
                    <path d="M59.5071735,16.1267154 C59.4371735,16.3257154 58.4671735,19.3457154 57.7671735,20.7567154 C57.3671735,20.4957154 56.8361735,20.6857154 56.7571735,20.7167154 C57.3271735,19.1067154 57.8071735,17.5557154 58.1871735,16.2657154 C58.6371735,16.2457154 59.0771735,16.2057154 59.5071735,16.1267154" id="Fill-127" fill="#ECA35E"></path>
                    <path d="M58.1971735,21.4667154 C58.4471735,22.7167154 57.5171735,25.6467154 54.6971735,25.7457154 C55.4671735,24.1357154 56.1571735,22.3967154 56.7471735,20.7257154 C56.7471735,20.7257154 56.7471735,20.7257154 56.7571735,20.7167154 C56.8361735,20.6857154 57.3671735,20.4957154 57.7671735,20.7567154 C57.9561735,20.8767154 58.1171735,21.0867154 58.1971735,21.4667154" id="Fill-128" fill="#ECB583"></path>
                    <path d="M52.4471735,15.5867154 C52.4471735,15.5867154 55.4161735,16.4067154 58.1871735,16.2657154 C57.8071735,17.5557154 57.3271735,19.1067154 56.7571735,20.7167154 C56.7471735,20.7257154 56.7471735,20.7257154 56.7471735,20.7257154 C56.1571735,22.3967154 55.4671735,24.1357154 54.6971735,25.7457154 C53.4871735,28.2657154 52.0861735,30.4667154 50.5471735,31.5467154 C49.6471735,32.1757154 48.6971735,32.6067154 47.7371735,32.8567154 C43.3571735,34.0357154 38.7471735,31.5757154 37.3761735,27.5467154 C37.0171735,26.4757154 36.7771735,25.1757154 36.6171735,23.7857154 C36.5171735,22.9257154 36.4471735,22.0357154 36.4071735,21.1567154 C36.4071735,21.1567154 38.0071735,18.5267154 38.8171735,16.0267154 C39.6261735,13.5267154 41.1261735,10.0867154 41.1261735,10.0867154 C41.2571735,10.2767154 46.6261735,16.5867154 49.7571735,17.5267154 C52.8761735,18.4667154 54.0071735,17.1467154 54.0071735,17.1467154 L52.4471735,15.5867154" id="Fill-129" fill="#ECB583"></path>
                    <path d="M36.6171735,23.7857154 C33.7271735,24.2257154 33.3761735,17.5867154 34.5671735,17.0267154 C34.7271735,16.9457154 34.8761735,16.9067154 35.0071735,16.9067154 C35.8971735,16.8367154 36.3361735,17.9667154 36.3361735,17.9667154 C36.3361735,18.9757154 36.3471735,20.0667154 36.4071735,21.1567154 C36.4471735,22.0357154 36.5171735,22.9257154 36.6171735,23.7857154" id="Fill-130" fill="#ECB583"></path>
                    <path d="M46.8791735,29.9867154 C46.8531735,29.9867154 46.8271735,29.9777154 46.8041735,29.9607154 C46.7791735,29.9407154 44.2601735,28.0427154 42.9641735,28.9087154 C42.9071735,28.9467154 42.8291735,28.9317154 42.7901735,28.8747154 C42.7521735,28.8167154 42.7681735,28.7397154 42.8261735,28.7007154 C44.2721735,27.7377154 46.8461735,29.6787154 46.9561735,29.7617154 C47.0101735,29.8037154 47.0211735,29.8827154 46.9791735,29.9367154 C46.9551735,29.9687154 46.9171735,29.9867154 46.8791735,29.9867154" id="Fill-131" fill="#AE7652"></path>
                </g>
                <path d="M46,110 C126.00736,180.137601 166.908366,216.135491 168.703018,217.993671 C170.497671,219.851851 169.929998,222.853961 167,227 L46,118 L46,110 Z" id="Rectangle-Copy-32" fill="#5193F4" fill-rule="evenodd"></path>
                <rect id="Rectangle" fill="#C7EAEF" fill-rule="evenodd" x="0" y="50" width="85" height="43"></rect>
                <text id="VIP" font-family="MarkOT-Bold, Mark OT" font-size="30" font-weight="bold" fill="#282828">
                    <tspan x="17" y="82">VIP</tspan>
                </text>
                <g id="Group-40-Copy-9" stroke-width="1" fill-rule="evenodd" transform="translate(145.000000, 213.000000)">
                    <polygon id="Fill-246-Copy-2" fill="#5193F4" points="18 118 24 118 24 3 18 3"></polygon>
                    <path d="M33.8997647,111 L7.10023529,111 C3.17870588,111 0,114.206813 0,118.163017 L0,121 L41,121 L41,118.163017 C41,114.206813 37.8212941,111 33.8997647,111" id="Fill-247-Copy-2" fill="#5193F4"></path>
                    <polygon id="Fill-249-Copy-2" fill="#1D5697" points="18 45.8805 24 45.8805 24 45.1195 18 45.1195"></polygon>
                    <polygon id="Fill-248-Copy-2" fill="#5193F4" points="16 45 26 45 26 39 16 39"></polygon>
                    <path d="M29,7.5 C29,11.6423755 25.6423755,15 21.5,15 C17.3576245,15 14,11.6423755 14,7.5 C14,3.35762454 17.3576245,0 21.5,0 C25.6423755,0 29,3.35762454 29,7.5" id="Fill-250-Copy-2" fill="#5193F4"></path>
                </g>
                <g id="Group-45" stroke-width="1" fill-rule="evenodd" transform="translate(174.000000, 119.000000)">
                    <path d="M53,66.5 C53,68.4331833 54.5668167,70 56.4993152,70 C58.4324985,70 60,68.4331833 60,66.5 C60,64.5668167 58.4324985,63 56.4993152,63 C54.5668167,63 53,64.5668167 53,66.5" id="Fill-18" fill="#FFFFFE" transform="translate(56.500000, 66.500000) scale(-1, 1) translate(-56.500000, -66.500000) "></path>
                    <polyline id="Fill-60" fill="#BEBFBB" transform="translate(60.500000, 177.500000) scale(-1, 1) translate(-60.500000, -177.500000) " points="60.668 178 60.662 178 60.332 177 60.336 177 60.668 178"></polyline>
                    <path d="M40.8417214,46.7794534 L46,47 L43.2589351,42.00008 C43.2589351,42.00008 38.7388767,41.9410513 38,45.030649 L40.8417214,46.7794534" id="Fill-98" fill="#F0B1AD" transform="translate(42.000000, 44.500000) scale(-1, 1) translate(-42.000000, -44.500000) "></path>
                    <polyline id="Fill-99" fill="#F0B1AD" transform="translate(36.500000, 43.000000) scale(-1, 1) translate(-36.500000, -43.000000) " points="40 44.1680273 37.2327641 39 33 41.1461933 35.7731394 47 40 44.1680273"></polyline>
                    <path d="M42.1615815,4.28088018 C41.6327034,0.707415434 31.3247951,-2.0504196 26.5038107,2.02910788 C20.0269164,7.51099447 21.0586011,24.6902384 21.0623256,34 C30.6543863,31.8171736 45.2424825,32.3390938 47.7870565,33.6290712 C48.3457305,29.3461534 48.2153733,5.32609966 42.1615815,4.28088018" id="Fill-100" fill="#132529" transform="translate(34.500000, 17.000000) scale(-1, 1) translate(-34.500000, -17.000000) "></path>
                    <path d="M65,38.3572667 C64.9035988,40.0130471 64.7129874,41.5221305 64.4997363,43.0901734 C64.293058,44.6441784 64.0002029,46.1869529 63.6876293,47.7269199 C63.0427638,50.8047481 62.2226234,53.8657308 61.095752,56.8733691 C60.8211547,57.626507 60.4925143,58.3698183 60.1887045,59.1159372 C59.8272001,59.8613543 59.5358056,60.5786953 59.1144155,61.3437655 C58.2716355,62.8886457 57.2645352,64.2299752 56.201201,65.4849711 C54.0497018,67.9851363 51.6718059,70.1027663 48.9981336,72 L47,69.9209744 C48.8893172,67.62436 50.7552643,65.2105285 52.3130198,62.795995 C53.0886112,61.5859207 53.7794863,60.3533856 54.2921654,59.1559455 C54.5572686,58.5537159 54.81799,57.8462015 55.0830933,57.1990504 C55.3138719,56.5175062 55.5585264,55.8450867 55.7790806,55.1579273 C56.6481519,52.4050784 57.3236905,49.5546656 57.867773,46.6719653 C58.1219215,45.2260528 58.3505092,43.7738233 58.5637603,42.319488 C58.7660567,40.8791908 58.93768,39.3715111 59.0669453,38 L65,38.3572667" id="Fill-101" fill="#EFA573" transform="translate(56.000000, 55.000000) scale(-1, 1) translate(-56.000000, -55.000000) "></path>
                    <path d="M66.4733754,69.5027928 C64.4538619,69.2091607 63.3092598,69.8275631 63.039569,71.3579999 C62.6350328,73.6536553 65.4287491,75.929696 67.0207542,75.1235519 C68.6127593,74.3174078 69.518262,72.5467266 68.6829805,69.9976856 L67.568133,69.2893065 L66.4733754,69.5027928 Z" id="Fill-103" fill="#EFA573" transform="translate(66.000000, 72.289306) scale(-1, 1) translate(-66.000000, -72.289306) "></path>
                    <polyline id="Fill-105" fill="#EFA573" transform="translate(43.000000, 173.500000) scale(-1, 1) translate(-43.000000, -173.500000) " points="46.5974014 184 41.9009058 184 39 163 47 163 46.5974014 184"></polyline>
                    <polyline id="Fill-107" fill="#EFA573" transform="translate(10.500000, 167.500000) scale(-1, 1) translate(-10.500000, -167.500000) " points="17 176.863659 12.7068158 178 4 159.136745 11.3853568 157 17 176.863659"></polyline>
                    <path d="M11.5497298,175.039182 C11.7713852,174.946517 12.0159451,175.022531 12.1385945,175.221615 L14.8767783,179.647804 C15.1604973,180.106784 14.9321922,180.748198 14.4179515,180.95235 C12.2819317,181.799364 11.2069027,182.102696 8.53226004,183.216121 C6.88683763,183.901695 4.13580382,184.719294 1.8638353,185.664764 C-0.358630167,186.590688 -0.151868344,185.356527 0.266290955,184.868519 C3.07972778,181.585128 5.08347482,179.582871 6.00260615,177.811381 C6.11343389,177.598542 7.96247509,176.674475 11.5497298,175.039182 Z" id="Fill-109" fill="#132529" transform="translate(7.500000, 180.500000) scale(-1, 1) translate(-7.500000, -180.500000) "></path>
                    <path d="M53.7637841,183 C54.005732,183 54.200923,183.150063 54.2350629,183.361215 L54.9913354,188.05966 C55.0700055,188.547035 54.6016955,189.008513 54.0443249,188.999881 C51.7302349,188.964025 50.6147515,188.842513 47.695792,188.842513 C45.8997376,188.842513 41.9816081,188.935019 39.5869803,188.49734 C37.1923526,188.05966 37.9742182,187.237277 38.9160607,186.914925 C42.6956673,185.621331 46.1357481,184.53317 47.695792,183.361215 C47.9770749,183.149399 48.5048741,183 48.8581476,183 L53.7637841,183 Z" id="Fill-110" fill="#132529" transform="translate(46.500000, 186.000000) scale(-1, 1) translate(-46.500000, -186.000000) "></path>
                    <path d="M24.4404232,65 C33.7297614,65 43.3297096,65 47.8505692,65 C47.4574195,55.5921482 47.445835,49.790437 52,30.482857 C52,30.482857 47.0954032,29.4297553 42.0590324,29.1895366 C38.1195711,29.0022232 34.8918337,28.8785391 31.4287858,29.1902515 C26.8630363,29.602055 21.6854791,30.6480074 21.6854791,30.6480074 C21.6854791,30.6480074 18.9392235,31.6031628 24.4404232,65 Z" id="Fill-111" fill="#52D2BC" transform="translate(36.500000, 47.000000) scale(-1, 1) translate(-36.500000, -47.000000) "></path>
                    <path d="M43.890851,18 C43.2172434,21.4181108 42.5450907,27.680547 44.9492734,29.961217 C44.9492734,29.961217 46.2797575,38 35.3129017,38 C26.2606628,38 34.2690281,29.9619406 34.2690281,29.9619406 C38.1011717,29.0516986 38.0022401,26.2240151 37.334452,23.5678159 L43.890851,18" id="Fill-114" fill="#EFA573" transform="translate(38.000000, 28.000000) scale(-1, 1) translate(-38.000000, -28.000000) "></path>
                    <path d="M38.452,26 C38.448,25.9415881 38.442,25.8822635 38.436,25.8229389 C38.443,25.8822635 38.449,25.9415881 38.454,26 C38.453,26 38.453,26 38.452,26 M38,23.6224521 C38,23.6215394 38,23.6215394 38,23.6215394 L38.798,23 L38,23.6224521" id="Fill-115" fill="#09181B" transform="translate(38.500000, 24.500000) scale(-1, 1) translate(-38.500000, -24.500000) "></path>
                    <path d="M45.7629117,12.4422552 C44.3688286,17.8413724 43.9023787,20.1539744 40.4205565,22.4672793 C35.1835286,25.947429 28.3906649,23.1673862 28.0295424,17.4878044 C27.7045322,12.3761808 30.0382861,4.40578752 36.1683396,3.17989759 C42.2081126,1.97228354 47.1562425,7.04313787 45.7629117,12.4422552" id="Fill-117" fill="#EFA573" transform="translate(37.000000, 13.500000) scale(-1, 1) translate(-37.000000, -13.500000) "></path>
                    <path d="M26,6 C26.5869286,11.0000282 26.8288384,16.0367233 30.3431398,14.8147164 C33.8574411,13.5927095 30.6888196,6 30.6888196,6 L26,6" id="Fill-118" fill="#132529" transform="translate(29.000000, 10.500000) scale(-1, 1) translate(-29.000000, -10.500000) "></path>
                    <path d="M28,7.38437677 C28,8.46496781 35.8762306,4.69754096 45,8 C44.2976656,5.58303547 44.5574782,4.66477474 40.5287391,2.72398352 C36.5,0.783192299 29.6480375,2.88102353 28,7.38437677 L28,7.38437677 Z" id="Fill-119" fill="#132529" transform="translate(36.500000, 5.000000) scale(-1, 1) translate(-36.500000, -5.000000) "></path>
                    <path d="M31.0117288,126.181988 C31.3987326,143.349221 39.5038434,171 39.5038434,171 L48.7691275,170.715828 C48.7691275,170.715828 43.3332249,143.041935 44.0117288,126.181988 C44.271425,119.723685 49.0988721,108.750788 51.0117288,99.6588352 C54.5427826,82.8754688 56.0118689,68 56.0118689,68 L39.1375084,68 C39.1375084,68 30.639692,109.676916 31.0117288,126.181988 Z" id="Fill-120" fill="#132529" transform="translate(43.505864, 119.500000) scale(-1, 1) translate(-43.505864, -119.500000) "></path>
                    <path d="M36.2785,109 C36.4215,107.680231 36.5695,106.341965 36.7215,105 C36.7215,105.00185 36.7215,105 36.7215,105.00185 C36.5695,106.34474 36.4215,107.679306 36.2785,109" id="Fill-122" fill="#B1B3AF" transform="translate(36.500000, 107.000000) scale(-1, 1) translate(-36.500000, -107.000000) "></path>
                    <path d="M12,125.320343 C16.8019502,141.77886 33.1523007,166 33.1523007,166 L42,163.636979 C42,163.636979 30.6720366,133.990848 27,125.320343 C23.2051081,116.358747 28.6424935,103.014695 29.4620321,92.7915201 C30.3347997,81.9043494 26.6318347,74.2278418 23.4021331,68 L6,68 C6,68 7.95425089,111.457831 12,125.320343 Z" id="Fill-124" fill="#132529" transform="translate(24.000000, 117.000000) scale(-1, 1) translate(-24.000000, -117.000000) "></path>
                    <path d="M31.8494047,16.6580943 C31.4453756,17.7351841 30.621627,18.5090984 29.8050699,18.8655249 C28.5766385,19.4022948 27.8176131,18.2471036 28.0379331,16.9065989 C28.236025,15.6995767 29.1133826,13.9657248 30.4045758,14.0005155 C31.676156,14.0345961 32.3116191,15.4262217 31.8494047,16.6580943" id="Fill-131" fill="#EFA573" transform="translate(30.000000, 16.500000) scale(-1, 1) translate(-30.000000, -16.500000) "></path>
                    <path d="M48.6019984,68 L24.6092459,68 C24.3987136,68 24.2249523,67.8805014 24.2119743,67.7275766 L24.001442,65.3091922 C24.000721,65.302507 24,65.2958217 24,65.2899721 C24.000721,65.1303621 24.1780873,65 24.3987136,65 L48.0057305,65 C48.1794918,65 48.333065,65.0818942 48.3849771,65.2030641 L48.981245,67.6214485 C48.994223,67.6506964 49,67.6799443 49,67.7083565 C49.001433,67.8637883 48.8291138,68 48.6019984,68" id="Fill-141" fill="#1A3A51" transform="translate(36.500000, 66.500000) scale(-1, 1) translate(-36.500000, -66.500000) "></path>
                    <path d="M27.7808335,68 L28.6917659,68 C28.8735369,68 29.0116829,67.9343908 28.9992186,67.8550829 L28.5712777,65.1441961 C28.5588134,65.0648882 28.4009323,65 28.2191613,65 L27.3082288,65 C27.1274965,65 26.9883119,65.0648882 27.0007762,65.1441961 L27.4287171,67.8550829 C27.4411814,67.9343908 27.6001012,68 27.7808335,68" id="Fill-142" fill="#3769A4" transform="translate(28.000000, 66.500000) scale(-1, 1) translate(-28.000000, -66.500000) "></path>
                    <path d="M46.7802053,68 L47.691611,68 C47.8724372,68 48.0116942,67.9343908 47.9992234,67.8550829 L47.5710602,65.1441961 C47.5585894,65.0648882 47.4006263,65 47.2187608,65 L46.3073551,65 C46.1265289,65 45.9883111,65.0648882 46.0007819,65.1441961 L46.4279059,67.8550829 C46.4403767,67.9343908 46.5983398,68 46.7802053,68" id="Fill-143" fill="#3769A4" transform="translate(47.000000, 66.500000) scale(-1, 1) translate(-47.000000, -66.500000) "></path>
                    <path d="M36.7812424,68 L37.6926457,68 C37.8734715,68 38.0116889,67.9343908 37.9992181,67.8550829 L37.5720952,65.1441961 C37.5596245,65.0648882 37.4006225,65 37.2197968,65 L36.3083934,65 C36.1265284,65 35.9883111,65.0648882 36.0007818,65.1441961 L36.4279047,67.8550829 C36.4403754,67.9343908 36.5993774,68 36.7812424,68" id="Fill-144" fill="#3769A4" transform="translate(37.000000, 66.500000) scale(-1, 1) translate(-37.000000, -66.500000) "></path>
                    <path d="M29.3491806,70.5164358 C27.5954253,69.8346182 26.333457,69.9197805 25.5632757,70.7719227 C24.4080039,72.050136 24.8319827,74.89738 27.5196451,75.2520406 C30.2073075,75.6067012 30.9287813,73.9906038 30.6972797,72.3035812 L29.3491806,70.5164358 Z" id="Fill-145" fill="#EFA573" transform="translate(27.848640, 72.681622) scale(-1, 1) translate(-27.848640, -72.681622) "></path>
                    <path d="M25.5562676,46.6128367 C26.5312035,49.8798989 27.348342,53.2106778 27.7039417,56.7459107 C27.7595041,57.1807255 27.7802475,57.6344452 27.8009908,58.0874647 L27.8343282,58.7638432 L27.8424774,58.933288 C27.8439591,59.0040066 27.8498857,59.0110085 27.8484041,59.1461441 C27.8498857,59.3688029 27.8358099,59.5802587 27.8083991,59.7777108 C27.5579976,61.3517261 26.9105098,62.2570651 26.3222887,63.1021881 C25.1043597,64.7392201 23.7597483,65.9470388 22.3795769,67.1065448 C19.5910826,69.3709423 16.7178986,71.6637538 13.6019562,73.3764058 L11,70.5276793 C13.5084596,68.3529054 16.8996373,66.288729 19.1073188,63.9571137 C20.1993063,62.8018088 21.2535112,61.5883886 21.9350773,60.45689 C22.268452,59.9177477 22.4647727,59.3246912 22.4203227,59.2511718 L22.4084694,59.2665759 L22.3810586,59.032014 L22.317347,58.4774677 C22.277342,58.1077701 22.2403004,57.7401731 22.1654763,57.3599728 C21.6846759,54.3498784 19.8280207,50.0528056 18.8486399,47 C17.8396257,43.9639988 17.6686217,42.0896431 16.4795852,39.1558689 L22.0617597,37 C23.4471169,40.1886414 24.5798501,43.3345716 25.5562676,46.6128367 Z" id="Fill-134" fill="#EFA573" transform="translate(19.424320, 55.188203) scale(-1, 1) translate(-19.424320, -55.188203) "></path>
                    <path d="M37,18 C37.4370453,18.4774565 38.0155002,18.8107898 38.7353648,19 C39.4552294,19.1892102 40.1424918,19.1892102 40.7971518,19" id="Line" stroke="#A64242" stroke-width="0.5" stroke-linecap="round"></path>
                    <path d="M19.0644592,31.5820298 C15.8477126,33.1606771 14,41.979703 14,41.979703 L22.2270887,46 C22.2270887,46 27.2316325,39.4637339 25.7131323,34.3491474 C24.9554928,31.7979406 22.2277329,30.0296506 19.0644592,31.5820298" id="Fill-154" fill="#52D2BC"></path>
                    <path d="M48.9921689,31.0845551 C52.7376476,32.6083228 55.8562008,36.9309092 57,39.5215564 L50.7134321,47 C50.7134321,47 44.9981456,38.543634 45,35.8095663 C45.0018553,32.9629407 47.5757127,30.5084523 48.9921689,31.0845551" id="Fill-182" fill="#52D2BC" transform="translate(51.000000, 39.000000) rotate(18.000000) translate(-51.000000, -39.000000) "></path>
                    <path d="M66.1934016,67.226984 C66.5788331,67.3628801 66.8359721,67.7278985 66.834172,68.1365817 L66.8281609,69.5013296 C66.8261481,69.9582984 66.5146186,70.3557694 66.0713648,70.4669026 L65.9537538,70.4963902 C65.5528327,70.5969098 65.1463348,70.3533862 65.0458153,69.9524651 C65.0342091,69.9061739 65.0270573,69.8588786 65.0244498,69.8112259 C65.0017379,69.3949005 64.9948491,69.1168189 65.0037836,68.976981 C65.0149691,68.8019096 65.128432,68.3615065 65.3441721,67.6557714 C65.450562,67.3077649 65.8189201,67.1118903 66.1669283,67.2182749 C66.1758131,67.220991 66.1846396,67.2238946 66.1934016,67.226984 Z" id="Rectangle" fill="#EFA573" transform="translate(65.918589, 68.857383) rotate(31.000000) translate(-65.918589, -68.857383) "></path>
                </g>
            </g>
        </g>
    </g>
</svg>