<?xml version="1.0" encoding="UTF-8"?>
<svg width="464px" height="464px" viewBox="0 0 464 464" version="1.1" xmlns="http://www.w3.org/2000/svg" xmlns:xlink="http://www.w3.org/1999/xlink">
    <!-- Generator: Sketch 59 (86127) - https://sketch.com -->
    <title>Illustration/Ideas</title>
    <desc>Created with Sketch.</desc>
    <g id="High-Fi-Flow-(FINAL)" stroke="none" stroke-width="1" fill="none" fill-rule="evenodd">
        <g id="Homepage-Change-Order" transform="translate(-126.000000, -1323.000000)">
            <g id="Illustration/Ideas" transform="translate(126.000000, 1326.000000)">
                <g id="Group-12">
                    <path d="M383,208 C415.032515,208 441,182.032515 441,150 C441,117.967485 415.032515,92 383,92 C350.967485,92 325,117.967485 325,150 C325,182.032515 350.967485,208 383,208 Z" id="Oval" stroke="#C8DBFB" stroke-width="14" stroke-dasharray="20" transform="translate(383.000000, 150.000000) rotate(-8.000000) translate(-383.000000, -150.000000) "></path>
                    <circle id="Oval" stroke="#C8DBFB" stroke-width="26" transform="translate(383.000000, 150.000000) rotate(-8.000000) translate(-383.000000, -150.000000) " cx="383" cy="150" r="38"></circle>
                    <path d="M107.401,125.401 C126.178681,125.401 141.401,110.178681 141.401,91.4009998 C141.401,72.6233183 126.178681,57.4009998 107.401,57.4009998 C88.6233183,57.4009998 73.4009998,72.6233183 73.4009998,91.4009998 C73.4009998,110.178681 88.6233183,125.401 107.401,125.401 Z" id="Oval-Copy" stroke="#C8DBFB" stroke-width="10" stroke-dasharray="15" transform="translate(107.401000, 91.401000) rotate(-8.000000) translate(-107.401000, -91.401000) "></path>
                    <circle id="Oval-Copy-3" stroke="#C8DBFB" stroke-width="13" transform="translate(107.401000, 91.401000) rotate(-8.000000) translate(-107.401000, -91.401000) " cx="107.401" cy="91.4009998" r="23.5"></circle>
                    <ellipse id="Oval" fill="#ECF2FE" cx="218.5" cy="432.5" rx="218.5" ry="28.5"></ellipse>
                    <g id="Group-17" transform="translate(370.113569, 272.330461) rotate(5.000000) translate(-370.113569, -272.330461) translate(321.113569, 217.830461)">
                        <path d="M5.55764557,92.6888216 C6.3846513,71.456827 17.2732417,51.8516946 30.4976936,35.3019824 C41.5257099,21.4996457 54.8361093,8.86980486 71.2730869,2.5799131 C76.4242057,0.610351033 82.0757299,-0.712316748 87.4254828,0.612276314 C92.7733259,1.93686938 97.6226736,6.55176701 97.7200807,12.1042763 C97.8022083,16.7846335 94.6832698,20.8739295 91.3981663,24.1892627 C80.5917034,35.0998279 66.9700799,43.8931751 53.8793241,51.8676874 C36.8490875,62.2422023 16.3851729,84.8088564 14.3354051,106.066586 C13.7165279,112.484837 2.89205136,100.947714 0.721667498,107.007134" id="Fill-1" fill="#5193F4"></path>
                        <path d="M11.9255612,93.1625259 C28.9249329,50.4854756 63.166767,17.2278362 85.8362875,12.5308181 C86.5419394,12.3846103 87.2386074,12.2617437 87.9255612,12.1625259" id="Stroke-4" stroke="#0045AE" stroke-linecap="round" stroke-linejoin="round"></path>
                    </g>
                    <g id="Group-18" transform="translate(355.000000, 283.000000) rotate(-5.000000) translate(-355.000000, -283.000000) translate(326.000000, 270.000000)">
                        <path d="M1.38047005,23.2259886 C10.8106023,14.7863598 17.8898726,5.95531042 29.7298579,2.28762704 C34.5219943,0.802499683 42.5006547,0.335397002 47.2952974,1.4779929 C52.0886869,2.61935223 56.4873267,6.49478032 56.95852,11.598128 C57.4146752,16.5469038 54.5662586,21.6742887 49.7565306,23.7821079 C44.9468025,25.8899271 37.5961831,23.5444045 33.0996367,22.7432941 C19.9589418,20.4021312 16.033649,20.6541048 8.00024268,23.6360591 C7.38854961,23.863116 6.79224048,24.0747119 6.2281873,24.2581221 C4.65125518,24.7708847 2.58025022,25.5190435 1.87622115,25.3131546 C0.0846587721,24.7892234 0.55049602,23.9689818 1.38047005,23.2259886 Z" id="Fill-6" fill="#00AF9F"></path>
                        <path d="M1.38054225,23.8300588 C17.5523997,12.2224553 36.6304796,10.4507601 53,12.4266429" id="Stroke-9" stroke="#007568" stroke-linecap="round" stroke-linejoin="round"></path>
                    </g>
                    <g id="Group-16" transform="translate(179.911953, 283.917869) rotate(18.000000) translate(-179.911953, -283.917869) translate(131.411953, 246.917869)">
                        <path d="M96.8757,73.0766 C89.3779874,63.7956 76.5460938,57.3166 62.7336522,55.8506 C52.5359533,54.7676 42.0421921,56.2756 31.9786069,54.5976 C21.4038715,52.8466 11.8640886,47.4616 6.34138937,40.1126 C0.81995537,32.7636 -0.618603398,23.5776 2.48498909,15.3896 C4.85095646,9.1676 10.2521943,3.2726 18.0712736,1.2766 C22.3312801,0.1936 26.9936275,0.3426 31.3472605,1.1706 C35.3643441,1.9346 39.099283,3.2626 42.5394249,4.9936 C50.4129088,8.9326 56.7681249,14.9976 61.5519337,21.4326 C65.8916493,27.2846 76.6004984,36.3956 83.8831231,42.3216 C88.1557818,45.7836 91.2593743,48.1516 91.2593743,48.1516 C96.2570059,53.0576 93.9201386,67.2246 96.8757,73.0766" id="Fill-14" fill="#5193F4"></path>
                        <path d="M10.0246,18.684 C44.2886296,20.516181 67.5211517,39.21043 87.0246,55.684" id="Stroke-17" stroke="#0C43A4" stroke-linecap="round" stroke-linejoin="round"></path>
                    </g>
                    <g id="Group-21" transform="translate(369.000000, 347.000000) rotate(39.000000) translate(-369.000000, -347.000000) translate(299.000000, 263.000000)">
                        <path d="M102.673513,112.528559 C117.1801,110.371568 126.72238,99.7462664 129.527612,96.0835064 C132.331255,92.4223354 134.054129,87.7537068 133.429508,83.1835993 C132.793761,78.5388064 129.820056,74.0894667 130.821357,69.5082358 C131.480944,66.487452 133.747381,64.1293019 135.479791,61.5693425 C139.601019,55.4801033 140.826421,47.5189633 138.731635,40.473116 C136.477913,32.9012933 130.802284,26.843835 127.572691,19.6343156 C124.934342,13.7468857 123.990258,7.11101334 124.883483,0.721443686 C112.826546,0.883526776 101.820181,7.46854957 89.9635048,9.66620558 C80.8945779,11.3474204 71.4600966,10.4337167 62.4706381,12.4994816 C46.077909,16.2655298 32.6779576,30.6893358 30.1286133,47.3123868 C22.5234932,46.0061878 14.3430223,48.7472989 9.05996708,54.3693574 C3.44155548,60.3489522 0.278715567,68.8408349 0.790491673,77.029209 C4.49371629,136.504169 38.5506679,167.531957 38.5506679,167.531957 C39.6310211,168.865816 62.2974291,163.621142 63.9623723,136.878922 C64.5446668,127.526142 65.1854219,122.854142 71.1244798,118.045747 C83.554454,107.982159 88.1669258,114.685551 102.673513,112.528559 Z" id="Fill-4" fill="#7EE8D4"></path>
                        <path d="M41.0605386,147.148755 C39.4829291,128.975997 45.7101448,91.8168674 63.9801647,59.8190161 C82.2501845,27.8211648 94.779819,21.9017852 108.825578,15.1487545" id="Stroke-7" stroke="#08ADA0" stroke-linecap="round" stroke-linejoin="round"></path>
                        <path d="M57.1095114,24.4354311 C55.4433345,37.3396449 56.6096584,52.8870983 60.3682027,65.4354311" id="Stroke-9" stroke="#08ADA0" stroke-linecap="round" stroke-linejoin="round"></path>
                        <path d="M62.2560626,64.4774505 C77.0231557,55.225959 99.740069,49.6075574 117.256063,50.5879393" id="Stroke-11" stroke="#08ADA0" stroke-linecap="round" stroke-linejoin="round"></path>
                        <path d="M26.6857715,62.9865627 C44.4767521,70.4707644 45.2109681,96.5713688 45.6857715,103.986563" id="Stroke-13" stroke="#08ADA0" stroke-linecap="round" stroke-linejoin="round"></path>
                        <path d="M50.9924127,88.4437938 C64.6737477,78.2773301 84.4421708,75.2218266 98.9924127,79.0121566" id="Stroke-15" stroke="#08ADA0" stroke-linecap="round" stroke-linejoin="round"></path>
                        <path d="M89.0862047,15.8717032 C84.8095536,20.8510335 83.7453179,26.7744522 84.1739684,30.8717032" id="Stroke-17" stroke="#08ADA0" stroke-linecap="round" stroke-linejoin="round"></path>
                        <path d="M87.3373237,28.7004058 C93.7083837,25.4871748 102.226006,24.7502528 111.337324,27.0003002" id="Stroke-19" stroke="#08ADA0" stroke-linecap="round" stroke-linejoin="round"></path>
                    </g>
                    <g id="Group-29" transform="translate(178.570323, 316.502938) rotate(-59.000000) translate(-178.570323, -316.502938) translate(135.570323, 258.002938)">
                        <path d="M58.3277768,80.4594942 C60.8827768,72.8524942 59.4467768,65.2054942 61.8577768,57.5524942 C64.2687768,49.8994942 65.9097768,41.6694942 63.9647768,33.8844942 C63.3497768,31.4234942 62.1027768,28.7394942 59.1467768,28.6384942 C57.9607768,28.5974942 56.8047768,29.0754942 55.9027768,29.8444942 C53.6237768,31.7864942 53.0487768,34.6964942 52.5277768,37.4754942 L50.7867768,46.7674942 C50.2207768,49.7884942 45.8547768,49.9664942 45.1637768,46.9694942 C45.1577768,46.9454942 45.1527768,46.9194942 45.1467768,46.8944942 C44.5877768,44.3794942 44.8757768,41.7614942 45.2197768,39.2084942 C45.9687768,33.6534942 46.9777768,28.0654942 46.5157768,22.4794942 C45.9567768,15.7194942 42.9147768,8.7584942 36.3307768,5.9464942 C33.9957768,4.9484942 31.3617768,4.7214942 28.9037768,5.3524942 C22.0317768,7.1164942 20.2537768,13.8324942 21.2607768,19.5664942 C21.9707768,23.6014942 23.8637768,27.3124942 25.5757768,31.0344942 C29.7567768,40.1264942 26.6897768,48.4644942 27.2687768,58.4544942 C28.1499189,73.6667478 33.6711079,91.8249903 47.2184252,107.137866 C49.0995183,109.264113 51.0272056,110.853557 53.0014871,111.906197 C55.2150135,94.9203952 56.9904434,84.4381609 58.3277768,80.4594942 Z" id="Fill-23" fill="#00AD9F" transform="translate(42.911845, 58.453099) rotate(-25.000000) translate(-42.911845, -58.453099) "></path>
                        <path d="M39.3527233,19.7062387 C34.884391,35.2127506 40.9400048,52.0908286 41.4997486,63.2625892 C42.1787486,76.7945892 44.5687036,82.4807094 38.7256221,104.395659" id="Stroke-3-Copy" stroke="#356158" stroke-linecap="round" stroke-linejoin="round" transform="translate(40.140000, 62.050949) scale(-1, 1) rotate(37.000000) translate(-40.140000, -62.050949) "></path>
                    </g>
                    <path d="M317.668948,329.157063 C318.763482,322.107575 320.66071,313.893654 324.48957,304.363661 C337.688712,271.511129 375.997108,254.032007 376,182.017431 C376.002396,122.358692 328.829338,74 265.004338,74 C201.179338,74 154.002395,122.377381 154,182.026295 C153.997108,254.040871 190.635252,271.378903 203.945087,304.368474 C208.470841,315.585944 211.598175,332.784084 212.717523,340.609326 L314.486192,342 L317.668948,329.157063 Z" id="Path" fill="#C7EAEF"></path>
                    <rect id="Rectangle" fill="#5193F4" x="217" y="329" width="94" height="96" rx="40"></rect>
                    <path d="M330,338 L329.981666,363.149365 C329.974916,372.409106 322.460441,379.921206 313.197617,379.928111 L216.759609,380 C207.496785,380.0069 199.993254,372.505994 200,363.246253 L200.018338,338.096888 L200.018338,338.096888" id="Path" fill="#0156EE"></path>
                    <path d="M254.821587,323.053014 C257.258649,233.73842 246.359005,191.183286 222.122654,195.387612 C211.796609,197.17889 215.638123,214.937523 225.438183,221.611692 C238.286534,230.361848 259.106161,227.355911 266.665463,216.71782 C279.990612,197.965541 276.207379,168.715767 260.44538,172.301077 C244.68338,175.886386 258.51291,221.611692 278.347976,221.611692 C290.21089,221.611692 301.103461,212.850813 307.400383,202.830343 C314.756776,191.123908 310.680976,185.413486 308.477688,184.133607 C289.984655,173.391096 269.820889,225.205826 272.860334,323.053014" id="Path-14" stroke="#FFFFFF" stroke-width="4"></path>
                    <path d="M196.910026,322.273937 L331.153042,322.032145 C340.974539,322.014455 348.950775,329.962011 348.968465,339.783507 C348.968503,339.804658 348.968504,339.825808 348.968466,339.846959 C348.951032,349.713846 340.956861,357.708291 331.089974,357.726063 L196.846958,357.967855 C187.025461,357.985545 179.049225,350.037989 179.031535,340.216493 C179.031497,340.195342 179.031496,340.174192 179.031534,340.153041 C179.048968,330.286154 187.043139,322.291709 196.910026,322.273937 Z" id="Rectangle" fill="#5193F4"></path>
                    <line x1="265" y1="3.69416303e-13" x2="264.5" y2="40.5" id="Line-12" stroke="#5193F4" stroke-width="6" stroke-linecap="round"></line>
                    <line x1="172.952467" y1="29" x2="157.976234" y2="63.5782351" id="Line-12-Copy-2" stroke="#5193F4" stroke-width="6" stroke-linecap="round" transform="translate(165.476234, 46.359412) scale(-1, 1) translate(-165.476234, -46.359412) "></line>
                    <line x1="369.928701" y1="28.8594117" x2="355.952467" y2="63.7188234" id="Line-12-Copy-3" stroke="#5193F4" stroke-width="6" stroke-linecap="round" transform="translate(362.476234, 46.359412) scale(-1, -1) translate(-362.476234, -46.359412) "></line>
                    <polygon id="Rectangle" fill="#4D44D2" transform="translate(147.837216, 206.027241) rotate(-19.000000) translate(-147.837216, -206.027241) " points="89.8372159 201.027241 205.837216 201.027241 205.837216 211.027241 89.8372159 211.027241"></polygon>
                    <g id="Group-28" transform="translate(103.000000, 323.500000) scale(-1, 1) rotate(3.000000) translate(-103.000000, -323.500000) translate(46.000000, 211.000000)">
                        <polygon id="Fill-252" fill="#CF9061" points="65.6975066 41 62 47.6799351 71.0354331 51 72 43.308713"></polygon>
                        <path d="M69.872148,18 C50.2295766,26.5380464 58.2771815,47.2338186 70.2338028,44.8029016 C76.0532998,43.6204206 79,24.9064425 79,24.9064425 L69.872148,18 Z" id="Fill-254" fill="#CF9061"></path>
                        <path d="M77.8945063,14.9631585 C77.2714276,13.8052276 76.6817011,12.5731287 75.6553646,11.7497111 C74.6305441,10.9262936 73.0038691,10.6659484 72.0412049,11.5605068 C70.7677593,12.7426558 71.5121186,14.957104 72.8037562,16.122603 C71.6925233,16.2558029 70.3735976,15.4914172 69.554954,16.2527757 C68.9349073,16.8294706 69.1501803,17.852688 69.5064418,18.6216146 C70.3417615,20.4304086 71.7061674,21.9924801 73.3859027,23.0641337 C72.4262705,23.6090424 71.3120057,24.6610188 71.8880882,25.6024998 C72.0487849,25.8628451 72.3156021,26.0429677 72.4732667,26.3048265 C72.8401403,26.9163351 72.4853948,27.69283 72.1154892,28.3028249 C71.5181826,29.2866877 70.8738798,30.2433052 70.1856128,31.1651089 C70.8359796,30.2735779 72.4232385,30.6398776 72.8992646,31.6358495 C73.3768067,32.6303078 72.9614209,33.8593795 72.2246417,34.6797697 C71.8153199,35.1368875 71.2938136,35.5168099 70.696507,35.6545507 C70.1750007,35.7756415 67.8827988,42.859454 69.6716866,44.2474574 C71.8835402,45.9608923 79.4105129,44.472989 80.4990057,42.535536 C81.5874984,43.7146578 83.1808214,44.6077025 84.7574682,44.2943801 C86.3325991,43.9825712 87.5347923,42.042091 86.6858286,40.681333 C88.388304,41.3079779 90.459169,40.7555011 91.6219461,39.3644704 C92.7832071,37.9719261 92.9545159,35.8377006 92.0282359,34.2786564 C92.9575479,33.9986339 93.1440167,32.745344 92.9060037,31.8068902 C92.4269456,29.9072782 90.8760708,28.3164476 88.9871266,27.7866753 C89.9467588,27.8018117 90.7077941,26.8391397 90.7532743,25.8825223 C90.7987545,24.9259049 90.3015043,24.0237784 89.6966177,23.2805836 C87.916826,21.0918672 85.8141248,20.5060904 83.1868854,20.1746043 C80.5308418,19.8416045 79.0678955,17.1412795 77.8945063,14.9631585" id="Fill-256" fill="#282828"></path>
                        <path d="M60.6454737,218.014309 C60.6454737,218.014309 49.4964065,223.036773 48,224.602179 C48,224.602179 69.9366172,225.527972 71.6542051,224.554959 C73.3702676,223.584808 68.1412346,218 68.1412346,218 L60.6454737,218.014309 Z" id="Fill-258" fill="#0C2340"></path>
                        <path d="M101.856097,211.417138 C101.856097,211.417138 92.1103344,218.242031 91,220 C91,220 114,216.893887 114,215.527805 C114,214.160342 109.144562,210 109.144562,210 L101.856097,211.417138 Z" id="Fill-260" fill="#0C2340"></path>
                        <path d="M70.9427048,115.323488 C70.5251678,117.567744 55.1086526,177.230838 99.2212096,213 L112,210.127472 C112,210.127472 97.1289022,196.455026 90.1201348,171.849757 C83.4934676,148.581075 88.7565913,146.299062 92.7316672,133.482937 C97.130443,119.29851 93.8579386,109 93.8579386,109 L70.9427048,115.323488 Z" id="Fill-262" fill="#D8742A"></path>
                        <path d="M48.6886289,113.353066 C41.8735485,130.051661 30.1727505,186.957417 55.6733732,219 L68.40867,218.972292 C68.40867,218.972292 58.3774842,207.701357 57.2559012,181.551308 C56.1358197,155.40126 62.6190798,143.920977 67.1939972,135.293062 C71.7674131,126.663607 76,112 76,112 L48.6886289,113.353066 Z" id="Fill-264" fill="#EF832B"></path>
                        <path d="M40.2267187,13.3657696 C36.6915596,25.6160061 35.4367816,47.883258 53.1455276,57 L65,54.1610416 C65,54.1610416 43.4438328,43.2798449 48.0208674,15.453118 L40.2267187,13.3657696 Z" id="Fill-266" fill="#3F3F3F"></path>
                        <path d="M19.2011825,6.7596804 C19.2011825,6.7596804 18.0133205,43.7280145 61.333363,46.8216221 C94.4011326,49.1828473 97,109.943748 97,109.943748 C86.3379408,116.972234 68.4444492,119.100768 45.5177467,117.491316 C45.5177467,117.491316 46.984751,74.1420263 43.3423758,62.276236 C43.3423758,62.276236 8.57006354,50.7819046 11.3745858,7.67425659 L19.2011825,6.7596804 Z" id="Fill-268" fill="#282828"></path>
                        <path d="M11.3745858,7.67425659 L19.2011825,6.7596804 C19.2011825,6.7596804 19.293976,5.27907517 19.1966189,3.73509773 C19.0977406,2.19256057 18.4685337,1.34366846 17.3529192,2.63760631 C16.2373047,3.93154415 14.2923816,5.0348456 11.191821,3.1945944 C8.09126053,1.3543432 1.978106,-0.418662465 0.46755,1.23621634 C-1.04148479,2.89253542 5.26086516,4.99390023 11.3745858,7.67425659 Z" id="Fill-270" fill="#CF9061"></path>
                        <path d="M40.7679545,13.5674705 C43.8158044,13.7065767 46.8993391,11.1247745 46.8993391,11.1247745 C46.8993391,11.1247745 48.7070229,8.56928862 50.222224,8.45639151 C51.7374251,8.34204699 49.0805178,11.2542136 49.6888619,12.3354207 C50.2986207,13.4137329 48.0208674,15.453118 48.0208674,15.453118 L40.7679545,13.5674705 Z" id="Fill-272" fill="#CF9061"></path>
                        <path d="M83.2758144,21.7823624 C84.9520899,22.2020966 86.6667859,22.3694325 88.0556186,23.490583 C89.4359133,24.6033666 90.0648724,26.5109957 89.0616685,28.065825 C88.5949296,28.7895527 89.7048573,29.3640726 90.2043248,28.7212239 C91.4707808,27.089699 91.1306876,24.8557649 89.8514247,23.3162747 C88.378636,21.5397254 85.6308534,20.8062364 83.3768463,21.0432956 C82.9741418,21.086524 82.8261514,21.6694107 83.2758144,21.7823624" id="Fill-274" fill="#282828"></path>
                        <path d="M90.7115378,35.8758072 C92.0533876,36.5661355 93.1833664,37.6905566 92.6132094,39.1405473 C92.0826706,40.4850294 90.5203371,41.2868954 89.2663363,42.0571088 C88.6634512,42.4278964 89.1819324,43.2403133 89.8502735,42.9313236 C91.7088819,42.0706742 93.6794546,40.8618461 93.9688394,38.8828047 C94.2220512,37.1539696 92.8974266,35.8381255 91.2541343,35.0618831 C90.6460817,34.7739951 90.1120978,35.5668175 90.7115378,35.8758072" id="Fill-276" fill="#282828"></path>
                        <path d="M91.2471962,23.2887241 C94.5130261,25.4559887 91.2407547,28.42661 89.1451269,30.2866206 C88.6856347,30.6972917 89.4135218,31.2503489 89.9889606,30.8756489 C91.8548424,29.6571246 93.718577,28.3186964 93.974089,26.4466954 C94.1608919,25.0423199 93.3363826,23.7023929 91.5413571,23.0204389 C91.3030224,22.9320097 91.0389217,23.1508345 91.2471962,23.2887241" id="Fill-280" fill="#282828"></path>
                    </g>
                    <path d="M201.049453,182.416695 L204.305134,191.871881 C213.99965,185.841004 218.712092,182.399108 218.44246,181.546193 C218.172827,180.693277 212.375158,180.983445 201.049453,182.416695 Z" id="Path-15" fill="#FFFFFF"></path>
                    <path d="M311.383848,108.228259 C317.359494,110.234551 322.106854,112.777602 325.62593,115.857411" id="Path-16" stroke="#FFFFFF" stroke-width="12" stroke-linecap="round" transform="translate(318.504889, 112.042835) rotate(7.000000) translate(-318.504889, -112.042835) "></path>
                    <path d="M336.419045,130.698321 C346.851942,139.614538 352.967365,152.678503 354.765314,169.890215" id="Path-17" stroke="#FFFFFF" stroke-width="12" stroke-linecap="round" transform="translate(345.592179, 150.294268) rotate(3.000000) translate(-345.592179, -150.294268) "></path>
                </g>
            </g>
        </g>
    </g>
</svg>