<svg xmlns="http://www.w3.org/2000/svg" width="140" height="108" viewBox="0 0 140 108">
    <g fill="none" fill-rule="evenodd">
        <path fill="#FFF" d="M27.152 52.757L37.876 53 41 45H25zM65.152 53.757L75.876 54 79 46H63zM103.152 52.757l10.724.243L117 45h-16z"/>
        <path fill="#FFF" stroke="#000" stroke-linecap="round" stroke-linejoin="round" stroke-width="3" d="M42.526 25.544c-6.806-.42-10.446 2.74-10.92 9.48m0 0c6.807.429 10.447-2.732 10.92-9.48M19.557 25.45c6.813-.302 10.398 2.921 10.753 9.669m0 0c-6.813.31-10.397-2.914-10.753-9.67"/>
        <path stroke="#000" stroke-linecap="square" stroke-width="3" d="M31.5 33.375v10.5"/>
        <path fill="#FFF" stroke="#000" stroke-linecap="round" stroke-linejoin="round" stroke-width="3" d="M82.526 25.544c-6.806-.42-10.446 2.74-10.92 9.48m0 0c6.807.429 10.447-2.732 10.92-9.48M59.557 25.45c6.813-.302 10.398 2.921 10.753 9.669m0 0c-6.813.31-10.397-2.914-10.753-9.67"/>
        <path stroke="#000" stroke-linecap="square" stroke-width="3" d="M71.5 33.375v10.5"/>
        <path fill="#FFF" stroke="#000" stroke-linecap="round" stroke-linejoin="round" stroke-width="3" d="M120.526 25.544c-6.806-.42-10.446 2.74-10.92 9.48m0 0c6.807.429 10.447-2.732 10.92-9.48M97.557 25.45c6.813-.302 10.398 2.921 10.753 9.669m0 0c-6.813.31-10.397-2.914-10.753-9.67"/>
        <path stroke="#000" stroke-linecap="square" stroke-width="3" d="M109.5 33.375v10.5"/>
        <path stroke="#000" stroke-linecap="round" stroke-linejoin="round" stroke-width="3" d="M12 40h8.716l5.734 13h11.735l5.735-13 15.469.067L66.104 53h10.754l5.767-13 15.437.067L103.796 53h11.735l5.999-12.947 1.668.003 5.802.011"/>
        <path stroke="#000" stroke-linecap="square" stroke-width="3" d="M24 45.5h16.75M62.75 45.5H79.5M102 45.5h16.75"/>
        <g stroke="#000" stroke-width="3">
            <path fill="#FFF" d="M94.464 88.5c-5.909 1.32-9.68 7.05-9.68 7.05s4.735 5.105 10.934 4.884c6.199-.221 9.694-2.778 9.25-7.005-.445-4.227-4.596-6.249-10.504-4.93z"/>
            <path stroke-linecap="square" d="M99.13 99.123c-.77-2.305-1.217-4.05-1.342-5.234-.124-1.184-.05-2.983.224-5.399"/>
            <path stroke-linecap="round" d="M99.905 93.528l-1.491.156"/>
            <path d="M77.195 90.315c-2.197.23.001 2.01 6.594 5.34-5.757 4.627-7.537 6.825-5.34 6.594a6 6 0 0 0-1.254-11.934z"/>
        </g>
        <path stroke="#000" stroke-linecap="round" d="M65.756 53C67.919 54.583 69 56.37 69 58.36c0 2.985-4 4.08-4 6.849 0 1.845.795 3.442 2.384 4.791M25.756 53C27.919 54.583 29 56.37 29 58.36c0 2.985-4 4.08-4 6.849 0 1.845.795 3.442 2.384 4.791M103.756 53c2.163 1.583 3.244 3.37 3.244 5.36 0 2.985-4 4.08-4 6.849 0 1.845.795 3.442 2.384 4.791M69.756 53C71.919 54.583 73 56.37 73 58.36c0 2.985-4 4.08-4 6.849 0 1.845.795 3.442 2.384 4.791M29.756 53C31.919 54.583 33 56.37 33 58.36c0 2.985-4 4.08-4 6.849 0 1.845.795 3.442 2.384 4.791M107.756 53c2.163 1.583 3.244 3.37 3.244 5.36 0 2.985-4 4.08-4 6.849 0 1.845.795 3.442 2.384 4.791M73.756 53C75.919 54.583 77 56.37 77 58.36c0 2.985-4 4.08-4 6.849 0 1.845.795 3.442 2.384 4.791M33.756 53C35.919 54.583 37 56.37 37 58.36c0 2.985-4 4.08-4 6.849 0 1.845.795 3.442 2.384 4.791M111.756 53c2.163 1.583 3.244 3.37 3.244 5.36 0 2.985-4 4.08-4 6.849 0 1.845.795 3.442 2.384 4.791"/>
        <g stroke="#000" stroke-width="3">
            <path fill="#FFF" d="M25.647 86.806c6.041-.379 10.663-5.45 10.663-5.45s-3.878-5.782-10.035-6.533c-6.158-.751-10.01 1.227-10.232 5.472-.222 4.244 3.562 6.89 9.604 6.511z"/>
            <path stroke-linecap="square" d="M22.7 75.584c.4 2.397.568 4.19.506 5.38-.063 1.188-.418 2.954-1.065 5.296"/>
            <path stroke-linecap="round" d="M21.058 80.99l1.498.078"/>
            <path d="M42.986 87.715c2.206.116.314-1.986-5.677-6.306 6.41-3.67 8.511-5.562 6.305-5.678a6 6 0 0 0-.628 11.984z"/>
        </g>
        <circle cx="97.5" cy="77.5" r="2.5" fill="#FFF" stroke="#000" stroke-width="2"/>
        <circle cx="59.5" cy="96.5" r="2.5" fill="#FFF" stroke="#000" stroke-width="2"/>
        <circle cx="44" cy="66" r="3" fill="#FFF" stroke="#000" stroke-width="2"/>
    </g>
</svg>
