<svg xmlns="http://www.w3.org/2000/svg" width="140" height="108" viewBox="0 0 140 108">
    <g fill="none" fill-rule="evenodd">
        <path fill="#FFF" d="M39 10h64.712l30.772 27.516c5.655 30.933 1.777 49.427-11.633 55.483-13.41 6.055-41.36 2.947-83.851-9.324V10z"/>
        <path fill="#FFF" stroke="#000" stroke-linejoin="round" stroke-width="3" d="M12 40.106L39.636 10 71 40.106V104H12V72.053z"/>
        <path fill="#FFF" stroke="#000" stroke-linejoin="round" stroke-width="3" d="M39 10l5.027.02 61.082.295L135 40M70 40h65v64H70z"/>
        <path fill="#FFF" stroke="#000" stroke-linecap="square" stroke-width="3" d="M71.5 62.5h62.948M55.5 23.5h61M71 84.5h64M114.339 40.21l.161 62.29M92.339 41.212L92.5 102.5M114.333 39.805L84.5 11.5M92.928 39.805L63.5 11.5"/>
        <path stroke="#000" stroke-linejoin="round" stroke-width="3" d="M22.635 57.798c.892-2.112 7.565-1.62 11.283 1.087 3.532 2.57 6.204 8.455 5.449 10.245-.894 2.116-7.727 1.797-11.437-.904-3.53-2.568-6.066-8.601-5.295-10.428zM28.763 40.205c.806-1.233 1.887-.905 4.294.234 1.71.808 3.302 1.882 4.48 3.15 2.233 2.404 3.538 6.873 2.688 8.172-1.097 1.678-5.94.162-8.336-2.418-2.239-2.41-3.97-7.849-3.126-9.138zM41.336 88.974c-.803-2.266 3.559-8.41 8.688-10.334 5.173-1.94 13.963-.585 14.74 1.61.788 2.224-3.738 8.163-8.873 10.088-5.186 1.944-13.784.813-14.555-1.364zM39.664 88.974c.803-2.266-3.559-8.41-8.688-10.334-5.173-1.94-13.963-.585-14.74 1.61-.788 2.224 3.738 8.163 8.873 10.088 5.186 1.944 13.784.813 14.555-1.364zM41.657 69.285c-.827-1.78 1.756-7.367 5.328-9.73 3.7-2.449 10.45-2.736 11.36-.775.814 1.752-1.908 7.199-5.482 9.564-3.71 2.455-10.298 2.897-11.206.941z"/>
        <path stroke="#000" stroke-width="3" d="M40.8 51.774c-.904-1.341.273-5.986 2.577-8.392 1.247-1.302 3.089-2.34 5.171-3.093 2.578-.933 3.927-1.218 4.684-.095.867 1.285-1.62 6.683-4.001 9.17-2.458 2.566-7.318 4.06-8.43 2.41z"/>
        <path stroke="#000" stroke-linecap="square" stroke-width="3" d="M40.5 52.356V102.5"/>
    </g>
</svg>
