<svg xmlns="http://www.w3.org/2000/svg" width="140" height="108" viewBox="0 0 140 108">
    <g fill="none" fill-rule="evenodd" stroke="#000">
        <path fill="#FFF" stroke-linejoin="round" stroke-width="3" d="M7 52h126v31H7zM22 83h20v7H22zM98 83h20v7H98z"/>
        <path stroke-linejoin="round" stroke-width="3" d="M103 52h21l-2.52 13h-15.96zM59 52h21l-2.52 13H61.52zM15 52h21l-2.52 13H17.52z"/>
        <path fill="#FFF" stroke-linejoin="round" stroke-width="2" d="M41.547 35.135c-4.993-.278-8.278-.048-9.856.69-4.682 2.187-3.759 6.445-3.269 6.963.49.519 3.34 3.365 7.861-.173 2.087-1.633 3.842-4.126 5.264-7.48zM85.547 35.135c-4.993-.278-8.278-.048-9.856.69-4.682 2.187-3.759 6.445-3.269 6.963.49.519 3.34 3.365 7.861-.173 2.087-1.633 3.842-4.126 5.264-7.48zM129.547 35.135c-4.993-.278-8.278-.048-9.856.69-4.682 2.187-3.759 6.445-3.269 6.963.49.519 3.34 3.365 7.861-.173 2.087-1.633 3.842-4.126 5.264-7.48zM10 36.465c5.025-.62 8.36-.62 10.006 0 3.257 1.226 4.522 3.445 3.795 6.658-2.091 2.372-4.743 2.496-7.955.372-2.223-1.47-4.172-3.814-5.846-7.03zM54 36.465c5.025-.62 8.36-.62 10.006 0 3.257 1.226 4.522 3.445 3.795 6.658-2.091 2.372-4.743 2.496-7.955.372-2.223-1.47-4.172-3.814-5.846-7.03zM98 36.465c5.025-.62 8.36-.62 10.006 0 3.257 1.226 4.522 3.445 3.795 6.658-2.091 2.372-4.743 2.496-7.955.372-2.223-1.47-4.172-3.814-5.846-7.03z"/>
        <path stroke-linecap="round" stroke-width="2" d="M36 38c-3.667.793-6.486 3.032-8.46 6.715C26.286 47.059 25.439 49.488 25 52M80 38c-3.667.793-6.486 3.032-8.46 6.715C70.286 47.059 69.439 49.488 69 52M124 38c-3.667.793-6.486 3.032-8.46 6.715-1.255 2.344-2.102 4.773-2.54 7.285M16 39s9.789 1.505 9 12.088M60 39s9.789 1.505 9 12.088M104 39s9.789 1.505 9 12.088"/>
        <path stroke-linecap="square" stroke-width="3" d="M7 71c13.813 0 16.314 4.448 29.685 4.448C50.057 75.448 50.057 71 66.858 71c16.8 0 16.233 6 25.187 6 8.955 0 11.697-4.801 23.263-4.801 3.61 0 8.84 1.083 15.692 3.249"/>
    </g>
</svg>
