<svg xmlns="http://www.w3.org/2000/svg" width="140" height="108" viewBox="0 0 140 108">
    <g fill="none" fill-rule="evenodd" stroke="#000" stroke-width="3">
        <path stroke-linecap="round" d="M16 103c9.74-10.65 23.68-20.263 41.816-28.838C77.283 64.958 100.678 59.904 128 59"/>
        <path stroke-linecap="round" d="M34 103c8.489-7.18 20.234-14.039 35.236-20.577C85.338 75.404 104.593 71.596 127 71M58 103c6.265-4.662 14.934-9.116 26.006-13.362C95.891 85.08 110.222 82.534 127 82M84 103c3.831-2.098 9.168-4.352 16.01-6.762 7.345-2.587 16.341-4 26.99-4.238M13 45c7.602.288 16.712 1.97 27.329 5.046C50.946 53.12 62.169 58.772 74 67M13 56c8.047.904 15.881 2.56 23.503 4.968S51.958 67.053 60 72M13 69c5.106.645 10.27 1.703 15.494 3.176C33.717 73.648 39.553 75.923 46 79M13 82c2.472.196 5.31.8 8.512 1.812C24.715 84.824 28.211 86.22 32 88"/>
        <g fill="#FFF" stroke-linecap="round" stroke-linejoin="round">
            <path d="M54 25.49c-11.015-1.909-17.681 1.763-20 11.016m0 0c11.012 1.92 17.678-1.753 20-11.017M14 25.49c11.015-1.909 17.681 1.763 20 11.016m0 0c-11.012 1.92-17.678-1.753-20-11.017"/>
        </g>
        <path fill="#FFF" stroke-linejoin="round" d="M34.074 9.996c-3.908 3.207-5.944 7.175-6.11 11.906-.21 6.063 5.342 10.08 5.342 10.08s6.413-2.828 6.652-9.661c.165-4.731-1.797-8.84-5.884-12.325z"/>
        <path stroke-linecap="square" d="M34 35.5v11"/>
        <g>
            <g fill="#FFF" stroke-linecap="round" stroke-linejoin="round">
                <path d="M96 47.367c-8.26-1.431-13.26 1.323-15 8.262m0 0c8.259 1.44 13.259-1.314 15-8.262M66 47.367c8.26-1.431 13.26 1.323 15 8.262m0 0c-8.259 1.44-13.259-1.314-15-8.262"/>
            </g>
            <path fill="#FFF" stroke-linejoin="round" d="M81.055 35.747c-2.93 2.405-4.457 5.381-4.581 8.93-.16 4.547 4.005 7.56 4.005 7.56s4.81-2.121 4.99-7.247c.123-3.548-1.348-6.629-4.414-9.243z"/>
            <path stroke-linecap="square" d="M81 54.875v8.25"/>
        </g>
        <g fill="#FFF" transform="translate(86 5)">
            <circle cx="15.5" cy="15.587" r="7.5"/>
            <path stroke-linecap="round" d="M24.5 6.587l2-2M4.5 4.587l2 2M15.339 28.26v2.829M28.134 15.48l2.828-.05M.086 15.562l2.828.05M6.48 24.542l-1.964 2.035M15.516 2.914V.086M24.288 24.505l2 2"/>
        </g>
    </g>
</svg>
