<svg xmlns="http://www.w3.org/2000/svg" width="140" height="108" viewBox="0 0 140 108">
    <g fill="none" fill-rule="evenodd">
        <path fill="#FFF" d="M33 51l8.987 34.495L99.002 87 106 54.466z"/>
        <path fill="#FFF" stroke="#000" stroke-width="3" d="M40.1 82.515L35 56.446m69.53.068L98.957 85M23 104c0-7.493 7.043-14.8 15.73-14.8.309 0 .616.008.92.023a8.302 8.302 0 0 1-.378-2.49c0-4.087 2.915-7.4 6.51-7.4.268 0 .534.019.794.055 1.724-5.082 6.06-8.688 11.139-8.688 2.53 0 4.878.896 6.809 2.424C66.889 69.414 70.733 67 75.072 67c5.735 0 10.603 4.216 12.339 10.07a7.708 7.708 0 0 1 1.764-.203c4.793 0 8.678 4.417 8.678 9.866l-.001.164c.71-.108 1.435-.164 2.17-.164C109.01 86.733 117 93.783 117 104"/>
        <path stroke="#000" stroke-linecap="round" stroke-width="3" d="M82 80c-.399-3.68-3.798-6.35-7.593-5.963-2.393.244-4.372 1.645-5.407 3.57M67.39 91.014c-2.85-3.448-7.273-4.496-11.204-3.448-2.967.791-5.077 3.14-5.864 5.433M36.908 95.016c-2.212-.676-4.458 1.089-4.193 3.658M109.917 99.2c-.955-3.245-4.144-7.372-9.823-7.513a17.625 17.625 0 0 0-3.28.239"/>
        <path fill="#FFF" stroke="#000" stroke-linejoin="round" stroke-width="3" d="M78 7.802c-10.125.835-16.672 2.201-19.64 4.097-10.204 6.52-3.689 13.594-2.545 14.3 1.145.707 9.308 2.293 13.946-6.534 2.467-4.695 5.213-8.65 8.24-11.863zM23 17.93c9.331-1.24 15.526-1.24 18.582 0 6.049 2.451 8.398 6.89 7.049 13.316-3.884 4.744-8.809 4.992-14.774.744-4.13-2.94-7.748-7.627-10.857-14.06z"/>
        <path stroke="#000" stroke-linecap="round" stroke-width="3" d="M68 14c-6.41 2.226-11.269 7.254-14.574 15.083C52.638 30.95 51.644 33.167 51 40M33 23s17.24.368 18 17"/>
        <path fill="#FFF" stroke="#000" stroke-linecap="round" stroke-linejoin="round" stroke-width="3" d="M103.893 48a10.74 10.74 0 0 0-.13-3.76c-1.354-6.348-8.03-9.872-15.898-6.22C86.703 34.486 83.274 29 75 29c-7.812 0-12.22 4.51-12.22 12.64-6.046-4.728-15.447-2.722-16.78 5.947"/>
        <path stroke="#000" stroke-linecap="round" stroke-width="3" d="M79.95 37.112c-1.471-3.079-7.465-4.24-9.493.44"/>
        <path fill="#FFF" stroke="#000" stroke-linejoin="round" stroke-width="3" d="M30 48h80l-1.905 8h-76.19z"/>
        <path stroke="#000" stroke-linecap="round" stroke-width="3" d="M10.5 103.5H131"/>
    </g>
</svg>
