<svg xmlns="http://www.w3.org/2000/svg" width="140" height="108" viewBox="0 0 140 108">
    <g fill="none" fill-rule="evenodd" stroke="#000">
        <path fill="#FFF" stroke-linejoin="round" stroke-width="3" d="M12 7h116v97H12z"/>
        <path stroke-linejoin="round" stroke-width="3" d="M40 31h6v73h-6zM95 31h6v73h-6z"/>
        <path stroke-linecap="square" stroke-width="3" d="M43 27v4M98 27v4"/>
        <path fill="#D8D8D8" stroke-linecap="round" stroke-width="3" d="M48 49.5h16.964M93 49.5H76.036M22 39.5h16.964M101 39.5h16.964M48 64.5h16.964M93 64.5H76.036M22 56.5h16.964M101 56.5h16.964M48 80.5h16.964M93 80.5H76.036M22 72.5h16.964M101 72.5h16.964M22 87.5h16.964M101 87.5h16.964"/>
        <g stroke-width="2">
            <path stroke-linecap="round" stroke-linejoin="round" d="M21 29.149c3.559-.88 5.712.814 6.462 5.084m0 0c-3.558.886-5.712-.808-6.462-5.084M27.699 34.462c4.28-.784 5.969-2.938 5.064-6.462m0 0c-4.281.779-5.97 2.933-5.064 6.462"/>
            <path d="M28.363 40c.11-2.123-.19-4.276-.901-6.462"/>
        </g>
        <g stroke-width="2">
            <path stroke-linecap="round" stroke-linejoin="round" d="M50 39.149c3.559-.88 5.712.814 6.462 5.084m0 0c-3.558.886-5.712-.808-6.462-5.084M56.699 44.462c4.28-.784 5.969-2.938 5.064-6.462m0 0c-4.281.779-5.97 2.933-5.064 6.462"/>
            <path d="M57.363 50c.11-2.123-.19-4.276-.901-6.462"/>
        </g>
        <g stroke-width="2">
            <path stroke-linecap="round" stroke-linejoin="round" d="M91 39.149c-3.559-.88-5.712.814-6.462 5.084m0 0c3.558.886 5.712-.808 6.462-5.084M84.301 44.462c-4.28-.784-5.969-2.938-5.064-6.462m0 0c4.281.779 5.97 2.933 5.064 6.462"/>
            <path d="M83.637 50c-.11-2.123.19-4.276.901-6.462"/>
        </g>
        <g stroke-width="2">
            <path stroke-linecap="round" stroke-linejoin="round" d="M118 29.149c-3.559-.88-5.712.814-6.462 5.084m0 0c3.558.886 5.712-.808 6.462-5.084M111.301 34.462c-4.28-.784-5.969-2.938-5.064-6.462m0 0c4.281.779 5.97 2.933 5.064 6.462"/>
            <path d="M110.637 40c-.11-2.123.19-4.276.901-6.462"/>
        </g>
        <g stroke-width="2">
            <path stroke-linecap="round" stroke-linejoin="round" d="M21 62.149c3.559-.88 5.712.814 6.462 5.084m0 0c-3.558.886-5.712-.808-6.462-5.084M27.699 67.462c4.28-.784 5.969-2.938 5.064-6.462m0 0c-4.281.779-5.97 2.933-5.064 6.462"/>
            <path d="M28.363 73c.11-2.123-.19-4.276-.901-6.462"/>
        </g>
        <g stroke-width="2">
            <path stroke-linecap="round" stroke-linejoin="round" d="M50 70.149c3.559-.88 5.712.814 6.462 5.084m0 0c-3.558.886-5.712-.808-6.462-5.084M56.699 75.462c4.28-.784 5.969-2.938 5.064-6.462m0 0c-4.281.779-5.97 2.933-5.064 6.462"/>
            <path d="M57.363 81c.11-2.123-.19-4.276-.901-6.462"/>
        </g>
        <g stroke-width="2">
            <path stroke-linecap="round" stroke-linejoin="round" d="M91 70.149c-3.559-.88-5.712.814-6.462 5.084m0 0c3.558.886 5.712-.808 6.462-5.084M84.301 75.462c-4.28-.784-5.969-2.938-5.064-6.462m0 0c4.281.779 5.97 2.933 5.064 6.462"/>
            <path d="M83.637 81c-.11-2.123.19-4.276.901-6.462"/>
        </g>
        <g stroke-width="2">
            <path stroke-linecap="round" stroke-linejoin="round" d="M118 62.149c-3.559-.88-5.712.814-6.462 5.084m0 0c3.558.886 5.712-.808 6.462-5.084M111.301 67.462c-4.28-.784-5.969-2.938-5.064-6.462m0 0c4.281.779 5.97 2.933 5.064 6.462"/>
            <path d="M110.637 73c-.11-2.123.19-4.276.901-6.462"/>
        </g>
        <g stroke-width="2">
            <path stroke-linecap="round" stroke-linejoin="round" d="M21 46.149c3.559-.88 5.712.814 6.462 5.084m0 0c-3.558.886-5.712-.808-6.462-5.084M27.699 51.462c4.28-.784 5.969-2.938 5.064-6.462m0 0c-4.281.779-5.97 2.933-5.064 6.462"/>
            <path d="M28.363 57c.11-2.123-.19-4.276-.901-6.462"/>
        </g>
        <g stroke-width="2">
            <path stroke-linecap="round" stroke-linejoin="round" d="M50 54.149c3.559-.88 5.712.814 6.462 5.084m0 0c-3.558.886-5.712-.808-6.462-5.084M56.699 59.462c4.28-.784 5.969-2.938 5.064-6.462m0 0c-4.281.779-5.97 2.933-5.064 6.462"/>
            <path d="M57.363 65c.11-2.123-.19-4.276-.901-6.462"/>
        </g>
        <g stroke-width="2">
            <path stroke-linecap="round" stroke-linejoin="round" d="M91 54.149c-3.559-.88-5.712.814-6.462 5.084m0 0c3.558.886 5.712-.808 6.462-5.084M84.301 59.462c-4.28-.784-5.969-2.938-5.064-6.462m0 0c4.281.779 5.97 2.933 5.064 6.462"/>
            <path d="M83.637 65c-.11-2.123.19-4.276.901-6.462"/>
        </g>
        <g stroke-width="2">
            <path stroke-linecap="round" stroke-linejoin="round" d="M118 46.149c-3.559-.88-5.712.814-6.462 5.084m0 0c3.558.886 5.712-.808 6.462-5.084M111.301 51.462c-4.28-.784-5.969-2.938-5.064-6.462m0 0c4.281.779 5.97 2.933 5.064 6.462"/>
            <path d="M110.637 57c-.11-2.123.19-4.276.901-6.462"/>
        </g>
        <g stroke-width="2">
            <path stroke-linecap="round" stroke-linejoin="round" d="M21 77.149c3.559-.88 5.712.814 6.462 5.084m0 0c-3.558.886-5.712-.808-6.462-5.084M27.699 82.462c4.28-.784 5.969-2.938 5.064-6.462m0 0c-4.281.779-5.97 2.933-5.064 6.462"/>
            <path d="M28.363 88c.11-2.123-.19-4.276-.901-6.462"/>
        </g>
        <g stroke-width="2">
            <path stroke-linecap="round" stroke-linejoin="round" d="M50 85.149c3.559-.88 5.712.814 6.462 5.084m0 0c-3.558.886-5.712-.808-6.462-5.084M56.699 90.462c4.28-.784 5.969-2.938 5.064-6.462m0 0c-4.281.779-5.97 2.933-5.064 6.462"/>
            <path d="M57.363 96c.11-2.123-.19-4.276-.901-6.462"/>
        </g>
        <g stroke-width="2">
            <path stroke-linecap="round" stroke-linejoin="round" d="M91 85.149c-3.559-.88-5.712.814-6.462 5.084m0 0c3.558.886 5.712-.808 6.462-5.084M84.301 90.462c-4.28-.784-5.969-2.938-5.064-6.462m0 0c4.281.779 5.97 2.933 5.064 6.462"/>
            <path d="M83.637 96c-.11-2.123.19-4.276.901-6.462"/>
        </g>
        <g stroke-width="2">
            <path stroke-linecap="round" stroke-linejoin="round" d="M118 77.149c-3.559-.88-5.712.814-6.462 5.084m0 0c3.558.886 5.712-.808 6.462-5.084M111.301 82.462c-4.28-.784-5.969-2.938-5.064-6.462m0 0c4.281.779 5.97 2.933 5.064 6.462"/>
            <path d="M110.637 88c-.11-2.123.19-4.276.901-6.462"/>
        </g>
        <path fill="#D8D8D8" stroke-linecap="round" stroke-width="3" d="M48 94.5h16.964M93 94.5H76.036"/>
        <path stroke-linejoin="round" stroke-width="3" d="M39 17h8v8h-8zM94 17h8v8h-8z"/>
    </g>
</svg>
