<?xml version="1.0" encoding="UTF-8"?>
<svg width="190px" height="146px" viewBox="0 0 190 146" version="1.1" xmlns="http://www.w3.org/2000/svg" xmlns:xlink="http://www.w3.org/1999/xlink">
    <!-- Generator: Sketch 55.2 (78181) - https://sketchapp.com -->
    <title>Portfolio/Soil Ground</title>
    <desc>Created with Sketch.</desc>
    <g id="Portfolio/Soil-Ground" stroke="none" stroke-width="1" fill="none" fill-rule="evenodd">
        <g id="Group-2" transform="translate(18.000000, 13.000000)" stroke="#000000" stroke-width="4">
            <path d="M4,122 C17.1325769,107.718567 35.9246983,94.8288941 60.3763643,83.3309807 C86.6231104,70.9889663 118.164322,64.2119727 155,63" id="Line-45" stroke-linecap="round"></path>
            <path d="M28,122 C39.410013,112.352616 55.1965376,103.135748 75.3595739,94.3493945 C97.0028473,84.9180054 122.882989,79.8015405 153,79" id="Line-45-Copy" stroke-linecap="round"></path>
            <path d="M61,122 C69.4447875,115.783952 81.1287221,109.845296 96.0518038,104.184032 C112.07044,98.1071546 131.386505,94.7124774 154,94" id="Line-45-Copy-2" stroke-linecap="round"></path>
            <path d="M96,122 C101.167348,119.139281 108.365645,116.065631 117.59489,112.779051 C127.501686,109.251191 139.636722,107.324841 154,107" id="Line-45-Copy-3" stroke-linecap="round"></path>
            <path d="M0,44 C10.2196639,44.3932308 22.4654566,46.6866624 36.7373782,50.8802947 C51.0092999,55.073927 66.0968404,62.7804954 82,74" id="Line" stroke-linecap="round"></path>
            <path d="M0,58 C10.7861474,59.2433736 21.287609,61.520487 31.5043846,64.8313403 C41.7211603,68.1421937 52.2196988,73.1984136 63,80" id="Line-Copy" stroke-linecap="round"></path>
            <path d="M0,76 C6.80778748,76.8379811 13.6940058,78.214061 20.6586549,80.1282398 C27.6233041,82.0424186 35.4037524,84.999672 44,89" id="Line-Copy-2" stroke-linecap="round"></path>
            <path d="M0,94 C3.38265817,94.2606842 7.26533125,95.0658017 11.6480192,96.4153527 C16.0307072,97.7649036 20.8147008,99.6264527 26,102" id="Line-Copy-3" stroke-linecap="round"></path>
            <g id="Group" transform="translate(1.000000, 3.000000)">
                <g id="Group-Copy-9" transform="translate(24.500000, 26.500000) scale(-1, 1) translate(-24.500000, -26.500000) translate(0.000000, 19.000000)" fill="#FFFFFF" stroke-linecap="round" stroke-linejoin="round">
                    <path d="M5.61399816e-11,0.579657686 C13.4928728,-1.68032561 21.6595395,2.66814893 24.5,13.6250813 M24.5,13.6250813 C11.0106496,15.8986522 2.84398294,11.5501776 -8.83694895e-10,0.579657687" id="Combined-Shape-Copy-8"></path>
                    <path d="M24.5,0.579657686 C37.9928728,-1.68032561 46.1595395,2.66814893 49,13.6250813 M49,13.6250813 C35.5106496,15.8986522 27.3439829,11.5501776 24.5,0.579657687" id="Combined-Shape-Copy-10" transform="translate(36.750000, 7.105263) scale(-1, 1) translate(-36.750000, -7.105263) "></path>
                </g>
                <path d="M24.8725116,26.8819701 C29.5208176,22.8439179 31.846383,17.9660956 31.8492079,12.2485033 C31.8528261,4.92004076 24.8856368,0.307827588 24.8856368,0.307827588 C24.8856368,0.307827588 17.1535359,3.99622258 17.1494542,12.2556626 C17.1466318,17.9732548 19.7209842,22.8486907 24.8725116,26.8819701 Z" id="Path-108" fill="#FFFFFF" stroke-linejoin="round" transform="translate(24.499331, 13.594899) rotate(-178.000000) translate(-24.499331, -13.594899) "></path>
                <path d="M25,31.5833333 L25,44.4166667" id="Line-46" stroke-linecap="square"></path>
            </g>
            <g id="Group-Copy" transform="translate(81.000000, 0.000000)">
                <g id="Group-Copy-9" transform="translate(34.500000, 37.500000) scale(-1, 1) translate(-34.500000, -37.500000) translate(0.000000, 27.000000)" fill="#FFFFFF" stroke-linecap="round" stroke-linejoin="round">
                    <path d="M-0.00026802447,0.841893826 C18.7247084,-2.44031459 30.0581311,3.87495078 34,19.7876899 M34,19.7876899 C15.2799118,23.0896316 3.94648916,16.7743662 -0.000268025789,0.841893827" id="Combined-Shape-Copy-8"></path>
                    <path d="M34,0.841893826 C52.7249764,-2.44031459 64.0583991,3.87495078 68.000268,19.7876899 M68.000268,19.7876899 C49.2801799,23.0896316 37.9467572,16.7743662 34,0.841893827" id="Combined-Shape-Copy-10" transform="translate(51.000134, 10.318994) scale(-1, 1) translate(-51.000134, -10.318994) "></path>
                </g>
                <path d="M35.5468883,38.8829892 C41.9903457,33.0714634 45.2086876,26.0451929 45.2019141,17.8041777 C45.1932124,7.24134494 35.5153734,0.580518343 35.5153734,0.580518343 C35.5153734,0.580518343 24.791508,5.88229662 24.8012964,17.7869878 C24.8080815,26.0280029 28.3899455,33.0600034 35.5468883,38.8829892 Z" id="Path-108" fill="#FFFFFF" stroke-linejoin="round" transform="translate(35.001605, 19.731754) rotate(-178.000000) translate(-35.001605, -19.731754) "></path>
                <path d="M35.5,44.875 L35.5,64.125" id="Line-46" stroke-linecap="square"></path>
            </g>
        </g>
    </g>
</svg>