<?xml version="1.0" encoding="UTF-8"?>
<svg width="190px" height="146px" viewBox="0 0 190 146" version="1.1" xmlns="http://www.w3.org/2000/svg" xmlns:xlink="http://www.w3.org/1999/xlink">
    <!-- Generator: Sketch 55.2 (78181) - https://sketchapp.com -->
    <title>Portfolio/Vertical Farm</title>
    <desc>Created with Sketch.</desc>
    <g id="Portfolio/Vertical-Farm" stroke="none" stroke-width="1" fill="none" fill-rule="evenodd">
        <g id="Group-2" transform="translate(18.000000, 9.000000)" stroke="#000000">
            <rect id="Rectangle" stroke-width="4" fill="#FFFFFF" stroke-linejoin="round" x="0" y="0" width="154" height="129"></rect>
            <rect id="Rectangle" stroke-width="3" stroke-linejoin="round" x="37" y="32" width="8" height="97"></rect>
            <rect id="Rectangle-Copy" stroke-width="3" stroke-linejoin="round" x="110" y="32" width="8" height="97"></rect>
            <path d="M41.5,27 L41.5,32" id="Line" stroke-width="3" stroke-linecap="square"></path>
            <path d="M114.5,27 L114.5,32" id="Line-2" stroke-width="3" stroke-linecap="square"></path>
            <path d="M13,43.5 L35.9518924,43.5" id="Line-39-Copy-12" stroke-width="3" fill="#D8D8D8" stroke-linecap="round"></path>
            <path d="M45,52.5 L70.5,52.5" id="Line-39-Copy-24" stroke-width="3" fill="#D8D8D8" stroke-linecap="round"></path>
            <path d="M84,52.5 L109.5,52.5" id="Line-39-Copy-28" stroke-width="3" fill="#D8D8D8" stroke-linecap="round" transform="translate(97.000000, 52.500000) scale(-1, 1) translate(-97.000000, -52.500000) "></path>
            <path d="M118,44.5 L143.5,44.5" id="Line-39-Copy-32" stroke-width="3" fill="#D8D8D8" stroke-linecap="round" transform="translate(131.000000, 44.500000) scale(-1, 1) translate(-131.000000, -44.500000) "></path>
            <path d="M13,65.5 L35.9518924,65.5" id="Line-39-Copy-13" stroke-width="3" fill="#D8D8D8" stroke-linecap="round"></path>
            <path d="M45,74.5 L70.5,74.5" id="Line-39-Copy-25" stroke-width="3" fill="#D8D8D8" stroke-linecap="round"></path>
            <path d="M84,74.5 L109.5,74.5" id="Line-39-Copy-29" stroke-width="3" fill="#D8D8D8" stroke-linecap="round" transform="translate(97.000000, 74.500000) scale(-1, 1) translate(-97.000000, -74.500000) "></path>
            <path d="M118,66.5 L143.5,66.5" id="Line-39-Copy-33" stroke-width="3" fill="#D8D8D8" stroke-linecap="round" transform="translate(131.000000, 66.500000) scale(-1, 1) translate(-131.000000, -66.500000) "></path>
            <path d="M13,87.5 L35.9518924,87.5" id="Line-39-Copy-14" stroke-width="3" fill="#D8D8D8" stroke-linecap="round"></path>
            <path d="M45,96.5 L70.5,96.5" id="Line-39-Copy-26" stroke-width="3" fill="#D8D8D8" stroke-linecap="round"></path>
            <path d="M84,96.5 L109.5,96.5" id="Line-39-Copy-30" stroke-width="3" fill="#D8D8D8" stroke-linecap="round" transform="translate(97.000000, 96.500000) scale(-1, 1) translate(-97.000000, -96.500000) "></path>
            <path d="M118,88.5 L143.5,88.5" id="Line-39-Copy-34" stroke-width="3" fill="#D8D8D8" stroke-linecap="round" transform="translate(131.000000, 88.500000) scale(-1, 1) translate(-131.000000, -88.500000) "></path>
            <path d="M13,107.5 L35.9518924,107.5" id="Line-39-Copy-15" stroke-width="3" fill="#D8D8D8" stroke-linecap="round"></path>
            <path d="M45,116.5 L70.5,116.5" id="Line-39-Copy-27" stroke-width="3" fill="#D8D8D8" stroke-linecap="round"></path>
            <path d="M84,116.5 L109.5,116.5" id="Line-39-Copy-31" stroke-width="3" fill="#D8D8D8" stroke-linecap="round" transform="translate(97.000000, 116.500000) scale(-1, 1) translate(-97.000000, -116.500000) "></path>
            <path d="M118,108.5 L143.5,108.5" id="Line-39-Copy-35" stroke-width="3" fill="#D8D8D8" stroke-linecap="round" transform="translate(131.000000, 108.500000) scale(-1, 1) translate(-131.000000, -108.500000) "></path>
            <g id="Group" transform="translate(12.000000, 28.000000)" stroke-width="3">
                <path d="M2.17958984e-12,1.53198028 C4.74474648,0.357559495 7.61654135,2.61728368 8.61538462,8.31115282 M8.61538462,8.31115282 C3.87187679,9.49263451 1.00008191,7.23291033 1.15374377e-12,1.53198028" id="Combined-Shape-Copy-8" stroke-linecap="round" stroke-linejoin="round"></path>
                <path d="M8.93140806,8.61538462 C14.6391885,7.57098295 16.8902609,4.69918808 15.6846254,2.18500773e-11 M15.6846254,1.83035809e-11 C9.97534989,1.03857426 7.72427744,3.91036913 8.93140806,8.61538462" id="Combined-Shape-Copy-9" stroke-linecap="round" stroke-linejoin="round"></path>
                <path d="M9.81670228,16 C9.96326286,13.1699396 9.56282364,10.2981447 8.61538462,7.38461538" id="Path-5-Copy"></path>
            </g>
            <g id="Group-Copy-4" transform="translate(50.000000, 36.000000)" stroke-width="3">
                <path d="M2.17958984e-12,1.53198028 C4.74474648,0.357559495 7.61654135,2.61728368 8.61538462,8.31115282 M8.61538462,8.31115282 C3.87187679,9.49263451 1.00008191,7.23291033 1.15374377e-12,1.53198028" id="Combined-Shape-Copy-8" stroke-linecap="round" stroke-linejoin="round"></path>
                <path d="M8.93140806,8.61538462 C14.6391885,7.57098295 16.8902609,4.69918808 15.6846254,2.18500773e-11 M15.6846254,1.83035809e-11 C9.97534989,1.03857426 7.72427744,3.91036913 8.93140806,8.61538462" id="Combined-Shape-Copy-9" stroke-linecap="round" stroke-linejoin="round"></path>
                <path d="M9.81670228,16 C9.96326286,13.1699396 9.56282364,10.2981447 8.61538462,7.38461538" id="Path-5-Copy"></path>
            </g>
            <g id="Group-Copy-8" transform="translate(97.000000, 44.000000) scale(-1, 1) translate(-97.000000, -44.000000) translate(89.000000, 36.000000)" stroke-width="3">
                <path d="M2.17958984e-12,1.53198028 C4.74474648,0.357559495 7.61654135,2.61728368 8.61538462,8.31115282 M8.61538462,8.31115282 C3.87187679,9.49263451 1.00008191,7.23291033 1.15374377e-12,1.53198028" id="Combined-Shape-Copy-8" stroke-linecap="round" stroke-linejoin="round"></path>
                <path d="M8.93140806,8.61538462 C14.6391885,7.57098295 16.8902609,4.69918808 15.6846254,2.18500773e-11 M15.6846254,1.83035809e-11 C9.97534989,1.03857426 7.72427744,3.91036913 8.93140806,8.61538462" id="Combined-Shape-Copy-9" stroke-linecap="round" stroke-linejoin="round"></path>
                <path d="M9.81670228,16 C9.96326286,13.1699396 9.56282364,10.2981447 8.61538462,7.38461538" id="Path-5-Copy"></path>
            </g>
            <g id="Group-Copy-12" transform="translate(131.000000, 36.000000) scale(-1, 1) translate(-131.000000, -36.000000) translate(123.000000, 28.000000)" stroke-width="3">
                <path d="M2.17958984e-12,1.53198028 C4.74474648,0.357559495 7.61654135,2.61728368 8.61538462,8.31115282 M8.61538462,8.31115282 C3.87187679,9.49263451 1.00008191,7.23291033 1.15374377e-12,1.53198028" id="Combined-Shape-Copy-8" stroke-linecap="round" stroke-linejoin="round"></path>
                <path d="M8.93140806,8.61538462 C14.6391885,7.57098295 16.8902609,4.69918808 15.6846254,2.18500773e-11 M15.6846254,1.83035809e-11 C9.97534989,1.03857426 7.72427744,3.91036913 8.93140806,8.61538462" id="Combined-Shape-Copy-9" stroke-linecap="round" stroke-linejoin="round"></path>
                <path d="M9.81670228,16 C9.96326286,13.1699396 9.56282364,10.2981447 8.61538462,7.38461538" id="Path-5-Copy"></path>
            </g>
            <g id="Group-Copy" transform="translate(12.000000, 50.000000)" stroke-width="3">
                <path d="M2.17958984e-12,1.53198028 C4.74474648,0.357559495 7.61654135,2.61728368 8.61538462,8.31115282 M8.61538462,8.31115282 C3.87187679,9.49263451 1.00008191,7.23291033 1.15374377e-12,1.53198028" id="Combined-Shape-Copy-8" stroke-linecap="round" stroke-linejoin="round"></path>
                <path d="M8.93140806,8.61538462 C14.6391885,7.57098295 16.8902609,4.69918808 15.6846254,2.18500773e-11 M15.6846254,1.83035809e-11 C9.97534989,1.03857426 7.72427744,3.91036913 8.93140806,8.61538462" id="Combined-Shape-Copy-9" stroke-linecap="round" stroke-linejoin="round"></path>
                <path d="M9.81670228,16 C9.96326286,13.1699396 9.56282364,10.2981447 8.61538462,7.38461538" id="Path-5-Copy"></path>
            </g>
            <g id="Group-Copy-5" transform="translate(50.000000, 58.000000)" stroke-width="3">
                <path d="M2.17958984e-12,1.53198028 C4.74474648,0.357559495 7.61654135,2.61728368 8.61538462,8.31115282 M8.61538462,8.31115282 C3.87187679,9.49263451 1.00008191,7.23291033 1.15374377e-12,1.53198028" id="Combined-Shape-Copy-8" stroke-linecap="round" stroke-linejoin="round"></path>
                <path d="M8.93140806,8.61538462 C14.6391885,7.57098295 16.8902609,4.69918808 15.6846254,2.18500773e-11 M15.6846254,1.83035809e-11 C9.97534989,1.03857426 7.72427744,3.91036913 8.93140806,8.61538462" id="Combined-Shape-Copy-9" stroke-linecap="round" stroke-linejoin="round"></path>
                <path d="M9.81670228,16 C9.96326286,13.1699396 9.56282364,10.2981447 8.61538462,7.38461538" id="Path-5-Copy"></path>
            </g>
            <g id="Group-Copy-9" transform="translate(97.000000, 66.000000) scale(-1, 1) translate(-97.000000, -66.000000) translate(89.000000, 58.000000)" stroke-width="3">
                <path d="M2.17958984e-12,1.53198028 C4.74474648,0.357559495 7.61654135,2.61728368 8.61538462,8.31115282 M8.61538462,8.31115282 C3.87187679,9.49263451 1.00008191,7.23291033 1.15374377e-12,1.53198028" id="Combined-Shape-Copy-8" stroke-linecap="round" stroke-linejoin="round"></path>
                <path d="M8.93140806,8.61538462 C14.6391885,7.57098295 16.8902609,4.69918808 15.6846254,2.18500773e-11 M15.6846254,1.83035809e-11 C9.97534989,1.03857426 7.72427744,3.91036913 8.93140806,8.61538462" id="Combined-Shape-Copy-9" stroke-linecap="round" stroke-linejoin="round"></path>
                <path d="M9.81670228,16 C9.96326286,13.1699396 9.56282364,10.2981447 8.61538462,7.38461538" id="Path-5-Copy"></path>
            </g>
            <g id="Group-Copy-13" transform="translate(131.000000, 58.000000) scale(-1, 1) translate(-131.000000, -58.000000) translate(123.000000, 50.000000)" stroke-width="3">
                <path d="M2.17958984e-12,1.53198028 C4.74474648,0.357559495 7.61654135,2.61728368 8.61538462,8.31115282 M8.61538462,8.31115282 C3.87187679,9.49263451 1.00008191,7.23291033 1.15374377e-12,1.53198028" id="Combined-Shape-Copy-8" stroke-linecap="round" stroke-linejoin="round"></path>
                <path d="M8.93140806,8.61538462 C14.6391885,7.57098295 16.8902609,4.69918808 15.6846254,2.18500773e-11 M15.6846254,1.83035809e-11 C9.97534989,1.03857426 7.72427744,3.91036913 8.93140806,8.61538462" id="Combined-Shape-Copy-9" stroke-linecap="round" stroke-linejoin="round"></path>
                <path d="M9.81670228,16 C9.96326286,13.1699396 9.56282364,10.2981447 8.61538462,7.38461538" id="Path-5-Copy"></path>
            </g>
            <g id="Group-Copy-2" transform="translate(12.000000, 72.000000)" stroke-width="3">
                <path d="M2.17958984e-12,1.53198028 C4.74474648,0.357559495 7.61654135,2.61728368 8.61538462,8.31115282 M8.61538462,8.31115282 C3.87187679,9.49263451 1.00008191,7.23291033 1.15374377e-12,1.53198028" id="Combined-Shape-Copy-8" stroke-linecap="round" stroke-linejoin="round"></path>
                <path d="M8.93140806,8.61538462 C14.6391885,7.57098295 16.8902609,4.69918808 15.6846254,2.18500773e-11 M15.6846254,1.83035809e-11 C9.97534989,1.03857426 7.72427744,3.91036913 8.93140806,8.61538462" id="Combined-Shape-Copy-9" stroke-linecap="round" stroke-linejoin="round"></path>
                <path d="M9.81670228,16 C9.96326286,13.1699396 9.56282364,10.2981447 8.61538462,7.38461538" id="Path-5-Copy"></path>
            </g>
            <g id="Group-Copy-6" transform="translate(50.000000, 80.000000)" stroke-width="3">
                <path d="M2.17958984e-12,1.53198028 C4.74474648,0.357559495 7.61654135,2.61728368 8.61538462,8.31115282 M8.61538462,8.31115282 C3.87187679,9.49263451 1.00008191,7.23291033 1.15374377e-12,1.53198028" id="Combined-Shape-Copy-8" stroke-linecap="round" stroke-linejoin="round"></path>
                <path d="M8.93140806,8.61538462 C14.6391885,7.57098295 16.8902609,4.69918808 15.6846254,2.18500773e-11 M15.6846254,1.83035809e-11 C9.97534989,1.03857426 7.72427744,3.91036913 8.93140806,8.61538462" id="Combined-Shape-Copy-9" stroke-linecap="round" stroke-linejoin="round"></path>
                <path d="M9.81670228,16 C9.96326286,13.1699396 9.56282364,10.2981447 8.61538462,7.38461538" id="Path-5-Copy"></path>
            </g>
            <g id="Group-Copy-10" transform="translate(97.000000, 88.000000) scale(-1, 1) translate(-97.000000, -88.000000) translate(89.000000, 80.000000)" stroke-width="3">
                <path d="M2.17958984e-12,1.53198028 C4.74474648,0.357559495 7.61654135,2.61728368 8.61538462,8.31115282 M8.61538462,8.31115282 C3.87187679,9.49263451 1.00008191,7.23291033 1.15374377e-12,1.53198028" id="Combined-Shape-Copy-8" stroke-linecap="round" stroke-linejoin="round"></path>
                <path d="M8.93140806,8.61538462 C14.6391885,7.57098295 16.8902609,4.69918808 15.6846254,2.18500773e-11 M15.6846254,1.83035809e-11 C9.97534989,1.03857426 7.72427744,3.91036913 8.93140806,8.61538462" id="Combined-Shape-Copy-9" stroke-linecap="round" stroke-linejoin="round"></path>
                <path d="M9.81670228,16 C9.96326286,13.1699396 9.56282364,10.2981447 8.61538462,7.38461538" id="Path-5-Copy"></path>
            </g>
            <g id="Group-Copy-14" transform="translate(131.000000, 80.000000) scale(-1, 1) translate(-131.000000, -80.000000) translate(123.000000, 72.000000)" stroke-width="3">
                <path d="M2.17958984e-12,1.53198028 C4.74474648,0.357559495 7.61654135,2.61728368 8.61538462,8.31115282 M8.61538462,8.31115282 C3.87187679,9.49263451 1.00008191,7.23291033 1.15374377e-12,1.53198028" id="Combined-Shape-Copy-8" stroke-linecap="round" stroke-linejoin="round"></path>
                <path d="M8.93140806,8.61538462 C14.6391885,7.57098295 16.8902609,4.69918808 15.6846254,2.18500773e-11 M15.6846254,1.83035809e-11 C9.97534989,1.03857426 7.72427744,3.91036913 8.93140806,8.61538462" id="Combined-Shape-Copy-9" stroke-linecap="round" stroke-linejoin="round"></path>
                <path d="M9.81670228,16 C9.96326286,13.1699396 9.56282364,10.2981447 8.61538462,7.38461538" id="Path-5-Copy"></path>
            </g>
            <g id="Group-Copy-3" transform="translate(12.000000, 93.000000)" stroke-width="3">
                <path d="M2.17958984e-12,1.53198028 C4.74474648,0.357559495 7.61654135,2.61728368 8.61538462,8.31115282 M8.61538462,8.31115282 C3.87187679,9.49263451 1.00008191,7.23291033 1.15374377e-12,1.53198028" id="Combined-Shape-Copy-8" stroke-linecap="round" stroke-linejoin="round"></path>
                <path d="M8.93140806,8.61538462 C14.6391885,7.57098295 16.8902609,4.69918808 15.6846254,2.18500773e-11 M15.6846254,1.83035809e-11 C9.97534989,1.03857426 7.72427744,3.91036913 8.93140806,8.61538462" id="Combined-Shape-Copy-9" stroke-linecap="round" stroke-linejoin="round"></path>
                <path d="M9.81670228,16 C9.96326286,13.1699396 9.56282364,10.2981447 8.61538462,7.38461538" id="Path-5-Copy"></path>
            </g>
            <g id="Group-Copy-7" transform="translate(50.000000, 101.000000)" stroke-width="3">
                <path d="M2.17958984e-12,1.53198028 C4.74474648,0.357559495 7.61654135,2.61728368 8.61538462,8.31115282 M8.61538462,8.31115282 C3.87187679,9.49263451 1.00008191,7.23291033 1.15374377e-12,1.53198028" id="Combined-Shape-Copy-8" stroke-linecap="round" stroke-linejoin="round"></path>
                <path d="M8.93140806,8.61538462 C14.6391885,7.57098295 16.8902609,4.69918808 15.6846254,2.18500773e-11 M15.6846254,1.83035809e-11 C9.97534989,1.03857426 7.72427744,3.91036913 8.93140806,8.61538462" id="Combined-Shape-Copy-9" stroke-linecap="round" stroke-linejoin="round"></path>
                <path d="M9.81670228,16 C9.96326286,13.1699396 9.56282364,10.2981447 8.61538462,7.38461538" id="Path-5-Copy"></path>
            </g>
            <g id="Group-Copy-11" transform="translate(97.000000, 109.000000) scale(-1, 1) translate(-97.000000, -109.000000) translate(89.000000, 101.000000)" stroke-width="3">
                <path d="M2.17958984e-12,1.53198028 C4.74474648,0.357559495 7.61654135,2.61728368 8.61538462,8.31115282 M8.61538462,8.31115282 C3.87187679,9.49263451 1.00008191,7.23291033 1.15374377e-12,1.53198028" id="Combined-Shape-Copy-8" stroke-linecap="round" stroke-linejoin="round"></path>
                <path d="M8.93140806,8.61538462 C14.6391885,7.57098295 16.8902609,4.69918808 15.6846254,2.18500773e-11 M15.6846254,1.83035809e-11 C9.97534989,1.03857426 7.72427744,3.91036913 8.93140806,8.61538462" id="Combined-Shape-Copy-9" stroke-linecap="round" stroke-linejoin="round"></path>
                <path d="M9.81670228,16 C9.96326286,13.1699396 9.56282364,10.2981447 8.61538462,7.38461538" id="Path-5-Copy"></path>
            </g>
            <g id="Group-Copy-15" transform="translate(131.000000, 101.000000) scale(-1, 1) translate(-131.000000, -101.000000) translate(123.000000, 93.000000)" stroke-width="3">
                <path d="M2.17958984e-12,1.53198028 C4.74474648,0.357559495 7.61654135,2.61728368 8.61538462,8.31115282 M8.61538462,8.31115282 C3.87187679,9.49263451 1.00008191,7.23291033 1.15374377e-12,1.53198028" id="Combined-Shape-Copy-8" stroke-linecap="round" stroke-linejoin="round"></path>
                <path d="M8.93140806,8.61538462 C14.6391885,7.57098295 16.8902609,4.69918808 15.6846254,2.18500773e-11 M15.6846254,1.83035809e-11 C9.97534989,1.03857426 7.72427744,3.91036913 8.93140806,8.61538462" id="Combined-Shape-Copy-9" stroke-linecap="round" stroke-linejoin="round"></path>
                <path d="M9.81670228,16 C9.96326286,13.1699396 9.56282364,10.2981447 8.61538462,7.38461538" id="Path-5-Copy"></path>
            </g>
            <rect id="Rectangle" stroke-width="3" stroke-linejoin="round" x="36" y="13" width="11" height="11"></rect>
            <rect id="Rectangle-Copy-2" stroke-width="3" stroke-linejoin="round" x="109" y="13" width="11" height="11"></rect>
        </g>
    </g>
</svg>