<svg xmlns="http://www.w3.org/2000/svg" width="140" height="108" viewBox="0 0 140 108">
    <g fill="#FFF" fill-rule="evenodd" stroke="#000" stroke-width="3">
        <path d="M81.813 76.112a27 27 0 0 1 1.659-6.036C86.682 62.08 96 57.825 96 40.295 96 25.773 84.525 14 69 14S42 25.775 42 40.295c0 17.53 8.912 21.75 12.15 29.781 1.101 2.731 1.566 5.02 1.838 6.924"/>
        <path stroke-linejoin="round" d="M84 85v6a4 4 0 0 1-4 4H57a4 4 0 0 1-4-4v-6M57 95h24v1a8 8 0 0 1-8 8h-8a8 8 0 0 1-8-8v-1z"/>
        <path stroke-linecap="round" stroke-linejoin="round" d="M63 43l2.813 32.71M75 43l-2.813 32.71"/>
        <path stroke-linecap="round" d="M56.361 48.5h25.607"/>
        <rect width="39" height="8" x="49.5" y="77.5" rx="4"/>
        <path stroke-linecap="round" stroke-linejoin="round" d="M6.515 7.273C12.241 19.315 20.8 22.681 32.188 17.37m0 0C26.476 5.322 17.918 1.956 6.515 7.273M129.118 17.912c-12.905-3.354-20.984 1.038-24.236 13.176m0 0c12.9 3.369 20.98-1.023 24.236-13.176M130.417 79.957c-5.935-11.94-14.55-15.156-25.844-9.647m0 0c5.92 11.947 14.536 15.162 25.844 9.647M10.05 52.827c10.425 8.313 19.592 7.586 27.5-2.18m0 0c-10.415-8.324-19.582-7.598-27.5 2.18M8.938 98.099c13.108 2.445 20.86-2.5 23.258-14.835m0 0C19.092 80.804 11.34 85.748 8.938 98.1"/>
    </g>
</svg>
