<svg xmlns="http://www.w3.org/2000/svg" width="140" height="108" viewBox="0 0 140 108">
    <g fill="none" fill-rule="evenodd" stroke="#000" stroke-width="3">
        <path fill="#FFF" stroke-linejoin="round" d="M54.39 43.166c15.394 9.1 23.391-5.834 19.73-14.945C70.46 19.111 62.336 13.555 54.39 5c-7.947 8.95-16.59 14.458-19.716 23.221-3.125 8.764 4.817 24.132 19.715 14.945z"/>
        <path stroke-linecap="square" d="M55 39l15-14M53 39L39 24M55 24l8.5-8M53 24l-7-8"/>
        <g stroke-linejoin="round">
            <path fill="#FFF" d="M100 69h27v35h-27zM83 97.988l-4.085.705a86.096 86.096 0 0 1-31.908-.49l-4.24-.868a61.142 61.142 0 0 1-21.586-8.978l-7.932-5.27a5 5 0 0 1-2.228-3.94c-.184-4.098.815-6.147 2.997-6.147 3.695 0 7.338.443 25.235 7.021 1.035.38 2.117.781 3.25 1.203 13.816 5.153 21.149 3.157 21.997-5.987L74.455 74l8.047 1.867"/>
            <path fill="#FFF" stroke-linecap="round" d="M82.502 75.867l-14.475-3.426a20 20 0 0 0-10.92.484c-3.127 1.04-5.33 1.776-6.61 2.208-5.739 1.937-7.995 3.25-7.995 6.091 0 3.909 4.047 4.043 11.92 4.276 1.305.039 3.478.083 6.522.133"/>
            <path fill="#FFF" d="M83 72h17v29H83z"/>
            <path stroke-linecap="round" d="M101.5 86h10"/>
        </g>
        <path stroke-linecap="square" d="M54.112 7.5v65.007"/>
        <path fill="#FFF" stroke-linecap="round" stroke-linejoin="round" d="M79.646 51.993c-12.564-4.466-20.994-.794-25.292 11.014m0 0c12.558 4.48 20.989.81 25.292-11.014M53.547 62.77C41.686 67.216 33.503 63.573 29 51.841m0 0c11.856-4.46 20.038-.817 24.547 10.93"/>
    </g>
</svg>
