<svg xmlns="http://www.w3.org/2000/svg" width="140" height="108" viewBox="0 0 140 108">
    <g fill="none" fill-rule="evenodd">
        <g transform="translate(11 6)">
            <circle cx="58" cy="17" r="17" fill="#FFF" stroke="#000" stroke-width="3"/>
            <ellipse cx="17.5" cy="39" fill="#FFF" stroke="#000" stroke-width="3" rx="17.5" ry="17"/>
            <ellipse cx="99.5" cy="48" fill="#FFF" stroke="#000" stroke-width="3" rx="17.5" ry="17"/>
            <path fill="#000" fill-rule="nonzero" d="M61.334 27h-8.501v-2.714h8.373c1.256.045 2.4-.69 2.834-1.819a2.62 2.62 0 0 0-.373-2.479 2.876 2.876 0 0 0-2.333-1.13h-5.441c-2.737.05-5.14-1.737-5.767-4.29a5.258 5.258 0 0 1 1.133-4.55C52.335 8.741 53.955 8 55.666 8h8.501v2.714h-8.373c-1.256-.045-2.4.69-2.834 1.819a2.62 2.62 0 0 0 .373 2.479 2.876 2.876 0 0 0 2.333 1.13h5.441c2.737-.05 5.14 1.737 5.767 4.29a5.258 5.258 0 0 1-1.133 4.55C64.665 26.259 63.045 27 61.334 27z"/>
            <path fill="#000" fill-rule="nonzero" d="M56 5h4v5h-4zM56 26h4v4h-4z"/>
        </g>
        <g fill="#000" fill-rule="nonzero">
            <path d="M31.334 55h-8.501v-2.714h8.373c1.256.045 2.4-.69 2.834-1.819a2.62 2.62 0 0 0-.373-2.479 2.876 2.876 0 0 0-2.333-1.13h-5.441c-2.737.05-5.14-1.737-5.767-4.29a5.258 5.258 0 0 1 1.133-4.55C22.335 36.741 23.955 36 25.666 36h8.501v2.714h-8.373c-1.256-.045-2.4.69-2.834 1.819a2.62 2.62 0 0 0 .373 2.479 2.876 2.876 0 0 0 2.333 1.13h5.441c2.737-.05 5.14 1.737 5.767 4.29a5.258 5.258 0 0 1-1.133 4.55C34.665 54.259 33.045 55 31.334 55z"/>
            <path d="M26 33h4v5h-4zM26 54h4v4h-4z"/>
        </g>
        <g fill="#000" fill-rule="nonzero">
            <path d="M113.334 64h-8.501v-2.714h8.373c1.256.045 2.4-.69 2.834-1.819a2.62 2.62 0 0 0-.373-2.479 2.876 2.876 0 0 0-2.333-1.13h-5.441c-2.737.05-5.14-1.737-5.767-4.29a5.258 5.258 0 0 1 1.133-4.55c1.076-1.276 2.696-2.018 4.407-2.018h8.501v2.714h-8.373c-1.256-.045-2.4.69-2.834 1.819a2.62 2.62 0 0 0 .373 2.479 2.876 2.876 0 0 0 2.333 1.13h5.441c2.737-.05 5.14 1.737 5.767 4.29a5.258 5.258 0 0 1-1.133 4.55c-1.076 1.276-2.696 2.018-4.407 2.018z"/>
            <path d="M108 42h4v5h-4zM108 63h4v4h-4z"/>
        </g>
        <path stroke="#000" stroke-linecap="round" stroke-linejoin="round" stroke-width="3" d="M9 103h120"/>
        <path fill="#FFF" stroke="#000" stroke-linecap="round" stroke-linejoin="round" stroke-width="3" d="M42 70c-9.333.074-14 4.74-14 14m0 0c9.333-.063 14-4.73 14-14M28 88c-9.333-.074-14-4.74-14-14m0 0c9.333.063 14 4.73 14 14M96 75c9.333.067 14 5.067 14 15m0 0c-9.333-.08-14-5.08-14-15M126.29 80.118c-.88 9.292-6.268 13.505-16.163 12.64m0 0c.893-9.291 6.28-13.504 16.163-12.64"/>
        <path stroke="#000" stroke-linecap="square" stroke-width="3" d="M69 41.632V103M110 71v30.24M28 64v39"/>
        <path fill="#FFF" stroke="#000" stroke-linecap="round" stroke-linejoin="round" stroke-width="3" d="M89 59c-13.333.1-20 6.434-20 19m0 0c13.333-.085 20-6.418 20-19M69 78c-12.667-.1-19-6.434-19-19m0 0c12.667.085 19 6.418 19 19"/>
    </g>
</svg>
