<?xml version="1.0" encoding="UTF-8"?>
<svg width="88px" height="85px" viewBox="0 0 88 85" version="1.1" xmlns="http://www.w3.org/2000/svg" xmlns:xlink="http://www.w3.org/1999/xlink">
    <!-- Generator: Sketch 55.2 (78181) - https://sketchapp.com -->
    <title>Shape</title>
    <desc>Created with Sketch.</desc>
    <g id="Page-1" stroke="none" stroke-width="1" fill="none" fill-rule="evenodd">
        <g id="icon-profile" fill="#FFFFFF" fill-rule="nonzero">
            <path d="M74.938,50.562 C72.5825,48.187 69.9614,46.0893 67.1255,44.312 C71.0396,38.6597 72.7466,31.765 71.9224,24.941 C71.10209,18.1129 67.8052,11.824 62.6607,7.261 C57.5162,2.6985 50.8757,0.179 44.0007,0.179 C37.1257,0.179 30.4847,2.6985 25.3407,7.261 C20.1962,11.8235 16.8993,18.113 16.079,24.941 C15.25478,31.7652 16.96181,38.66 20.8759,44.312 C8.0319,52.3081 0.2349,66.371 0.250850921,81.5 C0.250850921,82.32812 0.57902,83.125 1.16496,83.7109 C1.7509,84.29684 2.54776,84.62496 3.37586,84.62496 L84.62586,84.62496 C85.45398,84.62496 86.2508509,84.29684 86.83676,83.7109 C87.4227,83.12496 87.7509971,82.3281 87.7509971,81.5 C87.774258,69.891 83.16102,58.758 74.93882,50.562 L74.938,50.562 Z M44,6.5 C49.8008,6.5 55.367,8.8047 59.469,12.9062 C63.571,17.0077 65.8752,22.5742 65.8752,28.3752 C65.8752,34.1762 63.5705,39.7422 59.469,43.8442 C55.3675,47.9462 49.801,50.2504 44,50.2504 C38.199,50.2504 32.633,47.9457 28.531,43.8442 C24.429,39.7427 22.1248,34.1762 22.1248,28.3752 C22.1248,22.5742 24.4295,17.0082 28.531,12.9062 C32.6325,8.8042 38.199,6.5 44,6.5 L44,6.5 Z M6.5,78.375 C7.6133,66.152 14.6094,55.242 25.25,49.125 C30.4023,53.8711 37.152,56.5039 44.156,56.5039 C51.16,56.5039 57.91,53.8711 63.062,49.125 C73.582,55.3125 80.453,66.215 81.5,78.375 L6.5,78.375 Z" id="Shape"></path>
        </g>
    </g>
</svg>