<?xml version="1.0" encoding="UTF-8"?>
<svg width="164px" height="164px" viewBox="0 0 164 164" version="1.1" xmlns="http://www.w3.org/2000/svg" xmlns:xlink="http://www.w3.org/1999/xlink">
    <!-- Generator: Sketch 55.2 (78181) - https://sketchapp.com -->
    <title>np_unavailable_390523_000000</title>
    <desc>Created with Sketch.</desc>
    <g id="Page-1" stroke="none" stroke-width="1" fill="none" fill-rule="evenodd">
        <g id="np_unavailable_390523_000000" fill="#000000" fill-rule="nonzero">
            <path d="M82,0.75 C37.118,0.75 0.75,37.118 0.75,82 C0.75,126.882 37.118,163.25 82,163.25 C126.882,163.25 163.25,126.882 163.25,82 C163.25,37.118 126.882,0.75 82,0.75 Z M82,156.492 C40.946,156.492 7.508,123.094 7.508,82 C7.508,40.946 40.906,7.508 82,7.508 C123.054,7.508 156.492,40.906 156.492,82 C156.492,123.054 123.054,156.492 82,156.492 Z" id="Shape"></path>
            <polygon id="Path" points="32 78.876 132 78.876 132 85.5166 32 85.5166"></polygon>
        </g>
    </g>
</svg>