<?xml version="1.0" encoding="UTF-8"?>
<svg width="101px" height="100px" viewBox="0 0 101 100" version="1.1" xmlns="http://www.w3.org/2000/svg" xmlns:xlink="http://www.w3.org/1999/xlink">
    <!-- Generator: Sketch 59 (86127) - https://sketch.com -->
    <title>np_delete_1956795_B54444</title>
    <desc>Created with Sketch.</desc>
    <g id="Page-1" stroke="none" stroke-width="1" fill="none" fill-rule="evenodd">
        <g id="np_delete_1956795_B54444" transform="translate(-1.000000, 0.000000)" fill="#B54444" fill-rule="nonzero">
            <path d="M87.152,32.008 C85.4293,32.008 84.0348,33.4064 84.0348,35.1252 L84.0348,90.4732 C84.0348,91.30132 83.70668,92.0943 83.12074,92.6763 C82.5348,93.26224 81.74184,93.59036 80.91374,93.59036 L21.67174,93.59036 C19.94904,93.59036 18.55454,92.19586 18.55454,90.47316 L18.55454,34.97316 C18.55454,33.25046 17.16004,31.85206 15.43734,31.85206 C13.71464,31.85206 12.32014,33.25046 12.32014,34.97316 L12.32014,90.47316 C12.32014,95.63726 16.50764,99.82866 21.67174,99.82866 L80.91374,99.82866 C86.08174,99.82866 90.26924,95.63726 90.26924,90.47316 L90.26924,35.12516 C90.26924,34.30094 89.94112,33.50796 89.35518,32.92206 C88.77315,32.33612 87.98018,32.008 87.15208,32.008 L87.152,32.008 Z M97.972,20.223 L86.499,20.223 L86.495094,6.285 C86.495094,4.6327 85.838844,3.0428 84.670894,1.8748 C83.498994,0.7068 81.913094,0.0467 80.260694,0.0467 L21.545694,0.0467 C18.104294,0.0467 15.311294,2.8397 15.311294,6.285 L15.311294,20.223 L4.116294,20.223 C2.393594,20.223 0.999094,21.6175 0.999094,23.3402 C0.999094,25.0629 2.393594,26.4574 4.116294,26.4574 L97.971294,26.4574 C99.693994,26.4574 101.088494,25.0629 101.088494,23.3402 C101.088494,21.6175 99.693994,20.223 97.971294,20.223 L97.972,20.223 Z M80.261,20.223 L21.546,20.223 L21.546,6.285 L80.261,6.285 L80.261,20.223 Z" id="Shape"></path>
            <path d="M36.141,79.871 L36.141,36.469 C36.266,34.6135 34.8754,33.0002 33.0238,32.8518 C31.1683,33.00024 29.7777,34.6135 29.9066,36.469 L29.9066,79.871 C29.77769,81.7265 31.1683,83.3398 33.0238,83.4882 C34.8754,83.33976 36.266,81.7265 36.141,79.871 Z M54.477,79.871 L54.477,36.469 C54.602,34.6135 53.2114,33.0002 51.3559,32.8518 C49.5043,33.00024 48.1137,34.6135 48.2387,36.469 L48.2387,79.871 C48.1137,81.7265 49.5043,83.3398 51.3559,83.4882 C53.2114,83.33976 54.602,81.7265 54.477,79.871 Z M72.872,79.871 L72.872,36.469 C72.872,34.7463 71.4775,33.3479 69.7548,33.3479 C68.0321,33.3479 66.6376,34.7463 66.6376,36.469 L66.6376,79.871 C66.6376,81.5937 68.0321,82.9882 69.7548,82.9882 C71.4775,82.9882 72.872,81.5937 72.872,79.871 Z" id="Shape"></path>
        </g>
    </g>
</svg>