<?xml version="1.0" encoding="UTF-8"?>
<svg width="100px" height="89px" viewBox="0 0 100 89" version="1.1" xmlns="http://www.w3.org/2000/svg" xmlns:xlink="http://www.w3.org/1999/xlink">
    <!-- Generator: Sketch 55.2 (78181) - https://sketchapp.com -->
    <title>Group 4</title>
    <desc>Created with Sketch.</desc>
    <defs>
        <polygon id="path-1" points="0 0 48 0 48 44 0 44"></polygon>
    </defs>
    <g id="Symbols" stroke="none" stroke-width="1" fill="none" fill-rule="evenodd">
        <g id="CTA/-Select-Equipment" transform="translate(-22.000000, -10.000000)">
            <g id="Group-4" transform="translate(21.750000, 11.250000)">
                <rect id="Rectangle" fill="#FFFFFF" x="3.25" y="9.75" width="15" height="65"></rect>
                <rect id="Rectangle-Copy" fill="#FFFFFF" x="29.25" y="9.75" width="15" height="65"></rect>
                <rect id="Rectangle-Copy-2" fill="#FFFFFF" x="54.25" y="9.75" width="15" height="65"></rect>
                <rect id="Rectangle-Copy-3" fill="#FFFFFF" x="80.25" y="9.75" width="15" height="65"></rect>
                <g id="Group" transform="translate(87.500000, 42.500000) rotate(-270.000000) translate(-87.500000, -42.500000) translate(45.000000, 32.000000)" fill="#000000" fill-rule="nonzero">
                    <path d="M21.315,5.613 C18.729,5.613 16.627,7.716 16.627,10.299 C16.627,12.884 18.73,14.987 21.315,14.987 C23.9,14.987 26.003,12.883 26.003,10.299 C26.003,7.716 23.9,5.613 21.315,5.613 Z M21.315,11.839 C20.465,11.839 19.774,11.148 19.774,10.299 C19.774,9.45 20.464,8.762 21.315,8.762 C22.165,8.762 22.855,9.45 22.855,10.299 C22.855,11.148 22.165,11.839 21.315,11.839 Z" id="Shape"></path>
                    <path d="M35.439,5.613 C32.853,5.613 30.75,7.716 30.75,10.299 C30.75,12.884 32.854,14.987 35.439,14.987 C38.023,14.987 40.127,12.883 40.127,10.299 C40.127,7.716 38.023,5.613 35.439,5.613 Z M35.439,11.839 C34.588,11.839 33.898,11.148 33.898,10.299 C33.898,9.45 34.588,8.762 35.439,8.762 C36.289,8.762 36.978,9.45 36.978,10.299 C36.978,11.148 36.289,11.839 35.439,11.839 Z" id="Shape"></path>
                    <path d="M49.441,5.613 C46.851,5.613 44.75,7.716 44.75,10.299 C44.75,12.884 46.852,14.987 49.441,14.987 C52.023,14.987 54.127,12.883 54.127,10.299 C54.126,7.716 52.023,5.613 49.441,5.613 Z M49.441,11.839 C48.589,11.839 47.898,11.148 47.898,10.299 C47.898,9.45 48.589,8.762 49.441,8.762 C50.289,8.762 50.978,9.45 50.978,10.299 C50.978,11.148 50.288,11.839 49.441,11.839 Z" id="Shape"></path>
                    <path d="M63.441,5.613 C60.853,5.613 58.75,7.716 58.75,10.299 C58.75,12.884 60.854,14.987 63.441,14.987 C66.023,14.987 68.127,12.883 68.127,10.299 C68.126,7.716 66.023,5.613 63.441,5.613 Z M63.441,11.839 C62.589,11.839 61.898,11.148 61.898,10.299 C61.898,9.45 62.589,8.762 63.441,8.762 C64.291,8.762 64.978,9.45 64.978,10.299 C64.978,11.148 64.29,11.839 63.441,11.839 Z" id="Shape"></path>
                    <path d="M85,9.985 L77.658,9.985 L77.658,5.035 C77.658,2.256 75.402,0 72.623,0 L12.376,0 C9.598,0 7.338,2.256 7.338,5.035 L7.338,9.985 L0,9.985 L0,13.766 L7.338,13.766 L7.338,15.565 C7.338,18.34 9.598,20.603 12.376,20.603 L72.623,20.603 C75.402,20.603 77.658,18.34 77.658,15.565 L77.658,13.766 L85,13.766 L85,9.985 Z M73.883,15.565 C73.883,16.247 73.305,16.822 72.623,16.822 L12.376,16.822 C11.693,16.822 11.117,16.247 11.117,15.565 L11.117,5.035 C11.117,4.352 11.694,3.775 12.376,3.775 L72.623,3.775 C73.305,3.775 73.883,4.352 73.883,5.035 L73.883,15.565 L73.883,15.565 Z" id="Shape"></path>
                </g>
                <g id="Group-Copy" transform="translate(36.500000, 42.500000) rotate(-270.000000) translate(-36.500000, -42.500000) translate(-6.000000, 32.000000)" fill="#000000" fill-rule="nonzero">
                    <path d="M17.315,5.613 C14.729,5.613 12.627,7.716 12.627,10.299 C12.627,12.884 14.73,14.987 17.315,14.987 C19.9,14.987 22.003,12.883 22.003,10.299 C22.003,7.716 19.9,5.613 17.315,5.613 Z M17.315,11.839 C16.465,11.839 15.774,11.148 15.774,10.299 C15.774,9.45 16.464,8.762 17.315,8.762 C18.165,8.762 18.855,9.45 18.855,10.299 C18.855,11.148 18.165,11.839 17.315,11.839 Z" id="Shape"></path>
                    <path d="M29.907,5.613 C27.322,5.613 25.219,7.716 25.219,10.299 C25.219,12.884 27.322,14.987 29.907,14.987 C32.492,14.987 34.595,12.883 34.595,10.299 C34.595,7.716 32.493,5.613 29.907,5.613 Z M29.907,11.839 C29.057,11.839 28.366,11.148 28.366,10.299 C28.366,9.45 29.056,8.762 29.907,8.762 C30.758,8.762 31.447,9.45 31.447,10.299 C31.447,11.148 30.757,11.839 29.907,11.839 Z" id="Shape"></path>
                    <path d="M42.5,5.613 C39.914,5.613 37.811,7.716 37.811,10.299 C37.811,12.884 39.915,14.987 42.5,14.987 C45.084,14.987 47.188,12.883 47.188,10.299 C47.188,7.716 45.084,5.613 42.5,5.613 Z M42.5,11.839 C41.649,11.839 40.959,11.148 40.959,10.299 C40.959,9.45 41.649,8.762 42.5,8.762 C43.35,8.762 44.039,9.45 44.039,10.299 C44.039,11.148 43.35,11.839 42.5,11.839 Z" id="Shape"></path>
                    <path d="M55.094,5.613 C52.504,5.613 50.403,7.716 50.403,10.299 C50.403,12.884 52.505,14.987 55.094,14.987 C57.676,14.987 59.78,12.883 59.78,10.299 C59.779,7.716 57.676,5.613 55.094,5.613 Z M55.094,11.839 C54.242,11.839 53.551,11.148 53.551,10.299 C53.551,9.45 54.242,8.762 55.094,8.762 C55.942,8.762 56.631,9.45 56.631,10.299 C56.631,11.148 55.941,11.839 55.094,11.839 Z" id="Shape"></path>
                    <path d="M67.686,5.613 C65.098,5.613 62.995,7.716 62.995,10.299 C62.995,12.884 65.099,14.987 67.686,14.987 C70.268,14.987 72.372,12.883 72.372,10.299 C72.371,7.716 70.268,5.613 67.686,5.613 Z M67.686,11.839 C66.834,11.839 66.143,11.148 66.143,10.299 C66.143,9.45 66.834,8.762 67.686,8.762 C68.536,8.762 69.223,9.45 69.223,10.299 C69.223,11.148 68.535,11.839 67.686,11.839 Z" id="Shape"></path>
                    <path d="M85,9.985 L77.658,9.985 L77.658,5.035 C77.658,2.256 75.402,0 72.623,0 L12.376,0 C9.598,0 7.338,2.256 7.338,5.035 L7.338,9.985 L0,9.985 L0,13.766 L7.338,13.766 L7.338,15.565 C7.338,18.34 9.598,20.603 12.376,20.603 L72.623,20.603 C75.402,20.603 77.658,18.34 77.658,15.565 L77.658,13.766 L85,13.766 L85,9.985 Z M73.883,15.565 C73.883,16.247 73.305,16.822 72.623,16.822 L12.376,16.822 C11.693,16.822 11.117,16.247 11.117,15.565 L11.117,5.035 C11.117,4.352 11.694,3.775 12.376,3.775 L72.623,3.775 C73.305,3.775 73.883,4.352 73.883,5.035 L73.883,15.565 L73.883,15.565 Z" id="Shape"></path>
                </g>
                <g id="Group-Copy-3" transform="translate(61.500000, 42.500000) rotate(-270.000000) translate(-61.500000, -42.500000) translate(19.000000, 32.000000)" fill="#000000" fill-rule="nonzero">
                    <path d="M21.315,5.613 C18.729,5.613 16.627,7.716 16.627,10.299 C16.627,12.884 18.73,14.987 21.315,14.987 C23.9,14.987 26.003,12.883 26.003,10.299 C26.003,7.716 23.9,5.613 21.315,5.613 Z M21.315,11.839 C20.465,11.839 19.774,11.148 19.774,10.299 C19.774,9.45 20.464,8.762 21.315,8.762 C22.165,8.762 22.855,9.45 22.855,10.299 C22.855,11.148 22.165,11.839 21.315,11.839 Z" id="Shape"></path>
                    <path d="M35.439,5.613 C32.853,5.613 30.75,7.716 30.75,10.299 C30.75,12.884 32.854,14.987 35.439,14.987 C38.023,14.987 40.127,12.883 40.127,10.299 C40.127,7.716 38.023,5.613 35.439,5.613 Z M35.439,11.839 C34.588,11.839 33.898,11.148 33.898,10.299 C33.898,9.45 34.588,8.762 35.439,8.762 C36.289,8.762 36.978,9.45 36.978,10.299 C36.978,11.148 36.289,11.839 35.439,11.839 Z" id="Shape"></path>
                    <path d="M49.441,5.613 C46.851,5.613 44.75,7.716 44.75,10.299 C44.75,12.884 46.852,14.987 49.441,14.987 C52.023,14.987 54.127,12.883 54.127,10.299 C54.126,7.716 52.023,5.613 49.441,5.613 Z M49.441,11.839 C48.589,11.839 47.898,11.148 47.898,10.299 C47.898,9.45 48.589,8.762 49.441,8.762 C50.289,8.762 50.978,9.45 50.978,10.299 C50.978,11.148 50.288,11.839 49.441,11.839 Z" id="Shape"></path>
                    <path d="M63.441,5.613 C60.853,5.613 58.75,7.716 58.75,10.299 C58.75,12.884 60.854,14.987 63.441,14.987 C66.023,14.987 68.127,12.883 68.127,10.299 C68.126,7.716 66.023,5.613 63.441,5.613 Z M63.441,11.839 C62.589,11.839 61.898,11.148 61.898,10.299 C61.898,9.45 62.589,8.762 63.441,8.762 C64.291,8.762 64.978,9.45 64.978,10.299 C64.978,11.148 64.29,11.839 63.441,11.839 Z" id="Shape"></path>
                    <path d="M85,9.985 L77.658,9.985 L77.658,5.035 C77.658,2.256 75.402,0 72.623,0 L12.376,0 C9.598,0 7.338,2.256 7.338,5.035 L7.338,9.985 L0,9.985 L0,13.766 L7.338,13.766 L7.338,15.565 C7.338,18.34 9.598,20.603 12.376,20.603 L72.623,20.603 C75.402,20.603 77.658,18.34 77.658,15.565 L77.658,13.766 L85,13.766 L85,9.985 Z M73.883,15.565 C73.883,16.247 73.305,16.822 72.623,16.822 L12.376,16.822 C11.693,16.822 11.117,16.247 11.117,15.565 L11.117,5.035 C11.117,4.352 11.694,3.775 12.376,3.775 L72.623,3.775 C73.305,3.775 73.883,4.352 73.883,5.035 L73.883,15.565 L73.883,15.565 Z" id="Shape"></path>
                </g>
                <g id="Group-Copy-2" transform="translate(10.500000, 42.500000) rotate(-270.000000) translate(-10.500000, -42.500000) translate(-32.000000, 32.000000)" fill="#000000" fill-rule="nonzero">
                    <path d="M17.315,5.613 C14.729,5.613 12.627,7.716 12.627,10.299 C12.627,12.884 14.73,14.987 17.315,14.987 C19.9,14.987 22.003,12.883 22.003,10.299 C22.003,7.716 19.9,5.613 17.315,5.613 Z M17.315,11.839 C16.465,11.839 15.774,11.148 15.774,10.299 C15.774,9.45 16.464,8.762 17.315,8.762 C18.165,8.762 18.855,9.45 18.855,10.299 C18.855,11.148 18.165,11.839 17.315,11.839 Z" id="Shape"></path>
                    <path d="M29.907,5.613 C27.322,5.613 25.219,7.716 25.219,10.299 C25.219,12.884 27.322,14.987 29.907,14.987 C32.492,14.987 34.595,12.883 34.595,10.299 C34.595,7.716 32.493,5.613 29.907,5.613 Z M29.907,11.839 C29.057,11.839 28.366,11.148 28.366,10.299 C28.366,9.45 29.056,8.762 29.907,8.762 C30.758,8.762 31.447,9.45 31.447,10.299 C31.447,11.148 30.757,11.839 29.907,11.839 Z" id="Shape"></path>
                    <path d="M42.5,5.613 C39.914,5.613 37.811,7.716 37.811,10.299 C37.811,12.884 39.915,14.987 42.5,14.987 C45.084,14.987 47.188,12.883 47.188,10.299 C47.188,7.716 45.084,5.613 42.5,5.613 Z M42.5,11.839 C41.649,11.839 40.959,11.148 40.959,10.299 C40.959,9.45 41.649,8.762 42.5,8.762 C43.35,8.762 44.039,9.45 44.039,10.299 C44.039,11.148 43.35,11.839 42.5,11.839 Z" id="Shape"></path>
                    <path d="M55.094,5.613 C52.504,5.613 50.403,7.716 50.403,10.299 C50.403,12.884 52.505,14.987 55.094,14.987 C57.676,14.987 59.78,12.883 59.78,10.299 C59.779,7.716 57.676,5.613 55.094,5.613 Z M55.094,11.839 C54.242,11.839 53.551,11.148 53.551,10.299 C53.551,9.45 54.242,8.762 55.094,8.762 C55.942,8.762 56.631,9.45 56.631,10.299 C56.631,11.148 55.941,11.839 55.094,11.839 Z" id="Shape"></path>
                    <path d="M67.686,5.613 C65.098,5.613 62.995,7.716 62.995,10.299 C62.995,12.884 65.099,14.987 67.686,14.987 C70.268,14.987 72.372,12.883 72.372,10.299 C72.371,7.716 70.268,5.613 67.686,5.613 Z M67.686,11.839 C66.834,11.839 66.143,11.148 66.143,10.299 C66.143,9.45 66.834,8.762 67.686,8.762 C68.536,8.762 69.223,9.45 69.223,10.299 C69.223,11.148 68.535,11.839 67.686,11.839 Z" id="Shape"></path>
                    <path d="M85,9.985 L77.658,9.985 L77.658,5.035 C77.658,2.256 75.402,0 72.623,0 L12.376,0 C9.598,0 7.338,2.256 7.338,5.035 L7.338,9.985 L0,9.985 L0,13.766 L7.338,13.766 L7.338,15.565 C7.338,18.34 9.598,20.603 12.376,20.603 L72.623,20.603 C75.402,20.603 77.658,18.34 77.658,15.565 L77.658,13.766 L85,13.766 L85,9.985 Z M73.883,15.565 C73.883,16.247 73.305,16.822 72.623,16.822 L12.376,16.822 C11.693,16.822 11.117,16.247 11.117,15.565 L11.117,5.035 C11.117,4.352 11.694,3.775 12.376,3.775 L72.623,3.775 C73.305,3.775 73.883,4.352 73.883,5.035 L73.883,15.565 L73.883,15.565 Z" id="Shape"></path>
                </g>
                <path d="M41.5,0.5 L3.5,0.5" id="Line-72-Copy" stroke="#000000" stroke-width="3" stroke-linecap="square"></path>
                <path d="M41.5,85 L3.5,85" id="Line-72-Copy-2" stroke="#000000" stroke-width="3" stroke-linecap="square"></path>
                <path d="M93,0.5 L55,0.5" id="Line-72-Copy-3" stroke="#000000" stroke-width="3" stroke-linecap="square"></path>
                <path d="M93,85 L55,85" id="Line-72-Copy-4" stroke="#000000" stroke-width="3" stroke-linecap="square"></path>
                <g id="Group-2" transform="translate(51.250000, 42.750000)">
                    <polygon id="Path-121" fill="#FFFFFF" points="8.55797454 14.3693139 6.05199137 6.08628418 8.00700892 3 11.3323596 3 13.7533713 6.08628418 16.5466389 10.8359181 21.2183823 9.56336956 24.4695037 8.68465694 27.4759221 6.08628418 30.5160115 8.15493418 34.8802392 6.08628418 38.3566502 7.56991254 46.7357785 28.1434545 46.7357785 34.2074482 39.5516454 38.3417135 26.393885 43.3189495 21.2183823 41.9582473 17.060851 36.9922861 2 30.2370564 2 26.8786613 5.07920323 24.5190178 13.7533713 27.3884899"></polygon>
                    <g id="Group-3" transform="translate(0.694401, 0.895296)">
                        <mask id="mask-2" fill="white">
                            <use xlink:href="#path-1"></use>
                        </mask>
                        <g id="Clip-2"></g>
                        <path d="M42.2740356,34.4962116 L27.3133837,40.645819 C24.2294026,41.8529641 20.7478914,40.3519309 19.5097431,37.2808008 C19.2128815,36.5519585 18.6353239,35.9722643 17.9078659,35.6717638 L3.83559452,29.6250172 C2.68341858,29.1180603 2.15288859,27.7786656 2.64594347,26.6200119 C3.09123596,25.4863388 4.36979855,24.9294209 5.50360433,25.3739266 C5.53079216,25.3849474 5.55797998,25.3959682 5.58516781,25.4077237 L13.4108526,28.7727419 C14.1552112,29.0945493 15.0208127,28.7521697 15.3433926,28.0071635 C15.4984367,27.6478854 15.5035803,27.2408504 15.3580887,26.877164 L7.02538774,6.05519585 C6.55658145,4.89066446 7.1054816,3.56522937 8.25986196,3.07223217 C9.38631969,2.61156266 10.6736999,3.15084722 11.1344234,4.27790788 C11.1417714,4.29480645 11.1483847,4.31170501 11.1542631,4.32860357 L16.9893582,18.9421867 C17.2884243,19.6960096 18.1430038,20.0648391 18.8976496,19.765808 C18.8983845,19.765808 18.8983845,19.7650732 18.8991193,19.7650732 C19.6544999,19.4660422 20.0233726,18.6115627 19.7243065,17.8577398 C19.7235717,17.8570051 19.7235717,17.8562704 19.7228369,17.8548009 L17.6359876,12.6382881 C17.1627725,11.4737567 17.7124074,10.144648 18.869727,9.65532442 C20.0167593,9.20861459 21.3092832,9.76920604 21.7655978,10.9116958 L23.845099,16.1282087 C24.1441651,16.8820315 24.9987446,17.250861 25.7533904,16.9518299 C25.7541252,16.9518299 25.75486,16.9510952 25.7555948,16.9510952 C26.5102407,16.6520641 26.8791133,15.7975846 26.5800473,15.043027 C26.5793125,15.0422923 26.5793125,15.0415576 26.5785776,15.0408229 L24.5211206,9.80961565 C24.0479055,8.64508426 24.5975404,7.31671029 25.7555948,6.82665197 C26.8835222,6.37332966 28.1657588,6.91922671 28.6213386,8.04628737 L30.7081878,13.2628002 C31.0072539,14.0173578 31.8618334,14.3861873 32.6157444,14.0871562 C32.6164792,14.0864215 32.6172141,14.0864215 32.6179489,14.0856867 C33.3733295,13.7866556 33.7422022,12.9321761 33.4424013,12.1776186 C33.4416665,12.1768839 33.4416665,12.1761491 33.4409317,12.1754144 L32.4717224,9.74349084 C32.0029162,8.57895945 32.5518163,7.25352436 33.7061967,6.76052716 C34.837798,6.31161317 36.1192999,6.86559214 36.5675316,7.99706112 C36.5741448,8.01395968 36.5807581,8.03012352 36.5866365,8.04628737 L44.7576802,28.5155898 C45.6894143,30.8527345 44.5872052,33.5065436 42.2740356,34.4962116 L42.2740356,34.4962116 Z M41.1203901,11.4774303 L39.3127671,6.95155439 C38.8050161,5.65771227 37.7946577,4.62396106 36.5131559,4.08614593 C34.3998536,3.19860403 31.9551538,3.81576893 30.5171383,5.59966938 C29.9866083,4.95678927 29.3083823,4.45277127 28.5405099,4.13022914 C27.2788478,3.5990265 25.8562633,3.5990265 24.5938664,4.13022914 C23.2954641,4.66290123 22.2704096,5.70399963 21.7582497,7.010332 L21.6774211,6.973596 C19.6625828,6.13087202 17.3354519,6.6525233 15.872453,8.2740506 L13.8737804,3.2632594 C13.3660294,1.96941728 12.3564059,0.93566607 11.0741693,0.397850944 C9.81177241,-0.132616981 8.38992264,-0.132616981 7.12826059,0.397850944 C4.48369349,1.50801304 3.21909222,4.53212105 4.28456104,7.19401203 L11.2946111,24.6730036 L6.7314653,22.7406897 C3.97373807,21.9045782 1.06096675,23.4621849 0.224757422,26.2188548 C-0.487269674,28.5699591 0.535580396,31.0988658 2.68268378,32.2920512 L16.7689164,38.3534922 C17.6426009,40.5848372 19.377478,42.3724113 21.5818963,43.312853 C23.7598615,44.229049 26.2155834,44.229049 28.3928139,43.312853 L43.3542006,37.1632456 C47.1678441,35.5593516 48.9931025,31.1951141 47.4544185,27.3547321 L41.1203901,11.4774303 Z" id="Fill-1" fill="#000000" mask="url(#mask-2)"></path>
                    </g>
                </g>
            </g>
        </g>
    </g>
</svg>