<?xml version="1.0" encoding="UTF-8"?>
<svg width="105px" height="100px" viewBox="0 0 105 100" version="1.1" xmlns="http://www.w3.org/2000/svg" xmlns:xlink="http://www.w3.org/1999/xlink">
    <!-- Generator: Sketch 55.2 (78181) - https://sketchapp.com -->
    <title>Group 2</title>
    <desc>Created with Sketch.</desc>
    <g id="Symbols" stroke="none" stroke-width="1" fill="none" fill-rule="evenodd">
        <g id="CTA/-3D-Farm-Model" transform="translate(-18.000000, -4.000000)">
            <g id="Group-2" transform="translate(20.000000, 6.000000)">
                <g id="Group">
                    <rect id="Rectangle" stroke="#000000" stroke-width="3" fill="#FFFFFF" stroke-linejoin="round" x="0" y="0" width="101" height="75"></rect>
                    <rect id="Rectangle" fill="#000000" fill-rule="nonzero" x="92" y="66" width="4" height="4"></rect>
                    <rect id="Rectangle" fill="#000000" fill-rule="nonzero" x="81" y="66" width="6" height="4"></rect>
                    <path d="M8.64814815,63 L94.3518519,63 C95.2616296,63 96,62.2752941 96,61.3823529 L96,9.61764706 C96,8.72470588 95.2616296,8 94.3518519,8 L8.64814815,8 C7.73837037,8 7,8.72470588 7,9.61764706 L7,61.3823529 C7,62.2752941 7.73837037,63 8.64814815,63 Z M10.2962963,11.2352941 L92.7037037,11.2352941 L92.7037037,59.7647059 L10.2962963,59.7647059 L10.2962963,11.2352941 Z" id="Shape" fill="#000000" fill-rule="nonzero"></path>
                    <path d="M71.9592308,25.5389143 L51.6515385,17.129919 C51.2352308,16.9566937 50.7664615,16.9566937 50.3484615,17.129919 L30.0407692,25.5389143 C29.4112308,25.7995932 29,26.411768 29,27.0912149 L29,43.9092056 C29,44.5886524 29.4112308,45.2008273 30.0407692,45.4615061 L50.3484615,53.8705015 C50.5566154,53.9562732 50.7783077,54 51,54 C51.2216923,54 51.4433846,53.9562732 51.6515385,53.8705015 L71.9592308,45.4615061 C72.5887692,45.2008273 73,44.5886524 73,43.9092056 L73,27.0912149 C73,26.411768 72.5887692,25.7995932 71.9592308,25.5389143 Z M51,20.5036079 L66.9076923,27.0912149 L51,33.6788218 L35.0923077,27.0912149 L51,20.5036079 Z M69.6153846,34.3784502 L66.2307692,35.7793889 L66.2307692,31.0131703 L69.6153846,29.6122317 L69.6153846,34.3784502 Z M32.3846154,29.6139135 L35.7692308,31.0148521 L35.7692308,35.7810707 L32.3846154,34.380132 L32.3846154,29.6139135 Z M39.1538462,32.4174725 L42.5384615,33.8184112 L42.5384615,38.5846297 L39.1538462,37.1820093 L39.1538462,32.4174725 Z M52.6923077,36.6219702 L56.0769231,35.2210316 L56.0769231,39.9872501 L52.6923077,41.386507 L52.6923077,36.6219702 Z M49.3076923,41.386507 L45.9230769,39.9855683 L45.9230769,35.2193498 L49.3076923,36.6202884 L49.3076923,41.386507 Z M42.5384615,42.2274065 L42.5384615,46.9919433 L39.1538462,45.5910046 L39.1538462,40.8247861 L42.5384615,42.2274065 Z M45.9230769,43.6283451 L49.3076923,45.0292838 L49.3076923,49.7955023 L45.9230769,48.3945637 L45.9230769,43.6283451 Z M52.6923077,45.0309656 L56.0769231,43.6300269 L56.0769231,48.3945637 L52.6923077,49.7955023 L52.6923077,45.0309656 Z M59.4615385,42.2274065 L62.8461538,40.8264679 L62.8461538,45.5910046 L59.4615385,46.9919433 L59.4615385,42.2274065 Z M59.4615385,38.5829479 L59.4615385,33.8184112 L62.8461538,32.4174725 L62.8461538,37.1820093 L59.4615385,38.5829479 Z M32.3846154,38.0229088 L35.7692308,39.4238475 L35.7692308,44.190066 L32.3846154,42.7891274 L32.3846154,38.0229088 Z M66.2307692,44.190066 L66.2307692,39.4238475 L69.6153846,38.0229088 L69.6153846,42.7891274 L66.2307692,44.190066 Z" id="Shape" fill="#000000" fill-rule="nonzero"></path>
                    <path d="M18,13 C15.2433333,13 13,15.2433333 13,18 C13,20.7566667 15.2433333,23 18,23 C20.7566667,23 23,20.7566667 23,18 C23,15.2433333 20.7566667,13 18,13 Z M18,19.6666667 C17.0816667,19.6666667 16.3333333,18.9183333 16.3333333,18 C16.3333333,17.0816667 17.0816667,16.3333333 18,16.3333333 C18.9183333,16.3333333 19.6666667,17.0816667 19.6666667,18 C19.6666667,18.9183333 18.9183333,19.6666667 18,19.6666667 Z" id="Shape" fill="#000000" fill-rule="nonzero"></path>
                    <path d="M18,26 C15.2433333,26 13,28.2433333 13,31 C13,33.7566667 15.2433333,36 18,36 C20.7566667,36 23,33.7566667 23,31 C23,28.2433333 20.7566667,26 18,26 Z M18,32.6666667 C17.0816667,32.6666667 16.3333333,31.9183333 16.3333333,31 C16.3333333,30.0816667 17.0816667,29.3333333 18,29.3333333 C18.9183333,29.3333333 19.6666667,30.0816667 19.6666667,31 C19.6666667,31.9183333 18.9183333,32.6666667 18,32.6666667 Z" id="Shape" fill="#000000" fill-rule="nonzero"></path>
                    <path d="M18,39 C15.2433333,39 13,41.2433333 13,44 C13,46.7566667 15.2433333,49 18,49 C20.7566667,49 23,46.7566667 23,44 C23,41.2433333 20.7566667,39 18,39 Z M18,45.6666667 C17.0816667,45.6666667 16.3333333,44.9183333 16.3333333,44 C16.3333333,43.0816667 17.0816667,42.3333333 18,42.3333333 C18.9183333,42.3333333 19.6666667,43.0816667 19.6666667,44 C19.6666667,44.9183333 18.9183333,45.6666667 18,45.6666667 Z" id="Shape" fill="#000000" fill-rule="nonzero"></path>
                    <path d="M85,34 C82.2433333,34 80,36.2433333 80,39 C80,41.7566667 82.2433333,44 85,44 C87.7566667,44 90,41.7566667 90,39 C90,36.2433333 87.7566667,34 85,34 Z M85,40.6666667 C84.0816667,40.6666667 83.3333333,39.9183333 83.3333333,39 C83.3333333,38.0816667 84.0816667,37.3333333 85,37.3333333 C85.9183333,37.3333333 86.6666667,38.0816667 86.6666667,39 C86.6666667,39.9183333 85.9183333,40.6666667 85,40.6666667 Z" id="Shape" fill="#000000" fill-rule="nonzero"></path>
                    <path d="M85,47 C82.2433333,47 80,49.2433333 80,52 C80,54.7566667 82.2433333,57 85,57 C87.7566667,57 90,54.7566667 90,52 C90,49.2433333 87.7566667,47 85,47 Z M85,53.6666667 C84.0816667,53.6666667 83.3333333,52.9183333 83.3333333,52 C83.3333333,51.0816667 84.0816667,50.3333333 85,50.3333333 C85.9183333,50.3333333 86.6666667,51.0816667 86.6666667,52 C86.6666667,52.9183333 85.9183333,53.6666667 85,53.6666667 Z" id="Shape" fill="#000000" fill-rule="nonzero"></path>
                </g>
                <rect id="Rectangle" stroke="#151515" stroke-width="3" fill="#FFFFFF" x="45" y="75" width="11" height="20"></rect>
                <rect id="Rectangle-Copy" stroke="#151515" stroke-width="3" fill="#FFFFFF" x="24.5" y="86.5" width="52" height="9.87234043" rx="4.5"></rect>
            </g>
        </g>
    </g>
</svg>