<svg xmlns="http://www.w3.org/2000/svg" width="140" height="108" viewBox="0 0 140 108">
    <g fill="#FFF" fill-rule="evenodd" stroke="#000" stroke-width="3">
        <path stroke-linejoin="round" d="M30.111 18l13.19 36.99c-.655 11.014 1.184 20.089 7.7 25.011L8 80l22.111-62z"/>
        <path stroke-linecap="round" d="M31.23 58.7l5.54-5.7M20 59l10 13"/>
        <path stroke-linecap="round" stroke-linejoin="round" d="M30.5 45v59"/>
        <path stroke-linejoin="round" d="M108.15 32C121.874 32 133 43.64 133 58s-11.126 26-24.85 26C98.485 84 90.109 78.227 86 69.797c1.81-6.515 1.54-14.814.155-23.906C90.317 37.63 98.605 32 108.15 32z"/>
        <path d="M64.997 84c21.894 0 24.28-17.909 20.572-40C81.86 21.909 71.854 4 64.997 4c-6.858 0-16.88 17.909-20.572 40-3.693 22.091-1.322 40 20.572 40z"/>
        <path stroke-linecap="round" d="M107 71l-7-8M115 67l-7.625 15.5"/>
        <path stroke-linecap="round" stroke-linejoin="round" d="M107.524 55.404l-.149 48.058"/>
        <path stroke-linecap="round" d="M65 42.5L60 34M65 71L53 53M74 45l-8.625 15.5"/>
        <path stroke-linecap="round" stroke-linejoin="round" d="M65.375 26.09V104"/>
    </g>
</svg>
