<svg xmlns="http://www.w3.org/2000/svg" xmlns:xlink="http://www.w3.org/1999/xlink" width="140" height="108" viewBox="0 0 140 108">
    <defs>
        <path id="a" d="M80.777 37.384c1.067-6.35-1.676-14.538-8.736-15.297-5.967-.642-7.696 2.493-11.72 2.493-4.492 0-5.777-3.135-11.32-2.493C43.668 22.703 41 28.45 41 35.03c0 1.409.179 2.732.509 3.969"/>
    </defs>
    <g fill="none" fill-rule="evenodd">
        <path fill="#FFF" d="M46.336 51.64c6.424 5.634 13.428 9.164 21.012 10.591 7.585 1.427 16.37.868 26.355-1.679L98 41.935l-18.34-4.456L61.5 29 41 33.52l5.336 18.12zM28 71l15.31 3.245L57.468 71l21.287 8.635H91v7.356c-4.727 3.991-8.808 6.574-12.245 7.748C75.32 95.912 69.631 96.666 61.69 97L33.4 94.739 28 71z"/>
        <path stroke="#000" stroke-linecap="round" stroke-width="3" d="M52 14s7.163 2.858 8 10"/>
        <use fill="#FFF" xlink:href="#a"/>
        <use stroke="#000" xlink:href="#a"/>
        <use stroke="#000" stroke-width="3" xlink:href="#a"/>
        <path fill="#FFF" stroke="#000" stroke-linecap="round" stroke-linejoin="round" stroke-width="3" d="M74 10.367c-8.812-1.431-14.145 1.323-16 8.262m0 0c8.81 1.44 14.143-1.314 16-8.262"/>
        <path fill="#FFF" stroke="#000" stroke-linejoin="round" stroke-width="3" d="M105 33h22v32h-22zM91 60.18l-3.346.655a62.495 62.495 0 0 1-26.148-.455l-3.445-.798c-6.333-1.467-12.351-4.298-17.718-8.335l-6.331-4.763c-1.212-.912-1.958-2.42-2.004-4.053-.101-3.62.72-5.431 2.465-5.431 1.503 0 9.737 4.065 16.83 5.946 2.415.64 4.705 1.037 6.962 1.397M91 36h14v27H91z"/>
        <path fill="#FFF" stroke="#000" stroke-linecap="round" stroke-linejoin="round" stroke-width="3" d="M106.41 49h8.18M91 39.245l-10.526-2.708a20 20 0 0 0-11.789.563c-1.867.676-3.23 1.171-4.089 1.486C59.861 40.323 58 41.5 58 44.048c0 3.504 3.338 3.624 9.834 3.833 1.076.035 2.87.074 5.38.119"/>
        <path fill="#FFF" stroke="#000" stroke-linejoin="round" stroke-width="3" d="M29 68H7v32h22zM43 95.18l3.346.655a62.495 62.495 0 0 0 26.148-.455l3.445-.798c6.333-1.467 12.351-4.298 17.718-8.335l6.331-4.763c1.212-.912 1.958-2.42 2.004-4.053.101-3.62-.72-5.431-2.465-5.431-1.503 0-9.737 4.065-16.83 5.946-2.172.576-4.243.955-6.28 1.287M43 71H29v27h14z"/>
        <path fill="#FFF" stroke="#000" stroke-linecap="round" stroke-linejoin="round" stroke-width="3" d="M27.59 84h-8.18M43 74.245l10.526-2.708a20 20 0 0 1 11.789.563c1.867.676 3.23 1.171 4.089 1.486C74.139 75.323 76 76.5 76 79.048c0 3.504-3.338 3.624-9.834 3.833-1.076.035-2.87.074-5.38.119"/>
    </g>
</svg>
