<svg xmlns="http://www.w3.org/2000/svg" width="140" height="108" viewBox="0 0 140 108">
    <g fill="#FFF" fill-rule="evenodd">
        <path d="M28.068 45.728l3.531-3.413-1.248-4.642 4.401-8.498 7.098-2.095L49.143 21h7.43l7.836 6.833-.596 2.224 4.87.817 4.63 3.473L75 39.731l-3.944 11.835L27 58z"/>
        <path stroke="#000" stroke-linecap="round" stroke-linejoin="round" stroke-width="3" d="M61.344 36c3.53-6.53 1.818-15.544-9.053-15.992-5.57-.23-10.202 4.235-11.124 9.805a12.49 12.49 0 0 0-.167 2.04M41 27c-6.092 0-14.047 4.727-9.806 15M38 40c-.837 0-1.65.101-2.423.29-3.082.756-5.554 2.92-6.577 5.71M73.996 40c.035-1.758-.168-3.446-.53-4.48-.98-2.803-3.441-4.78-6.7-5.314A17.112 17.112 0 0 0 64 30M75 41.692A7.398 7.398 0 0 0 70.264 40c-3.464 0-6.361 2.336-7.088 5.463A6.78 6.78 0 0 0 63 47M63 42.416S61.453 39 55.952 39c-1.539 0-2.92.282-4.119.815C49.367 40.911 47.68 43.067 47 46"/>
        <path stroke="#000" stroke-width="3" d="M102.406 46.457c8.208-6.921 11.392-12.9 2.5-20.725C92.06 14.428 83.336 27.5 73.34 43.922a632.707 632.707 0 0 1-1.943 3.17"/>
        <path stroke="#000" stroke-width="3" d="M103.99 24.97c.024.024 2.022-3.666 3.786-7.054 2.35-4.514 1.666-9.753-2.276-9.904-3.941-.15-5.325 4.905-3.783 9.233 1.39 3.906 2.246 7.698 2.273 7.725z"/>
        <path stroke="#000" stroke-linecap="round" stroke-width="3" d="M85.222 28.097l6.559 5.468M81.19 32.198l5.624 4.266"/>
        <path stroke="#000" stroke-width="3" d="M105.86 25.075c-.007.04 3.995-2.461 8.662-5.007 6.22-3.393 13.108-7.502 8.312-11.963-4.412-4.104-8.746 2-11.986 7.561-2.924 5.018-4.98 9.364-4.988 9.41zM106.508 25.429c-.024.02 3.46.65 7.337 1.602 5.166 1.267 11.064 2.467 10.636-2.61-.395-4.673-5.873-3.389-10.47-1.851-4.148 1.388-7.476 2.837-7.503 2.859zM108 47v49a9 9 0 0 1-9 9H32c-5.523 0-10-4.477-10-10V49.5l86-2.5z"/>
        <path stroke="#000" stroke-width="3" d="M66.742 46.955l41.222-.443a.5.5 0 0 1 .434.242l14.486 23.988a.5.5 0 0 1-.428.758h-39.52a.5.5 0 0 1-.42-.228L66.742 46.955zM64.411 46.957l-41.375-.445a.5.5 0 0 0-.434.242L8.116 70.742a.5.5 0 0 0 .428.758H49.88a.5.5 0 0 0 .432-.249l14.1-24.294z"/>
        <path stroke="#000" stroke-linecap="square" stroke-width="3" d="M65.5 48.008v55.517"/>
    </g>
</svg>
