<svg xmlns="http://www.w3.org/2000/svg" width="140" height="108" viewBox="0 0 140 108">
    <g fill="none" fill-rule="evenodd" stroke="#000" stroke-width="3">
        <path fill="#FFF" stroke-linejoin="round" d="M27.5 71.5h87v31h-87z"/>
        <path stroke-linecap="round" stroke-linejoin="round" d="M61 87.245c5.507-.954 8.84.882 10 5.508m0 0c-5.506.96-8.84-.876-10-5.508M71.342 93c6.184-1.212 8.622-4.546 7.316-10m0 0c-6.185 1.205-8.623 4.539-7.316 10"/>
        <path fill="#FFF" stroke-linecap="round" d="M70.925 101.986c.494-2.04.742-3.601.741-4.682 0-2.091-.21-4.216-.63-6.373"/>
        <path fill="#FFF" d="M108 24v39H33V24.13"/>
        <path fill="#FFF" d="M40 35c0 4.418 3.358 8 7.5 8 4.142 0 7.5-3.582 7.5-8M25 35c0 4.418 3.358 8 7.5 8 4.142 0 7.5-3.582 7.5-8M55 35a8 8 0 1 0 16 0M71 35c0 4.418 3.134 8 7 8s7-3.582 7-8M85 35c0 4.418 3.358 8 7.5 8 4.142 0 7.5-3.582 7.5-8M100 35c0 4.418 3.358 8 7.5 8 4.142 0 7.5-3.582 7.5-8M31.17 6.5h77.067a2.5 2.5 0 0 1 2.468 2.098l4.06 24.903-89.486-.058L28.694 8.66A2.5 2.5 0 0 1 31.171 6.5z"/>
        <path fill="#FFF" stroke-linecap="square" d="M40.5 8v23M55.5 8v24M70 8v25M84.5 8.303v22.45M100.5 7.329V31.73"/>
        <path fill="#FFF" d="M70 56c0-4.97-3.806-9-8.5-9S53 51.03 53 56M88 56c0-4.97-3.806-9-8.5-9S71 51.03 71 56"/>
        <path fill="#FFF" d="M78 64c0-4.97-3.806-9-8.5-9S61 59.03 61 64M95 63c0-4.418-3.806-8-8.5-8S78 58.582 78 63M61 64c0-4.97-3.806-9-8.5-9S44 59.03 44 64"/>
        <path fill="#FFF" stroke-linejoin="round" d="M20 63h101v8H20z"/>
    </g>
</svg>
