<svg xmlns="http://www.w3.org/2000/svg" width="140" height="108" viewBox="0 0 140 108">
    <g fill="none" fill-rule="evenodd">
        <path fill="#FFF" stroke="#000" stroke-width="3" d="M95.75 80c8.109-4.564 13.62-13.151 13.23-22.966-.79-19.96-13.549-19.27-18.104-31.408-3.833-10.21 8.373-17.806 4.11-20.208-4.263-2.401-4.998 4.21-7.61 4.21S86.49 4 82.5 4s-1.739 5.629-5.036 5.629c-3.298 0-5.026-5.629-8.469-3.44-3.442 2.19 9.721 8.383 5.685 19.437C70.34 37.507 56 38.28 56 57.034a26.32 26.32 0 0 0 6.418 17.26"/>
        <g stroke="#000" stroke-linejoin="round" stroke-width="3">
            <path fill="#FFF" d="M38 69H11v35h27zM55 75.843v22.145l4.085.705a86.096 86.096 0 0 0 31.908-.49l4.24-.868a61.142 61.142 0 0 0 21.586-8.978l7.932-5.27a5 5 0 0 0 2.228-3.94c.184-4.098-.815-6.147-2.997-6.147-3.695 0-7.338.443-25.235 7.021-1.035.38-2.117.781-3.25 1.203"/>
            <path fill="#FFF" stroke-linecap="round" d="M55.498 75.867l14.475-3.426a20 20 0 0 1 10.92.484c3.127 1.04 5.33 1.776 6.61 2.208 5.739 1.937 7.995 3.25 7.995 6.091 0 3.909-4.047 4.043-11.92 4.276-1.305.039-3.478.083-6.522.133"/>
            <path fill="#FFF" d="M55 72H38v29h17z"/>
            <path stroke-linecap="round" d="M36.5 86h-10"/>
        </g>
        <path stroke="#000" stroke-linecap="round" stroke-width="3" d="M71 22.5h23.75"/>
        <g fill="#000" fill-rule="nonzero">
            <path d="M85.334 62h-8.501v-2.714h8.373c1.256.045 2.4-.69 2.834-1.819a2.62 2.62 0 0 0-.373-2.479 2.876 2.876 0 0 0-2.333-1.13h-5.441c-2.737.05-5.14-1.737-5.767-4.29a5.258 5.258 0 0 1 1.133-4.55C76.335 43.741 77.955 43 79.666 43h8.501v2.714h-8.373c-1.256-.045-2.4.69-2.834 1.819a2.62 2.62 0 0 0 .373 2.479 2.876 2.876 0 0 0 2.333 1.13h5.441c2.737-.05 5.14 1.737 5.767 4.29a5.258 5.258 0 0 1-1.133 4.55C88.665 61.259 87.045 62 85.334 62z"/>
            <path d="M80 40h4v5h-4zM80 61h4v4h-4z"/>
        </g>
    </g>
</svg>
