<svg xmlns="http://www.w3.org/2000/svg" width="140" height="108" viewBox="0 0 140 108">
    <g fill="none" fill-rule="evenodd">
        <path stroke="#000" stroke-linecap="square" stroke-width="3" d="M90.5 44.259H123M88 40.561v11M95 40.561v11M102 40.561v11M109 40.561v11M116 40.561v11M123 40.561v11"/>
        <path fill="#000" fill-rule="nonzero" d="M13.364 67H57.08L59 64H13.364C12.61 64 12 64.672 12 65.5s.61 1.5 1.364 1.5zM13.219 76h38.743L54 73H13.219c-.673 0-1.219.672-1.219 1.5s.546 1.5 1.219 1.5zM12.986 88H44.05L46 85H12.986c-.544 0-.986.672-.986 1.5s.442 1.5.986 1.5zM12.696 104h21.307L36 101H12.696c-.384 0-.696.672-.696 1.5s.312 1.5.696 1.5zM97 67h29.475c.842 0 1.525-.672 1.525-1.5s-.683-1.5-1.525-1.5H97v3zM97 76h29.475c.842 0 1.525-.672 1.525-1.5s-.683-1.5-1.525-1.5H97v3zM97 88h29.475c.842 0 1.525-.672 1.525-1.5s-.683-1.5-1.525-1.5H97v3zM97 104h29.475c.842 0 1.525-.672 1.525-1.5s-.683-1.5-1.525-1.5H97v3z"/>
        <path stroke="#000" stroke-linecap="round" stroke-width="3" d="M13.5 58.5h112.75"/>
        <path fill="#000" fill-rule="nonzero" d="M67.454 57L37 103.985l3.587.015L70 58.62zM73.444 57L53 103.985l3.6.015L76 58.62zM80.323 57L67 103.985l3.59.015 12.282-45.38-2.55-1.62zm6.059 0l-7.264 46.985 3.591.015 6.222-45.38-2.55-1.62zm7.069 0L96 58.62 93.45 57z"/>
        <path stroke="#000" stroke-linecap="square" stroke-width="3" d="M93.5 58.5v43.56"/>
        <path fill="#FFF" stroke="#000" stroke-width="3" d="M17 53V14.018C17 10.694 20.134 8 24 8s7 2.694 7 6.018V53H17zM39 53V39.148C39 26.916 48.178 17 59.5 17S80 26.916 80 39.148v13.758L39 53z"/>
        <path stroke="#000" stroke-linecap="square" stroke-width="3" d="M17 25h13.33M17 33h13.33M17 41h13.33M51.5 36.571L66.429 51.5M66.5 36.571L52 51.5"/>
        <path stroke="#000" stroke-linejoin="round" stroke-width="3" d="M50.5 35.5h17v17h-17z"/>
    </g>
</svg>
