<?xml version="1.0" encoding="UTF-8"?>
<svg width="540px" height="408px" viewBox="0 0 540 408" version="1.1" xmlns="http://www.w3.org/2000/svg" xmlns:xlink="http://www.w3.org/1999/xlink">
    <!-- Generator: Sketch 55.2 (78181) - https://sketchapp.com -->
    <title>Illustratiton/Expedite</title>
    <desc>Created with Sketch.</desc>
    <defs>
        <polygon id="path-1" points="0.904366312 1.26514286 18.7501108 1.26514286 18.7501108 16.8658714 0.904366312 16.8658714"></polygon>
        <polygon id="path-3" points="0 0.787811538 34.0797593 0.787811538 34.0797593 32.35485 0 32.35485"></polygon>
        <polygon id="path-5" points="0.894087881 0.817375 17.4946154 0.817375 17.4946154 14.107375 0.894087881 14.107375"></polygon>
        <polygon id="path-7" points="0 0 398 0 398 100 0 100"></polygon>
    </defs>
    <g id="High-Fi-Flow-(FINAL)" stroke="none" stroke-width="1" fill="none" fill-rule="evenodd">
        <g id="Homepage-Change-Order" transform="translate(-120.000000, -2614.000000)">
            <g id="Step-123" transform="translate(0.000000, 1020.000000)">
                <g id="Illustration/Expedite" transform="translate(119.000000, 1594.000000)">
                    <g id="Group-30" transform="translate(0.000000, 166.000000)">
                        <path d="M20.8828843,12.045949 C20.187033,11.1724388 19.3245008,10.376995 18.2556991,9.68077275 C17.5113466,9.19572178 16.6290545,8.67099647 15.7623783,9.26355213 C14.8020073,9.9213785 15.1364454,11.2485496 14.7057099,12.1149863 L13.8091034,12.2826424 C13.6971903,13.7288366 13.9262218,15.2594987 13.4902811,16.6647387 C13.0933798,17.9471162 12.2188957,19.0579981 11.2624286,19.9897055 C7.94537496,23.2289245 4.70379759,25.9408585 2.7049767,30.2346474 C1.05230578,33.7874217 0.276721632,38.5969772 1.87864124,42.3135682 C3.06023588,45.0562178 5.98299091,47.2600642 8.35659072,48.982699 C9.53948667,49.8414568 10.8954576,51.1007975 10.8941563,52.6685744 C10.8941563,54.1800393 9.81926955,56.1023257 8.33967361,56.641129 C11.0958602,57.8185614 14.5599626,55.8642796 16.5626874,54.1659613 C20.4757437,50.8461138 23.375075,46.0352785 23.8552605,40.9262457 C24.1675763,37.6153569 23.8799855,34.2327983 23.8617671,30.911671 C23.8461513,28.2202141 23.8370421,25.5287571 23.7771816,22.8373002 C23.7121158,19.9308339 23.4843856,16.915583 22.2325199,14.2369243 C21.8725709,13.4653225 21.429074,12.7315873 20.8828843,12.045949 Z" id="Fill-1" fill="#EF832B"></path>
                        <path d="M40.4954613,85.5226897 C40.4984613,85.5076897 40.5014613,85.4926897 40.5044613,85.4776897 C40.5054613,85.4726897 40.4964613,85.5186897 40.4954613,85.5226897" id="Fill-3" fill="#B38273"></path>
                        <path d="M43.4808283,75.574105 C43.5548283,75.274105 43.5028283,75.512105 43.4808283,75.574105" id="Fill-5" fill="#B38273"></path>
                        <path d="M31.4474148,39 C24.5787668,38.344413 20.6200808,33.3135785 19,30.5206506 L20.1352933,28.5538897 C20.8414506,27.3420085 21.4090973,26.074116 21.8518369,24.7336634 L23.083593,21 L28.0402983,23.1946252 C27.3910293,25.0468175 27.4874921,26.9422914 28.2208569,28.8810467 C28.55353,29.7785007 29.2460836,30.5206506 30.0623076,30.9751061 L30.089515,30.9903819 L32.0150615,31.9171146 C36.7912081,38.3724187 31.4474148,39 31.4474148,39" id="Fill-7" fill="#ECDBD3"></path>
                        <path d="M15.8907756,21.1641864 C14.9566491,19.8408303 14.5519037,17.7420294 15.7057492,17.1248119 C16.0513889,16.9417389 16.5126701,16.9012013 17.0099286,16.9718152 C16.1875889,12.4237593 17.3080268,6.48827174 20.1926404,4.94653571 C23.9664089,2.92750228 28.169336,3.44141428 33.0249952,13.5091205 C34.9459294,17.4935732 34.0002387,22.960917 30.4371948,25.2911745 C27.7607359,27.0408291 23.0849635,25.3186354 20.1206857,22.6614619 C18.6918704,22.8366889 17.0741739,22.8432272 15.8907756,21.1641864" id="Fill-9" fill="#ECDBD3"></path>
                        <path d="M17.9235783,30.2036996 C21.4164984,28.8194707 24.0501628,34.9036398 29.7256705,36.000829 C32.1279468,36.4662626 33.6267697,33.2524907 31.6768701,31.7354724 C31.6482715,31.720718 31.6183731,31.7046223 31.6040738,31.6751135 L32.3606349,32.0372665 C34.4717262,33.1170187 36.551619,34.2142079 38.1531366,35.7003762 C40.1758324,37.5621105 41.4120688,39.9952416 40.8738965,43.7334645 L38.8083028,51.9784794 C37.9633464,55.7475524 38.0946396,59.3972491 38.7199074,63 L23.6874815,63 C22.201658,55.7784025 16.453354,43.8984453 16.1478697,42.0514654 C15.3913087,37.4266385 17.8221835,36.2999405 17.0643225,31.6751135 L17.9235783,30.2036996 Z" id="Fill-23" fill="#C8DBFB"></path>
                        <path d="M35.7152208,174.383134 C34.0972538,174.227521 32.6377607,174.002323 31.0210717,173.874543 C32.8665254,165.772502 32.1955675,148.011018 32.0511518,145.927311 C31.8939559,143.846134 31.9936411,141.324684 34.1253702,140.120259 C34.1253702,140.120259 33.4250179,129.285488 32.3655435,118.02436 C31.6217387,110.120949 30.7207381,101.991075 29.7481687,97.2745842 C29.004364,103.548478 28.0024002,111.126745 26.9288676,118.209072 C25.4131417,128.393555 23.7811165,137.600074 22.7369783,140.602282 C18.4300676,152.93879 12.8208597,166.422791 7.78420249,176 C6.42567252,175.176385 5.35980799,174.63237 4,173.782187 C5.84928774,165.544775 9.64499236,139.838129 14.8529036,140.5036 C15.1251208,133.775516 12.1205075,94.2432774 13.0355662,89.4989534 C13.8803342,85.065857 15.3244911,80.6884273 17.6581466,76.793021 C19.7898756,73.2518575 23.0232536,70.1775355 23.7811165,66 L39.1760855,66 C41.2515819,73.6478504 44.9578255,81.2273825 44.8721985,89.5267867 L44.8721985,89.7241506 C44.8006297,100.687967 45.0575107,102.091022 44.9859418,113.93159 L44.9859418,114.05937 C45,114.313666 45,114.541394 45,114.766591 C45,115.262531 44.8568623,116.637752 44.9003148,117.415821 C45.6862941,131.126285 35.7855117,174.087089 35.7152208,174.383134 Z" id="Fill-25" fill="#0B43A4"></path>
                        <path d="M24,62 L39.1225891,62 C39.3566525,63.3477673 39.6639425,64.6671177 40,66 L24.2484472,66 C24.262831,65.9391069 24.262831,65.8930988 24.2772148,65.8322057 C24.4393593,64.8470907 24.3059823,63.5304465 24,62 Z" id="Fill-27" fill="#333072"></path>
                        <path d="M47.7109268,87.557069 C48.0888232,87.3365542 48.1006736,86.7818852 47.7201437,86.565429 C43.8279417,84.3399888 41.679067,83.2482378 38.9903402,81.5598795 C37.104808,79.4399616 35.7117262,79.9256352 34.3647293,80.4559529 L34,80.554711 L34.9993848,81.9670877 C36.6913603,84.356223 39.032475,86.1947478 41.7501695,87.1579779 C43.8845604,87.9142217 46.2704433,88.3985424 47.7109268,87.557069 Z" id="Fill-29" fill="#ECDBD3"></path>
                        <path d="M40,80.7465138 C30.9254966,66.2041867 24.4808249,49.9280158 26.7126964,35.7636103 C27.0054632,33.9008136 26.4009188,32.009928 25.0688932,30.6859251 C22.1082731,27.7404335 17.1210984,28.8052536 15.6014993,32.7070404 C13.9665679,36.9050362 13.5787469,41.4873375 14.4595821,45.9087668 C16.875225,58.0507801 26.2057409,71.7159712 35.1636446,83 L40,80.7465138 Z" id="Fill-31" fill="#C7EAEF"></path>
                        <path d="M31.0210717,173.874543 C28.6164685,179.510182 32.9055494,179.071593 42.6171862,178.980272 C43.9675662,178.961046 44.9017332,177.659721 42.6052944,177.030087 L35.7152208,174.383134 C34.939896,174.144842 33.3751796,173.975312 31.0210717,173.874543 Z" id="Fill-33" fill="#333072"></path>
                        <path d="M1.59386543,177.565562 C-0.255970146,182.102776 5.16800816,181.380755 14.2727314,180.641645 C15.6231114,180.62242 16.2931179,180.179153 13.6881508,179.328655 L6.77123031,176.291123 C6.77123031,176.291123 3.13720314,175.865117 2.43030169,175.909576 L1.59386543,177.565562 Z" id="Fill-35" fill="#333072" transform="translate(8.348573, 178.547931) rotate(24.000000) translate(-8.348573, -178.547931) "></path>
                        <g id="Group-39" transform="translate(13.000000, 0.000000)">
                            <mask id="mask-2" fill="white">
                                <use xlink:href="#path-1"></use>
                            </mask>
                            <g id="Clip-38"></g>
                            <path d="M17.6488625,4.5333 C13.880925,-0.651985714 6.014925,0.791871429 2.6079875,5.65187143 C0.6486125,8.44958571 0.058425,12.7927286 2.571175,15.3911571 C3.0164875,15.8514429 4.2562375,16.8658714 4.2562375,16.8658714 C5.0103,16.8658714 5.7643625,16.6961571 6.432925,16.3130143 C8.974175,14.8601571 11.1746125,12.0315857 11.524925,8.80572857 C11.9916125,9.23901429 12.4832375,9.87287143 12.9511125,10.3755857 C13.4403625,10.9001571 13.7966125,11.4671571 13.7752375,12.2411571 C15.0138,11.2293 16.298675,9.70444286 16.71905,8.01758571 C17.2498625,8.99472857 17.799675,9.97187143 18.2259875,11.0055857 C18.953925,8.79415714 19.0619875,6.47987143 17.6488625,4.5333" id="Fill-37" fill="#EF832B" mask="url(#mask-2)"></path>
                        </g>
                    </g>
                    <g id="Group-33" transform="translate(116.000000, 280.000000) scale(-1, 1) translate(-116.000000, -280.000000) translate(68.000000, 197.000000)">
                        <path d="M-2.12636893,11.5532185 C-2.51604377,11.3333547 -2.52641557,10.7775109 -2.13683383,10.5603682 C1.87432301,8.3378539 4.0888179,7.24580807 6.85943146,5.55970487 C8.80199292,3.43897489 10.2362866,3.92612012 11.6257311,4.45670091 L12,4.55517077 L10.9711189,5.96691763 C9.22855534,8.35602742 6.81812376,10.1942649 4.01659573,11.1558508 C1.81740929,11.9118393 -0.640732707,12.3956022 -2.12636893,11.5532185 Z" id="Fill-20-Copy" fill="#E3B888" transform="translate(4.788063, 7.998511) rotate(86.000000) translate(-4.788063, -7.998511) "></path>
                        <g id="Group-3" transform="translate(5.000000, 9.000000)">
                            <mask id="mask-4" fill="white">
                                <use xlink:href="#path-3"></use>
                            </mask>
                            <g id="Clip-2"></g>
                            <path d="M2.99716667,0.787811538 C2.99716667,0.787811538 16.3736481,18.3679269 34.0797593,20.5306962 L31.707537,32.35485 C31.707537,32.35485 2.57587037,18.1331192 -0.00116666667,4.73892692 L2.99716667,0.787811538 Z" id="Fill-1" fill="#5193F4" mask="url(#mask-4)"></path>
                        </g>
                        <path d="M36.4851582,75 L31.3167871,98.5507432 C27.347906,112.105331 26.9347038,126.390313 30.110611,140.133265 L36.2270739,160 L42.5508066,160 L40.971545,150.534341 C34.6063583,103.653255 59,76.1404408 59,76.1404408 L36.4851582,75 Z" id="Fill-4" fill="#D8742A"></path>
                        <path d="M60.2551934,84.7691829 C60.0949691,81.0514235 59.6299277,77.6646712 58.4940284,75 L37,75.7657894 C52.9051955,114.087211 60.0298372,136.383288 87.1533409,151 L94,151 C73.4001015,129.557385 63.1327181,108.863689 60.5821552,88.6249685 C60.532655,87.237039 60.256496,84.7998554 60.2551934,84.7691829 Z" id="Fill-6" fill="#EF832B"></path>
                        <path d="M24.9500647,164.681328 C24.8013165,164.158809 28.5603196,162.598367 36.2270739,160 C36.2270739,160 41.6406054,159.951821 42.5508066,160 C43.2392928,161.406216 43.6243721,163.962206 41.6524146,164.681328 C36.8090043,166.447594 25.1731871,165.465105 24.9500647,164.681328 Z" id="Fill-8" fill="#333072"></path>
                        <path d="M45.3239501,19 C45.3239501,19 46.6671127,25.6821627 46.9971028,31.3615841 C47.1530747,34.0351637 40.960605,36.1371094 40.7169795,35.99301 C40.4282382,35.8215198 40.2155493,35.4678213 40.2593761,35.0581503 C40.5455394,32.3393163 40.7169795,27.4601824 39,23.4146813 L45.3239501,19 Z" id="Fill-10" fill="#DDA76B"></path>
                        <path d="M50.9689017,14.7721463 C50.8430286,12.9683309 50.3422726,11.1670418 49.6937527,9.50596534 C48.8153775,7.25245926 47.4622419,4.83347712 45.0870717,3.65240751 C44.7518663,3.48566827 44.3975062,3.35303478 44.0280961,3.26840199 C39.2107146,2.170702 35.6082818,4.18673098 33.3726666,14.0622414 C33.3726666,14.0622414 31.0125464,17.1620754 31.0002327,17.5334492 C30.9865509,17.9427182 31.5789752,18.163774 32.0263719,18.2951443 C32.0660493,18.3065129 32.1057267,18.3052497 32.1412995,18.2964075 C32.5079733,21.9444599 34.4042785,25.6165127 38.0258658,26.7571607 C40.342204,27.4885396 42.892502,26.4464194 44.7874391,25.245139 C47.4663465,23.5474303 49.8757214,21.2825557 50.6679008,18.2888284 C50.9730062,17.1418646 51.052361,15.9557423 50.9689017,14.7721463" id="Fill-12" fill="#E3B888"></path>
                        <path d="M13.2886309,90.5565721 C12.9104892,90.3367668 12.9005381,89.7808638 13.2786798,89.5636144 C17.1720469,87.3400026 19.3214841,86.2473657 22.0107683,84.5604878 C23.8965013,82.4391111 25.2884112,82.9260054 26.6367849,83.4563496 L27,83.5547508 L26.0011585,84.9668721 C24.3094719,87.3566158 21.96972,89.1955683 19.2505825,90.1578555 C17.116072,90.9143947 14.7302962,91.3987331 13.2886309,90.5565721 Z" id="Fill-20" fill="#E3B888"></path>
                        <path d="M58.4940284,75 C52.9525534,75.5779569 48.7878772,75.8669354 46,75.8669354 C43.8970172,75.8669354 40.7254032,75.5779569 36.4851582,75 C35.3530016,67.8080413 34.6727662,62.4140723 34.4444519,58.818093 C34.3313562,57.0368196 34.1617125,54.3649096 33.9355209,50.8023629 C33.9355209,50.8023629 33.081138,49.7299547 32.0131593,48.3875429 C29.5375075,45.2729956 29.3251985,40.9529397 31.4868903,37.6190937 L35.7433643,31.0566144 C36.7830351,29.4518049 38.4943744,28.3895377 40.4141626,28.1562952 L41.1707547,28.0650264 C43.6515534,27.7620647 46.1902545,28.5213703 47.9556361,30.2668859 C56.2588485,38.4810767 52.6291528,50.0582688 58.4940284,75 Z" id="Fill-22" fill="#0056EC"></path>
                        <path d="M22,83.6207662 C31.6010771,68.2545095 38.4215283,51.0569946 36.0602131,36.0896131 C35.7498471,34.1219982 36.3895811,32.1263474 37.7995295,30.7258236 C40.2355859,28.3058102 42.4828891,28.5492133 44.1183279,30.7181774 C44.9531491,31.8230492 45.3939955,33.1738729 45.5472783,34.554007 C45.8475099,37.2569287 46.3402951,42.9354857 45.6498891,46.4004759 C43.0922199,59.2282036 36.5948027,74.0783437 27.117872,86 L22,83.6207662 Z" id="Fill-24" fill="#5193F4"></path>
                        <g id="Group-28" transform="translate(77.000000, 150.000000)">
                            <mask id="mask-6" fill="white">
                                <use xlink:href="#path-5"></use>
                            </mask>
                            <g id="Clip-27"></g>
                        </g>
                        <path d="M86.2333077,150.817375 L83.8683846,157.076125 C83.1857692,158.884875 81.7607192,160.572375 79.784873,161.256125 C79.3833346,161.393625 78.1530109,162.248652 77,162.781017 C75.6396914,163.409094 77.9538548,163.734943 79.4478548,163.734943 L83.3422308,164.107375 C85.7126923,164.107375 87.9266923,163.036125 89.2406923,161.256125 L93.5108462,155.469875 C93.5108462,155.469875 95.7248462,152.952375 93.5108462,150.817375 L86.2333077,150.817375 Z" id="Fill-26" fill="#333072"></path>
                        <path d="M51.2597097,4.71731629 C50.6980007,4.05729233 50.0694215,3.44135641 49.3646104,2.91100317 C47.9496387,1.84640657 46.1401332,1.28363565 44.354701,1.08394274 C40.057627,0.602864373 34.5716022,2.18873727 32.3448272,5.86360545 C32.2057374,6.09441933 31.6400161,7.6050832 32.3515142,8.5957675 C32.8570523,9.29728609 34.1491255,10.3445703 34.6747247,11.0149679 C34.835213,10.5663073 34.7689283,9.09465962 35.279816,9 C35.3025519,9.81433212 35.8354475,10.0895742 36.3463353,10.6743891 C36.9441541,11.3590505 37.2584437,12.1993168 37.4911517,13.0434732 C37.631579,13.5517824 37.6021561,14.0639817 37.7158353,14.5307963 C38.9007739,19.3610306 42.6936472,14.7551267 42.6936472,14.7551267 C43.6218044,14.616379 44.5272259,15.3438317 44.8254666,16.1075923 C45.1865653,17.0360346 44.8428528,18.0798839 44.1674646,18.7956663 C43.8919597,19.0861287 43.6017434,19.2430302 43.291466,19.3299096 C42.4301789,19.5710972 41.83236,20.3309676 41.839047,21.2023548 C41.8443966,21.7430817 41.8336974,22.2280502 41.8336974,22.3214131 C41.8336974,23.6233071 42.6575373,24.7747831 43.7742683,25.5139062 C44.9712435,26.3087877 46.7392895,26.0079517 47.993773,25.4711149 C50.021275,24.6023211 51.9364353,22.9918107 53.0906136,21.228289 C54.6379882,18.863095 55.188998,16.1127791 54.9442533,13.3845072 C54.6633988,10.2555527 53.3340208,7.15901593 51.2597097,4.71731629 Z" id="Fill-29" fill="#333072"></path>
                        <path d="M54.998244,13 C54.4174361,14.868436 57.1473634,18.9433829 57.9568563,20.7444444 C59.4472069,24.0566171 60.2878842,26.3208776 59.9097743,30 C59.6083259,29.1012739 59.5212696,27.8524416 58.6922865,27.2099788 C57.337068,26.1596603 57.2967882,27.1257608 55.8869971,27.8993631 C54.2355275,28.806511 51.6745153,29.0242746 49.7579791,28.8101203 C50.5856629,28.2109696 51.2743166,27.3976645 51.3704682,26.4255485 C48.8705253,26.6264685 46.0561405,28.2855626 43.3846838,28.6753715 C40.6560559,29.0748054 37.740322,29.3996461 35,29.3298655 C39.6789472,28.6007785 41.1952847,24.2202406 42.7467046,20.7444444" id="Fill-31" fill="#333072"></path>
                    </g>
                    <g id="Group-26" transform="translate(43.000000, 212.000000)">
                        <path d="M46.3974918,97.157812 C48.5905464,97.9143902 51.0417578,98.3987537 52.5229643,97.5565492 C52.9114775,97.3367325 52.9217015,96.7808008 52.5331883,96.5635402 C48.5330363,94.3398135 46.3246456,93.2483982 43.5616013,91.5601551 C41.6254254,89.4399467 40.1940611,89.9255881 38.808705,90.4559597 L38.4355278,90.554366 L39.4617649,91.9665603 C41.1998502,94.3564275 43.6050534,96.1954751 46.3974918,97.157812" id="Fill-1" fill="#E3B888"></path>
                        <path d="M20.4178851,179.175525 C18.5672579,184.035507 22.9040955,184.07513 32.6174334,183.979488 C35.0186651,183.979488 36,183.499686 32.6062089,181.889027 L25.7280931,178.773005 C25.7280931,178.773005 21.4502364,178.952179 20.7430975,179 L20.4178851,179.175525 Z" id="Fill-1" fill="#4D44D2"></path>
                        <path d="M7.62292802,174 L8.40032988,178.710042 C8.81171695,180.070721 8.8695128,180.871651 10.0622844,181.386503 C10.3018422,181.489756 12.107303,182.25899 12.326793,182.428721 C13.0680423,183.004393 11.2784005,183.504184 10.3766099,183.504184 C9.47481937,183.504184 6.81252147,182.871332 5.16567365,181.855728 C3.51882583,180.840125 2.43394105,179.467481 1.51074122,177.813247 C0.587541377,176.159013 1.433869,175.606789 2.76586005,174 L7.62292802,174 Z" id="Fill-4" fill="#4D44D2"></path>
                        <path d="M24.8255679,22 C24.8255679,22 22.7879038,28.9035297 22.0134411,34.9151012 C21.6487669,37.7448923 28.823199,41.1083445 29.1214549,40.9973228 C29.4735973,40.8661153 29.749296,40.5267423 29.7242325,40.0801323 C29.5700919,37.1203954 29.699169,31.8733595 32,27.8589167 L24.8255679,22 Z" id="Fill-6" fill="#DDA76B"></path>
                        <path d="M22.5004067,23.9620656 C24.7734482,27.9802164 29.3764639,31.6869775 33.1382977,30.891506 C37.0253836,30.0674792 39.8905261,25.7460973 40.7245914,21.885681 C40.7601744,21.8965593 40.8000273,21.9033582 40.8427269,21.8951995 C41.3223856,21.8040942 41.9628795,21.6327619 41.9984625,21.1935529 C42.0326221,20.7951372 41.4917607,20.4334357 40.9565925,20.1764372 C40.9864822,19.6230066 40.9793656,19.9126398 40.9210095,19.3632886 C39.547506,6.68605673 34.9843433,4.45601703 29.8660859,5.09919311 C25.9548035,5.5900738 22.2427859,11.4724834 21.3062416,16.6505268 C20.7710734,16.377211 20.8038097,23.5772477 22.5004067,23.9620656" id="Fill-8" fill="#E3B888"></path>
                        <path d="M35.0361895,3.20842397 C33.9086105,2.68550661 32.6729263,2.38745702 31.4235579,2.32625041 C30.0578737,2.25972149 28.9084,2.70546529 27.6084,2.8717876 C27.6152421,2.08408512 28.2802947,1.17130826 28.8194526,0.607142975 C26.6573474,0.206638843 24.3077684,1.7075314 23.8315579,3.79653967 C23.3129263,3.11395289 22.2291368,3.29225041 21.4067158,3.57300248 C20.1299789,4.00943223 17.7626105,4.57226694 17.1167158,5.93211818 C17.9582947,6.17029174 18.8422947,5.84696116 19.7071368,5.7205562 C20.4200842,5.6154405 21.6133474,5.71390331 21.8911368,6.50160579 C21.7406105,6.07715124 18.5275579,8.69972149 18.2675579,8.97515124 C17.1044,10.2112587 16.2149263,11.6935231 15.7072421,13.2955397 C14.8684,15.9420603 15.3966105,18.7203083 16.5419789,21.1965149 C17.1331368,22.4712091 17.8761895,23.6753826 18.6890316,24.8276636 C19.0886105,25.3931595 19.5100842,25.9413579 19.9356632,26.4882256 C20.1039789,26.7051099 21.1179789,27.5939364 21.1138737,27.7376388 C21.1357684,26.8674405 21.2110316,26.739705 21.4422947,25.9067628 C21.7255579,26.2008207 23.0681216,27.5624586 23.3951742,27.9044173 C23.8029637,26.9038223 24.093069,24.5952686 24.0137005,23.5201611 C23.963069,22.822938 23.4429263,22.8171595 22.9284,22.291581 C22.4316632,21.7846306 22.0608211,21.1978455 21.9882947,20.4926388 C21.8582947,19.1966554 22.3741895,17.5134736 23.8425053,17.2540107 C24.6088211,17.1182917 25.3409263,17.3165479 25.9676632,17.7343496 C26.2249263,17.9046636 26.4685053,18.1215479 26.6327158,18.3836719 C26.7285053,18.5340273 26.7887158,19.0170273 26.9474526,19.0942008 C27.3826105,19.3017711 28.5799789,17.979176 28.9179789,17.7516471 C29.7212421,17.2140934 30.4547158,16.0391926 31.3058737,15.6879198 C31.5864,16.3811512 31.4427158,17.2021182 31.3359789,17.9033331 C32.8316632,16.7337545 33.5733474,14.9521099 34.5462947,13.3940025 C35.2387158,13.8490603 35.6341895,14.9068702 36.2787158,15.4963165 C36.9246105,15.2009281 37.0888211,14.2814983 37.4076632,13.7146719 C37.6594526,14.1803744 38.1247158,14.598176 38.5092421,14.9680769 C39.3097684,15.7358207 39.4808211,14.0127215 39.5766105,13.5243992 C39.7545053,12.615614 39.8229263,11.6868702 39.7818737,10.7621182 C39.7531368,10.1207793 39.6833474,9.41823388 39.5451368,8.72101074 C39.0620842,6.27274628 37.3296632,4.2715562 35.0361895,3.20842397 Z" id="Fill-16" fill="#26238B"></path>
                        <g id="Group-21" transform="translate(1.000000, 83.000000)"></g>
                        <path d="M29.7428479,168.674119 C28.464532,172.063358 27.1019315,175.418182 25.7280931,178.773005 C25.586214,179.132303 21.2511779,178.957472 20.6948997,178.957472 L22.8385372,167.3622 C28.1456554,144.610798 23.9398555,123.475547 19.7593411,110.2655 C23.407458,155.382851 7.60691142,174.036055 7.60691142,174.036055 L2.69171649,174.036055 C13.2680248,146.734923 2.25203201,111.728847 2.25203201,111.728847 C2.06239174,111.147913 1.88539415,110.555966 1.7196345,109.975033 C-0.530763404,102.382972 -0.460526265,89.6842941 1.27995002,82 L30.5048751,88.6389523 C30.3391155,89.5654177 29.7428479,99.0642952 32.396407,109.835994 C36.0459286,123.984897 37.3003639,138.274215 34.3869274,152.655766 C33.2856091,158.111312 31.7108925,163.462235 29.7428479,168.674119 Z" id="Fill-19" fill="#282828"></path>
                        <path d="M39.9320894,47.6577677 L39.9320894,47.7259978 C38.9391241,57.2645651 35.5691483,64.9854826 31.130608,90 L1,83.3270967 C1.34310367,81.8765249 1.76035262,80.4382345 2.23720856,79.0122255 C7.8402659,62.5919709 9.21268057,56.171519 12.7440314,41.2823477 C14.1542457,35.3231312 20.1600137,31.3412228 26.6077457,32.0903893 C34.8087956,33.044246 40.7040726,39.9368502 39.9320894,47.6577677" id="Fill-22" fill="#7EE8D4"></path>
                        <path d="M44,90.4562458 C33.5300091,74.0274355 26.0922955,55.6407384 28.6673137,39.6383851 C29.0057684,37.5360751 28.3081374,35.4010655 26.7705862,33.9036976 C23.3556479,30.5778785 17.6033004,31.7795878 15.8474805,36.1872177 C13.9618046,40.9286557 13.5142156,46.106088 14.5295796,51.0995853 C17.3173407,64.8170559 28.0843429,80.2539791 38.4203334,93 L44,90.4562458 Z" id="Fill-24" fill="#52D2BC"></path>
                    </g>
                    <g id="Group-25" transform="translate(141.000000, 0.000000)">
                        <path d="M80,124 C80,55.5166627 135.517092,0 204,0 C272.482908,0 328,55.5166627 328,124 C328,192.482378 272.482908,248 204,248 C135.517092,248 80,192.482378 80,124" id="Fill-3" fill="#C7EAEF"></path>
                        <path d="M220,247.001171 C220,198.398773 259.398511,159 307.999415,159 C356.600318,159 396,198.398773 396,247.001171 C396,295.600056 356.600318,335 307.999415,335 C259.398511,335 220,295.600056 220,247.001171" id="Fill-6" fill="#C7EAEF"></path>
                        <path d="M23,247.001171 C23,198.398773 62.398511,159 110.999415,159 C159.600318,159 199,198.398773 199,247.001171 C199,295.600056 159.600318,335 110.999415,335 C62.398511,335 23,295.600056 23,247.001171" id="Fill-8" fill="#C7EAEF"></path>
                        <g id="Group-12" transform="translate(0.000000, 308.000000)">
                            <mask id="mask-8" fill="white">
                                <use xlink:href="#path-7"></use>
                            </mask>
                            <g id="Clip-11"></g>
                            <path d="M398,73.9424632 C398,78.7407439 389.360948,82.6283088 378.703456,82.6283088 L343.257261,82.6283088 C351.812212,82.6283088 358.747938,86.5180015 358.747938,91.3141544 C358.747938,96.1124351 351.812212,100 343.257261,100 L54.741674,100 C46.1856592,100 39.2520616,96.1124351 39.2520616,91.3141544 C39.2520616,86.5180015 46.1856592,82.6283088 54.741674,82.6283088 L19.2965439,82.6283088 C8.63905183,82.6283088 0,78.7407439 0,73.9424632 C0,69.1463103 8.63905183,65.2566176 19.2965439,65.2566176 L20.9008632,65.2566176 C16.8384329,63.6649928 14.2355393,61.231807 14.2355393,58.5007235 C14.2355393,53.7056345 22.2571357,49.8148779 32.1523898,49.8148779 L39.9280688,49.8148779 C33.1094456,48.7413822 28.1399947,45.4262065 28.1399947,41.5014044 C28.1399947,36.7031237 35.5569108,32.8155588 44.7080247,32.8155588 L32.8209449,32.8155588 C22.9650802,32.8155588 14.9754211,28.9248021 14.9754211,24.1297132 C14.9754211,19.3314325 22.9650802,15.4438676 32.8209449,15.4438676 L34.3049669,15.4438676 C30.5480705,13.8501149 28.1399947,11.417993 28.1399947,8.68797344 C28.1399947,3.88969274 35.5569108,0 44.7080247,0 L353.291975,0 C362.442025,0 369.858941,3.88969274 369.858941,8.68797344 C369.858941,11.417993 367.451929,13.8501149 363.693969,15.4438676 L365.179055,15.4438676 C375.03492,15.4438676 383.024579,19.3314325 383.024579,24.1297132 C383.024579,28.9248021 375.03492,32.8155588 365.179055,32.8155588 L353.291975,32.8155588 C362.442025,32.8155588 369.858941,36.7031237 369.858941,41.5014044 C369.858941,45.4262065 364.88949,48.7413822 358.070867,49.8148779 L365.84761,49.8148779 C375.742864,49.8148779 383.764461,53.7056345 383.764461,58.5007235 C383.764461,61.231807 381.160503,63.6649928 377.098072,65.2566176 L378.703456,65.2566176 C389.360948,65.2566176 398,69.1463103 398,73.9424632" id="Fill-10" fill="#C8DBFB" mask="url(#mask-8)"></path>
                        </g>
                        <path d="M213.498878,391 C295.789794,391 362.5,380.478607 362.5,367.500758 C362.5,354.521393 295.789794,344 213.498878,344 C131.207963,344 64.5,354.521393 64.5,367.500758 C64.5,380.478607 131.207963,391 213.498878,391 Z" id="Fill-13" fill="#ECF2FE"></path>
                        <g id="Group-19" transform="translate(55.000000, 102.000000)">
                            <polygon id="Fill-15" fill="#6C6E70" points="233.146439 133.379582 244.841354 133.379582 244.841354 50.1996653 233.146439 50.1996653"></polygon>
                            <polygon id="Fill-17" fill="#909090" points="233.146439 133.379582 238.993897 133.379582 238.993897 50.1996653 233.146439 50.1996653"></polygon>
                            <polygon id="Fill-18" fill="#282828" points="227.298981 150.952803 251.858303 150.952803 251.858303 94.7184937 227.298981 94.7184937"></polygon>
                            <path d="M28.485422,220.074142 L326.808037,220.074142 C326.808037,220.074142 351.102245,162.540535 239.558148,132.843008 L161.146834,114.634812 L161.146834,144.339132 L28.485422,144.339132 L28.485422,220.074142 Z" id="Fill-19" fill="#0056EC"></path>
                            <path d="M239.558148,132.910651 L206.225875,125.178745 C208.473178,134.921353 208.51389,145.027816 205.602982,154.664527 C198.705012,177.516755 178.848412,190.01814 156.885644,196.122205 C132.857422,202.795132 106.699961,205.420857 82.2795458,199.601902 C63.8220817,195.204423 43.9817666,188.717497 28.485422,176.983193 L28.485422,220.074142 L326.808037,220.074142 C326.808037,220.074142 351.102245,162.585148 239.558148,132.910651" id="Fill-20" fill="#EBF2FF"></path>
                            <polygon id="Fill-21" fill="#0056EC" points="26.146439 220.074142 55.3837271 220.074142 55.3837271 31.4548954 26.146439 31.4548954"></polygon>
                            <polygon id="Fill-22" fill="#0B43A4" points="9.77355763 244.676653 344.248134 244.676653 344.248134 218.902594 9.77355763 218.902594"></polygon>
                            <path d="M221.098495,239.99046 C219.028092,234.602754 217.890254,228.749223 217.890254,222.627947 C217.890254,195.989945 239.380032,174.394039 265.891522,174.394039 C292.401653,174.394039 313.89143,195.989945 313.89143,222.627947 C313.89143,228.749223 312.754952,234.602754 310.683189,239.99046 L331.501411,239.99046 C332.949198,234.447024 333.72271,228.630377 333.72271,222.632045 C333.72271,184.985035 303.353174,154.467448 265.891522,154.467448 C228.42987,154.467448 198.061693,184.985035 198.061693,222.632045 C198.061693,228.630377 198.833846,234.447024 200.281633,239.99046 L221.098495,239.99046 Z" id="Fill-23" fill="#5193F4"></path>
                            <path d="M315.010846,221.24296 C315.010846,248.417859 293.019701,270.450711 265.892883,270.450711 C238.76334,270.450711 216.773558,248.417859 216.773558,221.24296 C216.773558,194.069427 238.76334,172.040669 265.892883,172.040669 C293.019701,172.040669 315.010846,194.069427 315.010846,221.24296" id="Fill-24" fill="#322F31"></path>
                            <path d="M294.910536,241.462448 C294.117492,241.128232 293.747679,240.223402 294.08462,239.434054 L298.960675,228.04896 C299.297616,227.259612 300.213931,226.891431 301.004235,227.228364 L322.24521,236.173407 C323.036884,236.508982 323.409437,237.416528 323.073865,238.20316 L318.19507,249.590971 C317.860869,250.377602 316.944554,250.744425 316.15151,250.411567 L294.910536,241.462448 Z" id="Fill-25" fill="#322F31"></path>
                            <path d="M209.538244,205.147192 C208.745189,204.812949 208.37537,203.903971 208.710947,203.117278 L213.588442,191.728558 C213.919909,190.940506 214.840347,190.575012 215.632032,190.909255 L236.870575,199.853653 C237.666369,200.191972 238.038927,201.096874 237.697872,201.887644 L232.821746,213.275004 C232.484801,214.058981 231.567103,214.424474 230.776787,214.095666 L209.538244,205.147192 Z" id="Fill-26" fill="#322F31"></path>
                            <path d="M285.057189,250.243157 C284.453025,249.635299 284.453025,248.654005 285.057189,248.048873 L293.821657,239.271739 C294.425822,238.66797 295.405548,238.66797 296.012434,239.271739 L312.218739,255.512163 C312.822904,256.117295 312.822904,257.102678 312.218739,257.70781 L303.452911,266.482218 C302.851468,267.08735 301.86902,267.08735 301.264855,266.482218 L285.057189,250.243157 Z" id="Fill-27" fill="#322F31"></path>
                            <path d="M219.566668,185.809692 C218.961165,185.201908 218.961165,184.220733 219.566668,183.617037 L228.328096,174.839604 C228.933599,174.23182 229.91465,174.23182 230.518793,174.839604 L246.72723,191.07806 C247.331373,191.683119 247.331373,192.668382 246.72723,193.273441 L237.965803,202.048149 C237.358939,202.651844 236.379248,202.651844 235.775105,202.048149 L219.566668,185.809692 Z" id="Fill-28" fill="#322F31"></path>
                            <path d="M273.041092,255.432005 C272.698741,254.643902 273.04512,253.722849 273.819772,253.373342 L285.003235,248.323998 C285.771175,247.977233 286.676056,248.333593 287.017064,249.118955 L296.169245,270.238754 C296.50891,271.024117 296.158504,271.949281 295.387879,272.294676 L284.205759,277.346761 C283.436476,277.694897 282.531596,277.337167 282.189245,276.549064 L273.041092,255.432005 Z" id="Fill-29" fill="#322F31"></path>
                            <path d="M235.616183,171.081313 C235.275171,170.293212 235.624238,169.37079 236.394871,169.021285 L247.575758,163.973325 C248.346391,163.62519 249.24591,163.981548 249.593635,164.768279 L258.744563,185.888022 C259.085574,186.676123 258.736507,187.598545 257.961847,187.94668 L246.782302,192.99464 C246.011669,193.344145 245.105437,192.985045 244.763083,192.201056 L235.616183,171.081313 Z" id="Fill-30" fill="#322F31"></path>
                            <path d="M301.126548,214.087699 C300.336817,214.427798 299.419798,214.070154 299.074889,213.294136 L294.09014,202.029048 C293.7466,201.25168 294.106564,200.344751 294.894927,200.006002 L316.031523,190.915115 C316.823991,190.573667 317.739641,190.929961 318.083181,191.708678 L323.066562,202.976465 C323.41147,203.753833 323.050138,204.660763 322.261775,204.996812 L301.126548,214.087699 Z" id="Fill-31" fill="#322F31"></path>
                            <path d="M216.922417,250.40664 C216.13405,250.744042 215.215657,250.390444 214.870747,249.613068 L209.885967,238.345166 C209.543794,237.56779 209.90376,236.660852 210.690759,236.32075 L231.831588,227.22977 C232.619955,226.895067 233.53698,227.247315 233.880522,228.02739 L238.863932,239.293943 C239.207474,240.069969 238.846139,240.976908 238.06051,241.31701 L216.922417,250.40664 Z" id="Fill-32" fill="#322F31"></path>
                            <path d="M286.297566,192.154531 C285.972829,192.954224 285.063018,193.337582 284.268303,193.013308 L272.710683,188.289346 C271.910487,187.959575 271.529572,187.048584 271.857049,186.248891 L280.568768,164.813811 C280.896245,164.014117 281.807427,163.629385 282.603512,163.956408 L294.158392,168.677621 C294.954477,169.007392 295.338132,169.918383 295.014766,170.718076 L286.297566,192.154531 Z" id="Fill-33" fill="#322F31"></path>
                            <path d="M251.211737,277.677359 C250.885647,278.475552 249.971773,278.864344 249.17984,278.533252 L237.624193,273.812789 C236.828149,273.485819 236.445884,272.570851 236.770604,271.772659 L245.487349,250.339614 C245.810699,249.540048 246.723203,249.152629 247.520617,249.478225 L259.074893,254.204184 C259.870937,254.528406 260.254572,255.442 259.928482,256.24294 L251.211737,277.677359 Z" id="Fill-34" fill="#322F31"></path>
                            <path d="M296.010233,202.048078 C295.404789,202.651868 294.425193,202.651868 293.821109,202.048078 L285.055088,193.27335 C284.453725,192.662744 284.453725,191.682777 285.055088,191.076261 L301.264675,174.836609 C301.87148,174.232818 302.849716,174.232818 303.456521,174.836609 L312.21982,183.616788 C312.822544,184.221942 312.822544,185.204635 312.21982,185.807063 L296.010233,202.048078 Z" id="Fill-35" fill="#322F31"></path>
                            <path d="M230.517198,266.482235 C229.9186,267.087344 228.934994,267.087344 228.326873,266.482235 L219.569652,257.706782 C218.96017,257.096221 218.96017,256.117688 219.569652,255.507127 L235.7767,239.272744 C236.38074,238.667635 237.361625,238.667635 237.968386,239.272744 L246.728328,248.048197 C247.331007,248.657395 247.331007,249.638654 246.728328,250.243764 L230.517198,266.482235 Z" id="Fill-36" fill="#322F31"></path>
                            <path d="M300.170258,228.274979 C299.325411,228.274979 298.637964,227.591396 298.637964,226.753973 L298.637964,214.569873 C298.637964,213.731112 299.325411,213.044854 300.170258,213.044854 L322.835829,213.044854 C323.680676,213.044854 324.366778,213.731112 324.366778,214.569873 L324.366778,226.753973 C324.366778,227.591396 323.680676,228.274979 322.835829,228.274979 L300.170258,228.274979 Z" id="Fill-37" fill="#322F31"></path>
                            <path d="M208.948414,228.274979 C208.103655,228.274979 207.417625,227.591396 207.417625,226.753973 L207.417625,214.569873 C207.417625,213.731112 208.103655,213.044854 208.948414,213.044854 L231.614305,213.044854 C232.460409,213.044854 233.146439,213.731112 233.146439,214.569873 L233.146439,226.753973 C233.146439,227.591396 232.460409,228.274979 231.614305,228.274979 L208.948414,228.274979 Z" id="Fill-38" fill="#322F31"></path>
                            <path d="M274.078642,185.7347 C274.078642,186.579552 273.393769,187.270795 272.556701,187.270795 L260.398529,187.270795 C259.560126,187.270795 258.875253,186.579552 258.875253,185.7347 L258.875253,163.031484 C258.875253,162.182589 259.560126,161.496736 260.398529,161.496736 L272.556701,161.496736 C273.393769,161.496736 274.078642,162.182589 274.078642,163.031484 L274.078642,185.7347 Z" id="Fill-39" fill="#322F31"></path>
                            <path d="M274.078642,278.289536 C274.078642,279.135824 273.393769,279.823096 272.556701,279.823096 L260.398529,279.823096 C259.560126,279.823096 258.875253,279.135824 258.875253,278.289536 L258.875253,255.585293 C258.875253,254.73631 259.560126,254.049038 260.398529,254.049038 L272.556701,254.049038 C273.393769,254.049038 274.078642,254.73631 274.078642,255.585293 L274.078642,278.289536 Z" id="Fill-40" fill="#322F31"></path>
                            <path d="M304.485422,221.247727 C304.485422,242.597829 287.209871,259.906778 265.893557,259.906778 C244.578597,259.906778 227.298981,242.597829 227.298981,221.247727 C227.298981,199.894909 244.578597,182.584603 265.893557,182.584603 C287.209871,182.584603 304.485422,199.894909 304.485422,221.247727" id="Fill-41" fill="#0B43A4"></path>
                            <path d="M299.807456,221.247736 C299.807456,240.010042 284.627087,255.220586 265.892882,255.220586 C247.160038,255.220586 231.976947,240.010042 231.976947,221.247736 C231.976947,202.484066 247.160038,187.270795 265.892882,187.270795 C284.627087,187.270795 299.807456,202.484066 299.807456,221.247736" id="Fill-42" fill="#909090"></path>
                            <path d="M284.604066,220.661299 C284.604066,231.335963 276.226558,239.99046 265.89354,239.99046 C255.559184,239.99046 247.180337,231.335963 247.180337,220.661299 C247.180337,209.982487 255.559184,201.329372 265.89354,201.329372 C276.226558,201.329372 284.604066,209.982487 284.604066,220.661299" id="Fill-43" fill="#EBF2FF"></path>
                            <polygon id="Fill-44" fill="#282828" points="86.9599983 132.208033 70.7770928 143.923515 62.1952028 74.5448157 69.1123857 73.3907196"></polygon>
                            <polygon id="Fill-45" fill="#282828" points="129.061693 91.2038494 146.119335 144.335769 151.270696 144.335769 134.287281 91.2038494"></polygon>
                            <polygon id="Fill-46" fill="#282828" points="78.7735576 144.366003 129.061693 144.366003 129.061693 132.208033 78.7735576 132.208033"></polygon>
                            <path d="M27.0274904,232.961172 C24.6393041,226.762434 23.3260724,220.028388 23.3260724,212.988064 C23.3260724,182.331823 48.1515668,157.482664 78.7742346,157.482664 C109.396902,157.482664 134.223751,182.331823 134.223751,212.988064 C134.223751,220.028388 132.909165,226.762434 130.518271,232.961172 L154.561242,232.961172 C156.235951,226.584901 157.12949,219.890156 157.12949,212.988064 C157.12949,169.666016 122.048604,134.55113 78.7742346,134.55113 C35.4998656,134.55113 0.417625424,169.666016 0.417625424,212.988064 C0.417625424,219.890156 1.31116452,226.584901 2.98858108,232.961172 L27.0274904,232.961172 Z" id="Fill-47" fill="#5193F4"></path>
                            <path d="M134.909151,212.459079 C134.909151,243.837801 109.508988,269.279163 78.1874553,269.279163 C46.8618534,269.279163 21.4684729,243.837801 21.4684729,212.459079 C21.4684729,181.076281 46.8618534,155.638996 78.1874553,155.638996 C109.508988,155.638996 134.909151,181.076281 134.909151,212.459079" id="Fill-48" fill="#322F31"></path>
                            <path d="M111.451751,235.414655 C110.528433,235.030733 110.106501,233.988082 110.492815,233.084181 L116.147796,219.985031 C116.5437,219.08113 117.604009,218.660836 118.524587,219.044758 L143.162388,229.333869 C144.082967,229.717791 144.511748,230.764484 144.119954,231.669731 L138.466343,244.763493 C138.077289,245.667394 137.01424,246.087688 136.096401,245.709154 L111.451751,235.414655 Z" id="Fill-49" fill="#322F31"></path>
                            <path d="M13.2180967,193.241986 C12.2975385,192.855396 11.8660269,191.81147 12.2564422,190.907633 L17.9140395,177.81074 C18.3044548,176.904208 19.3688502,176.485291 20.282559,176.869186 L44.9266692,187.157581 C45.8444876,187.541477 46.2732595,188.582708 45.8842141,189.48924 L40.2266168,202.586133 C39.8362015,203.489971 38.7772856,203.914276 37.8539876,203.531728 L13.2180967,193.241986 Z" id="Fill-50" fill="#322F31"></path>
                            <path d="M100.353975,246.289502 C99.6478818,245.582167 99.6478818,244.434804 100.353975,243.731581 L110.577276,233.491673 C111.280633,232.784338 112.42735,232.784338 113.133443,233.491673 L132.040598,252.440301 C132.746691,253.143523 132.746691,254.290887 132.040598,254.996851 L121.81456,265.234018 C121.108467,265.941353 119.967223,265.941353 119.261129,265.234018 L100.353975,246.289502 Z" id="Fill-51" fill="#322F31"></path>
                            <path d="M25.5065755,170.138874 C24.8004048,169.431539 24.8004048,168.285547 25.5065755,167.578212 L35.7309978,157.341045 C36.4344314,156.63371 37.5812747,156.63371 38.2833398,157.341045 L57.1966734,176.289673 C57.8987385,176.992896 57.8987385,178.140259 57.1925678,178.847594 L46.9708826,189.08339 C46.2633433,189.790725 45.1206057,189.790725 44.4158035,189.08339 L25.5065755,170.138874 Z" id="Fill-52" fill="#322F31"></path>
                            <path d="M87.1108206,251.907575 C86.718157,250.99466 87.118807,249.922739 88.0039638,249.51974 L100.866025,243.659813 C101.755175,243.256814 102.794735,243.668037 103.186068,244.580952 L113.708121,269.082988 C114.099453,269.994532 113.700134,271.065083 112.810984,271.470823 L99.952916,277.325267 C99.0664281,277.728266 98.028199,277.317043 97.6355354,276.405499 L87.1108206,251.907575 Z" id="Fill-53" fill="#322F31"></path>
                            <path d="M43.837224,153.497048 C43.4485859,152.585526 43.8492025,151.51226 44.7356168,151.109272 L57.5939479,145.249489 C58.4816931,144.8465 59.518505,145.259084 59.912467,146.174718 L70.4376385,170.672037 C70.8289385,171.58493 70.4256599,172.654083 69.5352528,173.059813 L56.6782526,178.915484 C55.7918383,179.318473 54.7550264,178.905889 54.3597336,177.992997 L43.837224,153.497048 Z" id="Fill-54" fill="#322F31"></path>
                            <path d="M118.660633,203.525157 C117.747665,203.914544 116.682765,203.505085 116.284454,202.613909 L110.500046,189.657065 C110.101735,188.761874 110.523315,187.720831 111.436282,187.328767 L135.954999,176.874174 C136.872073,176.484786 137.934236,176.894246 138.332547,177.785422 L144.114217,190.743604 C144.512528,191.637456 144.095054,192.681176 143.180718,193.071902 L118.660633,203.525157 Z" id="Fill-55" fill="#322F31"></path>
                            <path d="M21.5939193,245.701093 C20.6754039,246.09046 19.6117876,245.679685 19.2148137,244.789894 L13.4340525,231.832407 C13.032972,230.942616 13.4532168,229.898952 14.3689945,229.505571 L38.8855545,219.051539 C39.8013322,218.658158 40.8690551,219.071609 41.2646601,219.966752 L47.0454213,232.920225 C47.4451329,233.815368 47.0289948,234.859032 46.1118482,235.24706 L21.5939193,245.701093 Z" id="Fill-56" fill="#322F31"></path>
                            <path d="M102.530535,177.94181 C102.158372,178.869255 101.113868,179.313055 100.194325,178.935207 L86.9091642,173.451603 C85.9882626,173.075129 85.549544,172.01578 85.9244243,171.088335 L95.9483978,146.224565 C96.3205615,145.295746 97.370498,144.851946 98.2859666,145.229794 L111.569769,150.710651 C112.489312,151.089873 112.930747,152.149221 112.554509,153.076666 L102.530535,177.94181 Z" id="Fill-57" fill="#322F31"></path>
                            <path d="M61.5998385,276.353138 C61.2276766,277.275123 60.1791036,277.724436 59.2595648,277.345199 L45.9771873,271.864128 C45.054932,271.486265 44.6202904,270.426876 44.9897358,269.499394 L55.0150174,244.634651 C55.3898958,243.705796 56.4371105,243.261979 57.3539328,243.639841 L70.6417433,249.120912 C71.5558491,249.500149 71.997282,250.560913 71.6237618,251.48702 L61.5998385,276.353138 Z" id="Fill-58" fill="#322F31"></path>
                            <path d="M113.133198,189.083368 C112.427009,189.790732 111.281504,189.790732 110.576684,189.083368 L100.3561,178.847144 C99.6471735,178.13978 99.6471735,176.992368 100.3561,176.285004 L119.264454,157.34518 C119.970643,156.632332 121.113411,156.632332 121.822337,157.34518 L132.041552,167.581404 C132.746373,168.288768 132.746373,169.434808 132.041552,170.13806 L113.133198,189.083368 Z" id="Fill-59" fill="#322F31"></path>
                            <path d="M38.2806619,265.234084 C37.5786298,265.94133 36.4318404,265.94133 35.7284398,265.234084 L25.5044979,254.992718 C24.8010973,254.288213 24.8010973,253.139623 25.5044979,252.436489 L44.4155745,233.495718 C45.1230806,232.782989 46.2685014,232.782989 46.9719021,233.495718 L57.193107,243.731602 C57.8992446,244.441589 57.8992446,245.584697 57.193107,246.291943 L38.2806619,265.234084 Z" id="Fill-60" fill="#322F31"></path>
                            <path d="M118.009384,220.074142 C117.007385,220.074142 116.197286,219.28897 116.197286,218.317485 L116.197286,204.26157 C116.197286,203.287424 117.007385,202.500921 118.009384,202.500921 L144.796081,202.500921 C145.793968,202.500921 146.604066,203.287424 146.604066,204.26157 L146.604066,218.317485 C146.604066,219.28897 145.793968,220.074142 144.796081,220.074142 L118.009384,220.074142 Z" id="Fill-61" fill="#322F31"></path>
                            <path d="M11.5775936,220.074142 C10.582358,220.074142 9.77355763,219.28897 9.77355763,218.317485 L9.77355763,204.26157 C9.77355763,203.287424 10.582358,202.500921 11.5775936,202.500921 L38.3708179,202.500921 C39.3701661,202.500921 40.1803373,203.287424 40.1803373,204.26157 L40.1803373,218.317485 C40.1803373,219.28897 39.3701661,220.074142 38.3708179,220.074142 L11.5775936,220.074142 Z" id="Fill-62" fill="#322F31"></path>
                            <path d="M86.9599983,171.406301 C86.9599983,172.403332 86.1734878,173.212218 85.2062924,173.212218 L71.1713313,173.212218 C70.2028074,173.212218 69.4176254,172.403332 69.4176254,171.406301 L69.4176254,144.563376 C69.4176254,143.563599 70.2028074,142.751967 71.1713313,142.751967 L85.2062924,142.751967 C86.1734878,142.751967 86.9599983,143.563599 86.9599983,144.563376 L86.9599983,171.406301 Z" id="Fill-63" fill="#322F31"></path>
                            <path d="M86.9599983,278.011686 C86.9599983,279.012837 86.1734878,279.823096 85.2062924,279.823096 L71.1713313,279.823096 C70.2028074,279.823096 69.4176254,279.012837 69.4176254,278.011686 L69.4176254,251.172882 C69.4176254,250.173104 70.2028074,249.362845 71.1713313,249.362845 L85.2062924,249.362845 C86.1734878,249.362845 86.9599983,250.173104 86.9599983,251.172882 L86.9599983,278.011686 Z" id="Fill-64" fill="#322F31"></path>
                            <path d="M123.214236,211.287531 C123.214236,236.201219 103.053313,256.392134 78.1888119,256.392134 C53.3202215,256.392134 33.1633881,236.201219 33.1633881,211.287531 C33.1633881,186.379305 53.3202215,166.182929 78.1888119,166.182929 C103.053313,166.182929 123.214236,186.379305 123.214236,211.287531" id="Fill-65" fill="#0B43A4"></path>
                            <path d="M117.366778,211.284137 C117.366778,232.960989 99.827986,250.534393 78.1874564,250.534393 C56.5523487,250.534393 39.0108458,232.960989 39.0108458,211.284137 C39.0108458,189.611358 56.5523487,172.040669 78.1874564,172.040669 C99.827986,172.040669 117.366778,189.611358 117.366778,211.284137" id="Fill-66" fill="#909090"></path>
                            <path d="M100.993897,211.87056 C100.993897,224.166903 91.0425279,234.13272 78.7715024,234.13272 C66.5018471,234.13272 56.5532186,224.166903 56.5532186,211.87056 C56.5532186,199.579707 66.5018471,189.613891 78.7715024,189.613891 C91.0425279,189.613891 100.993897,199.579707 100.993897,211.87056" id="Fill-67" fill="#EBF2FF"></path>
                            <polygon id="Fill-68" fill="#282828" points="150.112541 83.8707639 115.350881 105.262427 112.688812 100.880031 147.446399 79.4883682"></polygon>
                            <polygon id="Fill-69" fill="#0056EC" points="173.285227 161.496736 136.078642 22.0997515 147.989337 19.7394142 185.197286 159.135042"></polygon>
                            <polygon id="Fill-70" fill="#282828" points="13.2820322 34.9695397 178.180337 34.9695397 178.180337 0.994644351 13.2820322 0.994644351"></polygon>
                            <text id="Agritecture" font-family="Helvetica" font-size="14" font-weight="normal" line-spacing="20" fill="#FFFFFF">
                                <tspan x="60.2959233" y="20.4016736">Agritecture</tspan>
                            </text>
                            <polygon id="Fill-71" fill="#909090" points="227.298981 50.376569 249.51932 50.376569 249.51932 41.0041841 227.298981 41.0041841"></polygon>
                            <polygon id="Fill-72" fill="#0B43A4" points="166.485422 202.500921 172.33288 202.500921 172.33288 162.668285 166.485422 162.668285"></polygon>
                            <polygon id="Fill-73" fill="#0B43A4" points="174.671863 202.500921 180.51932 202.500921 180.51932 162.668285 174.671863 162.668285"></polygon>
                            <polygon id="Fill-74" fill="#0B43A4" points="181.688812 202.500921 187.536269 202.500921 187.536269 162.668285 181.688812 162.668285"></polygon>
                            <polygon id="Fill-75" fill="#0B43A4" points="189.875253 202.500921 195.72271 202.500921 195.72271 162.668285 189.875253 162.668285"></polygon>
                            <g id="Group-33" transform="translate(68.000000, 39.000000)">
                                <g id="Group-11" transform="translate(0.669492, 27.525105)">
                                    <path d="M72.060371,68.4448044 C71.6103411,73.3105767 71.0694976,76.4426081 70.4378405,77.8408985 C69.3535712,77.8408985 60.8629393,77.8408985 59.7846497,77.8408985 C59.8760075,72.3111035 58.6585427,69.1790721 56.1322551,68.4448044 C52.3428238,67.3434028 37.659882,69.8139675 28.9706922,68.4448044 C20.2815025,67.0756414 17.4366173,67.0756414 13.4184423,64.1678373 C13.41506,64.1653897 12.2900939,59.1048264 19.4242148,51.2982741 C21.0590688,49.5093258 25.4971334,46.7499482 32.7384087,43.0201412 C36.783641,47.2060524 41.3214456,49.7169624 46.3518224,50.5528713 C53.8973876,51.8067346 64.8073739,53.5924022 66.6794586,54.7370799 C70.7684167,57.2546018 72.7354157,61.146146 72.060371,68.4448044 Z" id="Fill-3" fill="#00AD9F"></path>
                                    <path d="M13.4184423,64.1678373 C13.4184423,62.6420435 16.3646391,57.4690466 20.9603823,52.1922564 C24.0242112,48.6743962 27.95022,45.6170245 32.7384087,43.0201412 C24.523785,32.9705632 21.2397709,23.0325048 26.2490395,3.85883286 L19.4397903,0.0787046032 C-3.7737976,28.2611053 -1.39436224,48.2115686 13.4079544,64.1678373 L13.4184423,64.1678373 Z" id="Fill-5" fill="#D8742A"></path>
                                    <path d="M49.7800507,31.7103204 C49.6515743,31.4295987 47.3391352,27.9169743 47.3391352,27.9169743 L12.8068684,33.722487 L21.3164634,17.8277463 C22.880467,14.9051649 23.9803823,11.6980164 23.9974251,8.39985773 C24.0184008,4.13263258 21.6088128,0.787046032 16.7175327,2.46240298 C12.2247917,3.99932186 8.6562941,7.41797294 6.69375154,11.6582796 C-3.48603669,33.66865 -2.72173321,46.4780164 13.6144344,46.7561744 C18.2854692,46.8369299 22.8843999,45.6025238 26.9930227,43.4285335 L49.7800507,31.7103204 Z" id="Fill-7" fill="#EF832B"></path>
                                    <path d="M48.8245025,30.5444288 L59.3765711,26.8607066 C59.2505969,25.0516893 52.1091334,23.871863 47.5237318,26.225223 L48.8245025,30.5444288 Z" id="Fill-9" fill="#FFB9A3" transform="translate(53.450151, 27.727835) rotate(-16.000000) translate(-53.450151, -27.727835) "></path>
                                </g>
                                <g id="Group-32" transform="translate(19.000000, 0.000000)">
                                    <path d="M0.927514037,27.4562325 L4.39195443,21.0106212 L11.1152104,23.8794482 C9.00014138,26.6205195 7.57212459,28.5028083 7.67952484,31.2694307 L0.927514037,27.4562325 Z" id="Fill-15" fill="#FFB9A3"></path>
                                    <path d="M2.98326318,19.3620287 C3.94186471,23.6430111 7.03207514,28.215784 10.5469474,28.4144794 C14.1793971,28.6187327 17.5960577,26.1148929 19.3292867,22.7509661 C19.3597185,22.7731977 19.3929169,22.788482 19.4330315,22.791261 C19.877059,22.8259979 20.4856949,22.8259979 20.6323209,22.4299966 C20.7637309,22.0687323 20.3819502,21.6004781 19.9780373,21.2308769 C20.1481787,20.7251068 20.2878883,20.2096104 20.3778004,19.6857771 C22.4513122,7.62093759 19.0166692,4.42513765 14.3481552,3.74846175 C10.7807189,3.23018636 5.99186107,7.74876958 3.82705385,12.3034792 C3.42729073,11.9185938 1.5917002,18.5839209 2.98326318,19.3620287" id="Fill-17" fill="#FFB9A3"></path>
                                    <path d="M16.8355049,23.4913959 C16.2524915,22.7162523 15.7958836,21.5520797 16.2228249,19.9522531 C16.2589407,19.8196628 16.3801869,19.7468109 16.4975635,19.7846939 C16.6123604,19.8240339 16.6807226,19.9624524 16.6458965,20.0964998 C15.8848835,22.9537493 18.2904587,24.1893166 18.3936469,24.24177 C18.5058641,24.2971374 18.5548785,24.4428411 18.5071539,24.5696033 C18.4581395,24.6963655 18.3278644,24.7517329 18.2169371,24.6978225 C18.2027487,24.6905373 17.4494747,24.3073366 16.8355049,23.4913959" id="Fill-19" fill="#B54444"></path>
                                    <path d="M29.4748165,8.97924233 C28.3862398,9.01918688 27.169843,8.84799594 26.1472832,8.45710996 C23.8366913,7.56977026 23.2790591,5.05611665 21.8969178,3.2258002 C20.2478996,1.04168914 18.0005154,0.786329321 15.4708035,0.613711791 C15.9006157,0.302714919 16.465271,0.25421082 16.9596955,0.0687539699 C13.0703162,-0.322132007 9.43095837,0.964653215 6.56835271,3.64949777 C6.651225,3.23435974 6.86472651,2.8063824 6.88017727,2.38981778 C5.20728063,3.34135408 3.8405901,4.99334664 2.90230718,6.66388488 C0.164712265,11.5342671 0.114655299,18.1514675 3.7596316,22.3299529 C4.9746237,21.970452 7.04732647,20.2464593 7.58248484,19.1351448 C8.06005399,18.1450905 7.69064021,18.5316967 6.97709572,18.0181239 C6.50935887,17.682875 6.15820509,16.9695794 6.03740818,16.3989429 C5.78036361,15.1934734 6.30288045,13.9409264 7.13160338,13.1035174 C8.49127084,11.7297101 9.47731067,12.0321474 10.8749027,13.1234896 C11.5182165,13.6256497 12.6208394,15.100745 12.0196641,15.9666858 C12.7233763,15.5914923 13.7670053,14.2647626 13.9706745,13.9252339 C14.5592083,12.9437391 14.9749744,12.1648204 14.611179,10.9793231 C15.4174281,11.7339898 16.348688,12.2561222 17.3473693,12.6969389 C19.4402459,13.6185168 21.5429548,14.1406491 23.8282636,14.029375 C24.9013896,13.9765911 25.9632786,13.9138211 27.0026938,13.5799988 C28.0266583,13.2490297 28.743012,12.5271745 29.6405611,12.0221613 C28.7696997,12.0435601 27.2358599,12.1847927 26.74284,11.3003061 C27.962046,11.000722 28.8764504,10.0563186 29.4748165,8.97924233 Z" id="Fill-30" fill="#282828"></path>
                                </g>
                            </g>
                        </g>
                        <path d="M294.639575,59.1379707 C290.756045,58.5352527 286.897721,59.8894226 285.320146,63.5515618 C281.645221,65.7090676 280.619579,69.2069077 281.257563,72.4626228 C281.017667,72.8111098 280.802978,73.1725676 280.630879,73.5573733 C280.045915,73.8384111 279.513103,74.2111105 279.023751,74.6495295 C274.861211,73.8401406 270.677811,76.5484805 269.419228,80.5219231 C269.123704,81.4592924 268.965512,82.3689902 268.929006,83.2415046 C266.799496,84.8083986 265.267118,87.2132177 264.948996,90.2164312 C264.694324,92.6307624 265.431395,94.7095776 266.740391,96.313655 C266.68824,97.5043907 266.878592,98.7496045 267.360991,100.019895 C267.274942,100.626937 267.249735,101.236573 267.281895,101.841021 C267.221921,101.765789 267.170639,101.690557 267.10545,101.615326 C264.742998,98.8239714 260.79254,99.1015503 257.816442,100.421996 C250.630868,103.611991 252.114571,114.945166 258.12935,118.449059 C258.175417,118.475001 258.222353,118.498349 258.266681,118.524291 C259.251471,120.422377 260.693453,122.100822 262.51527,123.347765 C262.538738,123.404837 262.559599,123.464504 262.583067,123.518982 C262.885544,124.224603 263.247126,124.849804 263.656514,125.407556 C266.079809,134.088599 276.546566,133.170253 282.075468,128.53702 C284.032879,126.898354 285.234965,124.564443 285.679989,122.098228 C287.985944,118.747392 289.088074,114.646834 287.880772,111.223361 C288.01202,110.342199 288.053741,109.480926 288.007674,108.645595 C289.560912,105.751338 290.291899,102.436821 289.566996,99.3713467 C290.218018,96.5505916 289.570473,93.8768409 288.092854,91.7054993 C288.334488,91.5403356 288.573515,91.3708481 288.808196,91.1935781 C293.43662,89.620631 296.306677,85.5148845 296.911632,81.1505831 C297.603505,80.2140786 298.200637,79.1660237 298.702158,78.0418723 C299.221933,76.8736197 299.581776,75.6595363 299.764306,74.4411292 C300.67956,73.297089 301.389686,72.0224744 301.707809,70.5896138 C302.895119,65.2507597 300.449225,60.0381565 294.639575,59.1379707" id="Fill-76" fill="#FFFFFF"></path>
                    </g>
                </g>
            </g>
        </g>
    </g>
</svg>