<?xml version="1.0" encoding="UTF-8"?>
<svg width="225px" height="225px" viewBox="0 0 225 225" version="1.1" xmlns="http://www.w3.org/2000/svg" xmlns:xlink="http://www.w3.org/1999/xlink">
    <!-- Generator: Sketch 55.2 (78181) - https://sketchapp.com -->
    <title>Group</title>
    <desc>Created with Sketch.</desc>
    <g id="Page-1" stroke="none" stroke-width="1" fill="none" fill-rule="evenodd">
        <g id="Group" transform="translate(0.000000, 0.000000)">
            <rect id="Rectangle" fill="#FFFFFF" x="0" y="0" width="225" height="225"></rect>
            <g id="icon-save-money" transform="translate(0.000000, 9.000000)">
                <path d="M112.5,216 C174.632034,216 225,186.906122 225,119.020408 C225,51.1346939 174.632034,22.0408163 112.5,22.0408163 C50.3679656,22.0408163 -5.89999729e-08,51.1346939 -5.89999729e-08,119.020408 C-5.89999729e-08,186.906122 50.3679656,216 112.5,216 Z" id="Oval" fill="#94D6AF" fill-rule="nonzero"></path>
                <path d="M72.8078917,48.9194891 C80.1005861,44.8988076 88.2224643,41.9413134 96.8952675,40.292709 L127.65448,40.0504746 C162.521332,46.099679 188.823529,73.2355741 188.823529,105.795918 C188.823529,127.926398 176.672985,147.551004 157.941176,159.752064 L157.941176,178.02449 C157.941176,182.442768 154.359454,186.02449 149.941176,186.02449 L139.470588,186.02449 C135.05231,186.02449 131.470588,182.442768 131.470588,178.02449 L131.470588,170.78809 C125.540288,172.102172 119.333024,172.8 112.941176,172.8 C106.231579,172.8 99.725372,172.031067 93.5294117,170.587555 L93.5294117,178.02449 C93.5294117,182.442768 89.9476897,186.02449 85.5294117,186.02449 L75.0588235,186.02449 C70.6405455,186.02449 67.0588235,182.442768 67.0588235,178.02449 L67.0588235,159.168585 C55.8453679,151.640964 47.0761828,141.421062 41.9869659,129.6 L34.9705882,129.6 C30.2761678,129.6 26.4705882,125.79442 26.4705882,121.1 L26.4705882,95.7816327 C26.4705882,91.0872123 30.2761678,87.2816327 34.9705882,87.2816327 L39.9927785,87.2816327 C42.8142684,78.5979245 47.5706549,70.6366242 53.8235294,63.7848462 L53.8235294,43.7179903 C53.8235294,42.361729 59.054732,43.6688062 69.5171373,47.6392218 C70.3843256,47.9683142 71.4812437,48.39507 72.8078917,48.9194891 Z" id="Combined-Shape" stroke="#000000" stroke-width="4"></path>
                <path d="M96.2591165,37.9180701 L103.653758,44.5356282 L115.32647,45.844898 L126.78257,41.2974688 C129.878038,38.1576597 131.425772,36.5877551 131.425772,36.5877551 C131.425772,36.5877551 119.703554,37.0311934 96.2591165,37.9180701 Z" id="Path-2" fill="#94D6AF" fill-rule="nonzero"></path>
                <ellipse id="Oval" stroke="#000000" stroke-width="4" cx="112.058823" cy="22.922449" rx="22.9411765" ry="22.922449"></ellipse>
                <path d="M115.588745,36.1469388 L102.274067,36.1469388 L102.274067,32.3685131 L115.410045,32.3685131 C117.169944,32.4309242 118.772416,31.40936 119.381143,29.8369679 C119.808396,28.6743301 119.613265,27.3865199 118.858257,26.3860585 C118.103249,25.3855971 116.883132,24.7980638 115.588745,24.8116618 L107.964237,24.8116618 C104.128612,24.8820228 100.76189,22.3948831 99.883053,18.8417493 C99.37929,16.6101635 99.962588,14.2814936 101.470067,12.5059949 C102.977547,10.7304961 105.247677,9.69841883 107.646549,9.69795918 L119.559843,9.69795918 L119.559843,13.4763848 L107.825249,13.4763848 C106.06535,13.4139738 104.462878,14.435538 103.854151,16.00793 C103.426898,17.1705678 103.622029,18.4583781 104.377037,19.4588395 C105.132045,20.4593009 106.352162,21.0468341 107.646549,21.0332362 L115.271057,21.0332362 C119.106682,20.9628751 122.473404,23.4500149 123.352241,27.0031487 C123.856004,29.2347345 123.272706,31.5634043 121.765227,33.3389031 C120.257747,35.1144019 117.987617,36.1464791 115.588745,36.1469388 Z" id="Path" fill="#000000" fill-rule="nonzero"></path>
                <rect id="Rectangle" fill="#000000" fill-rule="nonzero" x="108.529412" y="5.28979592" width="5.29411765" height="7.05306122"></rect>
                <rect id="Rectangle" fill="#000000" fill-rule="nonzero" x="108.529412" y="35.2653061" width="5.29411765" height="5.28979592"></rect>
                <path d="M12.8330439,186.02449 L214.087367,186.02449" id="Line-3" stroke="#000000" stroke-width="4" stroke-linecap="round"></path>
                <path d="M135,60.6834204 C130.296834,57.2639641 121.903567,54.6612245 112.682711,54.6612245 C103.025254,54.6612245 94.5821739,57.1387242 89.9999999,60.8326531" id="Path" stroke="#000000" stroke-width="4" stroke-linecap="round"></path>
                <path d="M188.823529,106.425237 C191.455699,113.006435 194.898577,115.618122 199.152164,114.260298 C202.934744,114.260298 204.80141,112.46802 204.80141,109.734497 C204.80141,106.425237 201.51604,105.015967 199.152164,106.425237 C196.788289,107.834507 195.309483,112.218362 200.363902,115.702467 C205.418321,119.186573 209.986621,114.260298 209.96113,114.260298" id="Path-3" stroke="#000000" stroke-width="4" stroke-linecap="round"></path>
            </g>
        </g>
    </g>
</svg>