<?xml version="1.0" encoding="UTF-8"?>
<svg width="225px" height="225px" viewBox="0 0 225 225" version="1.1" xmlns="http://www.w3.org/2000/svg" xmlns:xlink="http://www.w3.org/1999/xlink">
    <!-- Generator: Sketch 55.2 (78181) - https://sketchapp.com -->
    <title>Group</title>
    <desc>Created with Sketch.</desc>
    <g id="Page-1" stroke="none" stroke-width="1" fill="none" fill-rule="evenodd">
        <g id="Group">
            <rect id="Rectangle" fill="#FFFFFF" x="1.42108547e-14" y="0" width="225" height="225"></rect>
            <g id="icon-autonomy">
                <g transform="translate(0.000000, 2.000000)">
                    <path d="M112.5,223 C174.632034,223 225,193.913043 225,126.043478 C225,58.173913 174.632034,29.0869565 112.5,29.0869565 C50.3679656,29.0869565 0,58.173913 0,126.043478 C0,193.913043 50.3679656,223 112.5,223 Z" id="Oval-Copy-2" fill="#BEEBF0" fill-rule="nonzero"></path>
                    <g id="Group-33" transform="translate(27.352941, 0.000000)" stroke="#000000">
                        <path d="M17.2058824,109.399877 L0.441176471,113.806992" id="Line-7" stroke-width="4" stroke-linecap="round"></path>
                        <path d="M17.3245335,70.1038755 L0.322525318,66.7235467" id="Line-7-Copy" stroke-width="4" stroke-linecap="round"></path>
                        <path d="M32.7972805,36.9231451 L20.3811982,24.8379656" id="Line-7-Copy-2" stroke-width="4" stroke-linecap="round"></path>
                        <path d="M66.5002973,17.0136654 L63.2687262,2.27373675e-13" id="Line-7-Copy-3" stroke-width="4" stroke-linecap="round"></path>
                        <path d="M105.866958,17.3721886 L110.136033,0.588289729" id="Line-7-Copy-4" stroke-width="4" stroke-linecap="round"></path>
                        <path d="M141.617647,36.0920444 L153.930426,23.9018534" id="Line-7-Copy-5" stroke-width="4" stroke-linecap="round"></path>
                        <path d="M149.558824,70.0274504 L166.24398,65.3287309" id="Line-7-Copy-6" stroke-width="4" stroke-linecap="round"></path>
                        <path d="M150.244875,109.448889 L167.046483,113.713464" id="Line-7-Copy-7" stroke-width="4" stroke-linecap="round"></path>
                        <path d="M71.0294118,58.1083506 L71.0294118,46.378138 C71.0294118,39.8063861 76.3624905,34.4789285 82.9411765,34.4789285 L82.9411765,34.4789285 C89.5198625,34.4789285 94.8529412,39.8063861 94.8529412,46.378138 L94.8529412,80.7536321 C94.8529412,87.325384 89.5198625,92.6528416 82.9411765,92.6528416 C76.3624905,92.6528416 71.0294118,87.325384 71.0294118,80.7536321 L71.0294118,79.8738972 L71.0294118,79.8738972" id="Path" stroke-width="4"></path>
                        <path d="M47.2058824,101.907782 L47.2058824,101.027487 C47.2058824,90.8523384 47.2058824,83.6441575 47.2058824,79.4029444 M47.2058824,57.9104947 C47.2058824,55.3477488 47.2058824,51.5036299 47.2058824,46.378138 C47.2058824,39.8063861 52.5389611,34.4789285 59.1176471,34.4789285 C65.696333,34.4789285 71.0294118,39.8063861 71.0294118,46.378138 C71.0294118,50.7448131 71.0294118,53.2874883 71.0294118,56.9220906" id="Shape" stroke-width="4" stroke-linecap="round"></path>
                        <rect id="Rectangle-Copy-23" stroke-width="4" x="94.8529412" y="34.4789285" width="23.8235294" height="58.173913" rx="11.9117647"></rect>
                        <rect id="Rectangle-Copy-24" stroke-width="4" x="118.676471" y="40.648889" width="20.2941176" height="48.4782609" rx="10.1470588"></rect>
                        <path d="M40.0408608,79.1656702 L71.0294118,79.1656702 C79.9044925,78.2459192 84.3420328,71.1558064 84.3420328,57.8953319 C71.453217,57.8953319 58.5644012,57.8953319 45.6755854,57.8953319 C35.1821751,57.8953319 26.6755854,66.4019217 26.6755854,76.8953319 L26.6755854,109.94725 C26.6755854,116.626881 29.7102926,122.944756 34.9242543,127.119929 L44.9949238,135.184199 C47.6019046,137.271785 49.1192582,140.430723 49.1192582,143.770538 L49.1192582,197.564166" id="Path-11" stroke-width="4" stroke-linecap="round" stroke-linejoin="round"></path>
                        <path d="M60.8823529,148.623197 L60.8823529,179.473" id="Line-6" stroke-width="4" stroke-linecap="round" stroke-linejoin="round"></path>
                        <path d="M138.970588,76.8841289 L138.970588,117.010689 C138.970588,121.362482 138.082959,125.668547 136.361975,129.665586 L132.810577,137.913815 C132.057647,139.66252 131.669309,141.546423 131.669309,143.450332 L131.669309,185.154677" id="Path-12" stroke-width="4" stroke-linecap="round"></path>
                        <rect id="Rectangle" stroke-width="7" x="121.294118" y="151.682486" width="1" height="1"></rect>
                        <rect id="Rectangle-Copy-25" stroke-width="7" x="121.294118" y="163.140984" width="1" height="1"></rect>
                        <rect id="Rectangle-Copy-26" stroke-width="7" x="121.294118" y="173.718059" width="1" height="1"></rect>
                    </g>
                </g>
                <rect id="Rectangle" x="0" y="0" width="225" height="2"></rect>
            </g>
        </g>
    </g>
</svg>