<?xml version="1.0" encoding="UTF-8"?>
<svg width="270px" height="241px" viewBox="0 0 270 241" version="1.1" xmlns="http://www.w3.org/2000/svg" xmlns:xlink="http://www.w3.org/1999/xlink">
    <!-- Generator: Sketch 55.2 (78181) - https://sketchapp.com -->
    <title>icon-graph</title>
    <desc>Created with Sketch.</desc>
    <g id="Page-1" stroke="none" stroke-width="1" fill="none" fill-rule="evenodd">
        <g id="icon-graph" fill="#FFFFFF" fill-rule="nonzero">
            <path d="M97.1972421,50.5216535 L27,111.141732 L34.7569285,120 L97.1972421,66.1417323 L141.607138,104.527559 L207.62985,44.5570866 L232.795458,69.6555118 L246,0 L176.187644,13.3169291 L199.043937,36.1122047 L141.311072,88.6122047 L97.1972421,50.5216535 Z M231,15 L225.009662,46 L200,20.9004831 L231,15 Z" id="Shape"></path>
            <polygon id="Path" points="270 229.061986 248.420296 229.061986 248.420296 117.829539 236.481318 117.829539 236.481318 229.061986 212.603361 229.061986 212.603361 85 200.664382 85 200.664382 229.061986 176.786425 229.061986 176.786425 147.674574 164.847446 147.674574 164.847446 229.061986 140.969489 229.061986 140.969489 171.550603 129.030511 171.550603 129.030511 229.061986 105.152554 229.061986 105.152554 117.829539 93.2135751 117.829539 93.2135751 229.061986 69.335618 229.061986 69.335618 195.426631 57.3966394 195.426631 57.3966394 229.061986 33.5186823 229.061986 33.5186823 168.566099 21.5797037 168.566099 21.5797037 229.061986 0 229.061986 0 241 270 241"></polygon>
        </g>
    </g>
</svg>