<?xml version="1.0" encoding="UTF-8"?>
<svg width="225px" height="225px" viewBox="0 0 225 225" version="1.1" xmlns="http://www.w3.org/2000/svg" xmlns:xlink="http://www.w3.org/1999/xlink">
    <!-- Generator: Sketch 55.2 (78181) - https://sketchapp.com -->
    <title>Group 2</title>
    <desc>Created with Sketch.</desc>
    <g id="Page-1" stroke="none" stroke-width="1" fill="none" fill-rule="evenodd">
        <g id="Group-2">
            <rect id="Rectangle" fill="#FFFFFF" x="0" y="0" width="225" height="225"></rect>
            <g id="Group">
                <rect id="Rectangle" fill="#FFFFFF" x="0" y="0" width="225" height="13"></rect>
                <path d="M112.5,225 C174.632034,225 225,195.85 225,127.833333 C225,59.8166667 174.632034,30.6666667 112.5,30.6666667 C50.3679656,30.6666667 0,59.8166667 0,127.833333 C0,195.85 50.3679656,225 112.5,225 Z" id="Oval-Copy-4" fill="#C8DBFB" fill-rule="nonzero"></path>
                <path d="M13.7153969,197.616667 L214.96972,197.616667" id="Line-3-Copy" stroke="#000000" stroke-width="4" stroke-linecap="round"></path>
                <g id="Group-7" transform="translate(42.352941, 97.800000)" stroke="#000000" stroke-width="4">
                    <rect id="Rectangle" x="0" y="0" width="18.5294118" height="99.8166667"></rect>
                    <rect id="Rectangle" fill="#000000" fill-rule="nonzero" x="0" y="68.9" width="18.5294118" height="30.9166667"></rect>
                </g>
                <g id="Group-6" transform="translate(73.235294, 66.883333)" stroke="#000000" stroke-width="4">
                    <rect id="Rectangle-Copy-12" fill="#000000" fill-rule="nonzero" x="0" y="40.6333333" width="18.5294118" height="90.1"></rect>
                    <rect id="Rectangle-Copy-8" x="0" y="0" width="18.5294118" height="130.733333"></rect>
                </g>
                <g id="Group-5" transform="translate(105.000000, 110.166667)" stroke="#000000" stroke-width="4">
                    <rect id="Rectangle-Copy-13" fill="#000000" fill-rule="nonzero" x="0" y="76.85" width="19.4117647" height="10.6"></rect>
                    <rect id="Rectangle-Copy-9" x="0" y="0" width="19.4117647" height="87.45"></rect>
                </g>
                <g id="Group-4" transform="translate(136.764706, 13.000000)" stroke="#000000" stroke-width="4">
                    <rect id="Rectangle-Copy-14" fill="#000000" fill-rule="nonzero" x="0" y="69.7833333" width="18.5294118" height="114.833333"></rect>
                    <rect id="Rectangle-Copy-10" x="0" y="0" width="18.5294118" height="184.616667"></rect>
                </g>
                <g id="Group-3" transform="translate(168.529412, 34.200000)" stroke="#000000" stroke-width="4">
                    <rect id="Rectangle-Copy-15" fill="#000000" fill-rule="nonzero" x="0" y="115.716667" width="18.5294118" height="47.7"></rect>
                    <rect id="Rectangle-Copy-11" x="0" y="0" width="18.5294118" height="163.416667"></rect>
                </g>
            </g>
        </g>
    </g>
</svg>