<?xml version="1.0" encoding="UTF-8"?>
<svg width="57px" height="56px" viewBox="0 0 57 56" version="1.1" xmlns="http://www.w3.org/2000/svg" xmlns:xlink="http://www.w3.org/1999/xlink">
    <!-- Generator: Sketch 55.2 (78181) - https://sketchapp.com -->
    <title>facebook</title>
    <desc>Created with Sketch.</desc>
    <g id="Symbols" stroke="none" stroke-width="1" fill="none" fill-rule="evenodd">
        <path d="M54.6255938,0 L2.3761875,0 C1.06340625,0 0,1.04475 0,2.33275 L0,53.66725 C0,54.95525 1.06340625,56 2.3761875,56 L30.28125,56 L30.28125,35 L23.15625,35 L23.15625,26.25 L30.28125,26.25 L30.28125,19.25 C30.28125,12.01725 34.9427813,8.45775 41.51025,8.45775 C44.6559375,8.45775 47.359875,8.68875 48.1471875,8.79025 L48.1471875,16.35025 L43.5925313,16.352 C40.021125,16.352 39.1875,18.01975 39.1875,20.46625 L39.1875,26.25 L48.09375,26.25 L46.3125,35 L39.1875,35 L39.33,56 L54.6255938,56 C55.9365938,56 57,54.95525 57,53.66725 L57,2.33275 C57,1.04475 55.9365938,0 54.6255938,0" id="facebook" fill="#3B5998"></path>
    </g>
</svg>