<?xml version="1.0" encoding="UTF-8"?>
<svg width="57px" height="56px" viewBox="0 0 57 56" version="1.1" xmlns="http://www.w3.org/2000/svg" xmlns:xlink="http://www.w3.org/1999/xlink">
    <!-- Generator: Sketch 55.2 (78181) - https://sketchapp.com -->
    <title>Path</title>
    <desc>Created with Sketch.</desc>
    <g id="Symbols" stroke="none" stroke-width="1" fill="none" fill-rule="evenodd">
        <path d="M48,47 L39.3411717,47 L39.3411717,34.1883706 C39.3411717,31.1329712 39.2864383,27.2028754 34.8420839,27.2028754 C30.3375228,27.2028754 29.6497061,30.5325879 29.6497061,33.9692652 L29.6497061,47 L21,47 L21,20.6538658 L29.3012366,20.6538658 L29.3012366,24.2561661 L29.4198257,24.2561661 C30.574701,22.1841534 33.3989459,20 37.6115954,20 C46.3798905,20 48,25.4552077 48,32.5511182 L48,47 Z M12.0027248,17 C9.23251589,17 7,14.760218 7,11.9990917 C7,9.23978202 9.23251589,7 12.0027248,7 C14.760218,7 17,9.23978202 17,11.9990917 C17,14.760218 14.760218,17 12.0027248,17 L12.0027248,17 Z M17,47 L8,47 L8,20 L17,20 L17,47 Z M54.6255938,0 L2.3761875,0 C1.06340625,0 0,1.04475 0,2.33275 L0,53.6655 C0,54.95525 1.06340625,56 2.3761875,56 L54.6255938,56 C55.9365938,56 57,54.95525 57,53.6655 L57,2.33275 C57,1.04475 55.9365938,0 54.6255938,0 L54.6255938,0 Z" id="Path" fill="#0077B5"></path>
    </g>
</svg>