<?xml version="1.0" encoding="UTF-8"?>
<svg width="68px" height="57px" viewBox="0 0 68 57" version="1.1" xmlns="http://www.w3.org/2000/svg" xmlns:xlink="http://www.w3.org/1999/xlink">
    <!-- Generator: Sketch 55.2 (78181) - https://sketchapp.com -->
    <title>twitter</title>
    <desc>Created with Sketch.</desc>
    <g id="Symbols" stroke="none" stroke-width="1" fill="none" fill-rule="evenodd">
        <path d="M68,7.38177454 C65.4981667,8.50722956 62.8093333,9.26518905 59.9873333,9.60684504 C62.866,7.85837029 65.0788333,5.08779864 66.1215,1.78608113 C63.427,3.4082293 60.4406667,4.58249231 57.2616667,5.21986734 C54.7173333,2.4693931 51.0906667,0.7525 47.0786667,0.7525 C39.3748333,0.7525 33.1273333,7.08318444 33.1273333,14.8895931 C33.1273333,15.9978217 33.252,17.0773398 33.49,18.1109209 C21.896,17.5223539 11.6138333,11.8950788 4.7345,3.33932389 C3.53316667,5.42945463 2.84466667,7.85549923 2.84466667,10.4480652 C2.84466667,15.3518335 5.30683333,19.68139 9.0525,22.2165349 C6.766,22.1390163 4.61266667,21.5045123 2.73133333,20.4479627 L2.73133333,20.6230973 C2.73133333,27.4734433 7.5395,33.1868502 13.923,34.4845687 C12.7528333,34.8118694 11.5175,34.9812619 10.2481667,34.9812619 C9.34716667,34.9812619 8.4745,34.892259 7.62166667,34.7286087 C9.39816667,40.3443995 14.5491667,44.4327871 20.655,44.5476295 C15.878,48.3374269 9.86283333,50.5969501 3.32916667,50.5969501 C2.2015,50.5969501 1.09083333,50.5309158 0,50.4017181 C6.17383333,54.4097161 13.5065,56.7525 21.386,56.7525 C47.0475,56.7525 61.0781667,35.2109466 61.0781667,16.5289676 C61.0781667,15.9174321 61.064,15.3087676 61.0385,14.7029742 C63.7641667,12.7075884 66.13,10.2183805 68,7.38177454" id="twitter" fill="#1DA1F2"></path>
    </g>
</svg>